<svg width="132" height="116" viewBox="0 0 132 116" fill="none" xmlns="http://www.w3.org/2000/svg">
<g opacity="0.26">
<mask id="mask0" mask-type="alpha" maskUnits="userSpaceOnUse" x="0" y="26" width="11" height="11">
<path d="M5.23717 36.9473C8.12472 36.9473 10.4656 34.6136 10.4656 31.7349C10.4656 28.8561 8.12472 26.5225 5.23717 26.5225C2.34961 26.5225 0.00878906 28.8561 0.00878906 31.7349C0.00878906 34.6136 2.34961 36.9473 5.23717 36.9473Z" fill="url(#paint0_linear)"/>
</mask>
<g mask="url(#mask0)">
<path d="M5.23717 36.9473C8.12472 36.9473 10.4656 34.6136 10.4656 31.7349C10.4656 28.8561 8.12472 26.5225 5.23717 26.5225C2.34961 26.5225 0.00878906 28.8561 0.00878906 31.7349C0.00878906 34.6136 2.34961 36.9473 5.23717 36.9473Z" fill="#24B3AF"/>
</g>
<mask id="mask1" mask-type="alpha" maskUnits="userSpaceOnUse" x="30" y="26" width="11" height="11">
<path d="M35.5184 36.9473C38.406 36.9473 40.7468 34.6136 40.7468 31.7349C40.7468 28.8561 38.406 26.5225 35.5184 26.5225C32.6309 26.5225 30.29 28.8561 30.29 31.7349C30.29 34.6136 32.6309 36.9473 35.5184 36.9473Z" fill="url(#paint1_linear)"/>
</mask>
<g mask="url(#mask1)">
<path d="M35.5184 36.9473C38.406 36.9473 40.7468 34.6136 40.7468 31.7349C40.7468 28.8561 38.406 26.5225 35.5184 26.5225C32.6309 26.5225 30.29 28.8561 30.29 31.7349C30.29 34.6136 32.6309 36.9473 35.5184 36.9473Z" fill="#24B3AF"/>
</g>
<mask id="mask2" mask-type="alpha" maskUnits="userSpaceOnUse" x="60" y="26" width="12" height="11">
<path d="M65.7997 36.9473C68.6872 36.9473 71.0281 34.6136 71.0281 31.7349C71.0281 28.8561 68.6872 26.5225 65.7997 26.5225C62.9121 26.5225 60.5713 28.8561 60.5713 31.7349C60.5713 34.6136 62.9121 36.9473 65.7997 36.9473Z" fill="url(#paint2_linear)"/>
</mask>
<g mask="url(#mask2)">
<path d="M65.7997 36.9473C68.6872 36.9473 71.0281 34.6136 71.0281 31.7349C71.0281 28.8561 68.6872 26.5225 65.7997 26.5225C62.9121 26.5225 60.5713 28.8561 60.5713 31.7349C60.5713 34.6136 62.9121 36.9473 65.7997 36.9473Z" fill="#24B3AF"/>
</g>
<mask id="mask3" mask-type="alpha" maskUnits="userSpaceOnUse" x="90" y="26" width="12" height="11">
<path d="M96.08 36.9473C98.9675 36.9473 101.308 34.6136 101.308 31.7349C101.308 28.8561 98.9675 26.5225 96.08 26.5225C93.1924 26.5225 90.8516 28.8561 90.8516 31.7349C90.8516 34.6136 93.1924 36.9473 96.08 36.9473Z" fill="url(#paint3_linear)"/>
</mask>
<g mask="url(#mask3)">
<path d="M96.08 36.9473C98.9675 36.9473 101.308 34.6136 101.308 31.7349C101.308 28.8561 98.9675 26.5225 96.08 26.5225C93.1924 26.5225 90.8516 28.8561 90.8516 31.7349C90.8516 34.6136 93.1924 36.9473 96.08 36.9473Z" fill="#24B3AF"/>
</g>
<mask id="mask4" mask-type="alpha" maskUnits="userSpaceOnUse" x="0" y="52" width="11" height="12">
<path d="M5.23717 63.0641C8.12472 63.0641 10.4656 60.7304 10.4656 57.8516C10.4656 54.9729 8.12472 52.6392 5.23717 52.6392C2.34961 52.6392 0.00878906 54.9729 0.00878906 57.8516C0.00878906 60.7304 2.34961 63.0641 5.23717 63.0641Z" fill="url(#paint4_linear)"/>
</mask>
<g mask="url(#mask4)">
<path d="M5.23717 63.0641C8.12472 63.0641 10.4656 60.7304 10.4656 57.8516C10.4656 54.9729 8.12472 52.6392 5.23717 52.6392C2.34961 52.6392 0.00878906 54.9729 0.00878906 57.8516C0.00878906 60.7304 2.34961 63.0641 5.23717 63.0641Z" fill="#24B3AF"/>
</g>
<mask id="mask5" mask-type="alpha" maskUnits="userSpaceOnUse" x="30" y="52" width="11" height="12">
<path d="M35.5184 63.0641C38.406 63.0641 40.7468 60.7304 40.7468 57.8516C40.7468 54.9729 38.406 52.6392 35.5184 52.6392C32.6309 52.6392 30.29 54.9729 30.29 57.8516C30.29 60.7304 32.6309 63.0641 35.5184 63.0641Z" fill="url(#paint5_linear)"/>
</mask>
<g mask="url(#mask5)">
<path d="M35.5184 63.0641C38.406 63.0641 40.7468 60.7304 40.7468 57.8516C40.7468 54.9729 38.406 52.6392 35.5184 52.6392C32.6309 52.6392 30.29 54.9729 30.29 57.8516C30.29 60.7304 32.6309 63.0641 35.5184 63.0641Z" fill="#24B3AF"/>
</g>
<mask id="mask6" mask-type="alpha" maskUnits="userSpaceOnUse" x="60" y="52" width="12" height="12">
<path d="M65.7997 63.0641C68.6872 63.0641 71.0281 60.7304 71.0281 57.8516C71.0281 54.9729 68.6872 52.6392 65.7997 52.6392C62.9121 52.6392 60.5713 54.9729 60.5713 57.8516C60.5713 60.7304 62.9121 63.0641 65.7997 63.0641Z" fill="url(#paint6_linear)"/>
</mask>
<g mask="url(#mask6)">
<path d="M65.7997 63.0641C68.6872 63.0641 71.0281 60.7304 71.0281 57.8516C71.0281 54.9729 68.6872 52.6392 65.7997 52.6392C62.9121 52.6392 60.5713 54.9729 60.5713 57.8516C60.5713 60.7304 62.9121 63.0641 65.7997 63.0641Z" fill="#24B3AF"/>
</g>
<mask id="mask7" mask-type="alpha" maskUnits="userSpaceOnUse" x="90" y="52" width="12" height="12">
<path d="M96.08 63.0641C98.9675 63.0641 101.308 60.7304 101.308 57.8516C101.308 54.9729 98.9675 52.6392 96.08 52.6392C93.1924 52.6392 90.8516 54.9729 90.8516 57.8516C90.8516 60.7304 93.1924 63.0641 96.08 63.0641Z" fill="url(#paint7_linear)"/>
</mask>
<g mask="url(#mask7)">
<path d="M96.08 63.0641C98.9675 63.0641 101.308 60.7304 101.308 57.8516C101.308 54.9729 98.9675 52.6392 96.08 52.6392C93.1924 52.6392 90.8516 54.9729 90.8516 57.8516C90.8516 60.7304 93.1924 63.0641 96.08 63.0641Z" fill="#24B3AF"/>
</g>
<mask id="mask8" mask-type="alpha" maskUnits="userSpaceOnUse" x="0" y="78" width="11" height="12">
<path d="M5.23717 89.235C8.12472 89.235 10.4656 86.9013 10.4656 84.0225C10.4656 81.1437 8.12472 78.8101 5.23717 78.8101C2.34961 78.8101 0.00878906 81.1437 0.00878906 84.0225C0.00878906 86.9013 2.34961 89.235 5.23717 89.235Z" fill="url(#paint8_linear)"/>
</mask>
<g mask="url(#mask8)">
<path d="M5.23717 89.235C8.12472 89.235 10.4656 86.9013 10.4656 84.0225C10.4656 81.1437 8.12472 78.8101 5.23717 78.8101C2.34961 78.8101 0.00878906 81.1437 0.00878906 84.0225C0.00878906 86.9013 2.34961 89.235 5.23717 89.235Z" fill="#24B3AF"/>
</g>
<mask id="mask9" mask-type="alpha" maskUnits="userSpaceOnUse" x="30" y="78" width="11" height="12">
<path d="M35.5184 89.235C38.406 89.235 40.7468 86.9013 40.7468 84.0225C40.7468 81.1437 38.406 78.8101 35.5184 78.8101C32.6309 78.8101 30.29 81.1437 30.29 84.0225C30.29 86.9013 32.6309 89.235 35.5184 89.235Z" fill="url(#paint9_linear)"/>
</mask>
<g mask="url(#mask9)">
<path d="M35.5184 89.235C38.406 89.235 40.7468 86.9013 40.7468 84.0225C40.7468 81.1437 38.406 78.8101 35.5184 78.8101C32.6309 78.8101 30.29 81.1437 30.29 84.0225C30.29 86.9013 32.6309 89.235 35.5184 89.235Z" fill="#24B3AF"/>
</g>
<mask id="mask10" mask-type="alpha" maskUnits="userSpaceOnUse" x="60" y="78" width="12" height="12">
<path d="M65.7997 89.235C68.6872 89.235 71.0281 86.9013 71.0281 84.0225C71.0281 81.1437 68.6872 78.8101 65.7997 78.8101C62.9121 78.8101 60.5713 81.1437 60.5713 84.0225C60.5713 86.9013 62.9121 89.235 65.7997 89.235Z" fill="url(#paint10_linear)"/>
</mask>
<g mask="url(#mask10)">
<path d="M65.7997 89.235C68.6872 89.235 71.0281 86.9013 71.0281 84.0225C71.0281 81.1437 68.6872 78.8101 65.7997 78.8101C62.9121 78.8101 60.5713 81.1437 60.5713 84.0225C60.5713 86.9013 62.9121 89.235 65.7997 89.235Z" fill="#24B3AF"/>
</g>
<mask id="mask11" mask-type="alpha" maskUnits="userSpaceOnUse" x="90" y="78" width="12" height="12">
<path d="M96.08 89.235C98.9675 89.235 101.308 86.9013 101.308 84.0225C101.308 81.1437 98.9675 78.8101 96.08 78.8101C93.1924 78.8101 90.8516 81.1437 90.8516 84.0225C90.8516 86.9013 93.1924 89.235 96.08 89.235Z" fill="url(#paint11_linear)"/>
</mask>
<g mask="url(#mask11)">
<path d="M96.08 89.235C98.9675 89.235 101.308 86.9013 101.308 84.0225C101.308 81.1437 98.9675 78.8101 96.08 78.8101C93.1924 78.8101 90.8516 81.1437 90.8516 84.0225C90.8516 86.9013 93.1924 89.235 96.08 89.235Z" fill="#24B3AF"/>
</g>
<mask id="mask12" mask-type="alpha" maskUnits="userSpaceOnUse" x="0" y="104" width="11" height="12">
<path d="M5.23717 115.351C8.12472 115.351 10.4656 113.018 10.4656 110.139C10.4656 107.26 8.12472 104.927 5.23717 104.927C2.34961 104.927 0.00878906 107.26 0.00878906 110.139C0.00878906 113.018 2.34961 115.351 5.23717 115.351Z" fill="url(#paint12_linear)"/>
</mask>
<g mask="url(#mask12)">
<path d="M5.23717 115.351C8.12472 115.351 10.4656 113.018 10.4656 110.139C10.4656 107.26 8.12472 104.927 5.23717 104.927C2.34961 104.927 0.00878906 107.26 0.00878906 110.139C0.00878906 113.018 2.34961 115.351 5.23717 115.351Z" fill="#24B3AF"/>
</g>
<mask id="mask13" mask-type="alpha" maskUnits="userSpaceOnUse" x="30" y="104" width="11" height="12">
<path d="M35.5184 115.351C38.406 115.351 40.7468 113.018 40.7468 110.139C40.7468 107.26 38.406 104.927 35.5184 104.927C32.6309 104.927 30.29 107.26 30.29 110.139C30.29 113.018 32.6309 115.351 35.5184 115.351Z" fill="url(#paint13_linear)"/>
</mask>
<g mask="url(#mask13)">
<path d="M35.5184 115.351C38.406 115.351 40.7468 113.018 40.7468 110.139C40.7468 107.26 38.406 104.927 35.5184 104.927C32.6309 104.927 30.29 107.26 30.29 110.139C30.29 113.018 32.6309 115.351 35.5184 115.351Z" fill="#24B3AF"/>
</g>
<mask id="mask14" mask-type="alpha" maskUnits="userSpaceOnUse" x="60" y="104" width="12" height="12">
<path d="M65.7997 115.351C68.6872 115.351 71.0281 113.018 71.0281 110.139C71.0281 107.26 68.6872 104.927 65.7997 104.927C62.9121 104.927 60.5713 107.26 60.5713 110.139C60.5713 113.018 62.9121 115.351 65.7997 115.351Z" fill="url(#paint14_linear)"/>
</mask>
<g mask="url(#mask14)">
<path d="M65.7997 115.351C68.6872 115.351 71.0281 113.018 71.0281 110.139C71.0281 107.26 68.6872 104.927 65.7997 104.927C62.9121 104.927 60.5713 107.26 60.5713 110.139C60.5713 113.018 62.9121 115.351 65.7997 115.351Z" fill="#24B3AF"/>
</g>
<mask id="mask15" mask-type="alpha" maskUnits="userSpaceOnUse" x="90" y="104" width="12" height="12">
<path d="M96.08 115.351C98.9675 115.351 101.308 113.018 101.308 110.139C101.308 107.26 98.9675 104.927 96.08 104.927C93.1924 104.927 90.8516 107.26 90.8516 110.139C90.8516 113.018 93.1924 115.351 96.08 115.351Z" fill="url(#paint15_linear)"/>
</mask>
<g mask="url(#mask15)">
<path d="M96.08 115.351C98.9675 115.351 101.308 113.018 101.308 110.139C101.308 107.26 98.9675 104.927 96.08 104.927C93.1924 104.927 90.8516 107.26 90.8516 110.139C90.8516 113.018 93.1924 115.351 96.08 115.351Z" fill="#24B3AF"/>
</g>
</g>
<defs>
<linearGradient id="paint0_linear" x1="55.0048" y1="157.655" x2="-16.3957" y2="-24.1475" gradientUnits="userSpaceOnUse">
<stop stop-color="white"/>
<stop offset="1" stop-color="white"/>
</linearGradient>
<linearGradient id="paint1_linear" x1="85.2861" y1="157.655" x2="13.8857" y2="-24.1476" gradientUnits="userSpaceOnUse">
<stop stop-color="white"/>
<stop offset="1" stop-color="white"/>
</linearGradient>
<linearGradient id="paint2_linear" x1="115.567" y1="157.655" x2="44.167" y2="-24.1476" gradientUnits="userSpaceOnUse">
<stop stop-color="white"/>
<stop offset="1" stop-color="white"/>
</linearGradient>
<linearGradient id="paint3_linear" x1="145.848" y1="157.655" x2="74.4472" y2="-24.1476" gradientUnits="userSpaceOnUse">
<stop stop-color="white"/>
<stop offset="1" stop-color="white"/>
</linearGradient>
<linearGradient id="paint4_linear" x1="55.0048" y1="183.773" x2="-16.3969" y2="1.96918" gradientUnits="userSpaceOnUse">
<stop stop-color="white"/>
<stop offset="1" stop-color="white"/>
</linearGradient>
<linearGradient id="paint5_linear" x1="85.2861" y1="183.773" x2="13.8845" y2="1.96912" gradientUnits="userSpaceOnUse">
<stop stop-color="white"/>
<stop offset="1" stop-color="white"/>
</linearGradient>
<linearGradient id="paint6_linear" x1="115.567" y1="183.773" x2="44.1657" y2="1.96912" gradientUnits="userSpaceOnUse">
<stop stop-color="white"/>
<stop offset="1" stop-color="white"/>
</linearGradient>
<linearGradient id="paint7_linear" x1="145.848" y1="183.773" x2="74.446" y2="1.96912" gradientUnits="userSpaceOnUse">
<stop stop-color="white"/>
<stop offset="1" stop-color="white"/>
</linearGradient>
<linearGradient id="paint8_linear" x1="55.0048" y1="209.944" x2="-16.3969" y2="28.1401" gradientUnits="userSpaceOnUse">
<stop stop-color="white"/>
<stop offset="1" stop-color="white"/>
</linearGradient>
<linearGradient id="paint9_linear" x1="85.2861" y1="209.944" x2="13.8845" y2="28.14" gradientUnits="userSpaceOnUse">
<stop stop-color="white"/>
<stop offset="1" stop-color="white"/>
</linearGradient>
<linearGradient id="paint10_linear" x1="115.567" y1="209.944" x2="44.1657" y2="28.14" gradientUnits="userSpaceOnUse">
<stop stop-color="white"/>
<stop offset="1" stop-color="white"/>
</linearGradient>
<linearGradient id="paint11_linear" x1="145.848" y1="209.944" x2="74.446" y2="28.14" gradientUnits="userSpaceOnUse">
<stop stop-color="white"/>
<stop offset="1" stop-color="white"/>
</linearGradient>
<linearGradient id="paint12_linear" x1="55.0048" y1="236.06" x2="-16.3969" y2="54.2565" gradientUnits="userSpaceOnUse">
<stop stop-color="white"/>
<stop offset="1" stop-color="white"/>
</linearGradient>
<linearGradient id="paint13_linear" x1="85.2861" y1="236.06" x2="13.8845" y2="54.2565" gradientUnits="userSpaceOnUse">
<stop stop-color="white"/>
<stop offset="1" stop-color="white"/>
</linearGradient>
<linearGradient id="paint14_linear" x1="115.567" y1="236.06" x2="44.1657" y2="54.2565" gradientUnits="userSpaceOnUse">
<stop stop-color="white"/>
<stop offset="1" stop-color="white"/>
</linearGradient>
<linearGradient id="paint15_linear" x1="145.848" y1="236.06" x2="74.446" y2="54.2565" gradientUnits="userSpaceOnUse">
<stop stop-color="white"/>
<stop offset="1" stop-color="white"/>
</linearGradient>
</defs>
</svg>
