<svg width="518" height="584" viewBox="0 0 518 584" fill="none" xmlns="http://www.w3.org/2000/svg">
<path opacity="0.25" d="M443.928 448.818C458.43 449.019 517.21 449.99 517.814 458.392C518.351 465.656 475.987 487.281 431.172 489.189C422.813 489.558 404.182 489.658 402.604 496.721C401.295 502.646 413.112 507.835 412.138 513.492C409.855 526.648 342.918 517.241 339.024 533.845C337.514 540.272 346.947 544.088 346.443 551.821C345.335 568.525 299.077 585.363 252.147 582.986C199.947 580.308 203.203 556.742 141.939 547.034C94.1701 539.469 60.5002 548.775 42.3392 521.861C38.5123 516.204 32.6041 507.467 33.8462 497.893C41.03 443.295 272.322 446.475 443.928 448.818Z" fill="#20A19E"/>
<path d="M407.607 0.220459H183.062C171.313 0.220459 161.041 9.82778 160.302 21.544L131.298 468.201C130.526 479.917 139.523 489.524 151.305 489.524H375.85C387.599 489.524 397.872 479.917 398.61 468.201L427.614 21.544C428.352 9.82778 419.356 0.220459 407.607 0.220459Z" fill="url(#paint0_linear)"/>
<path d="M400.456 0.220459H183.062C171.313 0.220459 161.041 9.82778 160.302 21.544L131.298 468.201C130.526 479.917 139.523 489.524 151.305 489.524H368.7C380.449 489.524 390.721 479.917 391.46 468.201L420.464 21.544C421.236 9.82778 412.239 0.220459 400.456 0.220459Z" fill="url(#paint1_linear)"/>
<path d="M382.128 456.518H142.98C139.187 456.518 136.199 453.338 136.468 449.588L162.686 45.4117C162.921 41.9972 165.774 39.3192 169.198 39.3192H408.345C412.139 39.3192 415.126 42.4993 414.858 46.2485L388.607 450.392C388.439 453.84 385.585 456.518 382.128 456.518Z" fill="url(#paint2_linear)"/>
<path d="M328.988 26.0966H242.078C240.164 26.0966 238.721 24.5568 238.821 22.6487C238.956 20.7407 240.601 19.2008 242.514 19.2008H329.425C331.338 19.2008 332.782 20.7407 332.681 22.6487C332.547 24.5233 330.902 26.0966 328.988 26.0966Z" fill="url(#paint3_linear)"/>
<path d="M264.871 473.49C264.535 480.252 258.761 485.708 251.98 485.708C245.199 485.708 240.029 480.252 240.365 473.49C240.701 466.728 246.475 461.271 253.256 461.271C260.037 461.271 265.24 466.761 264.871 473.49Z" fill="url(#paint4_linear)"/>
<path d="M146.472 22.3139C126.095 22.1466 105.585 25.3602 87.39 32.892C45.0928 50.3994 9.20725 96.6953 23.2728 143.995C27.8382 159.36 25.4212 176.299 40.7623 182.994C49.0539 186.609 71.6796 188.751 80.2733 185.906C103.134 178.341 118.139 157.62 105.719 134.656C101.724 127.291 96.588 120.596 93.1639 112.964C89.7399 105.332 88.1621 96.2936 91.6533 88.6948C98.535 73.7984 121.396 69.045 136.2 69.5136C153.689 70.0492 169.534 78.6858 178.967 93.4817C190.683 111.926 193.67 134.355 191.958 155.779C190.112 178.676 180.444 196.183 165.908 213.757C153.421 228.888 139.657 243.416 131.332 261.191C123.712 277.494 121.228 295.57 120.859 313.412C120.791 316.86 103.537 349.465 103.604 359.44C103.604 360.846 123.175 365.499 124.585 365.533C131.936 365.6 152.816 365.834 160.47 365.934C162.048 365.968 163.357 364.696 163.357 363.123C163.894 314.684 178.833 268.489 216.665 235.951C230.429 224.101 245.266 214.46 255.975 199.53C271.215 178.24 278.768 157.252 276.586 130.974C274.606 106.972 266.683 82.9371 250.973 64.325C234.188 44.24 209.481 31.7539 183.834 26.3309C171.85 23.8203 159.195 22.4144 146.472 22.3139Z" fill="url(#paint5_linear)"/>
<path d="M184.037 420.231C184.037 442.525 171.65 462.208 149.326 462.208C144.492 462.208 128.077 462.242 123.78 460.702C108.204 455.078 108.137 443.161 108.137 425.687C108.137 403.393 115.69 381.5 138.013 381.5C160.337 381.5 184.037 397.937 184.037 420.231Z" fill="url(#paint6_linear)"/>
<path d="M127.135 17.2257C106.759 17.0583 86.2477 20.2719 68.0532 27.8038C25.7559 45.3112 -10.1296 91.6071 3.90235 138.907C8.46776 154.272 19.0421 173.621 34.3832 180.316C42.6748 183.931 52.3428 183.697 60.9701 180.851C83.8307 173.286 98.8362 152.565 86.4156 129.601C82.4208 122.237 77.2847 115.542 73.8607 107.909C70.4366 100.277 68.8588 91.2388 72.35 83.64C79.2317 68.7437 102.092 63.9902 116.896 64.4589C134.386 64.9945 150.231 73.631 159.664 88.4269C171.379 106.872 174.367 129.3 172.655 150.724C170.809 173.621 161.141 191.128 146.605 208.702C134.117 223.833 120.354 238.361 112.029 256.137C104.409 272.439 101.925 290.515 101.555 308.357C101.488 311.805 102.663 347.925 102.73 357.9C102.73 359.306 103.872 360.445 105.281 360.445C112.633 360.511 133.513 360.746 141.167 360.846C142.745 360.88 144.054 359.608 144.054 358.034C144.591 309.596 159.529 263.401 197.362 230.863C211.125 219.013 225.963 209.372 236.672 194.442C251.912 173.152 259.465 152.163 257.283 125.885C255.302 101.884 247.38 77.8489 231.67 59.2368C214.818 39.1518 190.145 26.6656 164.464 21.2762C152.513 18.7655 139.858 17.3261 127.135 17.2257Z" fill="url(#paint7_linear)"/>
<path d="M129.25 460.97C151.59 460.97 169.701 442.91 169.701 420.632C169.701 398.355 151.59 380.295 129.25 380.295C106.909 380.295 88.7988 398.355 88.7988 420.632C88.7988 442.91 106.909 460.97 129.25 460.97Z" fill="url(#paint8_linear)"/>
<path d="M177.657 154.942L173.561 178.106C166.948 206.426 166.344 230.026 169.768 249.944C164.095 250.178 158.153 250.58 151.943 251.182C144.289 251.919 137.072 252.923 130.324 254.061C133.883 225.273 153.118 177.437 153.118 177.437C164.699 160.766 166.075 171.646 177.657 154.942Z" fill="url(#paint9_linear)"/>
<path d="M130.726 106.169C135.392 106.035 139.823 108.043 142.845 111.592L172.151 146.205C172.151 146.205 177.488 145.134 177.992 134.924C178.495 124.747 189.338 123.509 189.338 123.509C189.338 123.509 187.76 137.702 184.806 158.724C183.094 170.742 175.977 179.512 170.204 184.835L153.251 179.01C137.709 156.85 128.074 132.447 122.703 106.37L130.726 106.169Z" fill="url(#paint10_linear)"/>
<path d="M312.469 51.1694C310.891 51.1024 309.179 51.2698 307.266 51.638C302.969 52.5418 297.229 54.7512 298.706 58.9021C300.955 65.0949 312.603 59.3038 318.814 69.3128C324.285 78.1167 319.821 87.6905 321.466 97.1974C322.271 101.817 325.259 108.679 329.388 111.391C331.234 112.596 345.871 114.906 346.676 112.328L350.738 99.1725C354.397 87.3558 340.332 67.6056 333.114 59.6385C327.542 53.5126 319.955 51.4706 312.469 51.1694Z" fill="url(#paint11_linear)"/>
<path d="M326.334 98.6703L340.333 110.286C367.155 121.668 386.658 135.058 400.791 149.586C405.894 139.978 414.185 128.898 427.378 120.262C400.321 106.972 380.213 101.449 380.213 101.449C325.629 79.5561 326.334 98.6703 326.334 98.6703Z" fill="url(#paint12_linear)"/>
<path d="M427.377 120.228C414.185 128.865 405.893 139.978 400.791 149.552C441.208 191.061 433.756 175.194 432.513 201.941C413.815 196.35 394.849 182.692 358.762 179.579C325.327 173.554 279.035 168.7 240.195 185.873C232.877 188.584 225.895 192.434 219.584 197.756C186.787 225.54 188.599 280.473 179.636 280.004C176.817 279.87 173.191 274.246 169.767 249.91C142.777 250.044 135.56 252.119 130.323 254.028C119.212 308.625 130.86 352.21 155.701 362.855C168.29 368.244 181.785 364.127 190.882 361.348C210.923 355.256 225.928 342.87 236.771 330.083C249.997 372.931 260.572 421.402 256.107 456.451L372.29 456.384C372.089 442.559 372.693 374.571 394.715 302.298C395.319 300.357 395.822 298.382 396.259 296.373C415.091 293.595 431.506 287.871 444.968 279.703C444.968 279.736 444.968 279.736 444.968 279.736C579.883 221.691 467.325 142.389 427.377 120.228Z" fill="url(#paint13_linear)"/>
<path d="M314.686 120.262C325.193 141.15 329.591 162.407 330.9 182.224C328.651 183.061 298.472 203.916 278.297 183.73C282.627 169.872 281.889 149.017 280.815 127.593L314.686 120.262Z" fill="url(#paint14_linear)"/>
<path d="M260.001 65.3627C259.43 66.3 244.357 137.167 244.357 137.167L285.11 144.899L309.415 79.8239C309.381 79.8239 269.669 49.7299 260.001 65.3627Z" fill="url(#paint15_linear)"/>
<path d="M293.839 85.6151C294.913 87.088 295.283 88.9961 294.745 90.7702L284.809 125.484C284.641 126.019 284.44 126.522 284.138 126.957C282.526 129.534 276.752 137.267 268.964 130.907C262.318 125.484 256.141 120.596 250.635 119.391C247.413 118.688 244.224 120.797 243.552 124.011C242.176 130.672 239.625 144.163 239.088 156.448C238.953 159.528 241.236 162.172 244.291 162.574C252.381 163.578 268.259 165.051 281.553 163.377C283.735 163.11 285.581 161.67 286.387 159.628C289.878 150.623 299.747 125.417 303.641 118.722C307.267 112.496 316.834 111.926 321.265 111.993C322.944 112.027 324.555 111.357 325.696 110.152C329.188 106.537 334.76 98.3691 325.293 89.6321C322.944 87.4562 322.843 83.7405 324.991 81.3638C328.818 77.079 332.309 70.0158 325.025 62.0487C317.64 53.9813 308.744 55.4542 303.037 57.7639C300.519 58.7682 297.498 58.1322 295.82 55.9563C295.081 54.9855 293.94 54.316 292.228 54.4164C288.972 54.6173 286.185 52.341 285.95 49.0939C285.581 43.5036 282.929 36.8421 273.194 34.4654C255.335 30.0801 245.432 47.6545 245.13 60.3415C244.828 73.0285 264.466 76.6438 275.779 75.104C284.07 73.9323 290.818 81.4977 293.839 85.6151Z" fill="url(#paint16_linear)"/>
<path d="M297.531 131.911C297.531 131.911 301.325 109.483 310.388 107.842C319.452 106.202 328.784 113.165 320.459 125.986C310.12 141.953 297.531 131.911 297.531 131.911Z" fill="url(#paint17_linear)"/>
<defs>
<linearGradient id="paint0_linear" x1="279.44" y1="489.513" x2="279.44" y2="0.220459" gradientUnits="userSpaceOnUse">
<stop stop-color="#178573"/>
<stop offset="1" stop-color="#35CEB5"/>
</linearGradient>
<linearGradient id="paint1_linear" x1="275.876" y1="0.220459" x2="275.876" y2="489.513" gradientUnits="userSpaceOnUse">
<stop stop-color="#B4F3E9"/>
<stop offset="1" stop-color="#27DEBF"/>
</linearGradient>
<linearGradient id="paint2_linear" x1="275.678" y1="39.3147" x2="275.678" y2="456.511" gradientUnits="userSpaceOnUse">
<stop stop-color="white"/>
<stop offset="1" stop-color="#FCEAF9"/>
</linearGradient>
<linearGradient id="paint3_linear" x1="285.752" y1="26.0858" x2="285.752" y2="19.1753" gradientUnits="userSpaceOnUse">
<stop stop-color="white"/>
<stop offset="1" stop-color="#FCEAF9"/>
</linearGradient>
<linearGradient id="paint4_linear" x1="252.63" y1="485.706" x2="252.63" y2="461.278" gradientUnits="userSpaceOnUse">
<stop stop-color="white"/>
<stop offset="1" stop-color="#FCEAF9"/>
</linearGradient>
<linearGradient id="paint5_linear" x1="139.909" y1="173.792" x2="-63.9091" y2="402.349" gradientUnits="userSpaceOnUse">
<stop stop-color="#178573"/>
<stop offset="1" stop-color="#35CEB5"/>
</linearGradient>
<linearGradient id="paint6_linear" x1="142.569" y1="422.834" x2="2.75711" y2="500.502" gradientUnits="userSpaceOnUse">
<stop stop-color="#178573"/>
<stop offset="1" stop-color="#35CEB5"/>
</linearGradient>
<linearGradient id="paint7_linear" x1="333.354" y1="412.464" x2="148.715" y2="185.041" gradientUnits="userSpaceOnUse">
<stop stop-color="#178573"/>
<stop offset="1" stop-color="#35CEB5"/>
</linearGradient>
<linearGradient id="paint8_linear" x1="110.067" y1="253.318" x2="122.086" y2="358.782" gradientUnits="userSpaceOnUse">
<stop stop-color="#178573"/>
<stop offset="1" stop-color="#35CEB5"/>
</linearGradient>
<linearGradient id="paint9_linear" x1="1053.21" y1="-304.582" x2="916.7" y2="-225.439" gradientUnits="userSpaceOnUse">
<stop stop-color="#FF928E"/>
<stop offset="1" stop-color="#FEB3B1"/>
</linearGradient>
<linearGradient id="paint10_linear" x1="1021.66" y1="-358.987" x2="885.145" y2="-279.846" gradientUnits="userSpaceOnUse">
<stop stop-color="#FF928E"/>
<stop offset="1" stop-color="#FEB3B1"/>
</linearGradient>
<linearGradient id="paint11_linear" x1="-37.2603" y1="-122.27" x2="34.5708" y2="-81.676" gradientUnits="userSpaceOnUse">
<stop stop-color="#FF928E"/>
<stop offset="1" stop-color="#FEB3B1"/>
</linearGradient>
<linearGradient id="paint12_linear" x1="-38.7784" y1="-119.584" x2="33.0526" y2="-78.9903" gradientUnits="userSpaceOnUse">
<stop stop-color="#FF928E"/>
<stop offset="1" stop-color="#FEB3B1"/>
</linearGradient>
<linearGradient id="paint13_linear" x1="317.759" y1="851.235" x2="317.759" y2="222.851" gradientUnits="userSpaceOnUse">
<stop stop-color="#35CEB5"/>
<stop offset="1" stop-color="#B4F3E9"/>
</linearGradient>
<linearGradient id="paint14_linear" x1="275.964" y1="113.554" x2="378.644" y2="306.844" gradientUnits="userSpaceOnUse">
<stop stop-color="#FF928E"/>
<stop offset="1" stop-color="#FEB3B1"/>
</linearGradient>
<linearGradient id="paint15_linear" x1="415.854" y1="86.2168" x2="216.392" y2="110.206" gradientUnits="userSpaceOnUse">
<stop stop-color="#FF928E"/>
<stop offset="1" stop-color="#FEB3B1"/>
</linearGradient>
<linearGradient id="paint16_linear" x1="284.8" y1="164.144" x2="284.8" y2="33.7438" gradientUnits="userSpaceOnUse">
<stop stop-color="#456974"/>
<stop offset="0.9964" stop-color="#37474F"/>
</linearGradient>
<linearGradient id="paint17_linear" x1="418.512" y1="108.309" x2="219.05" y2="132.298" gradientUnits="userSpaceOnUse">
<stop stop-color="#FF928E"/>
<stop offset="1" stop-color="#FEB3B1"/>
</linearGradient>
</defs>
</svg>
