<svg width="33" height="33" viewBox="0 0 33 33" fill="none" xmlns="http://www.w3.org/2000/svg">
<rect x="1.27148" y="1.44287" width="31" height="31" rx="15.5" stroke="white"/>
<g clip-path="url(#clip0)">
<path d="M17.3867 24.936H14.8245C14.3965 24.936 14.0483 24.5879 14.0483 24.1599V18.3806H12.5535C12.1255 18.3806 11.7773 18.0323 11.7773 17.6045V15.1281C11.7773 14.7001 12.1255 14.3519 12.5535 14.3519H14.0483V13.1118C14.0483 11.8822 14.4344 10.8361 15.1648 10.0867C15.8984 9.33386 16.9237 8.93604 18.1298 8.93604L20.0839 8.93921C20.5111 8.93994 20.8586 9.28809 20.8586 9.71533V12.0146C20.8586 12.4426 20.5106 12.7908 20.0828 12.7908L18.7671 12.7913C18.3658 12.7913 18.2637 12.8717 18.2418 12.8964C18.2058 12.9373 18.163 13.0529 18.163 13.3721V14.3518H19.9839C20.121 14.3518 20.2538 14.3856 20.3679 14.4493C20.6141 14.5869 20.7672 14.847 20.7672 15.1282L20.7662 17.6046C20.7662 18.0323 20.4181 18.3805 19.9901 18.3805H18.163V24.1599C18.163 24.5879 17.8147 24.936 17.3867 24.936ZM14.9863 23.998H17.2249V17.9607C17.2249 17.6749 17.4574 17.4425 17.743 17.4425H19.8282L19.8291 15.2899H17.7429C17.4573 15.2899 17.2249 15.0575 17.2249 14.7717V13.3721C17.2249 13.0056 17.2621 12.5889 17.5387 12.2756C17.8729 11.897 18.3997 11.8533 18.7668 11.8533L19.9207 11.8528V9.87695L18.129 9.87402C16.1908 9.87402 14.9863 11.1147 14.9863 13.1118V14.7717C14.9863 15.0574 14.7539 15.2899 14.4683 15.2899H12.7153V17.4425H14.4683C14.7539 17.4425 14.9863 17.6749 14.9863 17.9607V23.998ZM20.082 9.8772H20.0822H20.082Z" fill="white"/>
</g>
<defs>
<clipPath id="clip0">
<rect width="15.9688" height="16" fill="white" transform="translate(8.32422 8.96729)"/>
</clipPath>
</defs>
</svg>
