<svg width="202" height="57" viewBox="0 0 202 57" fill="none" xmlns="http://www.w3.org/2000/svg">
<rect width="201.185" height="57" rx="8" fill="#FFA140"/>
<path d="M60.9764 12.6523V23.2258H60.0074V21.7438C59.7034 22.2473 59.2996 22.6321 58.7961 22.8981C58.3021 23.1641 57.7416 23.2971 57.1146 23.2971C56.4116 23.2971 55.7751 23.1356 55.2051 22.8126C54.6351 22.4896 54.1886 22.0383 53.8656 21.4588C53.5426 20.8793 53.3811 20.2191 53.3811 19.4781C53.3811 18.7371 53.5426 18.0768 53.8656 17.4973C54.1886 16.9178 54.6351 16.4713 55.2051 16.1578C55.7751 15.8348 56.4116 15.6733 57.1146 15.6733C57.7226 15.6733 58.2689 15.8016 58.7534 16.0581C59.2474 16.3051 59.6511 16.6708 59.9646 17.1553V12.6523H60.9764ZM57.2001 22.3993C57.7226 22.3993 58.1929 22.2806 58.6109 22.0431C59.0384 21.7961 59.3709 21.4493 59.6084 21.0028C59.8554 20.5563 59.9789 20.0481 59.9789 19.4781C59.9789 18.9081 59.8554 18.3998 59.6084 17.9533C59.3709 17.5068 59.0384 17.1648 58.6109 16.9273C58.1929 16.6803 57.7226 16.5568 57.2001 16.5568C56.6681 16.5568 56.1884 16.6803 55.7609 16.9273C55.3429 17.1648 55.0104 17.5068 54.7634 17.9533C54.5259 18.3998 54.4071 18.9081 54.4071 19.4781C54.4071 20.0481 54.5259 20.5563 54.7634 21.0028C55.0104 21.4493 55.3429 21.7961 55.7609 22.0431C56.1884 22.2806 56.6681 22.3993 57.2001 22.3993Z" fill="white"/>
<path d="M63.7941 15.7303H64.8058V23.2258H63.7941V15.7303ZM64.3071 14.0916C64.0981 14.0916 63.9223 14.0203 63.7798 13.8778C63.6373 13.7353 63.5661 13.5643 63.5661 13.3648C63.5661 13.1748 63.6373 13.0086 63.7798 12.8661C63.9223 12.7236 64.0981 12.6523 64.3071 12.6523C64.5161 12.6523 64.6918 12.7236 64.8343 12.8661C64.9768 12.9991 65.0481 13.1606 65.0481 13.3506C65.0481 13.5596 64.9768 13.7353 64.8343 13.8778C64.6918 14.0203 64.5161 14.0916 64.3071 14.0916Z" fill="white"/>
<path d="M69.6302 23.2971C69.0222 23.2971 68.438 23.2116 67.8775 23.0406C67.3265 22.8601 66.8942 22.6368 66.5807 22.3708L67.0367 21.5728C67.3502 21.8198 67.7445 22.0241 68.2195 22.1856C68.6945 22.3376 69.1885 22.4136 69.7015 22.4136C70.3855 22.4136 70.889 22.3091 71.212 22.1001C71.5445 21.8816 71.7107 21.5776 71.7107 21.1881C71.7107 20.9126 71.6205 20.6988 71.44 20.5468C71.2595 20.3853 71.0315 20.2666 70.756 20.1906C70.4805 20.1051 70.1147 20.0243 69.6587 19.9483C69.0507 19.8343 68.5615 19.7203 68.191 19.6063C67.8205 19.4828 67.5022 19.2786 67.2362 18.9936C66.9797 18.7086 66.8515 18.3143 66.8515 17.8108C66.8515 17.1838 67.1127 16.6708 67.6352 16.2718C68.1577 15.8728 68.8845 15.6733 69.8155 15.6733C70.3 15.6733 70.7845 15.7398 71.269 15.8728C71.7535 15.9963 72.1525 16.1626 72.466 16.3716L72.0242 17.1838C71.4067 16.7563 70.6705 16.5426 69.8155 16.5426C69.1695 16.5426 68.6802 16.6566 68.3477 16.8846C68.0247 17.1126 67.8632 17.4118 67.8632 17.7823C67.8632 18.0673 67.9535 18.2953 68.134 18.4663C68.324 18.6373 68.5567 18.7656 68.8322 18.8511C69.1077 18.9271 69.4877 19.0078 69.9722 19.0933C70.5707 19.2073 71.0505 19.3213 71.4115 19.4353C71.7725 19.5493 72.0812 19.7441 72.3377 20.0196C72.5942 20.2951 72.7225 20.6751 72.7225 21.1596C72.7225 21.8151 72.447 22.3376 71.896 22.7271C71.3545 23.1071 70.5992 23.2971 69.6302 23.2971Z" fill="white"/>
<path d="M78.4546 15.6733C79.1576 15.6733 79.7941 15.8348 80.3641 16.1578C80.9341 16.4713 81.3806 16.9178 81.7036 17.4973C82.0266 18.0768 82.1881 18.7371 82.1881 19.4781C82.1881 20.2286 82.0266 20.8936 81.7036 21.4731C81.3806 22.0526 80.9341 22.5038 80.3641 22.8268C79.8036 23.1403 79.1671 23.2971 78.4546 23.2971C77.8466 23.2971 77.2956 23.1736 76.8016 22.9266C76.3171 22.6701 75.9181 22.2996 75.6046 21.8151V25.9903H74.5929V15.7303H75.5619V17.2123C75.8659 16.7183 76.2649 16.3383 76.7589 16.0723C77.2624 15.8063 77.8276 15.6733 78.4546 15.6733ZM78.3834 22.3993C78.9059 22.3993 79.3809 22.2806 79.8084 22.0431C80.2359 21.7961 80.5684 21.4493 80.8059 21.0028C81.0529 20.5563 81.1764 20.0481 81.1764 19.4781C81.1764 18.9081 81.0529 18.4046 80.8059 17.9676C80.5684 17.5211 80.2359 17.1743 79.8084 16.9273C79.3809 16.6803 78.9059 16.5568 78.3834 16.5568C77.8514 16.5568 77.3716 16.6803 76.9441 16.9273C76.5261 17.1743 76.1936 17.5211 75.9466 17.9676C75.7091 18.4046 75.5904 18.9081 75.5904 19.4781C75.5904 20.0481 75.7091 20.5563 75.9466 21.0028C76.1936 21.4493 76.5261 21.7961 76.9441 22.0431C77.3716 22.2806 77.8514 22.3993 78.3834 22.3993Z" fill="white"/>
<path d="M87.3144 23.2971C86.5924 23.2971 85.9416 23.1356 85.3621 22.8126C84.7826 22.4801 84.3266 22.0241 83.9941 21.4446C83.6616 20.8651 83.4954 20.2096 83.4954 19.4781C83.4954 18.7466 83.6616 18.0911 83.9941 17.5116C84.3266 16.9321 84.7826 16.4808 85.3621 16.1578C85.9416 15.8348 86.5924 15.6733 87.3144 15.6733C88.0364 15.6733 88.6871 15.8348 89.2666 16.1578C89.8461 16.4808 90.2974 16.9321 90.6204 17.5116C90.9529 18.0911 91.1191 18.7466 91.1191 19.4781C91.1191 20.2096 90.9529 20.8651 90.6204 21.4446C90.2974 22.0241 89.8461 22.4801 89.2666 22.8126C88.6871 23.1356 88.0364 23.2971 87.3144 23.2971ZM87.3144 22.3993C87.8464 22.3993 88.3214 22.2806 88.7394 22.0431C89.1669 21.7961 89.4994 21.4493 89.7369 21.0028C89.9744 20.5563 90.0931 20.0481 90.0931 19.4781C90.0931 18.9081 89.9744 18.3998 89.7369 17.9533C89.4994 17.5068 89.1669 17.1648 88.7394 16.9273C88.3214 16.6803 87.8464 16.5568 87.3144 16.5568C86.7824 16.5568 86.3026 16.6803 85.8751 16.9273C85.4571 17.1648 85.1246 17.5068 84.8776 17.9533C84.6401 18.3998 84.5214 18.9081 84.5214 19.4781C84.5214 20.0481 84.6401 20.5563 84.8776 21.0028C85.1246 21.4493 85.4571 21.7961 85.8751 22.0431C86.3026 22.2806 86.7824 22.3993 87.3144 22.3993Z" fill="white"/>
<path d="M97.0037 15.6733C97.9442 15.6733 98.6899 15.9488 99.2409 16.4998C99.8014 17.0413 100.082 17.8346 100.082 18.8796V23.2258H99.0699V18.9793C99.0699 18.2003 98.8752 17.6066 98.4857 17.1981C98.0962 16.7896 97.5404 16.5853 96.8184 16.5853C96.0109 16.5853 95.3697 16.8276 94.8947 17.3121C94.4292 17.7871 94.1964 18.4473 94.1964 19.2928V23.2258H93.1847V15.7303H94.1537V17.1126C94.4292 16.6566 94.8092 16.3051 95.2937 16.0581C95.7877 15.8016 96.3577 15.6733 97.0037 15.6733Z" fill="white"/>
<path d="M102.828 15.7303H103.84V23.2258H102.828V15.7303ZM104.367 12.7948H105.721L103.413 14.5618H102.415L104.367 12.7948Z" fill="white"/>
<path d="M112.954 15.7303L109.619 23.2258H108.579L105.259 15.7303H106.313L109.121 22.1143L111.956 15.7303H112.954Z" fill="white"/>
<path d="M120.697 19.7916H114.427C114.484 20.5706 114.783 21.2023 115.324 21.6868C115.866 22.1618 116.55 22.3993 117.376 22.3993C117.842 22.3993 118.269 22.3186 118.659 22.1571C119.048 21.9861 119.386 21.7391 119.671 21.4161L120.241 22.0716C119.908 22.4706 119.49 22.7746 118.987 22.9836C118.493 23.1926 117.946 23.2971 117.348 23.2971C116.578 23.2971 115.894 23.1356 115.296 22.8126C114.707 22.4801 114.246 22.0241 113.914 21.4446C113.581 20.8651 113.415 20.2096 113.415 19.4781C113.415 18.7466 113.572 18.0911 113.885 17.5116C114.208 16.9321 114.645 16.4808 115.196 16.1578C115.757 15.8348 116.384 15.6733 117.077 15.6733C117.771 15.6733 118.393 15.8348 118.944 16.1578C119.495 16.4808 119.927 16.9321 120.241 17.5116C120.554 18.0816 120.711 18.7371 120.711 19.4781L120.697 19.7916ZM117.077 16.5426C116.355 16.5426 115.747 16.7753 115.253 17.2408C114.769 17.6968 114.493 18.2953 114.427 19.0363H119.742C119.675 18.2953 119.395 17.6968 118.901 17.2408C118.417 16.7753 117.809 16.5426 117.077 16.5426Z" fill="white"/>
<path d="M122.77 12.6523H123.782V23.2258H122.77V12.6523Z" fill="white"/>
<path d="M134.146 15.6733C135.086 15.6733 135.832 15.9488 136.383 16.4998C136.943 17.0413 137.224 17.8346 137.224 18.8796V23.2258H136.212V18.9793C136.212 18.2003 136.017 17.6066 135.628 17.1981C135.238 16.7896 134.682 16.5853 133.96 16.5853C133.153 16.5853 132.512 16.8276 132.037 17.3121C131.571 17.7871 131.338 18.4473 131.338 19.2928V23.2258H130.327V15.7303H131.296V17.1126C131.571 16.6566 131.951 16.3051 132.436 16.0581C132.93 15.8016 133.5 15.6733 134.146 15.6733Z" fill="white"/>
<path d="M143.062 23.2971C142.34 23.2971 141.689 23.1356 141.11 22.8126C140.53 22.4801 140.074 22.0241 139.742 21.4446C139.409 20.8651 139.243 20.2096 139.243 19.4781C139.243 18.7466 139.409 18.0911 139.742 17.5116C140.074 16.9321 140.53 16.4808 141.11 16.1578C141.689 15.8348 142.34 15.6733 143.062 15.6733C143.784 15.6733 144.435 15.8348 145.014 16.1578C145.594 16.4808 146.045 16.9321 146.368 17.5116C146.7 18.0911 146.867 18.7466 146.867 19.4781C146.867 20.2096 146.7 20.8651 146.368 21.4446C146.045 22.0241 145.594 22.4801 145.014 22.8126C144.435 23.1356 143.784 23.2971 143.062 23.2971ZM143.062 22.3993C143.594 22.3993 144.069 22.2806 144.487 22.0431C144.914 21.7961 145.247 21.4493 145.484 21.0028C145.722 20.5563 145.841 20.0481 145.841 19.4781C145.841 18.9081 145.722 18.3998 145.484 17.9533C145.247 17.5068 144.914 17.1648 144.487 16.9273C144.069 16.6803 143.594 16.5568 143.062 16.5568C142.53 16.5568 142.05 16.6803 141.623 16.9273C141.205 17.1648 140.872 17.5068 140.625 17.9533C140.388 18.3998 140.269 18.9081 140.269 19.4781C140.269 20.0481 140.388 20.5563 140.625 21.0028C140.872 21.4493 141.205 21.7961 141.623 22.0431C142.05 22.2806 142.53 22.3993 143.062 22.3993Z" fill="white"/>
<path d="M63.6254 41.3468H57.6048L56.4563 44.1255H53.3811L59.1609 31.158H62.1249L67.9232 44.1255H64.774L63.6254 41.3468ZM62.6807 39.0682L60.6244 34.1035L58.5681 39.0682H62.6807Z" fill="white"/>
<path d="M74.8817 31.158C76.0302 31.158 77.0244 31.3494 77.8642 31.7323C78.7164 32.1151 79.3709 32.6585 79.8279 33.3625C80.2848 34.0664 80.5133 34.9001 80.5133 35.8634C80.5133 36.8143 80.2848 37.6479 79.8279 38.3642C79.3709 39.0682 78.7164 39.6116 77.8642 39.9944C77.0244 40.3649 76.0302 40.5502 74.8817 40.5502H72.2697V44.1255H69.2686V31.158H74.8817ZM74.715 38.1049C75.6165 38.1049 76.3019 37.9135 76.7712 37.5306C77.2405 37.1354 77.4752 36.5797 77.4752 35.8634C77.4752 35.1347 77.2405 34.579 76.7712 34.1961C76.3019 33.8009 75.6165 33.6033 74.715 33.6033H72.2697V38.1049H74.715Z" fill="white"/>
<path d="M88.2689 31.158C89.4174 31.158 90.4116 31.3494 91.2514 31.7323C92.1036 32.1151 92.7581 32.6585 93.2151 33.3625C93.672 34.0664 93.9005 34.9001 93.9005 35.8634C93.9005 36.8143 93.672 37.6479 93.2151 38.3642C92.7581 39.0682 92.1036 39.6116 91.2514 39.9944C90.4116 40.3649 89.4174 40.5502 88.2689 40.5502H85.6569V44.1255H82.6558V31.158H88.2689ZM88.1022 38.1049C89.0037 38.1049 89.6891 37.9135 90.1584 37.5306C90.6277 37.1354 90.8624 36.5797 90.8624 35.8634C90.8624 35.1347 90.6277 34.579 90.1584 34.1961C89.6891 33.8009 89.0037 33.6033 88.1022 33.6033H85.6569V38.1049H88.1022Z" fill="white"/>
<path d="M96.043 31.158H99.0441V41.6802H105.546V44.1255H96.043V31.158Z" fill="white"/>
<path d="M117.264 41.7173V44.1255H107.223V31.158H117.023V33.5663H110.206V36.3821H116.226V38.7162H110.206V41.7173H117.264Z" fill="white"/>
<path d="M129.159 44.3478C128.134 44.3478 127.139 44.212 126.176 43.9403C125.225 43.6562 124.459 43.2919 123.879 42.8473L124.898 40.5872C125.454 40.9948 126.114 41.3221 126.88 41.5691C127.646 41.8161 128.411 41.9396 129.177 41.9396C130.029 41.9396 130.659 41.8161 131.067 41.5691C131.474 41.3097 131.678 40.9701 131.678 40.5502C131.678 40.2414 131.555 39.9883 131.308 39.7907C131.073 39.5807 130.764 39.414 130.381 39.2905C130.011 39.167 129.504 39.0311 128.862 38.8829C127.874 38.6483 127.065 38.4136 126.435 38.179C125.806 37.9443 125.262 37.5677 124.805 37.049C124.361 36.5303 124.138 35.8387 124.138 34.9742C124.138 34.2208 124.342 33.5416 124.75 32.9364C125.157 32.3189 125.769 31.8311 126.584 31.4729C127.411 31.1148 128.418 30.9357 129.603 30.9357C130.431 30.9357 131.24 31.0345 132.03 31.2321C132.82 31.4297 133.512 31.7138 134.105 32.0843L133.179 34.3628C131.981 33.6836 130.783 33.344 129.585 33.344C128.745 33.344 128.121 33.4798 127.714 33.7515C127.318 34.0232 127.121 34.3814 127.121 34.826C127.121 35.2706 127.349 35.604 127.806 35.8263C128.276 36.0363 128.986 36.2462 129.937 36.4562C130.925 36.6908 131.734 36.9255 132.363 37.1601C132.993 37.3948 133.531 37.7653 133.975 38.2716C134.432 38.778 134.661 39.4634 134.661 40.3279C134.661 41.0689 134.451 41.7481 134.031 42.3656C133.623 42.9708 133.006 43.4524 132.178 43.8106C131.351 44.1687 130.344 44.3478 129.159 44.3478Z" fill="white"/>
<path d="M139.216 33.6033H135.067V31.158H146.367V33.6033H142.217V44.1255H139.216V33.6033Z" fill="white"/>
<path d="M154.081 44.3478C152.735 44.3478 151.518 44.0576 150.431 43.4771C149.357 42.8967 148.511 42.1001 147.893 41.0874C147.288 40.0624 146.986 38.9138 146.986 37.6418C146.986 36.3697 147.288 35.2273 147.893 34.2146C148.511 33.1896 149.357 32.3868 150.431 31.8064C151.518 31.2259 152.735 30.9357 154.081 30.9357C155.427 30.9357 156.637 31.2259 157.712 31.8064C158.786 32.3868 159.632 33.1896 160.25 34.2146C160.867 35.2273 161.176 36.3697 161.176 37.6418C161.176 38.9138 160.867 40.0624 160.25 41.0874C159.632 42.1001 158.786 42.8967 157.712 43.4771C156.637 44.0576 155.427 44.3478 154.081 44.3478ZM154.081 41.7914C154.847 41.7914 155.538 41.6185 156.156 41.2727C156.773 40.9145 157.255 40.4205 157.601 39.7907C157.959 39.1608 158.138 38.4445 158.138 37.6418C158.138 36.839 157.959 36.1227 157.601 35.4929C157.255 34.863 156.773 34.3752 156.156 34.0294C155.538 33.6712 154.847 33.4922 154.081 33.4922C153.315 33.4922 152.624 33.6712 152.006 34.0294C151.389 34.3752 150.901 34.863 150.543 35.4929C150.197 36.1227 150.024 36.839 150.024 37.6418C150.024 38.4445 150.197 39.1608 150.543 39.7907C150.901 40.4205 151.389 40.9145 152.006 41.2727C152.624 41.6185 153.315 41.7914 154.081 41.7914Z" fill="white"/>
<path d="M171.693 44.1255L169.193 40.5131H169.044H166.432V44.1255H163.431V31.158H169.044C170.193 31.158 171.187 31.3494 172.027 31.7323C172.879 32.1151 173.534 32.6585 173.991 33.3625C174.448 34.0664 174.676 34.9001 174.676 35.8634C174.676 36.8267 174.441 37.6603 173.972 38.3642C173.515 39.0558 172.861 39.5869 172.008 39.9574L174.917 44.1255H171.693ZM171.638 35.8634C171.638 35.1347 171.403 34.579 170.934 34.1961C170.465 33.8009 169.779 33.6033 168.878 33.6033H166.432V38.1234H168.878C169.779 38.1234 170.465 37.9258 170.934 37.5306C171.403 37.1354 171.638 36.5797 171.638 35.8634Z" fill="white"/>
<path d="M187.094 41.7173V44.1255H177.054V31.158H186.853V33.5663H180.036V36.3821H186.057V38.7162H180.036V41.7173H187.094Z" fill="white"/>
<g clip-path="url(#clip0)">
<path d="M32.7361 16.5988C34.0669 15.2213 34.967 13.3087 34.7206 11.4016C32.8034 11.4677 30.4799 12.4898 29.1037 13.8672C27.8701 15.0866 26.7901 17.0355 27.0784 18.9053C29.2177 19.0452 31.4032 17.9742 32.7361 16.5988ZM36.819 29.7697C36.7782 25.4941 40.3199 23.4405 40.4768 23.3413C38.4856 20.4378 35.3846 20.0405 34.2802 19.9957C31.6396 19.7277 29.1315 21.5419 27.7909 21.5419C26.4558 21.5419 24.3906 20.0309 22.2006 20.0715C19.3216 20.1173 16.6688 21.7384 15.1901 24.3076C12.1993 29.4761 14.4236 37.1325 17.3379 41.3249C18.7626 43.3773 20.4588 45.6796 22.6863 45.5963C24.8365 45.5131 25.6471 44.2135 28.2414 44.2135C30.8367 44.2135 31.5633 45.5963 33.8339 45.5547C36.1442 45.5131 37.6063 43.4628 39.0189 41.404C40.6533 39.0237 41.327 36.7193 41.3656 36.6029C41.316 36.5751 36.8665 34.8826 36.819 29.7697Z" fill="url(#paint0_linear)"/>
</g>
<defs>
<linearGradient id="paint0_linear" x1="27.5678" y1="11.4016" x2="27.5678" y2="45.5985" gradientUnits="userSpaceOnUse">
<stop stop-color="white"/>
<stop offset="1" stop-color="white"/>
</linearGradient>
<clipPath id="clip0">
<rect width="35.3664" height="34.197" fill="white" transform="translate(10.2334 11.4016)"/>
</clipPath>
</defs>
</svg>
