<svg width="669" height="476" viewBox="0 0 669 476" fill="none" xmlns="http://www.w3.org/2000/svg">
<g clip-path="url(#clip0)">
<path fill-rule="evenodd" clip-rule="evenodd" d="M251.719 147.518L152.186 29.3777L142.022 38.3387L146.088 45.916C147.727 47.761 147.53 50.5942 145.694 52.2415C143.858 53.8887 141.039 53.691 139.4 51.8461C138.678 51.0554 138.351 50.133 138.285 49.1446C138.219 48.2881 138.416 47.3656 138.875 46.5749L135.138 44.3347L120.385 57.3809L125.958 63.8381C127.597 65.683 127.401 68.5163 125.565 70.1635C123.729 71.8107 120.909 71.6131 119.27 69.7682C118.614 68.9775 118.221 68.055 118.155 67.0667C118.09 66.276 118.286 65.4194 118.68 64.6946L115.27 61.9273L99.8616 75.5665L102.419 80.3105C102.681 80.3105 102.943 80.3105 103.271 80.3764C104.255 80.5082 105.107 81.0353 105.828 81.826C107.468 83.6709 107.271 86.5042 105.435 88.1514C103.599 89.7987 100.78 89.6669 99.1403 87.7561C98.419 86.9654 98.0912 86.043 98.0256 85.0546C97.9601 84.3298 98.0912 83.605 98.419 82.9461L94.8783 79.9811L79.2073 93.818L82.2891 98.2985C82.5513 98.2985 82.8792 98.2985 83.1415 98.3644C84.0594 98.4961 84.9774 99.0233 85.6987 99.8139C87.3379 101.659 87.1412 104.492 85.3052 106.139C83.4693 107.787 80.6498 107.589 79.0106 105.744C78.2894 104.953 77.9615 104.031 77.896 103.043C77.896 102.779 77.896 102.515 77.896 102.252L72.8471 99.4845L59.3399 111.608L61.9627 116.352C62.3561 116.352 62.7495 116.352 63.0774 116.418C64.0609 116.616 64.9133 117.077 65.6346 117.868C67.2738 119.713 67.0771 122.546 65.2411 124.193C63.4052 125.84 60.5857 125.643 58.9465 123.798C58.2253 123.007 57.8974 122.085 57.8318 121.096C57.8318 120.701 57.8318 120.306 57.8974 119.91C56.5205 119.054 54.7501 117.934 53.242 116.945L38.489 130.057L40.6528 134.538C41.374 134.274 42.1609 134.208 42.9477 134.34C43.9312 134.538 44.7836 134.999 45.5049 135.79C47.1441 137.635 46.9474 140.468 45.1115 142.115C43.2755 143.762 40.4561 143.565 38.8168 141.72C38.1612 140.929 37.7677 139.941 37.7022 139.018C37.6366 138.162 37.8333 137.305 38.2923 136.515L34.3582 133.681L25.0474 141.918L130.154 256.171C135.924 262.232 145.432 262.562 151.661 257.027L236.048 181.649L250.014 169.196C256.309 163.595 257.03 154.041 251.719 147.518Z" fill="url(#paint0_linear)"/>
<path d="M177.025 66.7154L57.6951 173.313L58.305 174.002L177.635 67.4049L177.025 66.7154Z" fill="#E54D98"/>
<path d="M186.395 79.8395L67.0647 186.437L67.6746 187.126L187.005 80.5289L186.395 79.8395Z" fill="#C9A4AC"/>
<path d="M198.284 90.7723L78.9534 197.37L79.5633 198.059L198.893 91.4618L198.284 90.7723Z" fill="#C9A4AC"/>
<path d="M208.891 102.776L89.5613 209.374L90.1712 210.063L209.501 103.465L208.891 102.776Z" fill="#C9A4AC"/>
<path d="M219.591 114.785L100.261 221.383L100.871 222.072L220.201 115.475L219.591 114.785Z" fill="#C9A4AC"/>
<path d="M230.136 129.594L110.837 233.427L111.438 234.125L230.737 130.291L230.136 129.594Z" fill="#C9A4AC"/>
<path d="M238.557 139.037L121.482 245.392L122.098 246.076L239.172 139.721L238.557 139.037Z" fill="#C9A4AC"/>
<path d="M249.602 151.54L135.338 254.531L135.951 255.218L250.214 152.227L249.602 151.54Z" fill="#C9A4AC"/>
<path d="M126.329 52.4231L125.632 53.0239L235.726 181.917L236.423 181.316L126.329 52.4231Z" fill="#E54D98"/>
<path fill-rule="evenodd" clip-rule="evenodd" d="M611.168 267.108L511.11 227.509L503.242 229.09L507.307 231.989C508.88 232.78 508.946 233.636 507.438 233.966C505.995 234.295 503.504 233.966 501.996 233.175C501.34 232.846 500.947 232.45 500.815 232.187C500.684 231.923 500.815 231.594 501.143 231.396L497.799 230.21L486.062 232.912L491.177 235.811C492.685 236.667 492.75 237.59 491.242 237.985C489.734 238.38 487.308 237.985 485.8 237.194C485.145 236.865 484.817 236.47 484.686 236.074C484.62 235.745 484.686 235.481 485.013 235.284L481.932 233.9L469.474 237.128L471.834 239.237C472.096 239.237 472.293 239.303 472.555 239.369C473.408 239.566 474.194 239.83 474.785 240.159C476.293 241.016 476.227 242.07 474.719 242.531C473.211 242.993 470.785 242.597 469.277 241.741C468.621 241.345 468.293 240.95 468.228 240.555C468.162 240.291 468.228 240.028 468.49 239.764L465.343 238.183L452.426 241.807L455.179 243.981C455.442 243.981 455.638 244.047 455.901 244.113C456.688 244.31 457.54 244.574 458.13 244.969C459.573 245.892 459.507 247.012 457.999 247.539C456.425 248 453.999 247.671 452.557 246.748C451.967 246.353 451.639 245.892 451.508 245.496C451.508 245.365 451.508 245.299 451.508 245.167L447.18 243.454L435.706 247.012L438 249.384C438.328 249.384 438.656 249.45 438.984 249.516C439.771 249.713 440.558 250.043 441.213 250.438C442.656 251.427 442.525 252.678 440.951 253.206C439.377 253.733 436.951 253.337 435.574 252.349C434.984 251.888 434.656 251.427 434.591 251.031C434.591 250.834 434.591 250.702 434.656 250.504C433.476 249.977 431.968 249.252 430.722 248.659L418.002 252.876L419.838 255.248C420.494 255.182 421.149 255.248 421.805 255.446C422.657 255.644 423.379 255.973 423.969 256.368C425.346 257.423 425.149 258.74 423.575 259.267C422.002 259.86 419.576 259.465 418.199 258.411C417.608 257.95 417.346 257.488 417.281 257.027C417.215 256.632 417.412 256.237 417.805 255.907L414.461 254.128L401.938 257.291L498.717 316.13C504.159 318.766 513.208 318.371 519.306 315.34L598.644 279.232L611.234 274.159C616.872 271.918 616.807 268.887 611.168 267.108Z" fill="url(#paint1_linear)"/>
<path d="M435.968 274.093L435.443 273.763L537.337 239.83L537.927 240.093L435.968 274.093Z" fill="#E54D98"/>
<path d="M444.033 281.077L443.508 280.682L546.714 244.508L547.304 244.772L444.033 281.077Z" fill="#C9A4AC"/>
<path d="M454.458 286.875L453.934 286.48L558.254 248.396L558.909 248.659L454.458 286.875Z" fill="#C9A4AC"/>
<path d="M463.9 292.937L463.31 292.608L568.942 252.415L569.532 252.679L463.9 292.937Z" fill="#C9A4AC"/>
<path d="M473.408 298.867L472.817 298.472L579.695 256.302L580.285 256.5L473.408 298.867Z" fill="#C9A4AC"/>
<path d="M483.046 304.534L482.456 304.204L590.776 260.783L591.366 260.981L483.046 304.534Z" fill="#C9A4AC"/>
<path d="M492.751 310.069L492.16 309.805L599.431 263.55L600.087 263.748L492.751 310.069Z" fill="#C9A4AC"/>
<path d="M505.733 313.89L505.143 313.627L610.906 266.977L611.561 267.174L505.733 313.89Z" fill="#C9A4AC"/>
<path d="M599.825 277.848L491.767 230.54L492.291 230.408L600.48 277.585L599.825 277.848Z" fill="#E54D98"/>
<path fill-rule="evenodd" clip-rule="evenodd" d="M495.308 264.473L598.972 181.781L607.3 193.114L500.947 272.182L495.308 264.473Z" fill="url(#paint2_linear)"/>
<path fill-rule="evenodd" clip-rule="evenodd" d="M598.972 181.781L600.153 185.141L604.48 191.005L607.365 193.114L612.086 188.172C612.086 188.172 611.627 183.955 605.07 178.618L598.972 181.781Z" fill="url(#paint3_linear)"/>
<path fill-rule="evenodd" clip-rule="evenodd" d="M604.415 191.071L499.898 270.271L502.455 270.139L500.947 272.182L607.3 193.114L604.415 191.071Z" fill="url(#paint4_linear)"/>
<path fill-rule="evenodd" clip-rule="evenodd" d="M495.308 264.473L482.587 279.825L483.44 280.088L497.406 265.922L600.087 185.207L598.972 181.781L495.308 264.473Z" fill="url(#paint5_linear)"/>
<path fill-rule="evenodd" clip-rule="evenodd" d="M605.07 178.684C605.07 178.684 606.644 185.8 612.086 188.238C612.021 188.238 611.43 182.506 605.07 178.684Z" fill="url(#paint6_linear)"/>
<path fill-rule="evenodd" clip-rule="evenodd" d="M495.308 264.473L482.587 279.825L484.095 280.286L500.947 272.182L502.455 270.139L499.898 270.271L500.816 266.911L496.75 266.384L497.996 263.682L495.308 264.473Z" fill="#FFAA68"/>
<path fill-rule="evenodd" clip-rule="evenodd" d="M485.8 276.003L487.046 278.837L484.095 280.286L482.587 279.825L485.8 276.003Z" fill="url(#paint7_linear)"/>
<path fill-rule="evenodd" clip-rule="evenodd" d="M595.956 184.153L597.596 187.909L601.661 193.509L604.218 195.42L607.3 193.114L598.972 181.781L595.956 184.153Z" fill="url(#paint8_radial)"/>
<path fill-rule="evenodd" clip-rule="evenodd" d="M50.5537 448.833L58.9465 472.289L604.021 475.254L617.135 451.798L50.5537 448.833Z" fill="url(#paint9_linear)"/>
<path fill-rule="evenodd" clip-rule="evenodd" d="M134.416 401.524L6.49121 426.101L13.3104 448.635L650.378 451.798L655.624 429.922L517.404 398.625L134.416 401.524Z" fill="url(#paint10_linear)"/>
<path fill-rule="evenodd" clip-rule="evenodd" d="M6.49121 426.101L655.624 429.922L649.919 453.577L13.3104 448.635L6.49121 426.101Z" fill="url(#paint11_linear)"/>
<path opacity="0.5" fill-rule="evenodd" clip-rule="evenodd" d="M136.318 261.705L197.822 325.289L137.892 325.553L136.318 261.705Z" fill="#FBF9FA"/>
<path opacity="0.5" fill-rule="evenodd" clip-rule="evenodd" d="M555.828 344.858C555.697 344.726 555.631 344.661 555.5 344.529L555.566 344.595L555.828 344.858Z" fill="#9A2463"/>
<path d="M465.212 0.254395H274.078C264.046 0.254395 255.325 8.49063 254.67 18.5718L230.016 401.59C229.36 411.671 237.032 419.907 247.064 419.907H438.132C448.164 419.907 456.884 411.671 457.54 401.59L482.194 18.5718C482.85 8.49063 475.178 0.254395 465.212 0.254395Z" fill="url(#paint12_linear)"/>
<path d="M459.114 0.254395H274.078C264.046 0.254395 255.325 8.49063 254.67 18.5718L230.016 401.59C229.36 411.671 237.032 419.907 247.064 419.907H432.099C442.131 419.907 450.852 411.671 451.508 401.59L476.162 18.5718C476.752 8.49063 469.146 0.254395 459.114 0.254395Z" fill="url(#paint13_linear)"/>
<path d="M443.508 391.574H239.982C236.769 391.574 234.212 388.873 234.409 385.644L256.768 39.0635C256.965 36.0984 259.391 33.8582 262.341 33.8582H465.867C469.08 33.8582 471.637 36.5596 471.441 39.7882L449.082 386.369C448.885 389.268 446.459 391.574 443.508 391.574Z" fill="url(#paint14_linear)"/>
<path d="M398.331 22.4594H324.304C322.665 22.4594 321.419 21.1416 321.55 19.4943C321.681 17.8471 323.058 16.5293 324.697 16.5293H398.659C400.298 16.5293 401.544 17.8471 401.413 19.4943C401.347 21.1416 399.905 22.4594 398.331 22.4594Z" fill="url(#paint15_linear)"/>
<path d="M343.712 406.136C343.384 411.934 338.532 416.612 332.762 416.612C326.992 416.612 322.599 411.934 322.861 406.136C323.189 400.338 328.041 395.659 333.811 395.659C339.581 395.659 344.04 400.338 343.712 406.136Z" fill="url(#paint16_linear)"/>
<path opacity="0.5" fill-rule="evenodd" clip-rule="evenodd" d="M237.425 390.915L243.916 107.128L461.343 108.775L443.18 391.574L237.425 390.915Z" fill="#9A2463"/>
<path fill-rule="evenodd" clip-rule="evenodd" d="M458.655 83.4075L456.753 108.38L452.819 159.642L443.181 391.574C443.181 391.574 290.667 393.024 239.851 391.574C239.523 391.574 239.064 391.508 238.474 391.377C237.884 391.179 237.491 390.981 237.491 390.981L234.606 106.601L233.622 84.3299L441.607 83.4734L458.655 83.4075Z" fill="url(#paint17_linear)"/>
<path opacity="0.2" fill-rule="evenodd" clip-rule="evenodd" d="M282.077 91.6438L283.913 110.225L400.364 110.357L402.593 92.2368L282.077 91.6438Z" fill="#3117D6"/>
<path fill-rule="evenodd" clip-rule="evenodd" d="M261.62 125.313L257.161 125.248C256.178 125.248 255.391 124.457 255.391 123.469L255.457 118.988C255.457 118 256.244 117.209 257.227 117.209L261.686 117.275C262.669 117.275 263.456 118.066 263.456 119.054L263.391 123.534C263.391 124.523 262.604 125.313 261.62 125.313Z" fill="url(#paint18_linear)"/>
<path fill-rule="evenodd" clip-rule="evenodd" d="M261.096 169.987L256.637 169.921C255.653 169.921 254.866 169.13 254.866 168.142L254.932 163.661C254.932 162.673 255.719 161.882 256.702 161.882L261.161 161.948C262.145 161.948 262.931 162.739 262.931 163.727L262.866 168.208C262.866 169.262 262.079 169.987 261.096 169.987Z" fill="url(#paint19_linear)"/>
<path fill-rule="evenodd" clip-rule="evenodd" d="M260.571 213.474L256.112 213.408C255.129 213.408 254.342 212.618 254.342 211.629L254.407 207.149C254.407 206.16 255.194 205.37 256.178 205.37L260.636 205.436C261.62 205.436 262.407 206.226 262.407 207.215L262.341 211.695C262.341 212.683 261.554 213.474 260.571 213.474Z" fill="url(#paint20_linear)"/>
<path fill-rule="evenodd" clip-rule="evenodd" d="M260.046 258.016L255.588 257.95C254.604 257.95 253.817 257.159 253.817 256.171L253.883 251.69C253.883 250.702 254.67 249.911 255.653 249.911L260.112 249.977C261.096 249.977 261.882 250.768 261.882 251.756L261.817 256.237C261.817 257.225 261.03 258.016 260.046 258.016Z" fill="url(#paint21_linear)"/>
<path d="M277.488 151.801C274.34 151.735 271.849 149.166 271.849 146.003C271.849 142.84 274.472 140.336 277.619 140.336C280.766 140.336 283.258 142.972 283.258 146.135C283.258 149.297 280.635 151.801 277.488 151.801ZM277.619 141.588C275.127 141.588 273.16 143.565 273.095 146.003C273.095 148.507 275.062 150.483 277.488 150.549C279.979 150.549 281.946 148.573 282.012 146.135C282.078 143.631 280.11 141.588 277.619 141.588Z" fill="url(#paint22_linear)"/>
<path d="M277.029 196.013C273.882 195.947 271.39 193.378 271.39 190.215C271.455 187.052 274.013 184.548 277.16 184.548C280.307 184.614 282.799 187.184 282.799 190.347C282.733 193.509 280.111 196.013 277.029 196.013ZM277.094 185.8C274.603 185.8 272.636 187.777 272.57 190.215C272.57 192.719 274.537 194.695 276.963 194.761C279.455 194.761 281.422 192.785 281.487 190.347C281.553 187.843 279.586 185.8 277.094 185.8Z" fill="url(#paint23_linear)"/>
<path d="M276.439 244.047C273.291 243.981 270.8 241.411 270.8 238.249C270.865 235.086 273.423 232.582 276.57 232.582C279.717 232.648 282.209 235.218 282.209 238.38C282.143 241.543 279.586 244.113 276.439 244.047ZM276.57 233.834C274.078 233.834 272.111 235.811 272.046 238.249C272.046 240.752 274.013 242.729 276.439 242.795C278.93 242.795 280.897 240.818 280.963 238.38C281.029 235.942 278.996 233.9 276.57 233.834Z" fill="url(#paint24_linear)"/>
<path d="M379.251 152.987C376.103 152.921 373.612 150.352 373.612 147.189C373.677 144.026 376.235 141.522 379.382 141.522C382.529 141.588 385.021 144.158 385.021 147.321C385.021 150.483 382.398 153.053 379.251 152.987ZM379.382 142.774C376.89 142.774 374.923 144.751 374.858 147.189C374.858 149.693 376.825 151.669 379.251 151.735C381.742 151.735 383.709 149.759 383.775 147.321C383.841 144.817 381.874 142.774 379.382 142.774Z" fill="url(#paint25_linear)"/>
<path d="M378.726 197.199C375.579 197.133 373.087 194.564 373.087 191.401C373.153 188.238 375.71 185.734 378.857 185.734C382.005 185.8 384.496 188.37 384.496 191.533C384.496 194.695 381.874 197.199 378.726 197.199ZM378.857 186.986C376.366 186.986 374.399 188.963 374.333 191.401C374.333 193.905 376.3 195.881 378.726 195.947C381.218 195.947 383.185 193.971 383.251 191.533C383.316 189.029 381.349 186.986 378.857 186.986Z" fill="url(#paint26_linear)"/>
<path d="M378.202 245.299C375.054 245.233 372.563 242.663 372.563 239.501C372.563 236.338 375.185 233.834 378.333 233.834C381.48 233.9 383.972 236.47 383.972 239.632C383.906 242.795 381.349 245.299 378.202 245.299ZM378.333 235.02C375.841 235.02 373.874 236.997 373.809 239.435C373.809 241.938 375.776 243.915 378.202 243.981C380.693 243.981 382.66 242.004 382.726 239.566C382.726 237.128 380.759 235.086 378.333 235.02Z" fill="url(#paint27_linear)"/>
<g opacity="0.2">
<path opacity="0.2" d="M428.05 163.972L385.566 163.472L385.503 168.808L427.988 169.309L428.05 163.972Z" fill="#6A1760"/>
<path opacity="0.2" d="M383.072 163.441L363.6 163.212L363.538 168.548L383.01 168.778L383.072 163.441Z" fill="#6A1760"/>
<g opacity="0.2">
<path opacity="0.2" d="M360.318 118.484L266.236 117.376L266.173 122.712L360.255 123.821L360.318 118.484Z" fill="#6A1760"/>
<path opacity="0.2" d="M304.523 126.722L266.169 126.27L266.107 131.607L304.461 132.058L304.523 126.722Z" fill="#6A1760"/>
<path opacity="0.2" d="M411.331 119.067L386.09 118.77L386.028 124.106L411.269 124.403L411.331 119.067Z" fill="#6A1760"/>
<path opacity="0.2" d="M367.991 127.504L308.591 126.804L308.529 132.141L367.928 132.841L367.991 127.504Z" fill="#6A1760"/>
<path opacity="0.2" d="M372.123 118.57L364.125 118.476L364.063 123.813L372.061 123.907L372.123 118.57Z" fill="#6A1760"/>
<path opacity="0.2" d="M383.663 118.702L375.665 118.608L375.602 123.944L383.601 124.039L383.663 118.702Z" fill="#6A1760"/>
<path opacity="0.2" d="M359.793 163.156L265.711 162.048L265.649 167.384L359.731 168.493L359.793 163.156Z" fill="#6A1760"/>
<path opacity="0.2" d="M303.998 171.46L265.644 171.008L265.582 176.344L303.936 176.796L303.998 171.46Z" fill="#6A1760"/>
<path opacity="0.2" d="M383.005 172.334L308.067 171.451L308.005 176.787L382.943 177.67L383.005 172.334Z" fill="#6A1760"/>
<path opacity="0.2" d="M427.067 251.933L384.583 251.432L384.521 256.769L427.005 257.269L427.067 251.933Z" fill="#6A1760"/>
<path opacity="0.2" d="M382.089 251.402L362.617 251.173L362.555 256.509L382.027 256.738L382.089 251.402Z" fill="#6A1760"/>
<path opacity="0.2" d="M358.811 251.117L264.729 250.009L264.666 255.345L358.748 256.453L358.811 251.117Z" fill="#6A1760"/>
<path opacity="0.2" d="M302.949 259.42L264.595 258.968L264.533 264.304L302.887 264.756L302.949 259.42Z" fill="#6A1760"/>
<path opacity="0.2" d="M382.022 260.36L307.084 259.478L307.021 264.814L381.959 265.697L382.022 260.36Z" fill="#6A1760"/>
<path opacity="0.2" d="M427.592 207.393L385.107 206.892L385.045 212.229L427.53 212.729L427.592 207.393Z" fill="#6A1760"/>
<path opacity="0.2" d="M382.614 206.862L363.142 206.633L363.079 211.969L382.551 212.198L382.614 206.862Z" fill="#6A1760"/>
<path opacity="0.2" d="M359.334 206.643L265.252 205.534L265.19 210.871L359.272 211.979L359.334 206.643Z" fill="#6A1760"/>
<path opacity="0.2" d="M303.474 214.879L265.12 214.427L265.058 219.764L303.412 220.216L303.474 214.879Z" fill="#6A1760"/>
<path opacity="0.2" d="M382.481 215.819L307.543 214.937L307.48 220.273L382.418 221.156L382.481 215.819Z" fill="#6A1760"/>
<path opacity="0.2" d="M322.742 144.431L286.814 144.008L286.768 147.961L322.696 148.384L322.742 144.431Z" fill="#6A1760"/>
<path opacity="0.2" d="M423.911 238.124L387.983 237.7L387.937 241.653L423.865 242.077L423.911 238.124Z" fill="#6A1760"/>
<path opacity="0.2" d="M322.217 188.839L286.289 188.416L286.243 192.369L322.171 192.792L322.217 188.839Z" fill="#6A1760"/>
<path opacity="0.2" d="M321.693 235.224L285.764 234.801L285.718 238.754L321.647 239.177L321.693 235.224Z" fill="#6A1760"/>
<path opacity="0.2" d="M299.466 241.749L285.698 241.586L285.652 245.539L299.42 245.702L299.466 241.749Z" fill="#6A1760"/>
<path opacity="0.2" d="M424.502 190.025L388.573 189.602L388.527 193.555L424.456 193.978L424.502 190.025Z" fill="#6A1760"/>
<path opacity="0.2" d="M425.026 142.586L389.098 142.163L389.052 146.116L424.98 146.539L425.026 142.586Z" fill="#6A1760"/>
<path opacity="0.2" d="M410.996 148.499L389.032 148.241L388.986 152.194L410.95 152.452L410.996 148.499Z" fill="#6A1760"/>
</g>
</g>
<path d="M264.833 148.902L261.817 148.836L261.03 150.615H259.26L263.522 141.127H263.653L267.652 150.747H265.554L264.833 148.902ZM264.243 147.386L263.39 145.146L262.472 147.386H264.243Z" fill="#967EA5"/>
<path d="M369.809 147.98C370.071 148.375 370.202 148.77 370.202 149.232C370.202 150.154 369.874 150.879 369.284 151.274C368.694 151.735 367.907 151.933 366.989 151.933L363.973 151.867L364.104 142.643H366.793C367.776 142.643 368.497 142.84 369.088 143.236C369.612 143.631 369.94 144.224 369.874 144.949C369.874 145.41 369.743 145.805 369.546 146.135C369.35 146.464 369.087 146.728 368.694 146.925C369.153 147.321 369.546 147.65 369.809 147.98ZM365.809 146.464H366.924C367.252 146.464 367.514 146.398 367.711 146.135C367.907 145.937 367.973 145.674 367.973 145.41C367.973 145.081 367.842 144.883 367.645 144.685C367.448 144.487 367.12 144.422 366.793 144.422H365.809V146.464ZM367.907 150.022C368.17 149.825 368.301 149.627 368.301 149.232C368.301 148.573 367.776 148.243 366.793 148.243H365.744V150.22H366.924C367.317 150.22 367.645 150.154 367.907 150.022Z" fill="#967EA5"/>
<path d="M264.308 193.443L261.292 193.378L260.505 195.157H258.735L262.997 185.668H263.128L267.128 195.288H265.03L264.308 193.443ZM263.718 191.862L262.866 189.622L261.948 191.862H263.718Z" fill="#967EA5"/>
<path d="M369.284 192.521C369.547 192.916 369.678 193.312 369.678 193.773C369.678 194.696 369.35 195.42 368.76 195.816C368.17 196.277 367.383 196.475 366.465 196.475L363.449 196.409L363.58 187.184H366.268C367.252 187.184 367.973 187.382 368.563 187.777C369.088 188.172 369.415 188.765 369.35 189.49C369.35 189.951 369.219 190.347 369.022 190.676C368.825 191.006 368.563 191.269 368.17 191.467C368.629 191.862 369.022 192.126 369.284 192.521ZM365.285 191.006H366.399C366.727 191.006 366.989 190.94 367.186 190.676C367.383 190.479 367.448 190.215 367.448 189.951C367.448 189.622 367.317 189.424 367.121 189.227C366.924 189.095 366.596 188.963 366.268 188.963H365.285V191.006ZM367.383 194.498C367.645 194.3 367.776 194.103 367.776 193.707C367.776 193.048 367.252 192.719 366.268 192.719H365.219V194.696H366.399C366.793 194.761 367.121 194.696 367.383 194.498Z" fill="#967EA5"/>
<path d="M263.718 241.082L260.702 241.016L259.915 242.795H258.145L262.407 233.307H262.538L266.538 242.927H264.44L263.718 241.082ZM263.194 239.566L262.341 237.326L261.423 239.566H263.194Z" fill="#967EA5"/>
<path d="M368.76 240.159C369.022 240.555 369.153 240.95 369.153 241.411C369.153 242.334 368.825 243.059 368.235 243.454C367.645 243.915 366.858 244.113 365.94 244.113L362.924 244.047L363.055 234.822H365.744C366.727 234.822 367.448 235.02 368.038 235.415C368.563 235.811 368.891 236.404 368.825 237.128C368.825 237.59 368.694 237.985 368.497 238.314C368.301 238.644 368.038 238.907 367.645 239.105C368.104 239.5 368.497 239.83 368.76 240.159ZM364.694 238.644H365.809C366.137 238.644 366.399 238.578 366.596 238.314C366.793 238.117 366.858 237.853 366.858 237.59C366.858 237.26 366.727 237.063 366.53 236.865C366.334 236.733 366.006 236.601 365.678 236.601H364.694V238.644ZM366.858 242.202C367.121 242.004 367.252 241.807 367.252 241.411C367.252 240.752 366.727 240.423 365.744 240.423H364.694V242.4H365.875C366.268 242.4 366.596 242.334 366.858 242.202Z" fill="#967EA5"/>
<path fill-rule="evenodd" clip-rule="evenodd" d="M280.111 146.069C280.111 147.518 278.93 148.638 277.488 148.638C276.045 148.638 274.931 147.452 274.931 146.003C274.931 144.553 276.111 143.433 277.553 143.433C278.996 143.499 280.176 144.685 280.111 146.069Z" fill="#967EA5"/>
<path fill-rule="evenodd" clip-rule="evenodd" d="M381.349 191.467C381.349 192.916 380.169 194.037 378.726 194.037C377.284 194.037 376.169 192.851 376.169 191.401C376.169 189.951 377.349 188.831 378.792 188.831C380.234 188.897 381.414 190.083 381.349 191.467Z" fill="#967EA5"/>
<path fill-rule="evenodd" clip-rule="evenodd" d="M380.824 239.83C380.824 241.279 379.644 242.4 378.202 242.4C376.759 242.4 375.645 241.214 375.645 239.764C375.645 238.314 376.825 237.194 378.267 237.194C379.71 237.26 380.824 238.38 380.824 239.83Z" fill="#967EA5"/>
<path fill-rule="evenodd" clip-rule="evenodd" d="M527.961 203.327C527.502 206.621 500.684 207.346 468.555 202.866C436.427 198.385 410.92 190.742 411.314 187.447C411.773 184.153 438.394 183.758 470.523 188.238C502.651 192.785 528.354 200.032 527.961 203.327Z" fill="url(#paint28_linear)"/>
<path fill-rule="evenodd" clip-rule="evenodd" d="M409.478 179.475L411.314 187.447L527.764 203.722L531.633 196.54L409.478 179.475Z" fill="url(#paint29_linear)"/>
<path fill-rule="evenodd" clip-rule="evenodd" d="M552.943 42.3579C552.484 45.6524 523.043 45.6524 490.849 41.1719C458.72 36.6914 430.329 28.6528 430.788 25.3584C431.247 22.0639 460.491 23.6452 492.619 28.1257C526.125 32.738 553.402 39.0634 552.943 42.3579Z" fill="url(#paint30_linear)"/>
<path fill-rule="evenodd" clip-rule="evenodd" d="M430.788 25.3584L432.558 33.2652L549.009 49.54L552.943 42.358L430.788 25.3584Z" fill="url(#paint31_linear)"/>
<path fill-rule="evenodd" clip-rule="evenodd" d="M531.633 196.54C531.174 199.835 503.438 198.714 469.736 193.97C436.033 189.292 409.019 182.769 409.478 179.475C409.937 176.18 437.673 177.3 471.375 182.044C505.143 186.723 532.092 193.246 531.633 196.54Z" fill="url(#paint32_linear)"/>
<path fill-rule="evenodd" clip-rule="evenodd" d="M432.558 33.2651C432.558 33.2651 479.702 44.0711 549.009 49.474C549.009 49.5399 517.077 37.7456 432.558 33.2651Z" fill="url(#paint33_linear)"/>
<path opacity="0.72" fill-rule="evenodd" clip-rule="evenodd" d="M541.009 48.5517C503.045 40.8426 476.424 36.6256 437.345 34.1218C437.345 34.1218 424.165 81.6284 476.948 114.639L478.981 114.903L481.014 115.166C540.813 97.8373 541.009 48.5517 541.009 48.5517Z" fill="url(#paint34_linear)"/>
<path opacity="0.72" fill-rule="evenodd" clip-rule="evenodd" d="M417.084 181.32C452.753 190.281 487.964 195.157 520.749 195.75C520.749 195.75 533.928 148.243 481.145 115.232L479.112 114.969L477.08 114.705C417.281 131.968 417.084 181.32 417.084 181.32Z" fill="url(#paint35_linear)"/>
<path fill-rule="evenodd" clip-rule="evenodd" d="M454.917 89.9304C454.917 89.9304 466.13 107.787 479.112 110.817C491.767 113.783 518.257 89.7986 518.257 89.7986C518.257 89.7986 481.866 102.977 454.917 89.9304Z" fill="url(#paint36_linear)"/>
<path fill-rule="evenodd" clip-rule="evenodd" d="M454.917 89.9305C454.917 89.9305 467.965 84.2639 479.637 90.5894C479.899 96.2559 518.257 89.7987 518.257 89.7987C518.257 89.7987 500.488 99.0232 479.899 96.2559C459.31 93.4885 454.917 89.9305 454.917 89.9305Z" fill="url(#paint37_linear)"/>
<path fill-rule="evenodd" clip-rule="evenodd" d="M430.788 154.173C430.788 154.173 423.444 163.793 423.116 178.091C423.116 178.091 447.573 184.417 470.523 188.041C493.472 191.664 518.191 191.599 518.191 191.599C518.191 191.599 521.863 166.495 511.11 148.507C511.11 148.507 505.93 160.762 496.816 165.638C487.702 170.514 488.882 166.89 463.376 162.871C437.804 158.917 430.788 154.173 430.788 154.173Z" fill="url(#paint38_linear)"/>
<path fill-rule="evenodd" clip-rule="evenodd" d="M511.176 148.507C511.176 148.507 500.816 155.82 483.505 157.665C466.195 159.51 460.687 153.382 449.147 153.053C437.607 152.724 430.854 154.107 430.854 154.107C430.854 154.107 439.246 160.433 460.294 164.057C481.276 167.746 492.882 171.568 501.996 166.363C510.979 161.223 511.176 148.507 511.176 148.507Z" fill="url(#paint39_linear)"/>
<path fill-rule="evenodd" clip-rule="evenodd" d="M454.917 158.719C454.917 158.719 485.8 165.308 499.307 158.719C499.307 158.719 484.686 143.631 480.161 141.456C475.571 139.348 455.966 153.382 454.917 158.719Z" fill="url(#paint40_linear)"/>
<path fill-rule="evenodd" clip-rule="evenodd" d="M477.604 109.961C477.604 109.961 480.489 123.6 477.604 141.456L480.883 141.918C480.883 141.918 478.325 121.623 481.669 110.554L477.604 109.961Z" fill="url(#paint41_linear)"/>
<path fill-rule="evenodd" clip-rule="evenodd" d="M483.046 92.566L474.195 95.3992C474.195 95.3992 478.588 97.31 493.341 96.5194C508.094 95.7287 518.257 89.7986 518.257 89.7986C518.257 89.7986 502.651 92.566 493.8 92.566C485.013 92.566 483.046 92.566 483.046 92.566Z" fill="url(#paint42_linear)"/>
<path fill-rule="evenodd" clip-rule="evenodd" d="M573.4 367.92L571.958 416.942C571.958 416.942 563.762 419.973 550.976 421.949C528.617 425.442 492.226 425.705 461.605 400.799L470.129 365.021L472.096 356.719L573.4 367.92Z" fill="url(#paint43_linear)"/>
<path fill-rule="evenodd" clip-rule="evenodd" d="M429.28 327.99L429.214 330.956L502.061 379.78L633.527 377.012L634.773 372.268L429.28 327.99Z" fill="url(#paint44_linear)"/>
<path fill-rule="evenodd" clip-rule="evenodd" d="M429.281 327.99L548.617 329.308L634.774 372.269L504.882 374.113L429.281 327.99Z" fill="url(#paint45_linear)"/>
<path opacity="0.3" fill-rule="evenodd" clip-rule="evenodd" d="M502.062 379.78L504.881 374.113L634.773 372.269L633.527 377.013L502.062 379.78Z" fill="#6A1760"/>
<path fill-rule="evenodd" clip-rule="evenodd" d="M669 426.43C668.279 433.546 664.869 435.457 664.869 435.457C652.936 432.031 641.068 424.914 633.855 420.105L633.593 419.973C633.462 419.907 633.33 419.841 633.265 419.709C632.937 419.511 632.609 419.248 632.347 419.05C632.872 419.38 633.33 419.775 633.855 420.105C634.183 420.368 634.576 420.632 634.904 420.829L635.232 421.093C653.854 434.073 662.902 438.027 662.902 438.027L660.279 440.333C644.739 432.031 626.315 416.612 625.003 415.492C625.069 415.558 625.134 415.624 625.2 415.69C629.79 420.302 634.904 424.651 639.625 428.407C639.887 428.604 640.15 428.868 640.477 429.066C641.395 429.79 642.248 430.449 643.166 431.108L643.756 431.569C644.018 431.767 644.215 431.899 644.477 432.096L644.543 432.162C652.345 437.961 658.312 441.716 658.312 441.716C645.133 454.894 633.789 455.158 633.789 455.158C620.545 438.817 618.774 416.546 618.774 416.546C613.201 414.504 610.644 411.802 609.66 409.167C608.021 404.818 610.644 400.733 610.644 400.733C615.955 401.524 615.692 397.768 615.692 397.768C622.118 399.547 624.806 402.578 625.921 405.411C625.921 405.411 625.921 405.477 625.987 405.543C625.987 405.609 626.052 405.741 626.118 405.938C626.97 408.574 626.446 410.814 626.315 411.209V411.275L627.429 412C645.264 423.135 669 426.43 669 426.43Z" fill="url(#paint46_linear)"/>
<path fill-rule="evenodd" clip-rule="evenodd" d="M523.699 347.889L527.633 345.451L606.513 370.555C606.513 370.555 609.66 392.76 615.561 397.768C615.561 397.768 618.053 402.644 610.447 400.733C610.447 400.733 611.168 400.206 601.071 374.311L523.699 347.889Z" fill="url(#paint47_linear)"/>
<path opacity="0.5" fill-rule="evenodd" clip-rule="evenodd" d="M633.199 419.709C633.003 419.577 632.872 419.446 632.74 419.314L633.593 419.907L633.855 420.038L634.904 420.829C634.511 420.566 634.183 420.302 633.855 420.104C633.593 419.973 633.396 419.841 633.199 419.709Z" fill="#9A2463"/>
<path fill-rule="evenodd" clip-rule="evenodd" d="M168.25 285.689C168.25 285.689 171.791 279.628 201.821 275.674L199.658 231.726C199.658 231.726 171.987 232.648 158.611 240.357L168.25 285.689Z" fill="url(#paint48_linear)"/>
<path opacity="0.3" fill-rule="evenodd" clip-rule="evenodd" d="M196.51 276.399L194.609 231.989L199.657 231.726L201.887 275.608L196.51 276.399Z" fill="#953345"/>
<path fill-rule="evenodd" clip-rule="evenodd" d="M199.33 224.807C199.33 224.807 171.594 225.993 154.284 227.64L153.235 206.358C153.235 206.358 179.528 204.513 198.346 203.986L199.33 224.807Z" fill="url(#paint49_linear)"/>
<path opacity="0.3" fill-rule="evenodd" clip-rule="evenodd" d="M194.346 225.005L199.33 224.807L198.281 203.986L193.428 204.052L194.346 225.005Z" fill="#953345"/>
<path fill-rule="evenodd" clip-rule="evenodd" d="M34.2271 204.184C34.2271 204.184 48.3244 207.873 61.7004 222.106L73.0439 209.85C73.0439 209.85 66.2247 194.3 45.7672 186.261L34.2271 204.184Z" fill="url(#paint50_linear)"/>
<path fill-rule="evenodd" clip-rule="evenodd" d="M3.21289 269.019C3.21289 269.019 15.3431 244.508 40.1938 234.625L60.9791 266.911C60.9791 266.911 42.9477 274.027 31.6698 292.344L3.21289 269.019Z" fill="url(#paint51_linear)"/>
<path fill-rule="evenodd" clip-rule="evenodd" d="M32.7844 424.783C32.7844 424.783 26.4242 411.869 30.6206 389.862L166.414 386.04L217.099 383.273L217.033 385.842L211.197 386.37L210.017 408.904L215.722 409.102L215.591 412.528L162.676 425.706L32.7844 424.783Z" fill="url(#paint52_linear)"/>
<path fill-rule="evenodd" clip-rule="evenodd" d="M211.263 386.303L166.283 390.652L35.4072 394.21C35.4072 394.21 29.506 405.279 36.3907 422.806L162.48 421.554L210.083 408.838L211.263 386.303Z" fill="url(#paint53_linear)"/>
<path fill-rule="evenodd" clip-rule="evenodd" d="M36.3251 422.872L38.1611 422.938C38.1611 422.938 31.7353 412.396 37.3742 394.21L34.2925 394.078C34.2925 394.078 30.0961 407.915 36.3251 422.872Z" fill="url(#paint54_linear)"/>
<path opacity="0.2" fill-rule="evenodd" clip-rule="evenodd" d="M39.0134 399.481L160.906 394.473L209.952 388.28L160.775 395.132L39.0134 399.481Z" fill="#6A1760"/>
<path opacity="0.2" fill-rule="evenodd" clip-rule="evenodd" d="M45.9636 419.973L159.332 417.798L208.837 407.454L159.136 417.337L45.9636 419.973Z" fill="#6A1760"/>
<path opacity="0.2" fill-rule="evenodd" clip-rule="evenodd" d="M40.5215 418.391L159.136 415.69L210.148 406.729L159.005 414.833L40.5215 418.391Z" fill="#6A1760"/>
<path opacity="0.5" fill-rule="evenodd" clip-rule="evenodd" d="M162.545 422.872L215.787 409.101L215.656 412.527L162.742 425.705L162.545 422.872Z" fill="#6A1760"/>
<path fill-rule="evenodd" clip-rule="evenodd" d="M30.6206 389.861L106.484 385.315L217.099 383.206L166.414 385.974L30.6206 389.861Z" fill="url(#paint55_linear)"/>
<path fill-rule="evenodd" clip-rule="evenodd" d="M58.8153 417.996C58.8153 417.996 40.3248 423.399 39.8003 437.763L68.5195 437.565C68.5195 437.565 69.4375 425.903 81.371 417.469L58.8153 417.996Z" fill="url(#paint56_linear)"/>
<path fill-rule="evenodd" clip-rule="evenodd" d="M3.21283 339.06L111.467 335.436L175.856 336.556L175.921 332.669L111.467 330.363L4.39307 335.7C4.39307 335.7 0.917918 326.936 3.67181 319.03L105.566 281.472L177.43 294.255L177.298 290.565L106.484 277.255L0.983487 316.328C0.983487 316.328 -2.29496 326.014 3.21283 339.06Z" fill="url(#paint57_linear)"/>
<path fill-rule="evenodd" clip-rule="evenodd" d="M177.364 294.255L102.156 320.084L3.54077 319.03L107.009 280.945L177.364 294.255Z" fill="url(#paint58_linear)"/>
<path fill-rule="evenodd" clip-rule="evenodd" d="M3.67186 319.029C3.67186 319.029 0.524552 327.793 4.45869 336.886L110.746 330.297L173.102 332.537C173.102 332.537 168.774 323.312 169.299 309.41L102.419 303.414L3.67186 319.029Z" fill="url(#paint59_linear)"/>
<path fill-rule="evenodd" clip-rule="evenodd" d="M7.93382 336.622C7.93382 336.622 4.52423 324.828 6.4913 318.568L3.5407 319.03C3.5407 319.03 2.95058 320.809 2.55716 323.971C2.16375 327.595 2.29489 332.537 4.3931 336.886L7.93382 336.622Z" fill="url(#paint60_linear)"/>
<path opacity="0.5" fill-rule="evenodd" clip-rule="evenodd" d="M102.353 303.414C102.353 303.414 101.173 322.258 105.369 330.099L173.037 332.537C173.037 332.537 169.102 323.444 169.234 309.41L102.353 303.414Z" fill="#6A1760"/>
<path fill-rule="evenodd" clip-rule="evenodd" d="M6.55688 318.568L104.189 292.081L169.889 304.27L161.693 308.751L102.353 303.414L6.55688 318.568Z" fill="url(#paint61_linear)"/>
<path opacity="0.5" fill-rule="evenodd" clip-rule="evenodd" d="M169.889 304.27L104.189 292.081V293.596L13.376 317.514L102.353 303.414L161.693 308.751L169.889 304.27Z" fill="#6A1760"/>
<path fill-rule="evenodd" clip-rule="evenodd" d="M169.889 304.27L104.189 293.596L13.376 317.514L102.353 303.414L161.693 308.751L169.889 304.27Z" fill="url(#paint62_linear)"/>
<path opacity="0.5" fill-rule="evenodd" clip-rule="evenodd" d="M110.746 330.297L111.533 335.436L175.856 336.556L175.921 332.669L110.746 330.297Z" fill="#B61760"/>
<path opacity="0.5" fill-rule="evenodd" clip-rule="evenodd" d="M106.418 277.255L107.009 280.945L177.364 294.255L177.233 290.565L106.418 277.255Z" fill="#B61760"/>
<path opacity="0.2" fill-rule="evenodd" clip-rule="evenodd" d="M9.24512 325.091L102.55 317.58V316.328L9.24512 325.091Z" fill="#6A1760"/>
<path opacity="0.2" fill-rule="evenodd" clip-rule="evenodd" d="M103.533 324.762L84.584 326.014L103.927 326.212L103.533 324.762Z" fill="#6A1760"/>
<path fill-rule="evenodd" clip-rule="evenodd" d="M3.21289 339.06L175.856 336.556L111.533 335.436L3.21289 339.06Z" fill="url(#paint63_linear)"/>
<path fill-rule="evenodd" clip-rule="evenodd" d="M27.2767 386.435L143.596 381.164L213.427 378.528C213.427 378.528 221.295 362.517 214.542 344.858L147.53 339.258L28.0635 343.014L28.3258 347.428H34.5549C34.5549 347.428 40.4561 364.032 34.0959 381.164L26.8833 381.954L27.2767 386.435Z" fill="url(#paint64_linear)"/>
<path fill-rule="evenodd" clip-rule="evenodd" d="M34.4893 347.494L144.776 344.134C144.776 344.134 149.563 353.754 146.284 376.288L34.0303 381.164C34.0303 381.23 39.3414 364.889 34.4893 347.494Z" fill="url(#paint65_linear)"/>
<path opacity="0.5" fill-rule="evenodd" clip-rule="evenodd" d="M147.53 339.258C147.53 339.258 153.3 352.831 149.563 380.768L213.493 378.528C213.493 378.528 221.623 361.463 214.607 344.858L147.53 339.258Z" fill="#6A1760"/>
<path opacity="0.2" fill-rule="evenodd" clip-rule="evenodd" d="M36.1284 355.862L126.155 353.622L36.5218 356.653L36.1284 355.862Z" fill="#6A1760"/>
<path opacity="0.2" fill-rule="evenodd" clip-rule="evenodd" d="M35.3416 377.013L53.1764 376.552L35.0793 378.001L35.3416 377.013Z" fill="#6A1760"/>
<path fill-rule="evenodd" clip-rule="evenodd" d="M65.3067 355.664C65.3067 355.664 57.3072 357.114 48.98 361.331L69.8309 360.672C69.8309 360.672 72.5848 357.575 78.3549 355.269L65.3067 355.664Z" fill="url(#paint66_linear)"/>
<path opacity="0.2" fill-rule="evenodd" clip-rule="evenodd" d="M97.042 369.238L147.202 367.722L147.071 369.435L97.042 369.238Z" fill="#6A1760"/>
<path fill-rule="evenodd" clip-rule="evenodd" d="M103.074 369.106L97.8289 371.28L112.188 371.148L116.45 369.04L103.074 369.106Z" fill="url(#paint67_linear)"/>
</g>
<defs>
<linearGradient id="paint0_linear" x1="164.272" y1="256.139" x2="114.777" y2="37.8428" gradientUnits="userSpaceOnUse">
<stop offset="0.0171145" stop-color="#FFDAC7"/>
<stop offset="1" stop-color="#FFF3C2"/>
</linearGradient>
<linearGradient id="paint1_linear" x1="500.958" y1="317.17" x2="514.052" y2="227.945" gradientUnits="userSpaceOnUse">
<stop offset="0.0171145" stop-color="#FFDAC7"/>
<stop offset="1" stop-color="#FFF3C2"/>
</linearGradient>
<linearGradient id="paint2_linear" x1="496.738" y1="266.403" x2="603.577" y2="188.044" gradientUnits="userSpaceOnUse">
<stop stop-color="#FF9085"/>
<stop offset="1" stop-color="#FFA140"/>
</linearGradient>
<linearGradient id="paint3_linear" x1="598.942" y1="185.914" x2="612.035" y2="185.914" gradientUnits="userSpaceOnUse">
<stop offset="0.7161" stop-color="#FF9085"/>
<stop offset="1" stop-color="#FFA140"/>
</linearGradient>
<linearGradient id="paint4_linear" x1="499.897" y1="231.614" x2="607.313" y2="231.614" gradientUnits="userSpaceOnUse">
<stop offset="0.7161" stop-color="#FF9085"/>
<stop offset="1" stop-color="#FFA140"/>
</linearGradient>
<linearGradient id="paint5_linear" x1="479.995" y1="276.261" x2="602.391" y2="186.493" gradientUnits="userSpaceOnUse">
<stop offset="0.7161" stop-color="#FF9085"/>
<stop offset="1" stop-color="#FFA140"/>
</linearGradient>
<linearGradient id="paint6_linear" x1="605.04" y1="183.458" x2="612.035" y2="183.458" gradientUnits="userSpaceOnUse">
<stop stop-color="#DD7500"/>
<stop offset="1" stop-color="#CD6327"/>
</linearGradient>
<linearGradient id="paint7_linear" x1="482.452" y1="279.521" x2="486.515" y2="277.402" gradientUnits="userSpaceOnUse">
<stop offset="0.00558659" stop-color="#2A0E51"/>
<stop offset="1" stop-color="#50306C"/>
</linearGradient>
<radialGradient id="paint8_radial" cx="0" cy="0" r="1" gradientUnits="userSpaceOnUse" gradientTransform="translate(601.241 188.866) rotate(53.7426) scale(5.26258 5.25492)">
<stop stop-color="#EBD7E3"/>
<stop offset="0.9829" stop-color="#BDAFD2"/>
</radialGradient>
<linearGradient id="paint9_linear" x1="333.826" y1="448.85" x2="333.826" y2="475.236" gradientUnits="userSpaceOnUse">
<stop stop-color="#456974"/>
<stop offset="0.9964" stop-color="#37474F"/>
</linearGradient>
<linearGradient id="paint10_linear" x1="331.055" y1="451.805" x2="331.055" y2="398.635" gradientUnits="userSpaceOnUse">
<stop stop-color="#456974"/>
<stop offset="0.9964" stop-color="#37474F"/>
</linearGradient>
<linearGradient id="paint11_linear" x1="331.055" y1="426.117" x2="331.055" y2="453.597" gradientUnits="userSpaceOnUse">
<stop stop-color="#456974"/>
<stop offset="0.9964" stop-color="#37474F"/>
</linearGradient>
<linearGradient id="paint12_linear" x1="356.133" y1="419.863" x2="356.133" y2="0.254395" gradientUnits="userSpaceOnUse">
<stop stop-color="#178573"/>
<stop offset="1" stop-color="#35CEB5"/>
</linearGradient>
<linearGradient id="paint13_linear" x1="353.091" y1="0.260574" x2="353.091" y2="419.869" gradientUnits="userSpaceOnUse">
<stop stop-color="#B4F3E9"/>
<stop offset="1" stop-color="#27DEBF"/>
</linearGradient>
<linearGradient id="paint14_linear" x1="352.932" y1="33.7809" x2="352.932" y2="391.562" gradientUnits="userSpaceOnUse">
<stop stop-color="white"/>
<stop offset="1" stop-color="#FCEAF9"/>
</linearGradient>
<linearGradient id="paint15_linear" x1="361.504" y1="22.4361" x2="361.504" y2="16.5098" gradientUnits="userSpaceOnUse">
<stop stop-color="white"/>
<stop offset="1" stop-color="#FCEAF9"/>
</linearGradient>
<linearGradient id="paint16_linear" x1="333.317" y1="416.599" x2="333.317" y2="395.649" gradientUnits="userSpaceOnUse">
<stop stop-color="white"/>
<stop offset="1" stop-color="#FCEAF9"/>
</linearGradient>
<linearGradient id="paint17_linear" x1="342.512" y1="392.901" x2="346.173" y2="82.0641" gradientUnits="userSpaceOnUse">
<stop offset="0.0171145" stop-color="#C2B5D6"/>
<stop offset="0.1847" stop-color="#D3C6DE"/>
<stop offset="0.4362" stop-color="#E5D8E7"/>
<stop offset="0.7013" stop-color="#EFE2EC"/>
<stop offset="1" stop-color="#F3E6EE"/>
</linearGradient>
<linearGradient id="paint18_linear" x1="255.452" y1="121.253" x2="263.444" y2="121.319" gradientUnits="userSpaceOnUse">
<stop stop-color="#FF9085"/>
<stop offset="1" stop-color="#FFA140"/>
</linearGradient>
<linearGradient id="paint19_linear" x1="254.931" y1="165.942" x2="262.923" y2="166.008" gradientUnits="userSpaceOnUse">
<stop stop-color="#FF9085"/>
<stop offset="1" stop-color="#FFA140"/>
</linearGradient>
<linearGradient id="paint20_linear" x1="254.423" y1="209.417" x2="262.416" y2="209.483" gradientUnits="userSpaceOnUse">
<stop stop-color="#FF9085"/>
<stop offset="1" stop-color="#FFA140"/>
</linearGradient>
<linearGradient id="paint21_linear" x1="253.904" y1="253.95" x2="261.896" y2="254.016" gradientUnits="userSpaceOnUse">
<stop stop-color="#FF9085"/>
<stop offset="1" stop-color="#FFA140"/>
</linearGradient>
<linearGradient id="paint22_linear" x1="271.89" y1="146.019" x2="283.286" y2="146.114" gradientUnits="userSpaceOnUse">
<stop stop-color="#FF9085"/>
<stop offset="1" stop-color="#FFA140"/>
</linearGradient>
<linearGradient id="paint23_linear" x1="271.374" y1="190.226" x2="282.771" y2="190.32" gradientUnits="userSpaceOnUse">
<stop stop-color="#FF9085"/>
<stop offset="1" stop-color="#FFA140"/>
</linearGradient>
<linearGradient id="paint24_linear" x1="270.813" y1="238.302" x2="282.21" y2="238.396" gradientUnits="userSpaceOnUse">
<stop stop-color="#FF9085"/>
<stop offset="1" stop-color="#FFA140"/>
</linearGradient>
<linearGradient id="paint25_linear" x1="373.643" y1="147.218" x2="385.04" y2="147.312" gradientUnits="userSpaceOnUse">
<stop stop-color="#FF9085"/>
<stop offset="1" stop-color="#FFA140"/>
</linearGradient>
<linearGradient id="paint26_linear" x1="373.127" y1="191.424" x2="384.525" y2="191.519" gradientUnits="userSpaceOnUse">
<stop stop-color="#FF9085"/>
<stop offset="1" stop-color="#FFA140"/>
</linearGradient>
<linearGradient id="paint27_linear" x1="372.567" y1="239.501" x2="383.964" y2="239.595" gradientUnits="userSpaceOnUse">
<stop stop-color="#FF9085"/>
<stop offset="1" stop-color="#FFA140"/>
</linearGradient>
<linearGradient id="paint28_linear" x1="411.297" y1="187.471" x2="527.901" y2="203.567" gradientUnits="userSpaceOnUse">
<stop stop-color="#456974"/>
<stop offset="0.9964" stop-color="#37474F"/>
</linearGradient>
<linearGradient id="paint29_linear" x1="408.974" y1="183.291" x2="531.129" y2="200.154" gradientUnits="userSpaceOnUse">
<stop stop-color="#456974"/>
<stop offset="0.9964" stop-color="#37474F"/>
</linearGradient>
<linearGradient id="paint30_linear" x1="430.675" y1="26.113" x2="552.83" y2="42.9755" gradientUnits="userSpaceOnUse">
<stop stop-color="#456974"/>
<stop offset="0.9964" stop-color="#37474F"/>
</linearGradient>
<linearGradient id="paint31_linear" x1="430.261" y1="29.1154" x2="552.416" y2="45.9779" gradientUnits="userSpaceOnUse">
<stop stop-color="#456974"/>
<stop offset="0.9964" stop-color="#37474F"/>
</linearGradient>
<linearGradient id="paint32_linear" x1="519.605" y1="182.872" x2="426.23" y2="192.579" gradientUnits="userSpaceOnUse">
<stop stop-color="#456974"/>
<stop offset="0.9964" stop-color="#37474F"/>
</linearGradient>
<linearGradient id="paint33_linear" x1="432.677" y1="32.6217" x2="549.14" y2="48.6985" gradientUnits="userSpaceOnUse">
<stop stop-color="#456974"/>
<stop offset="0.9964" stop-color="#37474F"/>
</linearGradient>
<linearGradient id="paint34_linear" x1="479.043" y1="114.911" x2="489.576" y2="39.3497" gradientUnits="userSpaceOnUse">
<stop offset="0.0171145" stop-color="#CEC4DE"/>
<stop offset="1" stop-color="#F0E1EA"/>
</linearGradient>
<linearGradient id="paint35_linear" x1="468.474" y1="191.452" x2="479.142" y2="114.925" gradientUnits="userSpaceOnUse">
<stop offset="0.0171145" stop-color="#CEC4DE"/>
<stop offset="1" stop-color="#F0E1EA"/>
</linearGradient>
<linearGradient id="paint36_linear" x1="486.584" y1="111.079" x2="486.584" y2="89.8301" gradientUnits="userSpaceOnUse">
<stop stop-color="#FF9085"/>
<stop offset="1" stop-color="#FFA140"/>
</linearGradient>
<linearGradient id="paint37_linear" x1="454.909" y1="92.2021" x2="518.258" y2="92.2021" gradientUnits="userSpaceOnUse">
<stop offset="0.7161" stop-color="#FF9085"/>
<stop offset="1" stop-color="#FFA140"/>
</linearGradient>
<linearGradient id="paint38_linear" x1="470.99" y1="191.606" x2="470.99" y2="148.535" gradientUnits="userSpaceOnUse">
<stop stop-color="#FF9085"/>
<stop offset="1" stop-color="#FFA140"/>
</linearGradient>
<linearGradient id="paint39_linear" x1="460.983" y1="171.77" x2="483.704" y2="132.607" gradientUnits="userSpaceOnUse">
<stop offset="0.7161" stop-color="#FF9085"/>
<stop offset="1" stop-color="#FFA140"/>
</linearGradient>
<linearGradient id="paint40_linear" x1="477.101" y1="141.282" x2="477.101" y2="161.682" gradientUnits="userSpaceOnUse">
<stop stop-color="#FF9085"/>
<stop offset="1" stop-color="#FFA140"/>
</linearGradient>
<linearGradient id="paint41_linear" x1="479.631" y1="141.935" x2="479.631" y2="109.959" gradientUnits="userSpaceOnUse">
<stop offset="0.7161" stop-color="#FF9085"/>
<stop offset="1" stop-color="#FFA140"/>
</linearGradient>
<linearGradient id="paint42_linear" x1="474.203" y1="93.2807" x2="518.258" y2="93.2807" gradientUnits="userSpaceOnUse">
<stop offset="0.7161" stop-color="#FF9085"/>
<stop offset="1" stop-color="#FFA140"/>
</linearGradient>
<linearGradient id="paint43_linear" x1="461.139" y1="397.873" x2="575.174" y2="378.651" gradientUnits="userSpaceOnUse">
<stop stop-color="#178573"/>
<stop offset="1" stop-color="#35CEB5"/>
</linearGradient>
<linearGradient id="paint44_linear" x1="435.566" y1="368.796" x2="628.645" y2="336.25" gradientUnits="userSpaceOnUse">
<stop stop-color="#178573"/>
<stop offset="1" stop-color="#35CEB5"/>
</linearGradient>
<linearGradient id="paint45_linear" x1="538.483" y1="388.658" x2="525.37" y2="311.623" gradientUnits="userSpaceOnUse">
<stop stop-color="#35CEB5"/>
<stop offset="1" stop-color="#B4F3E9"/>
</linearGradient>
<linearGradient id="paint46_linear" x1="645.101" y1="453.283" x2="635.084" y2="394.436" gradientUnits="userSpaceOnUse">
<stop stop-color="#FF9085"/>
<stop offset="1" stop-color="#FFA140"/>
</linearGradient>
<linearGradient id="paint47_linear" x1="575.555" y1="407.686" x2="563.913" y2="339.286" gradientUnits="userSpaceOnUse">
<stop stop-color="#FF9085"/>
<stop offset="1" stop-color="#FFA140"/>
</linearGradient>
<linearGradient id="paint48_linear" x1="158.589" y1="258.692" x2="201.857" y2="258.692" gradientUnits="userSpaceOnUse">
<stop stop-color="#35CEB5"/>
<stop offset="1" stop-color="#B4F3E9"/>
</linearGradient>
<linearGradient id="paint49_linear" x1="153.188" y1="215.811" x2="199.316" y2="215.811" gradientUnits="userSpaceOnUse">
<stop stop-color="#35CEB5"/>
<stop offset="1" stop-color="#B4F3E9"/>
</linearGradient>
<linearGradient id="paint50_linear" x1="53.665" y1="222.054" x2="53.665" y2="186.254" gradientUnits="userSpaceOnUse">
<stop stop-color="#35CEB5"/>
<stop offset="1" stop-color="#B4F3E9"/>
</linearGradient>
<linearGradient id="paint51_linear" x1="32.1095" y1="292.333" x2="32.1095" y2="234.595" gradientUnits="userSpaceOnUse">
<stop stop-color="#35CEB5"/>
<stop offset="1" stop-color="#B4F3E9"/>
</linearGradient>
<linearGradient id="paint52_linear" x1="123.156" y1="425.709" x2="123.156" y2="383.226" gradientUnits="userSpaceOnUse">
<stop stop-color="#178573"/>
<stop offset="1" stop-color="#35CEB5"/>
</linearGradient>
<linearGradient id="paint53_linear" x1="33.1663" y1="401.235" x2="210.445" y2="407.696" gradientUnits="userSpaceOnUse">
<stop stop-color="white"/>
<stop offset="0.4124" stop-color="#FEF5FC"/>
<stop offset="1" stop-color="#FCEAF9"/>
</linearGradient>
<linearGradient id="paint54_linear" x1="32.7587" y1="408.345" x2="38.687" y2="408.561" gradientUnits="userSpaceOnUse">
<stop stop-color="#456974"/>
<stop offset="0.9964" stop-color="#37474F"/>
</linearGradient>
<linearGradient id="paint55_linear" x1="123.883" y1="383.237" x2="123.883" y2="389.849" gradientUnits="userSpaceOnUse">
<stop stop-color="#178573"/>
<stop offset="1" stop-color="#35CEB5"/>
</linearGradient>
<linearGradient id="paint56_linear" x1="60.2149" y1="438.46" x2="61.0158" y2="416.698" gradientUnits="userSpaceOnUse">
<stop stop-color="#35CEB5"/>
<stop offset="1" stop-color="#B4F3E9"/>
</linearGradient>
<linearGradient id="paint57_linear" x1="88.3052" y1="340.13" x2="89.0826" y2="277.058" gradientUnits="userSpaceOnUse">
<stop stop-color="#178573"/>
<stop offset="1" stop-color="#35CEB5"/>
</linearGradient>
<linearGradient id="paint58_linear" x1="3.56746" y1="300.514" x2="177.376" y2="300.514" gradientUnits="userSpaceOnUse">
<stop stop-color="#178573"/>
<stop offset="1" stop-color="#35CEB5"/>
</linearGradient>
<linearGradient id="paint59_linear" x1="2.54272" y1="319.52" x2="173.195" y2="321.603" gradientUnits="userSpaceOnUse">
<stop stop-color="white"/>
<stop offset="0.4124" stop-color="#FEF5FC"/>
<stop offset="1" stop-color="#FCEAF9"/>
</linearGradient>
<linearGradient id="paint60_linear" x1="2.42327" y1="327.727" x2="7.95592" y2="327.727" gradientUnits="userSpaceOnUse">
<stop stop-color="#456974"/>
<stop offset="0.9964" stop-color="#37474F"/>
</linearGradient>
<linearGradient id="paint61_linear" x1="6.69921" y1="304.74" x2="169.829" y2="306.731" gradientUnits="userSpaceOnUse">
<stop stop-color="white"/>
<stop offset="0.4124" stop-color="#FEF5FC"/>
<stop offset="1" stop-color="#FCEAF9"/>
</linearGradient>
<linearGradient id="paint62_linear" x1="91.607" y1="317.505" x2="91.607" y2="293.612" gradientUnits="userSpaceOnUse">
<stop stop-color="white"/>
<stop offset="0.4124" stop-color="#FEF5FC"/>
<stop offset="1" stop-color="#FCEAF9"/>
</linearGradient>
<linearGradient id="paint63_linear" x1="3.23315" y1="337.265" x2="175.87" y2="337.265" gradientUnits="userSpaceOnUse">
<stop stop-color="#456974"/>
<stop offset="0.9964" stop-color="#37474F"/>
</linearGradient>
<linearGradient id="paint64_linear" x1="121.41" y1="389.579" x2="123.099" y2="338.494" gradientUnits="userSpaceOnUse">
<stop stop-color="#35CEB5"/>
<stop offset="1" stop-color="#B4F3E9"/>
</linearGradient>
<linearGradient id="paint65_linear" x1="34.0646" y1="360.855" x2="147.397" y2="364.564" gradientUnits="userSpaceOnUse">
<stop stop-color="white"/>
<stop offset="0.4124" stop-color="#FEF5FC"/>
<stop offset="1" stop-color="#FCEAF9"/>
</linearGradient>
<linearGradient id="paint66_linear" x1="63.5912" y1="361.831" x2="63.8254" y2="354.745" gradientUnits="userSpaceOnUse">
<stop stop-color="#178573"/>
<stop offset="1" stop-color="#35CEB5"/>
</linearGradient>
<linearGradient id="paint67_linear" x1="107.12" y1="371.594" x2="107.215" y2="368.731" gradientUnits="userSpaceOnUse">
<stop stop-color="#35CEB5"/>
<stop offset="1" stop-color="#B4F3E9"/>
</linearGradient>
<clipPath id="clip0">
<rect width="669" height="475" fill="white" transform="translate(0 0.254395)"/>
</clipPath>
</defs>
</svg>
