<svg width="808" height="647" viewBox="0 0 808 647" fill="none" xmlns="http://www.w3.org/2000/svg">
<path opacity="0.25" d="M668.266 418.272C690.638 418.568 781.161 420.117 782.047 433.029C782.859 444.243 717.662 477.592 648.552 480.544C635.704 481.134 606.982 481.282 604.545 492.201C602.478 501.35 620.715 509.318 619.239 518.098C615.768 538.388 512.62 523.927 506.639 549.529C504.35 559.416 518.822 565.318 518.084 577.271C516.385 603.02 445.134 629.065 372.849 625.376C292.442 621.244 297.462 584.87 203.1 569.893C129.486 558.161 77.6534 572.549 49.6696 531.01C43.7627 522.304 34.6809 508.802 36.6007 494.046C47.7499 409.714 403.934 414.583 668.266 418.272Z" fill="#20A19E"/>
<path d="M250.798 423.437C261.357 422.109 279.151 419.896 294.066 406.468C321.238 382.046 321.385 336.449 310.605 305.609C301.376 279.121 279.299 259.127 235.071 219.137C193.428 181.509 178.07 175.311 177.184 156.571C175.929 129.788 205.906 115.254 199.778 84.1917C199.039 80.5027 196.529 67.6648 186.34 61.3196C168.914 50.4 141.3 65.8202 127.419 78.2892C114.054 90.3893 97.8843 113.852 103.2 135.986C107.04 152.07 118.927 153.767 119.001 167.933C119.149 182.173 107.188 184.755 98.032 206.668C94.414 215.374 87.1043 232.934 92.4204 250.052C99.361 272.186 121.143 273.514 122.102 291.074C122.841 303.764 111.692 307.232 109.477 321.398C106.597 340.065 122.324 356.813 135.688 370.61C151.415 386.842 193.649 430.594 250.798 423.437Z" fill="url(#paint0_linear)"/>
<path d="M246.885 375.701C250.798 382.784 230.789 417.83 203.47 431.479C198.006 434.209 188.112 439.152 177.184 437.013C163.82 434.43 164.115 424.249 150.234 420.338C137.534 416.797 134.433 424.544 118.632 420.633C112.652 419.158 100.616 416.133 97.8844 405.066C96.26 398.647 99.2134 395.031 96.9245 391.416C92.7897 384.997 82.305 394.81 70.196 390.605C63.6246 388.317 60.1543 382.931 53.1399 372.159C46.7162 362.346 43.0982 356.813 44.5011 349.656C46.4208 339.179 56.8317 336.966 57.4962 329.661C58.5299 317.856 31.7275 318.816 26.9282 299.19C23.8271 286.647 31.2845 272.26 32.6874 269.751C47.5284 242.305 89.9839 229.54 109.55 246.805C124.982 260.455 120.552 287.68 139.306 293.435C145.804 295.427 150.086 293.287 157.691 297.788C167.438 303.617 171.942 314.094 174.304 319.627C183.017 340.655 176.815 354.599 185.601 360.649C191.139 364.486 194.314 359.395 203.986 363.674C212.773 367.585 212.625 372.823 219.787 376.365C232.561 382.71 244.153 370.905 246.885 375.701Z" fill="url(#paint1_linear)"/>
<path opacity="0.19" d="M236.696 455.384C243.562 455.311 259.585 457.893 291.482 463.131C331.205 469.624 338.441 471.985 338.515 474.789C338.589 478.109 328.326 480.027 302.188 488.291C276.641 496.333 271.62 499.137 263.055 501.571C220.23 513.671 163.377 495.521 162.934 481.724C162.565 469.993 202.657 455.827 236.696 455.384Z" fill="#6165D7"/>
<path opacity="0.19" d="M570.36 463.869C526.796 464.976 504.941 465.492 504.424 463.058C502.283 453.097 602.183 414.583 706.291 421.297C714.635 421.814 757.459 424.618 758.05 432.438C758.715 441.145 706.882 451.4 695.142 453.761" fill="#6165D7"/>
<path opacity="0.19" d="M540.53 493.308C565.117 497.44 573.091 495.816 573.534 498.546C574.199 502.604 556.626 509.982 539.57 510.942C534.992 511.237 514.466 512.417 510.848 503.268C509.519 499.874 510.626 495.374 513.211 492.791C517.788 488.365 525.394 490.726 540.53 493.308Z" fill="#6165D7"/>
<path opacity="0.19" d="M401.718 564.876C411.169 566.572 436.864 571.073 437.086 578.23C437.381 586.715 402.235 594.093 386.878 597.339C358.672 603.315 337.26 607.521 310.827 600.217C303.738 598.225 273.54 589.813 273.983 580.148C274.721 565.761 342.798 554.546 401.718 564.876Z" fill="#6165D7"/>
<path d="M592.436 449.925L727.925 439.153C743.357 437.751 753.915 426.093 753.915 410.673V410.525C753.915 395.179 741.585 383.226 726.153 383.89L586.677 387.875L592.436 449.925Z" fill="url(#paint2_linear)"/>
<path d="M350.846 432.66L588.597 446.973C602.7 447.859 614.218 437.824 614.218 424.618V415.69C614.218 402.483 602.7 391.342 588.597 390.752L350.846 380.792V432.66Z" fill="url(#paint3_linear)"/>
<path d="M348.704 435.242L586.677 449.851C605.062 450.957 620.199 437.898 620.199 420.633V420.412C620.199 403.147 605.062 388.539 586.677 387.801L348.631 378.062C347.154 377.988 345.899 379.169 345.899 380.718C345.899 382.267 347.154 383.522 348.631 383.595L586.677 393.777C601.518 394.515 613.701 406.32 613.701 420.117V420.338C613.701 434.209 601.518 444.76 586.751 443.874L348.704 429.782C347.228 429.709 345.973 430.889 345.973 432.365C345.973 433.84 347.154 435.168 348.704 435.242Z" fill="url(#paint4_linear)"/>
<path d="M590.664 387.727L726.153 383.964C741.585 383.226 753.915 363.896 753.915 340.876V340.655C753.915 317.561 741.585 298.526 726.153 298.231L581.213 293.214L590.664 387.727Z" fill="url(#paint5_linear)"/>
<path d="M350.846 374.078L575.897 382.931C596.94 383.743 614.218 368.396 614.218 348.549V335.121C614.218 315.348 596.94 299.042 575.897 298.821L350.846 296.239V374.078Z" fill="url(#paint6_linear)"/>
<path d="M348.704 378.136L586.677 387.875C605.062 388.612 620.199 368.175 620.199 342.352V342.057C620.199 316.159 605.062 294.984 586.677 294.763L348.631 292.328C347.154 292.328 345.899 294.173 345.899 296.46C345.899 298.747 347.154 300.592 348.631 300.665L586.677 303.838C601.518 304.059 613.627 321.103 613.627 341.909V342.204C613.627 363.01 601.444 379.464 586.677 378.947L348.631 369.946C347.154 369.872 345.899 371.717 345.899 374.004C345.973 376.143 347.154 378.062 348.704 378.136Z" fill="url(#paint7_linear)"/>
<path d="M598.786 292.476L727.777 295.353C739.664 295.648 749.115 286.204 749.115 274.399V266.357C749.115 254.552 739.664 244.37 727.777 243.633L598.786 235.591V292.476Z" fill="url(#paint8_linear)"/>
<path d="M616.949 295.058L726.153 298.083C741.584 298.378 753.915 286.13 753.915 270.784V270.636C753.915 255.29 741.584 241.936 726.153 240.977L616.949 232.418C615.03 232.27 592.805 233.746 592.805 235.443C592.805 237.14 613.553 238.394 615.473 238.542L726.153 246.51C738.631 247.248 748.599 257.946 748.599 270.415V270.563C748.599 283.032 738.631 292.845 726.153 292.549L616.949 289.008C615.03 288.934 592.805 290.705 592.805 292.328C592.805 294.025 615.03 295.058 616.949 295.058Z" fill="url(#paint9_linear)"/>
<path d="M350.845 289.598L614.218 292.033V235.295L350.845 237.73V289.598Z" fill="url(#paint10_linear)"/>
<path d="M348.706 240.681L616.951 238.468C618.797 238.468 620.2 237.066 620.2 235.443C620.2 233.746 618.723 232.418 616.951 232.418L348.706 235.148C347.229 235.148 345.974 236.402 345.974 237.952C345.974 239.501 347.156 240.755 348.706 240.681Z" fill="url(#paint11_linear)"/>
<path d="M348.704 292.328L616.95 295.058C618.796 295.058 620.198 293.73 620.198 292.033C620.198 290.336 618.722 289.008 616.95 289.008L348.704 286.795C347.228 286.795 345.972 287.975 345.972 289.524C345.972 291.074 347.154 292.328 348.704 292.328Z" fill="url(#paint12_linear)"/>
<path opacity="0.5" d="M626.991 374.889L655.787 373.266C662.728 353.419 662.211 334.31 655.787 311.069L626.991 311.142C632.75 334.9 631.864 355.927 626.991 374.889Z" fill="white"/>
<path d="M724.381 263.996L687.611 261.783C687.611 261.783 704.888 274.916 696.914 322.8C696.914 322.8 712.641 317.783 719.508 309.298L735.53 324.644C735.456 324.644 745.277 282.073 724.381 263.996Z" fill="url(#paint13_linear)"/>
<path d="M423.279 21.1827H218.606C207.9 21.1827 198.523 29.9626 197.858 40.6609L171.425 448.67C170.76 459.369 178.956 468.148 189.662 468.148H394.335C405.041 468.148 414.418 459.369 415.083 448.67L441.516 40.6609C442.255 29.9626 434.059 21.1827 423.279 21.1827Z" fill="url(#paint14_linear)"/>
<path d="M416.781 21.1827H218.606C207.9 21.1827 198.523 29.9626 197.858 40.6609L171.425 448.67C170.76 459.369 178.956 468.148 189.662 468.148H387.838C398.544 468.148 407.921 459.369 408.585 448.67L435.019 40.6609C435.757 29.9626 427.561 21.1827 416.781 21.1827Z" fill="url(#paint15_linear)"/>
<path d="M400.094 438.046H182.057C178.587 438.046 175.855 435.168 176.077 431.701L200.073 62.5001C200.295 59.4013 202.879 56.8927 206.054 56.8927H424.091C427.561 56.8927 430.293 59.7702 430.072 63.2379L406.149 432.439C405.854 435.611 403.269 438.046 400.094 438.046Z" fill="url(#paint16_linear)"/>
<path d="M351.658 44.7926H272.432C270.66 44.7926 269.331 43.3908 269.479 41.62C269.626 39.8493 271.103 38.4474 272.875 38.4474H352.101C353.873 38.4474 355.202 39.8493 355.054 41.62C354.907 43.3908 353.356 44.7926 351.658 44.7926Z" fill="url(#paint17_linear)"/>
<path d="M293.18 453.54C292.885 459.737 287.568 464.681 281.44 464.681C275.238 464.681 270.512 459.664 270.882 453.54C271.177 447.342 276.493 442.399 282.621 442.399C288.75 442.399 293.549 447.416 293.18 453.54Z" fill="url(#paint18_linear)"/>
<path opacity="0.65" d="M210.927 343.975C211.296 343.311 211.961 342.868 212.699 342.868C216.982 342.868 231.306 342.352 234.038 334.236C237.065 325.308 240.683 292.402 241.2 287.68C241.274 287.311 241.347 286.942 241.569 286.647C243.858 283.105 258.403 261.119 272.137 253.445C272.137 253.445 272.211 243.264 269.405 236.845C266.599 230.426 264.458 226.589 264.532 223.121C264.532 223.121 260.692 227.548 257.444 229.098C256.779 229.467 255.967 229.319 255.376 228.803C252.866 226.589 245.63 219.359 242.972 205.93C242.972 205.93 239.354 203.274 239.354 200.913C239.354 198.552 244.375 193.019 246.737 192.355C249.174 191.691 251.094 197.003 251.094 197.003L248.805 203.201C248.805 203.201 252.127 209.988 256.262 213.751C256.262 213.751 257.074 206.078 261.209 202.758C261.209 202.758 262.464 194.568 267.781 190.068C267.781 190.068 270.365 185.788 262.686 185.124L262.464 177.23L259.954 176.049L263.572 171.696L264.089 167.122C264.089 167.122 272.506 154.284 284.172 161.441C295.912 168.671 283.065 177.672 283.065 177.672C283.065 177.672 281.736 184.608 284.837 188.444C287.938 192.281 288.528 188.887 294.509 192.429C299.973 195.675 314.371 203.422 321.09 211.095C322.198 212.349 322.271 214.12 321.385 215.522C317.694 221.277 307.726 236.402 302.705 238.911C298.718 240.903 300.711 245.846 302.705 249.092C304.034 251.306 304.551 253.888 304.329 256.397C303.96 259.791 303.812 264.291 305.068 266.579C307.283 270.415 312.525 280.597 312.525 280.597L315.7 289.82C316.291 291.59 318.284 292.623 320.204 292.181L330.984 289.377L360.444 291.959L365.17 287.163C366.721 285.614 369.379 285.466 371.151 286.868L378.239 292.476L389.536 297.567C389.536 297.567 394.63 301.108 395.59 305.609C396.55 310.036 392.858 309.372 392.268 309.076C391.677 308.781 381.414 301.92 368.714 301.772C357.491 301.625 319.392 306.715 311.344 307.822C310.384 307.97 309.35 307.675 308.538 307.084C303.886 303.543 287.938 290.557 283.36 275.875L274.057 282.368C268.15 286.499 261.726 289.82 254.933 292.181L255.007 303.617C255.081 307.896 254.047 312.101 252.054 315.864C249.174 321.324 245.999 329.514 244.67 333.498C242.824 339.032 243.932 344.344 243.858 348.402C243.784 350.468 242.086 352.017 240.018 352.017C232.782 351.943 217.129 351.205 211.444 346.483C210.706 345.893 210.484 344.86 210.927 343.975ZM295.912 235.222C299.382 232.565 307.283 216.481 307.283 216.481L295.69 211.169C294.509 223.933 295.912 235.222 295.912 235.222Z" fill="#1DA68F"/>
<path opacity="0.31" d="M215.579 283.991C215.726 297.862 227.245 309.372 241.495 309.593C255.893 309.814 267.559 298.526 267.411 284.36C267.264 270.194 255.376 258.758 240.978 258.758C226.802 258.758 215.431 270.046 215.579 283.991Z" fill="url(#paint19_linear)"/>
<path opacity="0.31" d="M226.802 284.065C226.875 291.885 233.373 298.304 241.347 298.378C249.395 298.452 255.893 292.181 255.819 284.286C255.745 276.391 249.174 269.973 241.126 269.973C233.152 269.899 226.728 276.244 226.802 284.065Z" fill="url(#paint20_linear)"/>
<path d="M236.77 284.138C236.77 286.573 238.837 288.565 241.274 288.565C243.784 288.565 245.777 286.647 245.704 284.212C245.704 281.777 243.636 279.785 241.2 279.785C238.763 279.785 236.77 281.704 236.77 284.138Z" fill="url(#paint21_linear)"/>
<path opacity="0.31" d="M287.716 212.276C287.864 226.589 300.047 238.025 315.035 237.878C330.246 237.73 342.576 225.778 342.429 211.243C342.281 196.708 329.729 185.198 314.519 185.641C299.53 186.083 287.569 197.962 287.716 212.276Z" fill="url(#paint22_linear)"/>
<path opacity="0.31" d="M299.604 212.054C299.678 220.096 306.544 226.515 314.962 226.368C323.453 226.22 330.32 219.58 330.246 211.464C330.172 203.348 323.157 196.929 314.74 197.151C306.249 197.298 299.53 204.012 299.604 212.054Z" fill="url(#paint23_linear)"/>
<path d="M310.088 211.833C310.088 214.342 312.23 216.334 314.888 216.26C317.472 216.186 319.613 214.12 319.613 211.685C319.613 209.177 317.472 207.185 314.814 207.259C312.156 207.259 310.088 209.324 310.088 211.833Z" fill="url(#paint24_linear)"/>
<path opacity="0.31" d="M242.307 210.431C242.381 219.506 249.912 227.032 259.29 227.179C268.741 227.327 276.346 219.949 276.272 210.652C276.198 201.356 268.445 193.904 258.994 193.904C249.617 193.978 242.16 201.356 242.307 210.431Z" fill="url(#paint25_linear)"/>
<path opacity="0.31" d="M249.617 210.505C249.691 215.596 253.899 219.801 259.142 219.875C264.384 219.949 268.667 215.817 268.593 210.652C268.519 205.488 264.236 201.282 258.994 201.282C253.752 201.282 249.617 205.414 249.617 210.505Z" fill="url(#paint26_linear)"/>
<path d="M256.115 210.579C256.115 212.128 257.444 213.456 259.068 213.456C260.693 213.456 262.022 212.202 261.948 210.579C261.948 208.956 260.619 207.701 258.994 207.701C257.444 207.701 256.115 208.956 256.115 210.579Z" fill="url(#paint27_linear)"/>
<path d="M496.376 387.284C496.376 387.284 495.638 384.333 494.382 383.595C493.127 382.858 491.355 381.972 490.986 381.677C490.617 381.308 490.1 382.341 491.281 383.153C492.463 383.964 492.463 383.964 492.463 383.964C492.463 384.186 492.463 384.333 492.389 384.481C492.241 384.997 491.577 385.44 490.838 385.514C487.885 386.104 486.703 386.178 486.26 386.03C486.187 386.03 485.965 385.956 485.817 386.03C485.67 386.178 485.965 386.768 486.113 386.989C486.925 388.244 489.731 388.76 491.798 387.801C492.536 387.432 492.832 387.063 493.422 387.137C494.308 387.284 494.825 388.465 495.194 389.424L496.376 387.284Z" fill="url(#paint28_linear)"/>
<path d="M553.598 499.137C554.041 499.505 554.115 500.465 554.189 501.055C554.189 501.35 554.263 501.497 554.189 501.571C553.968 502.309 552.565 502.383 550.423 502.604C547.027 502.973 545.993 503.194 545.772 502.678C545.55 502.235 546.141 501.424 546.215 501.35C546.584 500.907 547.027 500.686 547.913 500.465C549.537 499.948 550.571 499.653 550.94 499.579C552.934 498.989 553.303 498.915 553.598 499.137Z" fill="url(#paint29_linear)"/>
<path d="M551.531 496.038L551.162 499.948C551.236 500.169 552.417 500.686 553.303 500.243L554.189 496.407L551.531 496.038Z" fill="url(#paint30_linear)"/>
<path d="M523.843 497.44C524.433 498.03 524.507 499.21 524.064 499.727C523.621 500.243 522.883 499.874 520.815 499.948C518.674 500.022 518.084 500.538 516.607 500.096C516.016 499.948 514.982 499.505 514.982 499.137C514.982 498.841 515.499 498.694 517.345 498.104C519.856 497.218 519.856 497.218 520.446 497.144C521.701 496.849 523.104 496.628 523.843 497.44Z" fill="url(#paint31_linear)"/>
<path d="M522.44 493.898L521.332 497.513C521.406 497.735 522.514 498.325 523.473 497.956L525.098 494.415L522.44 493.898Z" fill="url(#paint32_linear)"/>
<path d="M532.112 414.583C531.965 426.757 531.153 440.407 529.159 455.311C527.165 469.993 524.434 483.274 521.406 494.931C522.809 495.3 524.212 495.669 525.541 496.038C529.085 492.718 533.515 487.553 535.657 480.249C536.986 475.748 536.543 473.387 537.355 467.78C538.684 458.926 541.416 454.278 544.222 447.047C546.732 440.628 549.759 431.184 551.384 418.568C544.96 417.313 538.536 415.985 532.112 414.583Z" fill="url(#paint33_linear)"/>
<path d="M547.396 414.657C548.283 430.151 548.947 445.867 549.464 461.951C549.833 473.977 550.128 485.856 550.35 497.587C551.753 497.735 553.156 497.956 554.632 498.104C556.035 495.521 557.807 491.685 559.062 486.668C560.613 480.618 560.244 477.002 560.908 470.657C561.647 463.574 562.754 462.025 564.674 453.171C568.587 435.095 570.507 426.093 566.151 420.412C564.748 418.641 560.318 414.067 547.396 414.657Z" fill="url(#paint34_linear)"/>
<path d="M564.305 363.601C560.982 362.642 556.109 361.609 550.128 361.24C541.637 360.723 537.355 360.502 534.328 362.568C527.387 367.216 532.777 378.062 529.897 404.771C528.716 416.133 528.125 415.395 530.857 419.453C536.395 427.643 551.974 428.38 559.136 421.224C562.902 417.461 563.419 417.239 563.493 412.96C563.936 395.991 564.157 379.906 564.305 363.601Z" fill="url(#paint35_linear)"/>
<path d="M544.517 383.964C543.262 374.151 540.604 366.331 538.536 361.092C536.321 361.166 532.408 361.535 528.125 363.601C526.427 363.822 524.434 365.003 523.326 366.035C518.157 370.684 521.037 375.701 516.164 382.562C514.54 384.85 512.029 388.391 507.673 389.35C501.323 390.678 496.819 386.251 496.524 385.956C495.711 386.694 494.825 387.432 494.013 388.244C497.853 398.352 507.082 404.475 515.721 403.442C520.446 402.926 523.99 400.344 526.649 397.466L526.206 413.182C524.729 425.946 526.353 424.322 524.877 432.217C523.917 437.308 522.514 442.03 524.434 443.284C525.098 443.727 525.615 443.358 527.682 443.137C532.334 442.694 533.885 444.317 538.388 444.243C539.644 444.243 541.563 444.022 543.926 443.284C543.779 429.561 544.222 418.42 544.591 410.747C545.108 398.647 545.624 392.818 544.517 383.964Z" fill="white"/>
<path d="M537.502 381.013C537.945 379.611 539.201 378.283 538.684 376.586C538.388 375.627 537.576 374.963 536.985 374.594C532.998 373.709 530.34 370.02 530.709 366.109C530.857 364.56 531.522 363.084 532.482 361.904C534.918 361.24 536.985 361.092 538.388 361.018C540.53 366.183 543.114 374.078 544.369 383.891C544.886 388.096 545.034 391.564 545.034 395.4C544.369 393.187 543.409 391.564 542.375 390.309C540.751 388.244 536.542 384.407 537.502 381.013Z" fill="white"/>
<path d="M560.318 376.217C558.029 378.209 556.404 378.873 556.109 380.792C555.814 382.931 557.586 383.595 557.29 385.661C556.921 388.244 554.041 388.244 552.491 391.49C551.531 393.63 552.343 394.515 551.753 397.245C551.383 398.942 550.497 401.303 548.061 403.885C547.987 401.377 547.839 398.499 547.765 395.4C547.618 392.523 547.544 389.35 548.578 385.366C549.464 381.972 550.719 379.833 552.639 376.365C554.411 373.118 556.847 368.396 559.727 362.42C561.351 362.346 563.566 362.494 565.634 363.158C566.372 364.486 566.446 365.519 566.52 366.035C566.667 370.536 561.868 374.889 560.318 376.217Z" fill="white"/>
<path d="M549.537 351.943C549.537 354.452 549.833 356.444 550.054 357.846C550.35 359.395 550.571 359.838 550.867 360.133C551.31 360.649 551.9 361.018 555.518 361.904C557.512 362.42 557.733 362.346 557.807 362.568C558.029 363.527 552.639 366.773 547.101 365.962C543.704 365.519 540.603 363.527 540.825 362.568C541.046 361.535 544.369 362.125 545.403 360.281C546.141 359.026 545.329 357.182 544.369 355.632C545.329 353.935 548.651 353.64 549.537 351.943Z" fill="url(#paint36_linear)"/>
<path d="M543.262 352.902C542.449 351.869 542.376 349.951 543.335 348.844C544.148 347.812 545.403 347.664 546.141 347.59C548.282 347.369 551.014 348.254 551.974 350.246C552.565 351.427 551.31 353.862 551.162 354.304C550.94 354.821 550.571 354.968 550.202 355.337C549.685 355.854 548.947 356.665 547.618 358.067C547.544 357.624 547.396 357.182 547.101 356.591C547.027 356.37 546.658 355.559 546.067 354.895C544.886 353.566 544 353.935 543.262 352.902Z" fill="url(#paint37_linear)"/>
<path d="M549.39 356.96C549.39 356.96 547.987 359.321 545.108 359.1C542.597 358.952 542.228 353.271 543.853 352.017C544.369 351.648 545.477 351.427 546.363 351.722C546.88 351.87 547.027 352.091 547.914 352.312C548.726 352.534 548.947 352.46 549.169 352.607C549.464 352.829 549.686 353.493 549.169 355.116C549.686 354.599 550.202 354.452 550.645 354.599C550.719 354.599 550.867 354.747 551.015 354.895C551.31 355.632 550.719 356.444 549.39 356.96Z" fill="url(#paint38_linear)"/>
<path d="M549.242 352.238C549.095 352.312 549.464 352.755 549.538 353.419C549.611 354.673 548.356 356.149 547.027 356.296C546.289 356.37 546.067 355.927 544.812 355.78C544 355.706 543.409 355.78 542.966 355.854C542.597 357.256 542.966 358.584 543.852 359.248C544.812 359.912 546.141 359.543 546.658 359.321C547.027 359.174 548.135 358.805 548.725 357.772C549.316 356.665 548.725 356.001 549.464 355.337C549.833 354.968 550.276 354.821 550.719 354.083C550.867 353.862 550.941 353.714 550.941 353.566C550.35 352.976 549.464 352.165 549.242 352.238Z" fill="url(#paint39_linear)"/>
<path d="M543.852 356.444C543.852 356.444 544.369 356.739 545.329 356.665C545.403 356.665 545.403 356.665 545.403 356.665C545.403 356.739 544.812 357.182 544.221 357.034C543.852 356.887 543.483 356.518 543.557 356.444C543.705 356.444 543.778 356.444 543.852 356.444Z" fill="url(#paint40_linear)"/>
<path d="M588.744 388.17C584.905 375.922 575.011 368.249 568.587 364.707C565.929 362.642 562.237 362.42 559.801 362.494C556.921 368.47 554.484 373.192 552.712 376.439C550.793 379.906 549.611 382.046 548.651 385.44C547.618 389.424 547.691 392.523 547.839 395.474C548.43 411.485 548.799 419.527 549.021 421.814C550.35 432.881 551.236 432.217 550.94 436.644C550.793 439.079 550.35 441.071 551.679 442.62C553.229 444.391 555.518 443.432 561.056 444.17C566.15 444.834 566.298 445.94 571.836 446.604C574.051 446.9 580.179 447.637 580.844 445.867C581.213 444.907 579.884 443.432 578.703 442.62C576.709 441.366 575.011 442.325 574.346 441.366C573.608 440.259 575.675 438.784 575.749 436.128C575.823 433.398 573.829 432.586 572.574 429.266C571.393 426.167 571.91 423.585 572.057 421.74C572.722 414.952 570.359 409.345 569.104 401.45C569.768 401.819 570.433 402.188 571.097 402.483C572.574 403.147 583.428 408.165 588.227 403.369C592.215 399.311 589.704 391.121 588.744 388.17ZM568.366 390.309C568.439 389.055 568.513 387.801 568.587 386.694C569.325 387.432 570.064 388.17 570.876 388.908C573.091 390.973 574.42 391.933 574.272 392.302C574.125 392.523 572.722 392.228 568.366 390.309Z" fill="white"/>
<path d="M533.884 370.757L551.531 372.381C551.9 372.381 552.196 372.676 552.343 373.045L558.915 395.991C559.062 396.581 558.619 397.171 557.955 397.171L540.16 395.622C539.791 395.622 539.496 395.327 539.348 394.958L532.924 371.938C532.777 371.274 533.294 370.684 533.884 370.757Z" fill="url(#paint41_linear)"/>
<path d="M561.056 388.022C561.056 388.022 555.001 381.825 552.491 380.865C550.054 379.98 552.196 386.473 553.672 387.432C555.149 388.391 555.666 388.686 556.847 388.834C557.955 388.981 557.955 388.981 557.955 388.981L559.432 389.793C559.432 389.793 561.278 389.572 561.056 388.022Z" fill="url(#paint42_linear)"/>
<g opacity="0.3">
<path opacity="0.3" d="M192.616 167.195L199.261 166.827C204.946 166.679 217.794 171.032 217.72 176.566V178.558C218.606 186.969 205.758 188.666 200.147 188.74L192.32 189.035C188.186 189.108 184.641 186.674 183.165 183.206C180.064 183.722 177.184 184.608 174.378 185.862L174.304 177.303C176.963 176.271 179.842 175.533 182.722 175.164C183.829 170.663 187.816 167.343 192.616 167.195Z" fill="url(#paint43_linear)"/>
<path opacity="0.3" d="M176.667 367.659C181.023 373.192 184.789 376.291 190.401 380.792L217.72 402.483C220.452 402.336 223.405 403.221 225.694 405.287L236.031 414.436C237.655 415.911 239.501 417.018 241.421 417.904C243.119 416.944 245.187 416.428 247.328 416.649C249.691 416.871 251.832 417.756 253.53 419.084C255.819 418.568 257.96 417.608 259.88 416.28L270.512 408.755C272.949 406.984 276.05 406.467 279.004 407.132L309.129 388.686C334.307 373.266 349.886 346.631 350.403 317.561C350.477 315.053 351.879 312.839 353.947 311.585L355.719 205.045C356.014 188.297 342.724 174.721 325.446 172.877C323.674 176.639 319.613 179.296 315.035 179.369L310.679 179.664C304.625 179.738 287.79 175.238 287.864 169.556V167.564C287.938 161.883 301.966 157.161 308.021 157.014L315.331 156.571C320.647 156.423 325.077 159.744 326.111 164.392C348.188 166.384 365.391 183.649 365.022 205.045L363.25 312.028C365.318 313.43 366.72 315.791 366.647 318.299C366.351 335.047 361.7 351.574 353.209 365.962C344.791 380.349 332.608 392.523 318.137 401.303L287.79 419.674C287.347 421.961 286.018 424.101 283.951 425.577L273.244 433.102C269.922 435.463 266.378 437.16 262.538 438.341H236.105C231.232 436.496 226.432 432.586 222.371 428.971L212.182 419.822C210.262 418.051 209.081 415.838 208.712 413.55L181.54 391.785C179.399 390.088 177.184 388.17 175.19 386.251L176.667 367.659Z" fill="#20A19E"/>
</g>
<path d="M495.121 582.509C511.808 582.509 527.978 579.41 540.382 573.655C552.122 568.196 558.177 561.334 557.512 554.251C556.774 547.168 549.759 542.003 536.617 538.905C473.561 524.001 271.398 519.721 197.71 520.459C170.17 520.754 153.778 518.246 144.918 516.18C132.587 513.229 129.781 509.909 129.707 509.171C129.781 508.654 131.701 505.998 140.118 503.342C148.831 500.612 161.235 498.841 176.076 498.251C187.964 497.735 198.301 491.242 205.906 479.363C211.444 470.731 213.585 462.32 213.733 461.951L205.611 459.885C205.537 460.18 197.932 488.955 175.707 489.84C159.759 490.504 146.394 492.496 136.943 495.521C126.459 498.915 121.29 503.563 121.438 509.318C121.586 515.737 128.674 520.754 142.481 524.148C155.845 527.395 174.969 529.018 197.858 528.797C271.251 528.059 472.453 532.338 534.771 547.02C545.108 549.455 549.021 552.849 549.243 555.063C549.464 557.497 545.772 561.998 536.912 566.056C508.337 579.263 450.819 580.001 412.277 540.085L406.296 545.914C430.515 570.926 459.089 579.115 478.803 581.55C484.119 582.14 489.657 582.509 495.121 582.509Z" fill="url(#paint44_linear)"/>
<path d="M308.464 187.043L312.894 186.747C319.096 186.674 324.855 181.878 325.668 176.123L325.963 174.057C326.849 168.302 322.493 163.728 316.29 163.949L308.907 164.392C302.778 164.539 288.159 169.261 287.347 174.942L287.051 176.935C286.165 182.616 302.409 187.116 308.464 187.043Z" fill="url(#paint45_linear)"/>
<path d="M224.734 439.89L285.28 405.951C300.416 397.466 313.78 385.588 323.748 371.717C333.79 357.698 340.435 341.688 342.798 325.53L359.558 212.423C362.807 190.363 346.785 172.655 323.748 171.622C321.902 171.549 320.351 172.877 320.056 174.721L319.835 176.123C319.539 178.189 321.016 180.033 323.157 180.255C340.656 181.73 352.618 195.527 350.107 212.571L333.42 325.235C328.99 355.263 309.128 382.931 280.923 398.868L220.599 432.955L224.734 439.89Z" fill="url(#paint46_linear)"/>
<path d="M221.633 443.506C223.184 443.653 224.808 443.358 226.285 442.473L286.904 408.533C302.557 399.753 316.291 387.58 326.628 373.192C337.038 358.731 343.831 342.204 346.342 325.53C346.932 321.398 343.757 317.856 339.254 317.709C334.75 317.561 330.615 320.808 330.024 324.939C325.742 353.935 306.618 380.644 279.373 396.064L219.123 430.151C215.431 432.217 214.102 436.644 216.022 440.112C217.203 442.104 219.344 443.358 221.633 443.506Z" fill="url(#paint47_linear)"/>
<path d="M199.63 437.751L205.611 431.553L159.463 390.531C139.232 372.528 129.707 345.377 133.842 317.709L149.274 213.899C151.784 197.077 167.733 183.058 185.01 182.763L186.192 174.647C164.41 175.164 144.475 192.797 141.3 213.899L125.942 317.414C123.727 332.244 125.056 347.295 129.781 360.871C134.581 374.594 142.776 386.915 153.704 396.655L199.63 437.751Z" fill="url(#paint48_linear)"/>
<path d="M201.55 441.809C203.839 442.03 206.201 441.218 207.973 439.374C210.853 436.349 210.853 431.848 207.9 429.192L161.678 388.244C142.038 370.831 132.882 344.639 136.87 317.783C137.46 313.946 134.802 310.773 130.963 310.626C127.197 310.478 123.653 313.503 123.062 317.266C120.773 332.539 122.176 347.959 127.049 362.051C131.923 376.143 140.414 388.908 151.637 398.942L197.489 439.964C198.596 441.071 200.073 441.661 201.55 441.809Z" fill="url(#paint49_linear)"/>
<path d="M196.824 188.666L188.998 188.961C183.386 189.035 179.547 184.755 180.359 179.296L180.654 177.377C181.466 171.917 186.635 167.417 192.173 167.269L198.818 166.9C204.503 166.753 216.76 171.106 215.948 176.639L215.652 178.632C215.505 186.895 202.436 188.518 196.824 188.666Z" fill="url(#paint50_linear)"/>
<path d="M252.939 418.494C249.764 413.919 243.119 412.813 238.098 416.059L226.506 423.585C224.365 424.987 222.076 425.872 219.713 426.388C218.163 425.06 216.169 424.101 213.88 423.954C211.739 423.806 209.598 424.249 207.826 425.208C205.98 424.396 204.282 423.216 202.879 421.74L193.723 412.591C189.884 408.755 183.386 408.902 179.251 412.813C175.043 416.723 174.747 423.068 178.513 426.905L187.521 436.054C191.213 439.817 195.569 442.62 200.368 444.465L197.858 461.508C197.046 467.042 200.959 471.985 206.718 472.575C212.477 473.166 217.794 469.108 218.606 463.5L221.116 446.531C226.875 445.645 232.561 443.506 237.803 440.185L249.543 432.66C254.564 429.561 256.114 423.142 252.939 418.494Z" fill="url(#paint51_linear)"/>
<path d="M205.611 177.303C204.946 180.402 206.275 183.354 208.49 183.796C210.705 184.239 213.068 182.099 213.659 179C214.323 175.902 212.994 172.95 210.779 172.508C208.564 172.065 206.275 174.205 205.611 177.303Z" fill="url(#paint52_linear)"/>
<path d="M589.926 188.002C588.597 187.116 589.778 184.608 589.852 179.074C589.926 172.36 588.154 171.106 589.557 168.524C591.329 165.277 595.685 163.949 598.638 163.949C599.303 163.949 599.451 163.58 604.841 164.982C614.587 167.491 617.024 164.834 621.306 167.491C625.515 170.073 623.669 172.95 627.73 175.975C634.375 180.919 641.316 175.606 646.041 179.738C650.545 183.649 650.619 193.609 645.893 199.069C640.577 205.266 630.979 203.348 624.481 202.168C623.152 201.946 616.285 200.471 609.123 195.232C605.21 192.355 602.478 189.182 600.78 186.895C600.411 186.452 599.746 185.862 598.934 185.788C597.9 185.714 597.162 186.305 596.719 186.526C594.799 187.928 591.255 188.887 589.926 188.002Z" fill="url(#paint53_linear)"/>
<path d="M557.364 277.277L559.358 273.071C559.653 272.481 560.096 271.965 560.613 271.596L561.573 270.932C561.573 270.932 563.936 270.858 564.305 272.333C564.379 274.178 560.761 278.384 558.472 280.007C558.103 280.302 557.512 280.671 557.217 280.449C556.626 280.154 557.069 278.457 557.364 277.277Z" fill="url(#paint54_linear)"/>
<path d="M561.13 268.644C561.425 270.415 561.056 271.374 560.613 271.891C560.318 272.26 557.881 276.244 558.915 276.908C559.358 277.203 562.459 273.366 562.754 272.776C563.05 272.26 563.197 272.407 563.197 270.932C563.197 269.972 563.419 269.235 563.567 268.718C562.681 268.718 561.942 268.718 561.13 268.644Z" fill="url(#paint55_linear)"/>
<path d="M557.586 254.405C557.586 254.405 555.371 256.987 555.74 259.865C556.109 262.742 559.948 258.536 560.465 257.135C560.982 255.733 561.647 253.741 561.647 253.741C561.647 253.741 558.989 252.044 557.586 254.405Z" fill="url(#paint56_linear)"/>
<path d="M558.472 250.347C558.472 250.347 559.062 253.372 557.955 254.995C557.364 255.807 556.626 256.471 556.847 257.135C556.995 257.577 557.586 257.872 558.029 257.799C558.915 257.725 559.432 256.323 559.801 255.29C560.318 253.814 560.613 250.642 560.613 250.642L558.472 250.347Z" fill="url(#paint57_linear)"/>
<path d="M560.908 270.046C558.693 261.34 559.284 254.331 559.875 250.199C560.834 244.002 562.828 231.533 571.171 226.811C573.017 225.778 575.602 224.892 578.777 222.015C581.435 219.654 583.133 217.145 584.167 215.374C595.39 212.128 605.727 213.456 610.231 219.432C610.747 220.096 612.076 221.646 612.298 223.859C612.889 228.876 607.942 234.926 602.404 236.181C595.39 237.804 591.329 230.573 585.126 233.008C583.354 233.672 581.878 235.369 578.998 238.689C575.232 242.895 573.165 246.805 572.353 248.355C569.99 253.003 568.144 256.397 567.923 260.897C567.849 261.93 567.849 263.996 566.594 266.283C565.634 267.98 564.379 269.161 563.493 269.899C562.68 269.972 561.794 269.972 560.908 270.046Z" fill="url(#paint58_linear)"/>
<path d="M611.191 221.277C609.788 220.096 608.385 220.17 599.451 220.244C596.054 220.244 592.732 220.318 589.335 220.318C575.676 220.465 572.575 219.58 570.064 221.572C568.809 222.236 557.438 228.803 556.331 241.05C555.888 245.846 557.217 249.757 558.251 252.191C558.915 252.413 559.58 252.708 560.244 252.929C561.868 246.067 564.748 241.493 567.406 238.468C570.286 235.148 573.387 233.23 575.085 231.311C584.167 232.934 587.416 237.656 595.907 238.911C598.122 239.206 607.794 240.681 612.003 235C614.956 230.942 614.44 224.007 611.191 221.277Z" fill="url(#paint59_linear)"/>
<path d="M600.484 177.599C600.337 178.336 599.525 182.173 601.149 183.132C601.518 183.353 602.109 183.501 603.438 183.722C604.324 183.87 604.988 184.018 605.505 184.018C605.431 184.682 605.21 185.715 604.472 186.674C602.404 189.33 598.195 188.666 597.605 188.518C595.537 188.149 593.47 187.485 592.953 187.116C592.215 186.526 591.624 186.083 591.255 185.567C592.067 185.198 593.692 184.165 594.799 183.796C595.611 183.575 596.423 183.354 597.088 183.206C597.236 182.468 597.309 181.73 597.457 180.993C598.491 179.886 599.525 178.779 600.484 177.599Z" fill="url(#paint60_linear)"/>
<path d="M600.558 179.517C600.558 179.517 600.263 182.321 597.531 182.837C595.094 183.28 593.248 177.377 594.504 175.828C594.947 175.311 595.98 174.869 596.866 174.869C597.531 174.869 599.598 175.68 599.894 177.82C600.337 177.377 600.853 177.23 601.075 177.451C601.37 177.672 601.223 178.41 601.223 178.558C601.149 179.074 600.78 179.369 600.558 179.517Z" fill="url(#paint61_linear)"/>
<path d="M611.264 185.714C605.801 182.394 596.94 184.977 596.94 184.977C596.497 184.977 596.128 184.977 595.759 185.05C595.685 184.829 595.537 184.608 595.39 184.386C593.618 182.837 587.489 185.862 583.354 189.92C578.555 194.642 578.924 198.552 574.716 204.455C572.648 207.406 569.03 211.317 562.68 214.784C563.123 215.891 563.566 216.998 564.009 218.178C567.111 218.399 573.091 218.252 578.777 214.563C581.582 212.718 583.354 210.505 585.57 206.963C584.905 209.546 583.502 212.718 580.696 216.334C578.924 214.194 585.053 222.089 586.677 223.048C591.255 225.851 594.356 222.162 598.343 224.966C599.377 225.704 600.78 227.77 603.585 231.828C605.579 234.631 606.096 235.812 607.425 236.033C609.492 236.402 610.157 234.041 613.184 233.672C616.064 233.303 617.688 235.148 618.648 234.262C619.755 233.303 618.574 230.204 618.205 229.393C616.211 224.376 613.406 223.49 611.855 220.76C611.56 220.318 611.412 219.801 611.264 219.359C618.205 220.023 623.964 218.547 626.327 215.006C632.16 206.299 617.171 186.747 611.264 185.714ZM615.695 208.291C615.399 209.177 614.439 209.546 613.627 209.767C613.258 209.915 612.963 209.988 612.667 210.136C613.258 208.587 613.849 206.963 614.439 205.266C615.399 206.373 616.064 207.332 615.695 208.291Z" fill="url(#paint62_linear)"/>
<path d="M599.599 214.12C597.31 212.866 594.504 214.12 594.356 214.268C593.839 214.489 593.101 214.932 592.363 215.67C592.289 215.817 591.255 217.145 591.624 217.588C591.92 217.957 593.027 217.662 594.43 216.776C595.021 216.703 595.833 216.629 596.867 216.703C598.713 216.85 599.599 217.44 600.263 216.924C600.78 216.555 600.928 215.743 600.78 215.153C600.559 214.637 600.042 214.342 599.599 214.12Z" fill="url(#paint63_linear)"/>
<path d="M577.152 217.662L602.699 218.916C603.069 218.916 603.364 219.137 603.585 219.432L604.324 220.539C604.693 221.129 604.25 221.867 603.585 221.793L576.562 220.76L577.152 217.662Z" fill="url(#paint64_linear)"/>
<path d="M550.645 203.422L577.005 203.938C577.817 203.938 578.481 204.381 578.851 205.045L588.006 221.129L560.17 220.023C559.432 220.023 558.693 219.58 558.324 218.916L549.833 204.824C549.464 204.16 549.907 203.422 550.645 203.422Z" fill="url(#paint65_linear)"/>
<path d="M291.408 477.814C291.777 477.814 292.072 477.519 292.072 477.15V331.727C292.072 331.358 291.777 331.063 291.408 331.063C291.039 331.063 290.743 331.358 290.743 331.727V477.15C290.743 477.519 291.039 477.814 291.408 477.814Z" fill="#A2A7AE"/>
<path d="M227.835 474.789C228.204 474.789 228.5 474.494 228.5 474.125V331.727C228.5 331.358 228.204 331.063 227.835 331.063C227.466 331.063 227.171 331.358 227.171 331.727V474.199C227.171 474.494 227.466 474.789 227.835 474.789Z" fill="#A2A7AE"/>
<path d="M234.259 494.857C234.554 494.857 234.85 494.636 234.924 494.341L273.097 333.203C273.17 332.834 272.949 332.539 272.58 332.391C272.211 332.317 271.915 332.539 271.768 332.908L233.594 494.046C233.521 494.415 233.742 494.71 234.111 494.857C234.185 494.857 234.185 494.857 234.259 494.857Z" fill="#FAFBFC"/>
<path d="M175.19 486.889C175.486 486.889 175.707 486.668 175.855 486.372L214.988 333.129C215.062 332.76 214.84 332.465 214.545 332.318C214.176 332.244 213.88 332.465 213.733 332.76L174.6 486.004C174.526 486.372 174.747 486.668 175.043 486.815C175.117 486.889 175.117 486.889 175.19 486.889Z" fill="#FAFBFC"/>
<path d="M212.034 333.129L272.949 334.457L292.442 333.129V330.325L247.106 329.366L212.034 330.325V333.129Z" fill="#D8DEE8"/>
<path d="M212.034 333.129L272.949 334.457V331.58L212.034 330.325V333.129Z" fill="url(#paint66_linear)"/>
<path d="M264.163 368.47C264.532 368.47 264.827 368.175 264.827 367.88C264.827 367.511 264.606 367.216 264.236 367.216L206.866 364.043C206.497 364.043 206.201 364.265 206.201 364.634C206.201 365.003 206.423 365.298 206.792 365.298L264.163 368.47Z" fill="#FAFBFC"/>
<path d="M256.631 400.491C257.001 400.491 257.222 400.196 257.296 399.901C257.296 399.532 257.074 399.237 256.705 399.237L198.375 395.327C198.006 395.327 197.71 395.548 197.71 395.917C197.71 396.286 197.932 396.581 198.301 396.581L256.631 400.491C256.558 400.491 256.558 400.491 256.631 400.491Z" fill="#FAFBFC"/>
<path d="M249.026 432.365C249.395 432.365 249.617 432.07 249.691 431.774C249.691 431.406 249.469 431.11 249.1 431.11L190.327 426.61C189.957 426.61 189.662 426.831 189.662 427.2C189.662 427.569 189.884 427.864 190.253 427.864L249.026 432.365Z" fill="#FAFBFC"/>
<path d="M241.569 464.017C241.938 464.017 242.159 463.795 242.233 463.427C242.233 463.058 242.012 462.762 241.643 462.689L182.5 457.45C182.131 457.45 181.836 457.672 181.762 458.04C181.762 458.409 181.983 458.704 182.352 458.778L241.569 464.017C241.495 464.017 241.495 464.017 241.569 464.017Z" fill="#FAFBFC"/>
<path d="M259.068 325.972C259.068 325.972 265.27 328.776 265.344 329.219C265.418 329.661 261.357 329.071 259.732 329.145C258.108 329.219 256.705 328.702 256.853 328.038C257 327.3 257.591 325.603 257.591 325.603L259.068 325.972Z" fill="url(#paint67_linear)"/>
<path d="M259.289 323.685L258.92 326.489C258.92 326.489 257.96 326.858 257.296 326.415L257 323.39L259.289 323.685Z" fill="url(#paint68_linear)"/>
<path d="M230.272 323.759L229.534 324.939C229.312 325.235 229.238 325.677 229.386 326.046C229.607 327.005 230.124 328.85 230.346 329.366C230.641 330.03 234.628 330.399 234.628 330.399C234.628 330.399 234.997 329.883 234.185 329.293C233.373 328.702 232.856 328.628 232.561 327.669C232.265 326.784 232.044 324.275 232.044 324.275L230.272 323.759Z" fill="url(#paint69_linear)"/>
<path d="M233.225 320.881C232.93 321.103 231.675 325.013 231.675 325.013C231.675 325.013 231.232 325.53 230.493 324.792C229.681 323.98 230.124 324.423 230.124 324.423L230.272 320.586L233.225 320.881Z" fill="url(#paint70_linear)"/>
<path d="M262.686 267.907C262.981 276.17 263.055 285.171 262.538 294.763C262.021 305.609 260.914 315.569 259.585 324.644C259.068 324.644 258.551 324.644 257.96 324.644C257.591 324.644 257.222 324.644 256.853 324.57C256.114 322.726 255.302 320.217 254.564 317.266C253.752 314.167 253.309 311.364 252.94 308.708C251.758 299.337 253.161 298.526 252.201 291.59C251.315 285.466 250.134 285.171 248.731 276.465C247.18 266.947 248.362 265.546 248.879 265.029C251.315 262.889 256.927 264.439 262.686 267.907Z" fill="url(#paint71_linear)"/>
<path d="M258.772 267.833C253.309 275.801 247.476 285.688 242.233 297.567C238.246 306.494 235.366 314.905 233.299 322.431C233.004 322.578 232.339 322.8 231.453 322.726C230.272 322.578 229.607 321.841 229.386 321.619C228.5 316.233 228.647 311.733 228.943 308.412C229.164 306.347 229.46 302.805 230.789 298.452C232.265 293.582 233.299 293.361 235.293 288.196C237.36 282.884 236.843 281.556 238.763 274.916C239.575 272.186 240.904 268.128 243.119 263.258C248.362 264.734 253.604 266.283 258.772 267.833Z" fill="url(#paint72_linear)"/>
<path d="M256.557 237.066C262.538 233.525 265.122 233.967 266.894 230.795C268.593 227.696 268.593 222.753 265.787 220.096C265.565 219.875 263.424 217.957 260.471 218.326C256.041 218.842 255.671 223.859 250.724 226.147C246.516 228.065 241.864 226.737 238.763 225.778C231.232 223.564 230.124 219.359 226.285 220.023C221.412 220.834 220.969 227.844 216.095 228.286C212.847 228.581 212.108 225.556 207.826 224.671C202.805 223.712 197.341 226.589 194.24 230.131C188.629 236.623 190.105 246.289 193.649 252.191C196.529 257.061 202.805 262.594 208.047 261.414C212.182 260.455 213.585 255.807 217.129 256.249C219.64 256.544 219.787 259.053 222.741 260.307C227.688 262.373 233.742 258.389 235.44 257.356C240.166 254.257 239.428 252.265 245.482 246.141C247.771 243.706 251.241 240.165 256.557 237.066Z" fill="url(#paint73_linear)"/>
<path d="M303.886 222.162C303.886 222.162 305.068 220.687 305.806 219.654C306.544 218.547 310.015 215.522 310.015 215.522C310.015 215.522 310.31 216.039 309.572 216.776C308.833 217.514 307.283 218.842 307.652 219.432C308.021 220.023 309.055 220.465 308.316 221.572C307.578 222.605 306.323 221.941 305.658 222.753C304.994 223.564 304.329 224.523 304.329 224.523L303.886 222.162Z" fill="url(#paint74_linear)"/>
<path d="M225.546 259.053C225.546 259.053 224.66 261.193 223.996 262.004C223.257 262.742 222.224 263.554 222.076 264.808C221.928 266.062 222.298 267.464 222.593 266.947C222.814 266.357 224.217 265.472 224.808 264.734C225.399 263.996 225.842 262.078 225.842 261.709C225.916 261.34 227.023 260.086 227.023 260.086L225.546 259.053Z" fill="url(#paint75_linear)"/>
<path d="M262.686 223.933C262.686 223.933 261.357 227.917 259.658 228.508C257.96 229.098 255.302 229.836 254.933 230.131C254.564 230.426 263.941 233.451 269.183 232.049C267.707 231.385 267.263 231.164 267.263 231.164C266.894 230.942 266.156 230.573 265.418 229.983C264.975 229.54 264.162 228.803 263.646 227.475L264.162 225.261L262.686 223.933Z" fill="url(#paint76_linear)"/>
<path d="M262.169 225.335C262.169 225.335 262.834 226.884 264.532 226.663C266.009 226.442 265.935 222.753 264.901 222.089C264.532 221.867 263.867 221.793 263.351 222.015C262.981 222.162 261.948 222.974 262.169 224.302C261.874 224.154 261.505 224.154 261.431 224.302C261.283 224.523 261.505 224.892 261.578 224.966C261.8 225.114 262.095 225.261 262.169 225.335Z" fill="url(#paint77_linear)"/>
<path d="M303.443 221.203C301.893 223.638 297.241 230.131 288.898 232.639C284.394 234.041 280.407 233.746 278.856 233.672C275.976 233.451 273.466 232.861 271.472 232.197C270.513 231.754 269.405 231.311 268.297 230.942C266.23 230.278 263.941 229.762 261.578 229.54C261.062 229.467 257.665 229.245 254.121 229.762C251.315 229.909 246.147 230.5 240.683 233.598C239.649 234.189 236.253 236.181 232.93 239.796C226.137 247.322 224.882 256.323 224.587 260.086C225.325 260.455 226.063 260.824 226.802 261.193C227.54 259.127 229.238 254.995 233.299 251.675C235.662 249.756 238.025 248.724 239.28 248.281C241.274 247.543 242.972 247.322 244.448 247.248C243.193 252.708 240.609 256.987 238.985 259.569C235.884 264.66 233.078 269.235 227.614 270.563C224.291 271.374 221.338 270.636 219.566 270.046C215.062 270.046 212.182 272.997 212.404 275.358C212.551 277.277 214.693 279.121 216.76 279.269C218.827 279.416 219.418 277.867 221.633 277.424C225.177 276.687 226.654 280.154 231.158 281.482C236.105 282.884 237.065 279.564 244.005 279.933C250.06 280.228 250.725 282.884 256.262 282.663C257.887 282.589 263.941 282.368 266.452 278.531C268.371 275.58 266.156 273.735 266.156 264.586C266.156 258.167 266.156 254.995 267.854 251.675C268.15 251.085 268.519 250.568 268.814 250.052C274.869 251.232 284.984 247.543 291.113 243.633C296.798 240.017 300.194 235.517 301.302 233.967C303.739 230.5 305.141 227.179 305.954 224.818C304.994 223.564 304.182 222.384 303.443 221.203Z" fill="url(#paint78_linear)"/>
<path d="M502.505 501.35C503.538 501.35 504.351 500.538 504.351 499.505V419.896C504.351 418.863 503.538 418.051 502.505 418.051C501.471 418.051 500.659 418.863 500.659 419.896V499.505C500.659 500.538 501.471 501.35 502.505 501.35Z" fill="#C0C6CE"/>
<path d="M353.135 486.299C354.168 486.299 354.981 485.487 354.981 484.454V412.296C354.981 411.263 354.168 410.452 353.135 410.452C352.101 410.452 351.289 411.263 351.289 412.296V484.454C351.289 485.487 352.101 486.299 353.135 486.299Z" fill="#C0C6CE"/>
<path d="M502.874 502.309L453.108 518.541C451.779 518.984 450.376 519.131 448.974 518.984L293.771 505.039C292.146 504.891 291.999 502.604 293.549 502.235L352.618 487.036C352.765 486.963 352.913 486.963 353.061 486.963L502.431 499.505C504.129 499.653 504.35 501.793 502.874 502.309Z" fill="#C0C6CE"/>
<path d="M502.874 499.21L453.108 515.442C451.779 515.885 450.376 516.032 448.974 515.885L293.771 501.94C292.146 501.793 291.999 499.505 293.549 499.137L352.618 483.938C352.765 483.864 352.913 483.864 353.061 483.864L502.431 496.407C504.129 496.554 504.35 498.768 502.874 499.21Z" fill="#D8DEE8"/>
<path d="M524.286 422.626C525.689 422.626 526.944 421.519 527.018 420.043C527.092 418.568 525.984 417.24 524.434 417.166L341.543 407.427C340.066 407.353 338.737 408.533 338.663 410.009C338.589 411.485 339.697 412.813 341.247 412.886L524.139 422.626C524.212 422.626 524.286 422.626 524.286 422.626Z" fill="#C0C6CE"/>
<path d="M433.763 493.013C433.763 493.013 432.877 493.898 432.361 494.857C431.918 495.743 435.535 499.874 436.938 500.833C438.341 501.719 438.784 500.391 437.824 498.546C436.938 496.628 433.763 493.013 433.763 493.013Z" fill="url(#paint79_linear)"/>
<path d="M414.492 501.202C414.492 501.202 421.359 504.375 421.802 505.777C422.245 507.179 414.492 504.891 413.533 503.932C412.647 503.047 414.492 501.202 414.492 501.202Z" fill="url(#paint80_linear)"/>
<path d="M432.804 418.863C441.959 429.93 446.02 440.333 447.94 446.752C449.638 452.433 451.041 457.524 450.229 464.164C449.343 471.469 446.094 477.076 442.476 483.347C439.67 488.291 436.791 492.127 434.723 494.783C434.133 494.193 433.468 493.529 432.877 492.939C431.991 489.84 431.105 485.266 431.475 479.658C431.991 473.092 434.059 468.739 434.65 466.82C436.717 460.697 434.207 449.777 413.163 428.823C419.735 425.577 426.232 422.257 432.804 418.863Z" fill="url(#paint81_linear)"/>
<path d="M429.629 417.977C427.783 423.585 425.42 432.07 424.165 442.694C423.353 449.187 423.279 453.909 423.279 455.975C423.057 465.419 421.507 479.88 415.969 501.719C415.6 501.94 415.157 502.162 414.566 502.162C411.244 502.088 408.364 493.308 407.699 486.151C407.109 479.806 408.585 479.068 408.585 472.428C408.585 464.091 406.297 462.246 404.451 452.286C402.531 441.956 401.276 434.799 404.451 428.971C409.988 418.789 426.084 418.051 429.629 417.977Z" fill="url(#paint82_linear)"/>
<path d="M449.269 399.606C452.001 402.705 453.108 405.877 455.988 408.976C459.163 412.37 464.922 415.911 476.145 416.354C476.81 415.911 477.548 415.543 478.213 415.1C472.823 411.78 469.5 408.238 467.506 405.656C461.6 398.056 462.338 392.818 455.619 385.145C452.665 381.751 449.564 378.209 445.946 378.136C444.691 377.619 443.288 377.324 441.664 376.955C438.932 376.365 432.877 374.963 426.454 377.398C419.809 379.833 416.412 384.923 413.68 388.908C411.317 392.375 409.472 397.835 405.854 408.829C400.537 424.765 403.712 418.789 400.833 426.462C399.651 429.782 398.027 433.471 399.282 437.751C399.504 438.415 400.611 442.178 402.974 442.694C404.894 443.063 406.223 441.071 409.988 437.751C415.305 433.102 417.963 430.741 421.064 430.741C425.642 430.815 427.192 435.685 431.327 434.873C433.69 434.357 433.764 432.66 436.643 431.996C440.261 431.184 441.885 433.398 443.657 432.438C445.208 431.553 444.913 429.192 444.765 425.503C450.967 427.348 456.283 427.421 458.203 427.421C458.868 426.757 459.458 426.167 460.123 425.503C456.431 423.585 450.598 419.969 445.725 414.731C446.168 413.108 446.759 410.525 447.792 406.172C448.383 403.442 448.9 401.377 449.269 399.606Z" fill="url(#paint83_linear)"/>
<path d="M443.879 378.283C443.879 378.283 443.362 378.431 442.55 378.209C442.476 378.209 442.476 378.209 442.476 378.209C442.476 378.283 442.919 378.726 443.436 378.652C443.805 378.652 444.1 378.357 444.1 378.283C444.027 378.283 443.953 378.283 443.879 378.283Z" fill="url(#paint84_linear)"/>
<path d="M441.147 367.511C440.925 370.241 439.301 377.398 430.367 377.176C428.004 377.103 427.709 377.472 427.635 377.693C427.34 378.726 433.394 382.562 439.965 382.194C443.953 381.972 447.792 380.128 447.644 379.021C447.497 377.914 444.912 378.873 443.879 376.881C443.14 375.479 445.577 372.676 446.832 371.126C445.798 369.208 442.033 369.429 441.147 367.511Z" fill="url(#paint85_linear)"/>
<path d="M449.342 370.02C450.523 369.134 451.114 367.216 450.449 365.74C449.859 364.486 448.456 364.043 447.644 363.748C445.281 362.937 441.884 363.232 440.186 365.003C439.226 366.109 439.891 368.987 439.965 369.429C440.039 370.02 440.482 370.315 440.777 370.757C441.22 371.422 441.884 372.454 442.918 374.225C443.14 373.856 443.435 373.34 443.878 372.823C444.026 372.602 444.69 371.864 445.576 371.274C447.274 370.241 448.161 370.831 449.342 370.02Z" fill="url(#paint86_linear)"/>
<path d="M441.147 372.676C441.147 372.676 442.107 375.479 445.355 375.996C448.309 376.439 450.376 370.61 448.826 368.987C448.309 368.47 447.127 367.954 446.094 368.028C445.429 368.028 445.208 368.249 444.174 368.249C443.214 368.249 442.993 368.101 442.623 368.249C442.18 368.47 441.811 368.987 441.885 370.905C441.442 370.241 440.851 369.946 440.334 370.02C440.261 370.02 440.039 370.093 439.818 370.315C439.301 370.831 439.744 371.79 441.147 372.676Z" fill="url(#paint87_linear)"/>
<path d="M449.047 517.803C450.081 517.803 450.893 516.991 450.893 515.959V428.971C450.893 427.938 450.081 427.126 449.047 427.126C448.014 427.126 447.202 427.938 447.202 428.971V515.959C447.128 516.918 448.014 517.803 449.047 517.803Z" fill="#C0C6CE"/>
<path d="M292.811 503.859C293.845 503.859 294.657 503.047 294.657 502.014V422.847C294.657 421.814 293.845 421.002 292.811 421.002C291.777 421.002 290.965 421.814 290.965 422.847V502.014C290.891 503.047 291.777 503.859 292.811 503.859Z" fill="#C0C6CE"/>
<path d="M478.213 415.1C478.213 415.1 481.166 412.591 486.851 415.026C486.851 415.026 480.575 418.715 476.219 416.354L478.213 415.1Z" fill="url(#paint88_linear)"/>
<path d="M476.367 432.586C477.77 432.586 479.025 431.479 479.099 430.004C479.172 428.528 477.991 427.2 476.514 427.126L276.198 417.092C274.721 417.018 273.392 418.199 273.318 419.674C273.244 421.15 274.426 422.478 275.902 422.552L476.219 432.586C476.293 432.586 476.293 432.586 476.367 432.586Z" fill="#D8DEE8"/>
<path d="M458.203 427.274C458.203 427.274 458.277 422.994 464.184 426.61C470.164 430.151 461.304 432.07 458.203 427.274Z" fill="url(#paint89_linear)"/>
<path d="M285.944 522.746C279.077 559.711 303.591 593.207 341.542 597.634C380.306 602.135 418.184 574.688 425.272 536.175C432.434 497.661 405.927 464.017 366.868 461.066C328.695 458.114 292.811 485.782 285.944 522.746Z" fill="url(#paint90_linear)"/>
<path d="M285.279 523.484C278.56 560.153 302.557 593.355 339.623 597.708C377.5 602.209 414.492 574.983 421.506 536.765C428.521 498.546 402.531 465.197 364.431 462.246C327.07 459.368 291.998 486.815 285.279 523.484Z" fill="url(#paint91_linear)"/>
<path d="M291.186 524.075C285.058 557.497 306.987 587.748 340.73 591.658C375.211 595.642 408.807 570.852 415.157 536.175C421.506 501.498 397.953 471.1 363.324 468.37C329.286 465.64 297.315 490.652 291.186 524.075Z" fill="url(#paint92_linear)"/>
<path d="M306.027 525.476C301.376 550.783 318.063 573.582 343.536 576.385C369.452 579.263 394.63 560.596 399.356 534.551C404.081 508.507 386.582 485.635 360.518 483.495C334.897 481.429 310.605 500.169 306.027 525.476Z" fill="url(#paint93_linear)"/>
<path d="M330.984 527.911C328.843 539.495 336.522 549.824 348.188 551.078C359.927 552.333 371.224 543.774 373.366 532.043C375.507 520.312 367.68 509.909 355.866 508.876C344.2 507.843 333.051 516.328 330.984 527.911Z" fill="url(#paint94_linear)"/>
<defs>
<linearGradient id="paint0_linear" x1="203.937" y1="424.21" x2="203.937" y2="57.5396" gradientUnits="userSpaceOnUse">
<stop stop-color="#178573"/>
<stop offset="1" stop-color="#35CEB5"/>
</linearGradient>
<linearGradient id="paint1_linear" x1="136.659" y1="355.274" x2="136.659" y2="131.354" gradientUnits="userSpaceOnUse">
<stop stop-color="#35CEB5"/>
<stop offset="1" stop-color="#B4F3E9"/>
</linearGradient>
<linearGradient id="paint2_linear" x1="670.328" y1="462.117" x2="670.328" y2="403.943" gradientUnits="userSpaceOnUse">
<stop stop-color="#35CEB5"/>
<stop offset="1" stop-color="#B4F3E9"/>
</linearGradient>
<linearGradient id="paint3_linear" x1="482.556" y1="447.039" x2="482.556" y2="380.813" gradientUnits="userSpaceOnUse">
<stop stop-color="white"/>
<stop offset="0.4124" stop-color="#FEF5FC"/>
<stop offset="1" stop-color="#FCEAF9"/>
</linearGradient>
<linearGradient id="paint4_linear" x1="620.242" y1="414.035" x2="345.961" y2="414.035" gradientUnits="userSpaceOnUse">
<stop stop-color="#35CEB5"/>
<stop offset="1" stop-color="#B4F3E9"/>
</linearGradient>
<linearGradient id="paint5_linear" x1="644.902" y1="267.327" x2="705.461" y2="471.468" gradientUnits="userSpaceOnUse">
<stop stop-color="#178573"/>
<stop offset="1" stop-color="#35CEB5"/>
</linearGradient>
<linearGradient id="paint6_linear" x1="482.556" y1="296.241" x2="482.556" y2="382.97" gradientUnits="userSpaceOnUse">
<stop stop-color="white"/>
<stop offset="0.4124" stop-color="#FEF5FC"/>
<stop offset="1" stop-color="#FCEAF9"/>
</linearGradient>
<linearGradient id="paint7_linear" x1="620.242" y1="340.106" x2="345.961" y2="340.106" gradientUnits="userSpaceOnUse">
<stop stop-color="#35CEB5"/>
<stop offset="1" stop-color="#178573"/>
</linearGradient>
<linearGradient id="paint8_linear" x1="781.165" y1="269.271" x2="612.579" y2="264.444" gradientUnits="userSpaceOnUse">
<stop stop-color="white"/>
<stop offset="1" stop-color="#FCEAF9"/>
</linearGradient>
<linearGradient id="paint9_linear" x1="660.192" y1="265.154" x2="726.343" y2="265.89" gradientUnits="userSpaceOnUse">
<stop stop-color="#35CEB5"/>
<stop offset="1" stop-color="#B4F3E9"/>
</linearGradient>
<linearGradient id="paint10_linear" x1="569.902" y1="263.858" x2="391.195" y2="260.964" gradientUnits="userSpaceOnUse">
<stop stop-color="white"/>
<stop offset="0.4124" stop-color="#FEF5FC"/>
<stop offset="1" stop-color="#FCEAF9"/>
</linearGradient>
<linearGradient id="paint11_linear" x1="344.708" y1="236.575" x2="618.99" y2="236.575" gradientUnits="userSpaceOnUse">
<stop stop-color="#B4F3E9"/>
<stop offset="1" stop-color="#35CEB5"/>
</linearGradient>
<linearGradient id="paint12_linear" x1="335.698" y1="290.936" x2="609.98" y2="290.936" gradientUnits="userSpaceOnUse">
<stop stop-color="#B4F3E9"/>
<stop offset="1" stop-color="#35CEB5"/>
</linearGradient>
<linearGradient id="paint13_linear" x1="712.692" y1="306.078" x2="712.692" y2="275.063" gradientUnits="userSpaceOnUse">
<stop stop-color="#35CEB5"/>
<stop offset="1" stop-color="#B4F3E9"/>
</linearGradient>
<linearGradient id="paint14_linear" x1="306.472" y1="468.19" x2="306.472" y2="21.1827" gradientUnits="userSpaceOnUse">
<stop stop-color="#178573"/>
<stop offset="1" stop-color="#35CEB5"/>
</linearGradient>
<linearGradient id="paint15_linear" x1="303.223" y1="21.1827" x2="303.223" y2="468.19" gradientUnits="userSpaceOnUse">
<stop stop-color="#B4F3E9"/>
<stop offset="1" stop-color="#27DEBF"/>
</linearGradient>
<linearGradient id="paint16_linear" x1="303.043" y1="56.8983" x2="303.043" y2="438.04" gradientUnits="userSpaceOnUse">
<stop stop-color="white"/>
<stop offset="1" stop-color="#FCEAF9"/>
</linearGradient>
<linearGradient id="paint17_linear" x1="312.225" y1="44.8126" x2="312.225" y2="38.4993" gradientUnits="userSpaceOnUse">
<stop stop-color="white"/>
<stop offset="1" stop-color="#FCEAF9"/>
</linearGradient>
<linearGradient id="paint18_linear" x1="282.029" y1="464.712" x2="282.029" y2="442.394" gradientUnits="userSpaceOnUse">
<stop stop-color="white"/>
<stop offset="1" stop-color="#FCEAF9"/>
</linearGradient>
<linearGradient id="paint19_linear" x1="93.7677" y1="66.4522" x2="387.122" y2="456.026" gradientUnits="userSpaceOnUse">
<stop stop-color="#FF9085"/>
<stop offset="1" stop-color="#FFA140"/>
</linearGradient>
<linearGradient id="paint20_linear" x1="158.717" y1="162.412" x2="322.767" y2="380.271" gradientUnits="userSpaceOnUse">
<stop stop-color="#FF9085"/>
<stop offset="1" stop-color="#FFA140"/>
</linearGradient>
<linearGradient id="paint21_linear" x1="215.735" y1="246.536" x2="266.433" y2="313.862" gradientUnits="userSpaceOnUse">
<stop stop-color="#FF9085"/>
<stop offset="1" stop-color="#FB6FBB"/>
</linearGradient>
<linearGradient id="paint22_linear" x1="163.721" y1="-11.2988" x2="464.237" y2="387.784" gradientUnits="userSpaceOnUse">
<stop stop-color="#FF9085"/>
<stop offset="1" stop-color="#FFA140"/>
</linearGradient>
<linearGradient id="paint23_linear" x1="230.246" y1="87.0093" x2="398.3" y2="310.185" gradientUnits="userSpaceOnUse">
<stop stop-color="#FF9085"/>
<stop offset="1" stop-color="#FFA140"/>
</linearGradient>
<linearGradient id="paint24_linear" x1="288.651" y1="173.187" x2="340.586" y2="242.157" gradientUnits="userSpaceOnUse">
<stop stop-color="#FF9085"/>
<stop offset="1" stop-color="#FFA140"/>
</linearGradient>
<linearGradient id="paint25_linear" x1="162.625" y1="68.2355" x2="354.435" y2="322.958" gradientUnits="userSpaceOnUse">
<stop stop-color="#FF9085"/>
<stop offset="1" stop-color="#FFA140"/>
</linearGradient>
<linearGradient id="paint26_linear" x1="205.092" y1="130.979" x2="312.355" y2="273.426" gradientUnits="userSpaceOnUse">
<stop stop-color="#FF9085"/>
<stop offset="1" stop-color="#FFA140"/>
</linearGradient>
<linearGradient id="paint27_linear" x1="242.373" y1="185.983" x2="275.522" y2="230.005" gradientUnits="userSpaceOnUse">
<stop stop-color="#FF9085"/>
<stop offset="1" stop-color="#FFA140"/>
</linearGradient>
<linearGradient id="paint28_linear" x1="490.274" y1="384.546" x2="507.132" y2="429.732" gradientUnits="userSpaceOnUse">
<stop stop-color="#F7C4A5"/>
<stop offset="0.9964" stop-color="#E58C7E"/>
</linearGradient>
<linearGradient id="paint29_linear" x1="549.952" y1="502.989" x2="549.952" y2="499.025" gradientUnits="userSpaceOnUse">
<stop stop-color="#178573"/>
<stop offset="1" stop-color="#35CEB5"/>
</linearGradient>
<linearGradient id="paint30_linear" x1="550.603" y1="501.008" x2="555.237" y2="493.818" gradientUnits="userSpaceOnUse">
<stop stop-color="#F7C4A5"/>
<stop offset="0.9964" stop-color="#E58C7E"/>
</linearGradient>
<linearGradient id="paint31_linear" x1="519.626" y1="500.262" x2="519.627" y2="496.868" gradientUnits="userSpaceOnUse">
<stop stop-color="#178573"/>
<stop offset="1" stop-color="#35CEB5"/>
</linearGradient>
<linearGradient id="paint32_linear" x1="520.814" y1="498.725" x2="526.094" y2="491.765" gradientUnits="userSpaceOnUse">
<stop stop-color="#F7C4A5"/>
<stop offset="0.9964" stop-color="#E58C7E"/>
</linearGradient>
<linearGradient id="paint33_linear" x1="518.391" y1="482.673" x2="542.408" y2="428.491" gradientUnits="userSpaceOnUse">
<stop stop-color="#27DEBF"/>
<stop offset="0.9964" stop-color="#35CEB5"/>
</linearGradient>
<linearGradient id="paint34_linear" x1="532.964" y1="486.456" x2="563.438" y2="435.618" gradientUnits="userSpaceOnUse">
<stop stop-color="#27DEBF"/>
<stop offset="0.9964" stop-color="#35CEB5"/>
</linearGradient>
<linearGradient id="paint35_linear" x1="546.655" y1="426.13" x2="546.655" y2="360.894" gradientUnits="userSpaceOnUse">
<stop stop-color="#178573"/>
<stop offset="1" stop-color="#35CEB5"/>
</linearGradient>
<linearGradient id="paint36_linear" x1="553.58" y1="371.585" x2="542.67" y2="348.855" gradientUnits="userSpaceOnUse">
<stop stop-color="#F7C4A5"/>
<stop offset="0.9964" stop-color="#E58C7E"/>
</linearGradient>
<linearGradient id="paint37_linear" x1="552.677" y1="364.751" x2="546.328" y2="348.437" gradientUnits="userSpaceOnUse">
<stop stop-color="#456974"/>
<stop offset="0.9964" stop-color="#37474F"/>
</linearGradient>
<linearGradient id="paint38_linear" x1="547.094" y1="352.98" x2="545.847" y2="376.709" gradientUnits="userSpaceOnUse">
<stop stop-color="#F7C4A5"/>
<stop offset="0.9964" stop-color="#E58C7E"/>
</linearGradient>
<linearGradient id="paint39_linear" x1="550.714" y1="365.524" x2="544.358" y2="349.193" gradientUnits="userSpaceOnUse">
<stop stop-color="#456974"/>
<stop offset="0.9964" stop-color="#37474F"/>
</linearGradient>
<linearGradient id="paint40_linear" x1="544.462" y1="355.677" x2="544.786" y2="358.654" gradientUnits="userSpaceOnUse">
<stop stop-color="#F7C4A5"/>
<stop offset="0.9964" stop-color="#E58C7E"/>
</linearGradient>
<linearGradient id="paint41_linear" x1="545.902" y1="369.937" x2="545.902" y2="394.182" gradientUnits="userSpaceOnUse">
<stop stop-color="#456974"/>
<stop offset="0.9964" stop-color="#37474F"/>
</linearGradient>
<linearGradient id="paint42_linear" x1="555.873" y1="383.179" x2="564.804" y2="437.836" gradientUnits="userSpaceOnUse">
<stop stop-color="#F7C4A5"/>
<stop offset="0.9964" stop-color="#E58C7E"/>
</linearGradient>
<linearGradient id="paint43_linear" x1="217.695" y1="177.85" x2="174.286" y2="177.85" gradientUnits="userSpaceOnUse">
<stop stop-color="#AA80F9"/>
<stop offset="0.9964" stop-color="#6165D7"/>
</linearGradient>
<linearGradient id="paint44_linear" x1="339.462" y1="545.459" x2="339.462" y2="248.829" gradientUnits="userSpaceOnUse">
<stop stop-color="#37474F"/>
<stop offset="0.9964" stop-color="#455A64"/>
</linearGradient>
<linearGradient id="paint45_linear" x1="306.519" y1="187.748" x2="303.224" y2="165.025" gradientUnits="userSpaceOnUse">
<stop stop-color="#35CEB5"/>
<stop offset="1" stop-color="#B4F3E9"/>
</linearGradient>
<linearGradient id="paint46_linear" x1="290.317" y1="439.889" x2="290.317" y2="171.523" gradientUnits="userSpaceOnUse">
<stop stop-color="white"/>
<stop offset="1" stop-color="#E6E6E6"/>
</linearGradient>
<linearGradient id="paint47_linear" x1="280.746" y1="443.569" x2="280.746" y2="317.763" gradientUnits="userSpaceOnUse">
<stop stop-color="#456974"/>
<stop offset="0.9964" stop-color="#37474F"/>
</linearGradient>
<linearGradient id="paint48_linear" x1="165.27" y1="437.735" x2="165.27" y2="174.664" gradientUnits="userSpaceOnUse">
<stop stop-color="white"/>
<stop offset="1" stop-color="#E6E6E6"/>
</linearGradient>
<linearGradient id="paint49_linear" x1="166.031" y1="441.814" x2="166.031" y2="310.672" gradientUnits="userSpaceOnUse">
<stop stop-color="#456974"/>
<stop offset="0.9964" stop-color="#37474F"/>
</linearGradient>
<linearGradient id="paint50_linear" x1="198.155" y1="188.061" x2="198.155" y2="153.982" gradientUnits="userSpaceOnUse">
<stop stop-color="#35CEB5"/>
<stop offset="1" stop-color="#B4F3E9"/>
</linearGradient>
<linearGradient id="paint51_linear" x1="215.227" y1="409.918" x2="215.227" y2="472.724" gradientUnits="userSpaceOnUse">
<stop stop-color="#35CEB5"/>
<stop offset="1" stop-color="#B4F3E9"/>
</linearGradient>
<linearGradient id="paint52_linear" x1="209.631" y1="172.441" x2="209.631" y2="183.868" gradientUnits="userSpaceOnUse">
<stop stop-color="#178573"/>
<stop offset="1" stop-color="#35CEB5"/>
</linearGradient>
<linearGradient id="paint53_linear" x1="585.964" y1="162.082" x2="657.755" y2="210.881" gradientUnits="userSpaceOnUse">
<stop stop-color="#456974"/>
<stop offset="1" stop-color="#37474F"/>
</linearGradient>
<linearGradient id="paint54_linear" x1="560.63" y1="280.544" x2="560.63" y2="270.946" gradientUnits="userSpaceOnUse">
<stop stop-color="#456974"/>
<stop offset="0.9964" stop-color="#37474F"/>
</linearGradient>
<linearGradient id="paint55_linear" x1="558.628" y1="280.709" x2="575.829" y2="229.066" gradientUnits="userSpaceOnUse">
<stop stop-color="#F7C4A5"/>
<stop offset="0.9964" stop-color="#E58C7E"/>
</linearGradient>
<linearGradient id="paint56_linear" x1="558.698" y1="260.851" x2="558.698" y2="253.144" gradientUnits="userSpaceOnUse">
<stop stop-color="#456974"/>
<stop offset="0.9964" stop-color="#37474F"/>
</linearGradient>
<linearGradient id="paint57_linear" x1="552.311" y1="273.229" x2="561.958" y2="244.267" gradientUnits="userSpaceOnUse">
<stop stop-color="#F7C4A5"/>
<stop offset="0.9964" stop-color="#E58C7E"/>
</linearGradient>
<linearGradient id="paint58_linear" x1="574.389" y1="273.771" x2="584.619" y2="241.369" gradientUnits="userSpaceOnUse">
<stop stop-color="#178573"/>
<stop offset="1" stop-color="#35CEB5"/>
</linearGradient>
<linearGradient id="paint59_linear" x1="582.625" y1="221.987" x2="591.677" y2="274.358" gradientUnits="userSpaceOnUse">
<stop stop-color="#178573"/>
<stop offset="1" stop-color="#35CEB5"/>
</linearGradient>
<linearGradient id="paint60_linear" x1="600.246" y1="193.123" x2="596.041" y2="174.026" gradientUnits="userSpaceOnUse">
<stop stop-color="#F7C4A5"/>
<stop offset="0.9964" stop-color="#E58C7E"/>
</linearGradient>
<linearGradient id="paint61_linear" x1="597.392" y1="176.109" x2="602.211" y2="200.947" gradientUnits="userSpaceOnUse">
<stop stop-color="#F7C4A5"/>
<stop offset="0.9964" stop-color="#E58C7E"/>
</linearGradient>
<linearGradient id="paint62_linear" x1="595.104" y1="236.03" x2="595.104" y2="183.914" gradientUnits="userSpaceOnUse">
<stop stop-color="white"/>
<stop offset="1" stop-color="#FCEAF9"/>
</linearGradient>
<linearGradient id="paint63_linear" x1="593.972" y1="214.2" x2="603.243" y2="222.943" gradientUnits="userSpaceOnUse">
<stop stop-color="#F7C4A5"/>
<stop offset="0.9964" stop-color="#E58C7E"/>
</linearGradient>
<linearGradient id="paint64_linear" x1="576.495" y1="219.699" x2="604.403" y2="219.699" gradientUnits="userSpaceOnUse">
<stop stop-color="#456974"/>
<stop offset="0.9964" stop-color="#37474F"/>
</linearGradient>
<linearGradient id="paint65_linear" x1="558.649" y1="202.108" x2="576.933" y2="220.259" gradientUnits="userSpaceOnUse">
<stop stop-color="#456974"/>
<stop offset="0.9964" stop-color="#37474F"/>
</linearGradient>
<linearGradient id="paint66_linear" x1="220.153" y1="332.304" x2="278.148" y2="332.5" gradientUnits="userSpaceOnUse">
<stop offset="0.494" stop-color="#EBEFF2"/>
<stop offset="1" stop-color="white"/>
</linearGradient>
<linearGradient id="paint67_linear" x1="262.088" y1="316.262" x2="260.558" y2="335.757" gradientUnits="userSpaceOnUse">
<stop stop-color="#178573"/>
<stop offset="1" stop-color="#35CEB5"/>
</linearGradient>
<linearGradient id="paint68_linear" x1="258.131" y1="327.115" x2="258.41" y2="306.925" gradientUnits="userSpaceOnUse">
<stop stop-color="#77533D"/>
<stop offset="1" stop-color="#9E6E51"/>
</linearGradient>
<linearGradient id="paint69_linear" x1="233.122" y1="313.988" x2="231.592" y2="333.482" gradientUnits="userSpaceOnUse">
<stop stop-color="#178573"/>
<stop offset="1" stop-color="#35CEB5"/>
</linearGradient>
<linearGradient id="paint70_linear" x1="231.585" y1="326.749" x2="231.863" y2="306.559" gradientUnits="userSpaceOnUse">
<stop stop-color="#77533D"/>
<stop offset="1" stop-color="#9E6E51"/>
</linearGradient>
<linearGradient id="paint71_linear" x1="262.954" y1="294.408" x2="248.014" y2="294.408" gradientUnits="userSpaceOnUse">
<stop stop-color="#37474F"/>
<stop offset="0.9964" stop-color="#455A64"/>
</linearGradient>
<linearGradient id="paint72_linear" x1="258.806" y1="292.937" x2="228.732" y2="292.937" gradientUnits="userSpaceOnUse">
<stop stop-color="#37474F"/>
<stop offset="0.9964" stop-color="#455A64"/>
</linearGradient>
<linearGradient id="paint73_linear" x1="188.554" y1="253.34" x2="219.599" y2="241.194" gradientUnits="userSpaceOnUse">
<stop stop-color="#456974"/>
<stop offset="1" stop-color="#37474F"/>
</linearGradient>
<linearGradient id="paint74_linear" x1="310" y1="219.96" x2="303.874" y2="219.96" gradientUnits="userSpaceOnUse">
<stop stop-color="#77533D"/>
<stop offset="1" stop-color="#9E6E51"/>
</linearGradient>
<linearGradient id="paint75_linear" x1="223.617" y1="267.279" x2="225.123" y2="258.974" gradientUnits="userSpaceOnUse">
<stop stop-color="#77533D"/>
<stop offset="1" stop-color="#9E6E51"/>
</linearGradient>
<linearGradient id="paint76_linear" x1="264.067" y1="227.595" x2="255.919" y2="241.72" gradientUnits="userSpaceOnUse">
<stop stop-color="#77533D"/>
<stop offset="1" stop-color="#9E6E51"/>
</linearGradient>
<linearGradient id="paint77_linear" x1="261.433" y1="224.245" x2="265.675" y2="224.245" gradientUnits="userSpaceOnUse">
<stop stop-color="#77533D"/>
<stop offset="1" stop-color="#9E6E51"/>
</linearGradient>
<linearGradient id="paint78_linear" x1="259.006" y1="198.657" x2="259.006" y2="469.985" gradientUnits="userSpaceOnUse">
<stop stop-color="#35CEB5"/>
<stop offset="1" stop-color="#B4F3E9"/>
</linearGradient>
<linearGradient id="paint79_linear" x1="438.338" y1="497.038" x2="432.328" y2="497.038" gradientUnits="userSpaceOnUse">
<stop stop-color="#456974"/>
<stop offset="1" stop-color="#37474F"/>
</linearGradient>
<linearGradient id="paint80_linear" x1="421.855" y1="503.741" x2="413.337" y2="503.741" gradientUnits="userSpaceOnUse">
<stop stop-color="#444B8C"/>
<stop offset="0.9964" stop-color="#26264F"/>
</linearGradient>
<linearGradient id="paint81_linear" x1="428.823" y1="436.75" x2="440.712" y2="470.766" gradientUnits="userSpaceOnUse">
<stop stop-color="#178573"/>
<stop offset="1" stop-color="#35CEB5"/>
</linearGradient>
<linearGradient id="paint82_linear" x1="398.937" y1="456.535" x2="422.898" y2="460.201" gradientUnits="userSpaceOnUse">
<stop stop-color="#178573"/>
<stop offset="1" stop-color="#35CEB5"/>
</linearGradient>
<linearGradient id="paint83_linear" x1="438.523" y1="423.163" x2="438.523" y2="336.118" gradientUnits="userSpaceOnUse">
<stop stop-color="#B4F3E9"/>
<stop offset="1" stop-color="#27DEBF"/>
</linearGradient>
<linearGradient id="paint84_linear" x1="443.507" y1="377.535" x2="442.757" y2="380.027" gradientUnits="userSpaceOnUse">
<stop stop-color="#FFC444"/>
<stop offset="1" stop-color="#F36F56"/>
</linearGradient>
<linearGradient id="paint85_linear" x1="431.789" y1="388.44" x2="446.69" y2="362.829" gradientUnits="userSpaceOnUse">
<stop stop-color="#F7C4A5"/>
<stop offset="0.9964" stop-color="#E58C7E"/>
</linearGradient>
<linearGradient id="paint86_linear" x1="435.839" y1="380.192" x2="447.048" y2="364.391" gradientUnits="userSpaceOnUse">
<stop stop-color="#456974"/>
<stop offset="0.9964" stop-color="#37474F"/>
</linearGradient>
<linearGradient id="paint87_linear" x1="444.909" y1="369.03" x2="439.996" y2="394.131" gradientUnits="userSpaceOnUse">
<stop stop-color="#F7C4A5"/>
<stop offset="0.9964" stop-color="#E58C7E"/>
</linearGradient>
<linearGradient id="paint88_linear" x1="478.899" y1="409.123" x2="486.802" y2="429.201" gradientUnits="userSpaceOnUse">
<stop stop-color="#F7C4A5"/>
<stop offset="0.9964" stop-color="#E58C7E"/>
</linearGradient>
<linearGradient id="paint89_linear" x1="457.441" y1="415.795" x2="472.217" y2="453.33" gradientUnits="userSpaceOnUse">
<stop stop-color="#F7C4A5"/>
<stop offset="0.9964" stop-color="#E58C7E"/>
</linearGradient>
<linearGradient id="paint90_linear" x1="355.589" y1="590.723" x2="355.589" y2="463.083" gradientUnits="userSpaceOnUse">
<stop stop-color="#456974"/>
<stop offset="0.9964" stop-color="#37474F"/>
</linearGradient>
<linearGradient id="paint91_linear" x1="353.431" y1="590.886" x2="353.431" y2="464.309" gradientUnits="userSpaceOnUse">
<stop stop-color="#37474F"/>
<stop offset="0.9964" stop-color="#455A64"/>
</linearGradient>
<linearGradient id="paint92_linear" x1="353.19" y1="468.142" x2="353.19" y2="592.05" gradientUnits="userSpaceOnUse">
<stop stop-color="#178573"/>
<stop offset="1" stop-color="#35CEB5"/>
</linearGradient>
<linearGradient id="paint93_linear" x1="352.689" y1="483.381" x2="352.689" y2="576.712" gradientUnits="userSpaceOnUse">
<stop stop-color="#35CEB5"/>
<stop offset="1" stop-color="#B4F3E9"/>
</linearGradient>
<linearGradient id="paint94_linear" x1="352.166" y1="551.187" x2="352.166" y2="508.804" gradientUnits="userSpaceOnUse">
<stop stop-color="white"/>
<stop offset="1" stop-color="#FCEAF9"/>
</linearGradient>
</defs>
</svg>
