<svg width="401" height="424" viewBox="0 0 401 424" fill="none" xmlns="http://www.w3.org/2000/svg">
<path opacity="0.25" d="M168.14 328.029C183.852 327.837 220.257 332.82 292.972 342.784C383.41 355.144 399.984 359.648 400.176 364.822C400.367 371.05 376.895 374.786 317.306 390.404C259.153 405.639 247.753 410.908 228.113 415.508C130.586 438.503 0.964079 404.01 0.00604824 377.852C-0.856179 355.623 90.6358 328.795 168.14 328.029Z" fill="#20A19E"/>
<path d="M319.701 375.266L192.378 374.691C177.05 374.595 164.691 362.139 164.787 346.809L166.128 27.6499C166.224 12.3195 178.679 -0.0405739 194.007 0.0552408L321.329 0.630129C336.658 0.725944 349.016 13.1819 348.921 28.5122L347.579 347.671C347.484 363.001 334.933 375.361 319.701 375.266Z" fill="url(#paint0_linear)"/>
<path d="M224.377 33.2071H215.659L194.103 33.1112C183.373 33.1112 174.655 30.9075 174.559 40.5848L173.218 338.856C173.218 348.533 181.84 349.683 192.57 349.779L319.605 350.354C330.335 350.354 339.053 349.3 339.149 339.622L340.49 41.3513C340.49 31.674 331.868 33.7819 321.138 33.7819L296.421 33.6861" fill="url(#paint1_linear)"/>
<path d="M268.255 117.045C269.309 117.811 270.267 118.77 271.033 119.728L274.578 119.057L276.877 124.518L274.003 126.626C274.195 127.872 274.195 129.213 274.003 130.459L276.973 132.471L274.769 137.932L271.225 137.358C270.458 138.412 269.5 139.37 268.542 140.136L269.213 143.681L263.752 145.981L261.644 143.106C260.399 143.298 259.058 143.298 257.812 143.106L255.8 146.077L250.34 143.873L250.914 140.328C249.861 139.561 248.903 138.603 248.136 137.645L244.591 138.316L242.292 132.854L245.166 130.746C244.975 129.501 244.975 128.159 245.166 126.914L242.196 124.902L244.4 119.44L247.944 120.015C248.711 118.961 249.669 118.003 250.627 117.236L249.956 113.691L255.417 111.392L257.525 114.266C258.77 114.075 260.111 114.075 261.357 114.266L263.369 111.296L268.83 113.5L268.255 117.045ZM262.123 122.985C258.866 121.644 255.13 123.273 253.884 126.53C252.543 129.788 254.172 133.525 257.429 134.771C260.686 136.112 264.423 134.483 265.668 131.225C267.009 127.968 265.381 124.231 262.123 122.985Z" fill="#FAFAFA"/>
<path d="M262.123 122.985C262.123 122.985 262.698 123.081 263.561 123.656C264.423 124.231 265.477 125.381 266.051 127.105C266.339 127.968 266.435 129.022 266.147 130.076C265.956 131.13 265.477 132.279 264.614 133.142C264.231 133.621 263.752 134.004 263.177 134.387C262.602 134.771 262.028 134.962 261.357 135.154C260.112 135.537 258.579 135.441 257.333 134.866C255.992 134.292 254.938 133.429 254.268 132.279C253.884 131.705 253.693 131.13 253.501 130.459C253.31 129.884 253.31 129.213 253.31 128.639C253.31 127.393 253.789 126.243 254.363 125.381C254.938 124.423 255.705 123.752 256.567 123.273C258.196 122.315 259.728 122.315 260.782 122.506C261.644 122.698 262.123 122.985 262.123 122.985C262.123 122.985 261.549 122.794 260.591 122.698C259.633 122.602 258.1 122.698 256.567 123.56C255.8 124.039 255.034 124.71 254.555 125.572C253.98 126.435 253.597 127.489 253.597 128.734C253.597 129.309 253.597 129.884 253.789 130.459C253.98 131.034 254.172 131.609 254.555 132.184C255.226 133.238 256.279 134.196 257.525 134.675C258.77 135.154 260.112 135.25 261.357 134.962C261.932 134.771 262.507 134.579 263.081 134.196C263.561 133.908 264.04 133.525 264.423 133.046C265.189 132.184 265.668 131.13 265.86 130.172C266.051 129.118 265.956 128.159 265.764 127.297C265.285 125.572 264.231 124.423 263.465 123.848C262.698 123.177 262.123 122.985 262.123 122.985Z" fill="#FAFAFA"/>
<path d="M315.39 299.955H202.63C199.947 299.955 197.744 297.751 197.744 295.068V294.877C197.744 292.194 199.947 289.99 202.63 289.99H315.294C317.977 289.99 320.18 292.194 320.18 294.877V295.068C320.18 297.751 318.072 299.955 315.39 299.955Z" fill="url(#paint2_linear)"/>
<path d="M257.908 299.955H202.725C200.043 299.955 197.839 297.751 197.839 295.069V294.877C197.839 292.194 200.043 289.99 202.725 289.99H257.908C260.59 289.99 262.794 292.194 262.794 294.877V295.069C262.794 297.751 260.59 299.955 257.908 299.955Z" fill="url(#paint3_linear)"/>
<path d="M250.914 315.477C250.914 317.489 249.477 319.118 246.603 319.118C244.878 319.118 243.25 318.543 242.292 317.585L242.867 316.627C243.633 317.394 244.974 317.968 246.507 317.968C248.519 317.968 249.669 317.01 249.669 315.477C249.669 313.944 248.711 312.986 245.645 312.986H243.058L243.633 306.95H250.243V308.004H244.783L244.399 311.836H245.932C249.573 311.932 250.914 313.369 250.914 315.477Z" fill="url(#paint4_linear)"/>
<path d="M260.494 315.477C260.494 317.489 259.057 319.118 256.183 319.118C254.459 319.118 252.83 318.543 251.872 317.585L252.447 316.627C253.213 317.393 254.555 317.968 256.087 317.968C258.099 317.968 259.249 317.01 259.249 315.477C259.249 313.944 258.291 312.986 255.225 312.986H252.639L253.213 306.95H259.824V308.004H254.363L253.98 311.836H255.513C259.153 311.932 260.494 313.369 260.494 315.477Z" fill="url(#paint5_linear)"/>
<path d="M261.74 310.207C261.74 308.291 262.794 306.95 264.422 306.95C266.051 306.95 267.105 308.195 267.105 310.207C267.105 312.219 265.955 313.465 264.422 313.465C262.89 313.465 261.74 312.124 261.74 310.207ZM266.339 310.207C266.339 308.674 265.572 307.716 264.518 307.716C263.369 307.716 262.698 308.674 262.698 310.207C262.698 311.74 263.464 312.698 264.518 312.698C265.572 312.698 266.339 311.74 266.339 310.207ZM271.704 307.045H272.757L264.518 319.022H263.464L271.704 307.045ZM269.117 315.86C269.117 313.944 270.266 312.603 271.799 312.603C273.428 312.603 274.482 313.944 274.482 315.86C274.482 317.777 273.428 319.118 271.799 319.118C270.266 319.118 269.117 317.777 269.117 315.86ZM273.62 315.86C273.62 314.327 272.853 313.369 271.799 313.369C270.65 313.369 269.979 314.327 269.979 315.86C269.979 317.393 270.745 318.352 271.799 318.352C272.949 318.352 273.62 317.393 273.62 315.86Z" fill="url(#paint6_linear)"/>
<path d="M295.367 142.532C295.367 127.105 282.817 114.65 267.488 114.65C260.111 114.65 253.118 117.62 247.849 122.89C231.945 118.099 215.755 128.255 212.497 143.586C203.779 146.268 197.552 154.317 197.552 163.515C197.552 175.109 207.132 184.498 218.724 184.498H250.148C252.064 184.498 253.597 182.965 253.597 181.049V170.605H260.59V181.049C260.59 182.965 262.123 184.498 264.039 184.498H295.463C307.055 184.498 316.635 175.109 316.635 163.515C316.635 151.921 306.863 142.532 295.367 142.532ZM277.931 212.764C276.015 212.764 274.482 214.297 274.482 216.213V226.657H239.514V216.213C239.514 214.297 237.981 212.764 236.065 212.764C234.149 212.764 232.616 214.297 232.616 216.213V230.202C232.616 232.118 234.149 233.651 236.065 233.651H277.931C279.847 233.651 281.38 232.118 281.38 230.202V216.213C281.38 214.393 279.847 212.764 277.931 212.764Z" fill="url(#paint7_linear)"/>
<path d="M281.092 193.984C280.518 192.643 279.272 191.876 277.835 191.876H267.393V166.964C267.393 165.048 265.86 163.515 263.944 163.515H249.956C248.04 163.515 246.507 165.048 246.507 166.964V191.876H236.065C234.628 191.876 233.382 192.739 232.808 193.984C232.233 195.326 232.616 196.763 233.574 197.817L254.555 218.8C255.226 219.471 256.088 219.854 257.046 219.854C258.004 219.854 258.866 219.471 259.537 218.8L280.518 197.817C281.38 196.859 281.667 195.326 281.092 193.984Z" fill="url(#paint8_linear)"/>
<path d="M256.183 370.571C260.892 370.571 264.71 366.753 264.71 362.043C264.71 357.333 260.892 353.516 256.183 353.516C251.474 353.516 247.657 357.333 247.657 362.043C247.657 366.753 251.474 370.571 256.183 370.571Z" fill="url(#paint9_linear)"/>
<path d="M285.116 21.326H228.784C227.443 21.326 226.389 20.272 226.389 18.9306V18.8348C226.389 17.4934 227.443 16.4395 228.784 16.4395H285.116C286.457 16.4395 287.511 17.4934 287.511 18.8348V18.9306C287.607 20.272 286.457 21.326 285.116 21.326Z" fill="url(#paint10_linear)"/>
<path d="M232.041 279.643C232.041 280.217 231.945 280.792 231.753 281.271C231.562 281.751 231.274 282.23 230.891 282.613C230.508 282.996 230.029 283.284 229.55 283.475C228.975 283.667 228.4 283.763 227.73 283.763H224.472V275.427H227.73C228.4 275.427 228.975 275.523 229.55 275.714C230.125 275.906 230.508 276.193 230.891 276.577C231.274 276.96 231.562 277.343 231.753 277.918C231.945 278.493 232.041 279.068 232.041 279.643ZM230.029 279.643C230.029 279.259 229.933 278.876 229.837 278.493C229.742 278.205 229.55 277.918 229.358 277.631C229.167 277.343 228.879 277.247 228.592 277.056C228.305 276.96 228.017 276.864 227.634 276.864H226.293V282.23H227.634C228.017 282.23 228.305 282.134 228.592 282.038C228.879 281.942 229.167 281.751 229.358 281.463C229.55 281.271 229.742 280.984 229.837 280.601C230.029 280.409 230.029 280.026 230.029 279.643Z" fill="url(#paint11_linear)"/>
<path d="M241.238 279.642C241.238 280.217 241.142 280.792 240.951 281.367C240.759 281.846 240.472 282.325 240.088 282.709C239.705 283.092 239.226 283.379 238.747 283.571C238.172 283.763 237.597 283.858 236.927 283.858C236.256 283.858 235.681 283.763 235.107 283.571C234.532 283.379 234.149 283.092 233.765 282.709C233.382 282.325 233.095 281.846 232.903 281.367C232.712 280.888 232.616 280.313 232.616 279.642C232.616 278.972 232.712 278.493 232.903 277.918C233.095 277.439 233.382 276.96 233.765 276.576C234.149 276.193 234.628 275.906 235.107 275.714C235.681 275.522 236.256 275.427 236.927 275.427C237.597 275.427 238.172 275.522 238.747 275.714C239.322 275.906 239.705 276.193 240.088 276.576C240.472 276.96 240.759 277.439 240.951 277.918C241.142 278.493 241.238 279.068 241.238 279.642ZM239.226 279.642C239.226 279.259 239.13 278.876 239.035 278.493C238.939 278.109 238.747 277.918 238.556 277.63C238.364 277.343 238.076 277.247 237.789 277.055C237.502 276.96 237.118 276.864 236.831 276.864C236.448 276.864 236.16 276.96 235.873 277.055C235.586 277.151 235.298 277.343 235.107 277.63C234.915 277.822 234.723 278.109 234.628 278.493C234.532 278.78 234.436 279.163 234.436 279.642C234.436 280.026 234.532 280.409 234.628 280.792C234.723 281.08 234.915 281.367 235.107 281.655C235.298 281.846 235.586 282.038 235.873 282.134C236.16 282.229 236.544 282.325 236.831 282.325C237.214 282.325 237.502 282.229 237.789 282.134C238.076 282.038 238.364 281.846 238.556 281.655C238.747 281.463 238.939 281.176 239.035 280.792C239.226 280.409 239.226 280.026 239.226 279.642Z" fill="url(#paint12_linear)"/>
<path d="M241.526 275.427H243.154C243.346 275.427 243.442 275.427 243.537 275.523C243.633 275.618 243.729 275.714 243.729 275.81L244.879 280.217C244.879 280.313 244.975 280.505 244.975 280.696C244.975 280.888 245.07 280.984 245.07 281.176C245.07 280.984 245.166 280.792 245.166 280.696C245.166 280.505 245.262 280.409 245.262 280.217L246.603 275.81C246.603 275.714 246.699 275.618 246.795 275.523C246.891 275.427 247.082 275.427 247.178 275.427H247.753C247.944 275.427 248.04 275.427 248.136 275.523C248.232 275.618 248.328 275.714 248.328 275.81L249.669 280.217C249.669 280.313 249.765 280.505 249.765 280.601C249.765 280.696 249.86 280.888 249.86 281.08C249.86 280.888 249.956 280.792 249.956 280.601C249.956 280.409 250.052 280.313 250.052 280.122L251.202 275.714C251.202 275.618 251.298 275.523 251.393 275.427C251.489 275.331 251.681 275.331 251.777 275.331H253.309L250.723 283.667H248.998L247.465 278.493C247.465 278.397 247.37 278.301 247.37 278.205C247.37 278.109 247.274 278.014 247.274 277.918C247.274 278.014 247.178 278.109 247.178 278.205C247.178 278.301 247.082 278.397 247.082 278.493L245.454 283.667H243.729L241.526 275.427Z" fill="url(#paint13_linear)"/>
<path d="M255.704 275.427C255.8 275.427 255.8 275.427 255.896 275.427L255.992 275.522C255.992 275.522 256.088 275.618 256.088 275.714L260.111 280.792C260.111 280.601 260.111 280.505 260.111 280.313C260.111 280.122 260.111 280.026 260.111 279.93V275.522H261.836V283.858H260.782C260.59 283.858 260.495 283.858 260.399 283.763C260.303 283.763 260.207 283.667 260.111 283.475L256.183 278.493C256.183 278.684 256.183 278.78 256.183 278.876C256.183 278.972 256.183 279.163 256.183 279.259V283.763H254.459V275.427H255.513C255.609 275.427 255.704 275.427 255.704 275.427Z" fill="url(#paint14_linear)"/>
<path d="M265.093 282.325H268.159V283.858H263.082V275.523H264.998V282.325H265.093Z" fill="url(#paint15_linear)"/>
<path d="M276.973 279.642C276.973 280.217 276.877 280.792 276.685 281.367C276.494 281.846 276.206 282.325 275.823 282.709C275.44 283.092 274.961 283.379 274.482 283.571C273.907 283.763 273.332 283.858 272.662 283.858C271.991 283.858 271.416 283.763 270.841 283.571C270.267 283.379 269.883 283.092 269.5 282.709C269.117 282.325 268.83 281.846 268.638 281.367C268.446 280.888 268.351 280.313 268.351 279.642C268.351 278.972 268.446 278.493 268.638 277.918C268.83 277.343 269.117 276.96 269.5 276.576C269.883 276.193 270.362 275.906 270.841 275.714C271.416 275.522 271.991 275.427 272.662 275.427C273.332 275.427 273.907 275.522 274.482 275.714C275.057 275.906 275.44 276.193 275.823 276.576C276.206 276.96 276.494 277.439 276.685 277.918C276.877 278.493 276.973 279.068 276.973 279.642ZM274.961 279.642C274.961 279.259 274.865 278.876 274.769 278.493C274.674 278.205 274.482 277.918 274.29 277.63C274.099 277.343 273.811 277.247 273.524 277.055C273.237 276.864 272.853 276.864 272.566 276.864C272.183 276.864 271.895 276.96 271.608 277.055C271.32 277.151 271.033 277.343 270.841 277.63C270.65 277.822 270.458 278.109 270.362 278.493C270.267 278.876 270.171 279.163 270.171 279.642C270.171 280.026 270.267 280.409 270.362 280.792C270.458 281.08 270.65 281.367 270.841 281.655C271.033 281.846 271.32 282.038 271.608 282.134C271.895 282.229 272.278 282.325 272.566 282.325C272.949 282.325 273.237 282.229 273.524 282.134C273.811 282.038 274.099 281.846 274.29 281.655C274.482 281.463 274.674 281.176 274.769 280.792C274.865 280.409 274.961 280.026 274.961 279.642Z" fill="url(#paint16_linear)"/>
<path d="M285.308 283.858H283.775C283.583 283.858 283.487 283.858 283.392 283.763C283.296 283.667 283.2 283.571 283.2 283.475L282.721 282.038H279.559L279.08 283.475C279.08 283.571 278.985 283.667 278.889 283.763C278.793 283.858 278.601 283.858 278.506 283.858H276.877L280.134 275.523H282.146L285.308 283.858ZM279.943 280.601H282.242L281.475 278.301C281.38 278.11 281.38 278.014 281.284 277.822C281.188 277.63 281.188 277.439 281.092 277.151C280.996 277.343 280.996 277.63 280.901 277.822C280.805 278.014 280.805 278.205 280.709 278.301L279.943 280.601Z" fill="url(#paint17_linear)"/>
<path d="M293.642 279.642C293.642 280.217 293.546 280.792 293.355 281.271C293.163 281.75 292.876 282.229 292.493 282.613C292.109 282.996 291.63 283.283 291.151 283.475C290.576 283.667 290.002 283.763 289.331 283.763H286.074V275.427H289.331C290.002 275.427 290.576 275.522 291.151 275.714C291.726 275.906 292.109 276.193 292.493 276.576C292.876 276.96 293.163 277.343 293.355 277.918C293.546 278.493 293.642 279.068 293.642 279.642ZM291.63 279.642C291.63 279.259 291.535 278.876 291.439 278.493C291.343 278.205 291.151 277.918 290.96 277.63C290.768 277.343 290.481 277.247 290.193 277.056C289.906 276.96 289.523 276.864 289.235 276.864H287.894V282.23H289.235C289.618 282.23 289.906 282.134 290.193 282.038C290.481 281.942 290.768 281.75 290.96 281.463C291.151 281.271 291.343 280.984 291.439 280.601C291.535 280.409 291.63 280.026 291.63 279.642Z" fill="url(#paint18_linear)"/>
<path d="M190.079 365.013L192.858 375.553L223.706 375.266C223.706 375.266 219.491 372.104 203.971 372.295L202.438 365.013H190.079Z" fill="url(#paint19_linear)"/>
<path d="M204.354 368.654L196.019 320.268C196.019 320.268 187.684 274.564 185.097 266.42C182.894 259.234 175.134 254.922 171.972 253.485V253.389L156.356 245.82L133.268 248.023L123.879 250.706C119.855 251.856 116.215 253.964 113.149 256.838L82.8755 285.87L77.3189 240.742L62.2778 242.179L64.7687 300.338C67.068 307.429 73.5826 312.411 81.2468 312.411C85.7496 312.411 90.1565 310.495 93.4138 307.429L114.97 287.116L112.862 313.848L105.485 330.52L158.368 360.414C158.368 360.414 164.596 329.658 167.949 308.387C168.428 305.129 168.907 301.201 169.29 296.889L186.918 369.517L204.354 368.654Z" fill="url(#paint20_linear)"/>
<path d="M86.8036 206.823C87.0911 207.398 94.2763 244.383 94.2763 244.383L77.3191 245.149L70.7087 213.339L86.8036 206.823Z" fill="url(#paint21_linear)"/>
<path d="M94.2761 244.383L96.2879 243.616L88.9111 207.111L86.6118 206.919L94.2761 244.383Z" fill="url(#paint22_linear)"/>
<path d="M80.0014 214.967C80.0972 215.447 79.714 215.926 79.235 215.926C78.756 216.021 78.277 215.638 78.277 215.159C78.1812 214.68 78.5644 214.201 79.0434 214.201C79.5224 214.105 80.0014 214.488 80.0014 214.967Z" fill="url(#paint23_linear)"/>
<path d="M76.5525 240.933L76.2651 236.047L83.5461 233.076L80.7678 226.369C79.4266 223.207 75.5945 221.962 72.6246 223.591C71.6665 224.07 70.6127 224.645 69.7505 225.124C67.6428 226.274 66.2058 228.19 65.631 230.489C64.6729 234.418 63.9065 242.658 63.9065 242.275" fill="url(#paint24_linear)"/>
<path d="M57.1046 364.247C57.1046 364.247 27.3099 372.487 26.0644 372.966C24.2442 373.637 24.5316 380.152 27.4057 380.056C28.7469 379.96 50.3026 380.823 52.9851 380.727C55.6676 380.535 63.9067 377.278 63.9067 377.278L57.1046 364.247Z" fill="url(#paint25_linear)"/>
<path d="M88.8154 356.007C88.8154 356.007 116.982 374.499 118.035 375.265C119.568 376.415 117.844 381.877 115.161 380.919C113.916 380.439 90.2525 373.924 87.6658 372.87C85.0791 371.912 78.2771 366.259 78.2771 366.259L88.8154 356.007Z" fill="url(#paint26_linear)"/>
<path d="M92.073 366.642C91.9772 366.642 92.073 365.013 93.3184 363.576C94.5638 362.043 96.0967 361.564 96.0967 361.756C96.1925 361.851 94.8513 362.522 93.7016 363.959C92.552 365.301 92.2646 366.738 92.073 366.642Z" fill="#263238"/>
<path d="M93.7972 363.193C93.7014 363.193 94.0846 362.426 94.4679 361.085C94.6595 360.414 94.7553 359.648 94.7553 358.785C94.7553 358.306 94.7553 357.923 94.7553 357.348C94.7553 357.156 94.6595 356.869 94.5637 356.773C94.4679 356.677 94.3721 356.582 94.1805 356.677C93.893 356.773 93.7014 357.348 93.5098 357.827C93.414 358.306 93.3182 358.689 93.2224 359.169C93.1266 360.031 93.2224 360.893 93.3182 361.564C93.5098 362.905 93.7972 363.672 93.7014 363.768C93.6056 363.768 93.2224 363.001 92.935 361.66C92.8392 360.989 92.6476 360.127 92.7434 359.169C92.7434 358.689 92.8392 358.21 93.0308 357.731C93.1266 357.444 93.2224 357.252 93.3182 356.965C93.414 356.677 93.6056 356.39 93.9888 356.294C94.2762 356.102 94.7553 356.198 94.9469 356.582C95.1385 356.869 95.1385 357.156 95.1385 357.444C95.1385 357.923 95.1385 358.402 95.1385 358.881C95.0427 359.839 94.8511 360.606 94.6595 361.277C94.2763 362.522 93.7972 363.193 93.7972 363.193Z" fill="#263238"/>
<path d="M93.7973 362.905C93.7973 363.001 93.1267 362.618 91.977 362.33C91.4022 362.235 90.7316 362.043 89.9652 362.043C89.582 362.043 89.1988 362.043 88.8155 362.139C88.4323 362.235 88.1449 362.426 88.1449 362.81C88.1449 363.193 88.3365 363.48 88.6239 363.672C88.9114 363.864 89.2946 363.959 89.6778 364.055C90.4442 364.151 91.1148 363.959 91.6896 363.864C92.8393 363.576 93.5099 363.289 93.5099 363.289C93.5099 363.384 92.9351 363.768 91.7854 364.151C91.2106 364.343 90.4442 364.534 89.6778 364.438C89.2946 364.438 88.8156 364.343 88.4323 364.055C88.0491 363.768 87.6659 363.289 87.7617 362.714C87.7617 362.139 88.3365 361.66 88.8155 361.66C89.2946 361.564 89.6778 361.564 90.1568 361.564C90.9232 361.66 91.6896 361.756 92.2645 361.947C93.2225 362.33 93.7973 362.81 93.7973 362.905Z" fill="#263238"/>
<path d="M154.92 209.602L156.74 246.874C157.028 253.198 152.046 258.563 145.627 258.563C139.687 258.563 134.801 253.868 134.514 248.024C134.418 245.245 134.226 242.85 134.226 242.562C134.226 242.562 124.742 242.179 123.592 232.789C123.017 228.286 122.634 218.896 122.443 210.368C122.155 201.266 128.957 193.409 138.059 192.451L138.921 192.355C148.693 191.78 154.632 199.829 154.92 209.602Z" fill="url(#paint27_linear)"/>
<path d="M154.92 216.692C155.111 216.597 161.147 214.105 161.626 220.525C162.105 226.945 155.59 226.082 155.59 225.986C155.494 225.699 154.92 216.692 154.92 216.692Z" fill="url(#paint28_linear)"/>
<path d="M158.464 216.021C157.506 215.926 155.878 216.98 155.59 217.938C155.303 218.896 155.303 219.95 155.016 220.908C154.728 221.866 153.866 222.824 152.812 222.633C152.141 222.537 151.567 221.962 151.279 221.291C150.992 220.621 150.992 219.95 150.992 219.183C150.992 216.117 151.375 213.147 151.088 210.081C150.896 207.015 150.13 203.949 148.213 201.553C146.393 199.158 143.232 197.625 140.262 198.2C138.25 198.583 136.621 199.829 134.609 200.308C132.31 200.883 129.724 200.308 127.903 198.871C127.712 198.679 126.562 198.104 126.562 198.104C126.562 197.912 126.562 196.571 127.041 196.092C130.586 192.068 137.484 190.247 142.849 191.014C148.214 191.78 153.387 194.846 156.165 199.446C159.039 204.14 159.135 211.039 158.464 216.021Z" fill="url(#paint29_linear)"/>
<path d="M61.895 379.481L53.7517 363.864C53.7517 363.864 122.922 318.447 125.796 317.489C128.67 316.531 135.472 312.028 142.274 313.944C149.076 315.86 155.303 321.992 158.369 330.903C161.434 339.91 161.626 359.935 161.626 359.935C161.626 359.935 156.165 375.745 145.531 379.098C144.669 379.386 143.711 379.577 142.753 379.769C129.819 382.356 116.599 376.415 109.317 365.301L107.785 362.905" fill="url(#paint30_linear)"/>
<path d="M30.1839 310.974C30.1839 310.974 21.7532 314.04 21.6574 323.525C21.5616 341.73 58.35 361.756 58.35 361.756L107.305 329.274V325.825C107.305 325.825 44.3627 303.117 30.1839 310.974Z" fill="url(#paint31_linear)"/>
<defs>
<linearGradient id="paint0_linear" x1="256.819" y1="0.0552408" x2="256.819" y2="375.253" gradientUnits="userSpaceOnUse">
<stop stop-color="#B4F3E9"/>
<stop offset="1" stop-color="#27DEBF"/>
</linearGradient>
<linearGradient id="paint1_linear" x1="256.819" y1="32.8063" x2="256.819" y2="350.217" gradientUnits="userSpaceOnUse">
<stop stop-color="white"/>
<stop offset="1" stop-color="#FCEAF9"/>
</linearGradient>
<linearGradient id="paint2_linear" x1="242.44" y1="323.678" x2="275.589" y2="266.268" gradientUnits="userSpaceOnUse">
<stop stop-color="#35CEB5"/>
<stop offset="1" stop-color="#B4F3E9"/>
</linearGradient>
<linearGradient id="paint3_linear" x1="197.795" y1="294.971" x2="262.753" y2="294.971" gradientUnits="userSpaceOnUse">
<stop stop-color="#178573"/>
<stop offset="1" stop-color="#35CEB5"/>
</linearGradient>
<linearGradient id="paint4_linear" x1="246.585" y1="319.141" x2="246.585" y2="307.033" gradientUnits="userSpaceOnUse">
<stop stop-color="#456974"/>
<stop offset="0.9964" stop-color="#37474F"/>
</linearGradient>
<linearGradient id="paint5_linear" x1="256.204" y1="319.141" x2="256.204" y2="307.033" gradientUnits="userSpaceOnUse">
<stop stop-color="#456974"/>
<stop offset="0.9964" stop-color="#37474F"/>
</linearGradient>
<linearGradient id="paint6_linear" x1="268.137" y1="319.124" x2="268.137" y2="306.948" gradientUnits="userSpaceOnUse">
<stop stop-color="#456974"/>
<stop offset="0.9964" stop-color="#37474F"/>
</linearGradient>
<linearGradient id="paint7_linear" x1="256.952" y1="233.745" x2="256.952" y2="114.59" gradientUnits="userSpaceOnUse">
<stop stop-color="#178573"/>
<stop offset="1" stop-color="#35CEB5"/>
</linearGradient>
<linearGradient id="paint8_linear" x1="256.952" y1="163.462" x2="256.952" y2="219.782" gradientUnits="userSpaceOnUse">
<stop stop-color="#B4F3E9"/>
<stop offset="1" stop-color="#27DEBF"/>
</linearGradient>
<linearGradient id="paint9_linear" x1="256.204" y1="370.641" x2="256.204" y2="353.516" gradientUnits="userSpaceOnUse">
<stop stop-color="white"/>
<stop offset="1" stop-color="#FCEAF9"/>
</linearGradient>
<linearGradient id="paint10_linear" x1="256.952" y1="21.3623" x2="256.952" y2="16.379" gradientUnits="userSpaceOnUse">
<stop stop-color="white"/>
<stop offset="1" stop-color="#FCEAF9"/>
</linearGradient>
<linearGradient id="paint11_linear" x1="228.246" y1="275.462" x2="228.246" y2="283.838" gradientUnits="userSpaceOnUse">
<stop stop-color="#456974"/>
<stop offset="0.9964" stop-color="#37474F"/>
</linearGradient>
<linearGradient id="paint12_linear" x1="236.892" y1="275.37" x2="236.892" y2="283.93" gradientUnits="userSpaceOnUse">
<stop stop-color="#456974"/>
<stop offset="0.9964" stop-color="#37474F"/>
</linearGradient>
<linearGradient id="paint13_linear" x1="247.641" y1="275.462" x2="247.641" y2="283.838" gradientUnits="userSpaceOnUse">
<stop stop-color="#456974"/>
<stop offset="0.9964" stop-color="#37474F"/>
</linearGradient>
<linearGradient id="paint14_linear" x1="258.143" y1="275.462" x2="258.143" y2="283.838" gradientUnits="userSpaceOnUse">
<stop stop-color="#456974"/>
<stop offset="0.9964" stop-color="#37474F"/>
</linearGradient>
<linearGradient id="paint15_linear" x1="265.701" y1="275.462" x2="265.701" y2="283.838" gradientUnits="userSpaceOnUse">
<stop stop-color="#456974"/>
<stop offset="0.9964" stop-color="#37474F"/>
</linearGradient>
<linearGradient id="paint16_linear" x1="272.599" y1="275.37" x2="272.599" y2="283.93" gradientUnits="userSpaceOnUse">
<stop stop-color="#456974"/>
<stop offset="0.9964" stop-color="#37474F"/>
</linearGradient>
<linearGradient id="paint17_linear" x1="281.096" y1="275.462" x2="281.096" y2="283.838" gradientUnits="userSpaceOnUse">
<stop stop-color="#456974"/>
<stop offset="0.9964" stop-color="#37474F"/>
</linearGradient>
<linearGradient id="paint18_linear" x1="289.809" y1="275.462" x2="289.809" y2="283.838" gradientUnits="userSpaceOnUse">
<stop stop-color="#456974"/>
<stop offset="0.9964" stop-color="#37474F"/>
</linearGradient>
<linearGradient id="paint19_linear" x1="190.044" y1="370.263" x2="223.635" y2="370.263" gradientUnits="userSpaceOnUse">
<stop stop-color="#77533D"/>
<stop offset="1" stop-color="#9E6E51"/>
</linearGradient>
<linearGradient id="paint20_linear" x1="133.305" y1="369.353" x2="133.305" y2="240.816" gradientUnits="userSpaceOnUse">
<stop stop-color="#178573"/>
<stop offset="1" stop-color="#35CEB5"/>
</linearGradient>
<linearGradient id="paint21_linear" x1="82.5516" y1="245.183" x2="82.5516" y2="206.865" gradientUnits="userSpaceOnUse">
<stop stop-color="#178573"/>
<stop offset="1" stop-color="#35CEB5"/>
</linearGradient>
<linearGradient id="paint22_linear" x1="91.438" y1="206.959" x2="91.438" y2="244.391" gradientUnits="userSpaceOnUse">
<stop stop-color="#B4F3E9"/>
<stop offset="1" stop-color="#27DEBF"/>
</linearGradient>
<linearGradient id="paint23_linear" x1="78.2787" y1="215.056" x2="80.0367" y2="215.056" gradientUnits="userSpaceOnUse">
<stop stop-color="#456974"/>
<stop offset="0.9964" stop-color="#37474F"/>
</linearGradient>
<linearGradient id="paint24_linear" x1="63.8383" y1="232.622" x2="83.5228" y2="232.622" gradientUnits="userSpaceOnUse">
<stop stop-color="#77533D"/>
<stop offset="1" stop-color="#9E6E51"/>
</linearGradient>
<linearGradient id="paint25_linear" x1="25.0024" y1="372.432" x2="64.0011" y2="372.432" gradientUnits="userSpaceOnUse">
<stop stop-color="#178573"/>
<stop offset="1" stop-color="#35CEB5"/>
</linearGradient>
<linearGradient id="paint26_linear" x1="78.2822" y1="368.488" x2="118.561" y2="368.488" gradientUnits="userSpaceOnUse">
<stop stop-color="#178573"/>
<stop offset="1" stop-color="#35CEB5"/>
</linearGradient>
<linearGradient id="paint27_linear" x1="139.563" y1="258.544" x2="139.563" y2="192.249" gradientUnits="userSpaceOnUse">
<stop stop-color="#77533D"/>
<stop offset="1" stop-color="#9E6E51"/>
</linearGradient>
<linearGradient id="paint28_linear" x1="154.881" y1="221.059" x2="161.636" y2="221.059" gradientUnits="userSpaceOnUse">
<stop stop-color="#77533D"/>
<stop offset="1" stop-color="#9E6E51"/>
</linearGradient>
<linearGradient id="paint29_linear" x1="142.711" y1="222.712" x2="142.711" y2="190.932" gradientUnits="userSpaceOnUse">
<stop stop-color="#456974"/>
<stop offset="0.9964" stop-color="#37474F"/>
</linearGradient>
<linearGradient id="paint30_linear" x1="53.7443" y1="346.994" x2="161.636" y2="346.994" gradientUnits="userSpaceOnUse">
<stop stop-color="#456974"/>
<stop offset="0.9964" stop-color="#37474F"/>
</linearGradient>
<linearGradient id="paint31_linear" x1="21.6548" y1="335.48" x2="107.343" y2="335.48" gradientUnits="userSpaceOnUse">
<stop stop-color="#456974"/>
<stop offset="0.9964" stop-color="#37474F"/>
</linearGradient>
</defs>
</svg>
