<svg width="466" height="424" viewBox="0 0 466 424" fill="none" xmlns="http://www.w3.org/2000/svg">
<path opacity="0.25" d="M232.961 423.055C361.467 423.055 465.641 416.984 465.641 409.495C465.641 402.006 361.467 395.935 232.961 395.935C104.456 395.935 0.28125 402.006 0.28125 409.495C0.28125 416.984 104.456 423.055 232.961 423.055Z" fill="#5E9F9C"/>
<path d="M143.682 64.0148C145.362 51.7748 141.762 47.6948 132.162 48.7748C134.082 44.3348 123.641 40.0148 113.681 43.4948C113.441 43.4948 113.081 43.6148 112.841 43.6148C104.921 45.0548 99.6415 50.2148 97.8415 58.0148C95.6815 67.6148 91.6015 72.1748 88.3615 75.7748C84.7615 79.7348 82.0015 82.8548 83.4415 90.4148L84.6415 90.1748C83.3215 83.2148 85.8415 80.4548 89.3215 76.6148C89.5615 76.3748 89.9215 76.0148 90.1615 75.6548C85.9615 82.1348 83.3215 87.0548 86.6815 94.7348C92.6815 109.135 127.841 110.935 143.082 94.8548C155.442 81.7748 142.002 76.2548 143.682 64.0148ZM100.241 56.9348C99.4015 59.2148 98.4415 61.2548 97.4815 63.1748C97.9615 61.7348 98.4415 60.0548 98.9215 58.2548C100.481 51.6548 104.201 48.1748 108.161 46.3748C104.921 48.6548 102.161 52.1348 100.241 56.9348Z" fill="url(#paint0_linear)"/>
<path d="M115.841 113.455C113.081 108.895 107.081 107.575 102.521 110.335L101.561 110.935L100.361 111.655C99.8814 112.015 99.2814 112.255 98.8014 112.615C97.7214 113.215 96.6414 113.815 95.5614 114.295C93.2814 115.375 91.1214 116.095 88.8414 116.695C86.6814 117.175 84.5214 117.415 82.3614 117.415C81.2814 117.295 80.3214 117.295 79.2414 117.055C79.0014 117.055 78.7614 116.935 78.5214 116.935C78.2814 116.575 78.0414 116.215 77.8014 115.735C77.2014 114.655 76.6014 113.455 76.0014 112.255C74.8014 109.735 73.7214 106.975 72.6414 104.215C70.7214 99.1749 68.9214 93.8949 67.1214 88.7349C67.3614 87.4149 67.2414 85.9749 66.8814 84.6549L66.1614 82.2549C65.6814 80.5749 64.7214 79.1349 63.5214 78.0549L61.1214 75.8949C59.5614 74.4549 57.1614 74.3349 55.4814 75.6549L52.9614 77.5749C51.0414 79.0149 50.5614 81.8949 52.1214 83.8149L53.8014 85.9749C53.8014 85.9749 55.1214 88.1349 57.2814 90.4149C57.5214 96.2949 58.0014 102.055 59.0814 107.935C59.5614 111.175 60.2814 114.415 61.2414 117.775C61.7214 119.455 62.3214 121.135 63.0414 122.935C63.7614 124.735 64.6014 126.535 66.2814 128.935C66.7614 129.535 67.2414 130.135 67.9614 130.735C68.6814 131.335 69.5214 132.055 70.8414 132.775L71.3214 133.015L71.6814 133.135L72.0414 133.255L72.7614 133.615C73.2414 133.855 73.7214 133.975 74.2014 134.215C76.1214 134.935 78.1614 135.415 80.3214 135.775C84.4014 136.375 88.6014 136.375 92.5614 135.655C96.5214 135.055 100.241 133.855 103.601 132.295C105.281 131.575 106.961 130.735 108.641 129.775C109.481 129.295 110.321 128.815 111.041 128.215L112.241 127.375L112.841 126.895L113.561 126.295C117.401 123.295 118.481 117.775 115.841 113.455ZM79.3614 117.775C79.2414 117.775 79.1214 117.535 78.8814 117.295C79.1214 117.415 79.2414 117.535 79.2414 117.655C79.3614 117.775 79.3614 117.775 79.3614 117.775Z" fill="url(#paint1_linear)"/>
<path d="M134.562 404.335C142.122 401.815 148.602 396.655 147.282 387.655C146.682 383.815 159.162 382.255 159.162 382.255C157.722 394.495 159.282 396.655 160.722 399.415C162.162 402.295 162.162 405.535 159.522 405.895C156.402 406.255 155.802 405.895 151.962 406.375C147.522 406.975 144.642 409.255 135.642 409.255C130.842 409.375 132.162 405.055 134.562 404.335Z" fill="url(#paint2_linear)"/>
<path d="M157.601 273.175C158.441 211.735 152.801 178.135 152.801 178.135L107.321 180.415C107.321 180.415 114.041 236.695 126.041 278.095C129.281 300.295 136.481 337.975 141.401 363.175C149.321 362.335 157.121 361.015 163.241 359.095C164.921 336.895 165.281 304.855 157.601 273.175Z" fill="url(#paint3_linear)"/>
<path d="M158.682 388.255C158.682 388.255 160.482 376.615 161.682 359.095C156.522 361.015 149.802 362.455 143.082 363.175C145.722 378.535 147.522 388.255 147.522 388.255C149.682 389.455 155.322 389.815 158.682 388.255Z" fill="#FFC3BD"/>
<path d="M138.881 355.855C139.241 358.015 140.441 363.295 141.521 365.095C141.641 365.335 141.881 365.455 142.121 365.455C150.641 366.535 159.041 364.855 162.641 363.295C162.881 363.175 163.001 363.055 163.001 362.815C163.961 360.295 164.321 354.895 164.441 352.615C164.441 352.135 163.961 351.655 163.481 351.775C160.721 352.375 152.201 353.815 139.721 354.775C139.121 355.015 138.761 355.375 138.881 355.855Z" fill="#263238"/>
<path d="M107.921 108.175C101.201 109.375 90.8813 115.015 90.8813 115.015C90.8813 115.015 85.4813 127.975 91.9613 137.335C98.3214 138.895 101.561 137.575 101.561 137.575L107.921 108.175Z" fill="url(#paint4_linear)"/>
<path d="M226.961 334.495L208.841 347.455C194.081 328.135 171.761 298.615 166.481 285.775C152.801 253.255 125.321 181.375 125.321 181.375L160.961 173.095C160.961 173.095 183.401 193.975 197.921 272.815C210.041 289.975 220.241 315.415 226.961 334.495Z" fill="url(#paint5_linear)"/>
<path d="M225.881 395.695C230.441 386.815 230.441 377.095 225.521 369.415C223.481 366.175 234.041 359.695 234.041 359.695C237.761 371.455 240.881 372.175 243.521 373.975C246.161 375.895 246.401 379.735 244.241 381.055C241.601 382.615 240.521 383.695 238.241 386.695C235.481 390.295 233.921 395.215 230.081 398.335C227.561 400.255 223.961 399.535 225.881 395.695Z" fill="url(#paint6_linear)"/>
<path d="M236.201 365.095C236.201 365.095 233.081 354.055 226.961 337.615C223.001 341.575 217.481 345.535 211.721 349.015C220.361 361.975 226.721 371.215 226.721 371.215C230.441 369.895 233.801 367.735 236.201 365.095Z" fill="#FFC3BD"/>
<path d="M204.881 343.975C206.081 345.775 209.321 350.095 211.001 351.295C211.241 351.415 211.481 351.535 211.721 351.415C219.881 348.895 226.961 343.855 229.481 340.975C229.601 340.855 229.721 340.615 229.721 340.375C229.601 337.615 227.681 332.695 226.841 330.535C226.601 330.055 226.001 329.815 225.641 330.175C223.361 331.855 216.281 336.655 205.241 342.655C204.761 343.015 204.641 343.495 204.881 343.975Z" fill="#263238"/>
<path d="M97.7214 126.055C99.4014 136.615 93.0414 144.895 102.761 149.815C101.201 157.855 103.601 174.055 107.441 180.415C112.841 183.295 139.361 178.975 160.961 173.095C160.601 163.855 153.041 145.735 155.201 115.375C155.681 108.415 150.041 102.415 142.961 102.775C141.041 102.895 139.121 103.015 137.081 103.135C129.161 103.855 122.801 104.455 115.961 106.015C113.681 106.495 111.401 107.095 109.241 107.815C101.081 109.975 96.4014 117.895 97.7214 126.055Z" fill="url(#paint7_linear)"/>
<path d="M112.961 118.015C112.961 118.015 119.681 115.495 123.281 121.615C129.161 118.255 137.561 104.215 136.961 103.135C127.001 105.895 112.961 118.015 112.961 118.015Z" fill="white"/>
<path d="M112.961 118.015C112.961 118.015 107.801 117.415 106.361 121.975C106.361 112.975 112.481 107.335 115.121 106.255C114.161 108.535 112.961 118.015 112.961 118.015Z" fill="white"/>
<path d="M134.321 79.3746C133.601 86.3346 133.481 97.6146 136.961 103.255C136.961 103.255 123.761 112.255 112.961 118.135C109.601 110.215 115.121 106.375 115.121 106.375C120.281 104.455 120.281 97.8546 119.561 92.8146L134.321 79.3746Z" fill="url(#paint8_linear)"/>
<path d="M137.081 66.2949C136.001 77.6949 135.761 82.4949 129.761 88.1349C120.881 96.6549 107.441 92.6949 105.161 81.1749C103.241 70.8549 105.401 54.0549 116.561 49.8549C127.481 45.7749 138.161 54.8949 137.081 66.2949Z" fill="url(#paint9_linear)"/>
<path d="M139.001 75.7747C137.921 77.9347 136.122 79.2547 134.442 79.7347C131.922 80.3347 130.722 77.5747 131.442 74.6947C132.162 72.1747 134.322 68.8147 136.842 69.4147C139.242 70.1347 140.201 73.3747 139.001 75.7747Z" fill="#FFC3BD"/>
<path d="M141.281 64.8547C140.921 58.4947 139.841 53.3347 139.841 53.3347C139.841 53.3347 132.041 48.4147 127.601 48.1747C117.281 44.0947 104.441 52.2547 104.441 59.5747C110.561 58.8547 117.761 56.9347 124.841 53.4547C125.561 56.6947 128.801 60.7747 131.921 65.3347C131.081 68.4547 131.561 72.1747 134.441 74.6947L136.121 72.1747C138.041 76.1347 139.241 80.2147 138.041 84.1747C141.281 79.3747 141.641 71.4547 141.281 64.8547Z" fill="url(#paint10_linear)"/>
<path d="M193.961 98.6949L195.281 91.015L207.161 95.5749C207.161 95.5749 204.401 102.655 199.361 105.775L197.921 104.935C195.641 103.615 194.201 101.215 193.961 98.6949Z" fill="#FFC3BD"/>
<path d="M202.602 86.8147L206.442 88.9747C208.242 89.9347 208.842 92.0947 207.882 93.8947L206.922 95.6947L195.042 91.1347L197.802 87.7747C199.242 86.3347 201.162 85.9747 202.602 86.8147Z" fill="#FFC3BD"/>
<path d="M152.681 107.455L154.241 109.015L155.921 110.695C157.001 111.775 158.201 112.855 159.281 113.935C161.561 116.095 163.961 118.135 166.241 119.935C168.641 121.735 171.041 123.415 173.321 124.615C175.601 125.815 177.881 126.655 179.441 126.775L176.201 127.375C175.361 127.735 175.481 127.975 175.601 127.855C175.721 127.735 176.081 127.495 176.441 127.135C177.161 126.415 178.001 125.335 178.841 124.135C180.521 121.855 182.081 119.215 183.641 116.455C185.201 113.695 186.761 110.935 188.321 108.055L193.001 99.5347V99.4147C194.321 97.0147 197.201 96.1747 199.601 97.4947C201.521 98.4547 202.361 100.615 202.121 102.535C201.521 106.015 200.801 109.255 199.961 112.615C199.121 115.975 198.161 119.215 196.961 122.455C195.761 125.695 194.561 129.055 192.761 132.415C191.921 134.095 190.961 135.775 189.641 137.695C188.921 138.655 188.201 139.615 187.121 140.575C186.041 141.535 184.721 142.735 182.441 143.695C181.601 144.055 180.641 144.295 179.801 144.295H179.321C174.041 144.415 169.481 143.095 165.521 141.415C163.601 140.575 161.681 139.615 159.881 138.655C158.081 137.695 156.521 136.615 154.841 135.535C151.601 133.375 148.721 130.855 145.841 128.335C144.401 127.015 143.081 125.815 141.761 124.375C141.161 123.655 140.441 123.055 139.841 122.335C139.241 121.615 138.641 121.015 137.921 120.055C134.441 115.975 134.921 109.855 139.001 106.375C142.961 103.015 148.721 103.375 152.201 106.975L152.681 107.455Z" fill="url(#paint11_linear)"/>
<path d="M143.321 102.775C152.081 103.015 160.841 113.575 160.841 113.575C160.841 113.575 157.481 127.495 147.761 133.615C142.361 129.415 137.801 126.055 137.801 126.055C130.121 114.775 132.761 107.335 143.321 102.775Z" fill="url(#paint12_linear)"/>
<path d="M105.521 179.575C106.121 183.295 106.961 186.295 107.201 187.135C107.201 187.375 107.321 187.495 107.561 187.615C108.881 188.335 114.761 191.215 125.441 190.615C137.562 190.015 155.082 183.415 164.202 176.455C164.442 176.215 164.562 175.855 164.442 175.615C163.722 173.815 162.521 171.895 161.921 171.055C161.681 170.815 161.442 170.695 161.082 170.695C157.122 171.895 132.401 178.975 106.241 178.735C105.881 178.735 105.521 179.095 105.521 179.575Z" fill="url(#paint13_linear)"/>
<path d="M379.481 0.0546875H204.761C195.641 0.0546875 187.601 7.37469 187.001 16.3747L164.441 357.895C163.841 366.895 170.801 374.215 180.041 374.215H354.761C363.881 374.215 371.921 366.895 372.521 357.895L395.081 16.3747C395.681 7.37469 388.601 0.0546875 379.481 0.0546875Z" fill="url(#paint14_linear)"/>
<path d="M373.961 0.0546875H204.761C195.641 0.0546875 187.601 7.37469 187.001 16.3747L164.441 357.895C163.841 366.895 170.801 374.215 180.041 374.215H349.241C358.361 374.215 366.401 366.895 367.001 357.895L389.561 16.3747C390.041 7.37469 383.081 0.0546875 373.961 0.0546875Z" fill="url(#paint15_linear)"/>
<path d="M359.321 348.895H173.321C170.441 348.895 168.041 346.495 168.281 343.615L188.681 34.4948C188.801 31.8548 191.081 29.8148 193.721 29.8148H379.841C382.721 29.8148 385.121 32.2148 384.881 35.0948L364.481 344.215C364.241 346.855 362.081 348.895 359.321 348.895Z" fill="url(#paint16_linear)"/>
<path d="M318.282 19.8548H250.602C249.162 19.8548 247.962 18.6548 248.082 17.2148C248.202 15.7748 249.522 14.5748 250.962 14.5748H318.642C320.082 14.5748 321.282 15.7748 321.162 17.2148C321.162 18.6548 319.842 19.8548 318.282 19.8548Z" fill="url(#paint17_linear)"/>
<path d="M268.482 361.975C268.242 367.135 263.682 371.335 258.402 371.335C253.122 371.335 249.042 367.135 249.402 361.975C249.642 356.815 254.202 352.615 259.482 352.615C264.642 352.615 268.722 356.815 268.482 361.975Z" fill="url(#paint18_linear)"/>
<path d="M338.442 339.175H195.282C189.882 339.175 185.682 334.735 186.042 329.335L194.082 193.015C194.442 187.615 199.122 183.175 204.522 183.175H347.682C353.082 183.175 357.282 187.615 356.922 193.015L348.882 329.335C348.522 334.735 343.842 339.175 338.442 339.175Z" fill="url(#paint19_linear)"/>
<path d="M344.202 106.255C342.162 141.055 312.282 169.255 277.482 169.255C242.682 169.255 216.162 141.055 218.202 106.255C220.242 71.4548 250.122 43.2548 284.922 43.2548C319.722 43.2548 346.242 71.4548 344.202 106.255Z" fill="url(#paint20_linear)"/>
<path d="M336.041 106.255C334.241 136.615 308.201 161.215 277.961 161.215C247.601 161.215 224.441 136.615 226.241 106.255C228.041 75.8947 254.081 51.2947 284.321 51.2947C314.561 51.2947 337.841 76.0147 336.041 106.255Z" fill="url(#paint21_linear)"/>
<path d="M258.281 134.815C257.801 133.975 257.321 133.135 257.081 132.415C256.241 134.815 255.521 137.215 254.681 139.615C253.961 141.775 253.241 143.935 252.521 145.975L251.441 148.855L250.961 150.055C250.841 150.415 250.961 150.175 250.961 150.295C250.721 150.655 250.001 151.255 249.281 151.975C249.161 152.095 248.921 152.215 248.801 152.335C252.041 154.495 255.641 156.415 259.481 157.855C259.601 152.335 260.201 146.695 260.921 145.135C256.481 142.135 257.201 138.895 258.281 134.815Z" fill="url(#paint22_linear)"/>
<path d="M262.481 118.735C262.361 118.855 262.241 118.975 262.121 119.095C262.241 118.975 262.361 118.855 262.481 118.735Z" fill="#263238"/>
<path d="M259.721 126.775C259.721 124.015 260.561 121.495 262.001 119.335C259.001 123.535 256.361 130.855 256.361 130.855C256.361 130.855 256.601 131.455 257.081 132.535C257.441 133.255 257.801 133.975 258.281 134.935C258.881 132.415 259.721 129.775 259.721 126.775Z" fill="url(#paint23_linear)"/>
<path d="M301.601 139.975C300.281 138.175 300.041 139.015 298.841 136.615C298.481 136.855 296.921 137.935 296.561 138.175C292.961 134.335 289.841 131.335 289.841 131.335C285.401 121.975 288.161 116.695 296.681 114.535C298.001 114.775 299.201 115.375 300.401 115.975C299.321 115.255 298.001 114.655 296.681 114.415C296.561 114.415 296.441 114.415 296.321 114.415C294.881 114.295 293.441 114.055 291.881 114.055C292.241 114.895 284.561 126.055 279.641 127.855C277.601 122.815 272.081 122.575 272.081 122.575C272.081 122.575 266.921 121.495 265.241 124.735C266.321 118.015 272.801 114.415 274.961 113.935C273.401 114.055 271.841 114.175 270.281 114.415C269.681 114.535 269.201 114.655 268.601 114.775C266.081 115.495 263.921 116.935 262.361 118.855C262.241 118.975 262.121 119.095 262.001 119.215C262.001 119.335 261.881 119.335 261.881 119.455C260.441 121.495 259.601 124.135 259.601 126.895C259.601 129.895 258.761 132.655 258.161 135.055C257.081 139.135 256.481 142.375 260.681 145.375C259.961 146.935 259.241 152.575 259.241 158.095C265.001 160.255 271.241 161.455 277.841 161.455C286.121 161.455 294.161 159.535 301.481 156.295C301.361 152.455 301.241 148.015 301.601 142.855C301.601 143.095 301.601 139.495 301.601 139.975Z" fill="url(#paint24_linear)"/>
<path d="M272.201 122.335C272.201 122.335 277.721 122.695 279.761 127.615C284.561 125.815 292.241 114.775 292.001 113.815C291.881 113.935 280.961 119.215 272.201 122.335Z" fill="url(#paint25_linear)"/>
<path d="M275.081 113.695C272.921 114.175 266.441 117.775 265.361 124.495C266.921 121.255 272.201 122.335 272.201 122.335C270.521 116.095 275.081 113.695 275.081 113.695Z" fill="url(#paint26_linear)"/>
<path d="M279.521 108.295C279.521 108.055 279.641 107.815 279.641 107.455C279.641 107.815 279.521 108.055 279.521 108.295Z" fill="#263238"/>
<path opacity="0.2" d="M279.521 108.295C279.521 108.055 279.641 107.815 279.641 107.455C279.641 107.815 279.521 108.055 279.521 108.295Z" fill="black"/>
<path d="M280.001 104.095C280.001 105.175 279.881 106.255 279.761 107.335C279.881 106.255 279.881 105.055 280.001 104.095Z" fill="#263238"/>
<path opacity="0.2" d="M280.001 104.095C280.001 105.175 279.881 106.255 279.761 107.335C279.881 106.255 279.881 105.055 280.001 104.095Z" fill="black"/>
<path d="M292.122 97.9749C291.162 99.4149 289.962 100.615 288.282 101.815C287.562 102.295 286.962 102.655 286.242 103.015C284.202 103.975 282.042 104.335 280.002 104.095C280.002 105.175 279.882 106.255 279.762 107.335C279.762 107.455 279.762 107.455 279.762 107.575C279.762 107.815 279.642 108.055 279.642 108.415C279.042 110.935 277.842 113.215 275.202 113.815C275.202 113.815 270.642 116.095 272.202 122.455C280.962 119.335 292.002 114.055 292.002 114.055C290.202 109.975 290.922 103.135 292.122 97.9749Z" fill="url(#paint27_linear)"/>
<path d="M286.121 103.015C286.841 102.655 287.441 102.295 288.161 101.815C289.841 100.615 291.041 99.4148 292.001 97.9748C292.481 97.3748 292.841 96.6548 293.201 95.8148C292.961 95.8148 292.721 95.9348 292.481 95.9348C290.441 96.1748 289.961 93.8948 290.801 91.8548C291.041 91.2548 291.521 90.5348 292.001 89.9348C291.401 88.1348 291.641 86.3348 292.361 84.7747C290.561 81.0547 288.641 77.5747 288.401 75.0547C283.481 76.6147 278.801 77.2148 274.601 77.3348C274.361 77.5748 273.761 78.7748 273.641 79.0148C274.241 79.0148 275.081 79.4947 275.201 79.4947C275.441 79.6147 275.681 78.6547 275.561 78.7747C275.441 79.0147 275.201 79.1348 275.081 79.0148C275.081 79.0148 274.481 78.7747 273.761 78.8947C271.361 83.4547 270.401 89.2148 270.521 93.5348C270.761 99.2948 274.961 103.255 280.001 103.735C281.921 104.215 284.081 103.975 286.121 103.015Z" fill="url(#paint28_linear)"/>
<path d="M301.481 85.2547C304.241 76.2547 301.841 72.7747 294.521 72.5347C297.641 67.6147 278.201 59.8147 269.561 75.0547C261.881 88.8547 259.361 95.6947 262.121 106.375C262.961 109.735 265.481 112.615 268.721 114.655C269.201 114.535 269.801 114.415 270.401 114.295C271.961 114.055 273.521 113.935 275.081 113.815C277.721 113.215 278.921 110.935 279.521 108.415C279.521 108.175 279.641 107.935 279.641 107.575C279.641 107.455 279.641 107.455 279.641 107.335C279.761 106.255 279.881 105.175 279.881 104.095C274.841 103.495 270.641 99.6547 270.401 93.8947C270.281 89.6947 271.121 84.4147 273.281 79.9747C273.641 79.3747 274.481 77.8147 274.601 77.5747C278.801 77.4547 283.601 76.8547 288.401 75.2947C288.521 77.8147 290.561 81.2947 292.361 85.0147C291.641 86.5747 291.401 88.4947 292.001 90.1747C292.601 89.4547 293.321 88.8547 294.041 88.6147C294.881 90.5347 295.481 92.5747 295.601 94.4947C294.881 95.2147 293.921 95.6947 293.081 95.9347C292.721 96.6547 292.361 97.3747 291.881 98.0947C290.801 103.255 289.961 110.095 291.641 114.055C293.201 114.175 294.641 114.295 296.081 114.415C296.201 114.415 296.321 114.415 296.441 114.415C297.401 113.815 298.241 113.215 299.201 112.615C310.241 104.095 298.721 94.2547 301.481 85.2547Z" fill="url(#paint29_linear)"/>
<path d="M305.081 154.135V154.375C309.881 151.735 314.321 148.495 318.161 144.775C317.441 142.735 316.721 140.935 315.881 139.135C314.681 136.495 313.361 134.095 312.041 131.815C310.841 129.775 309.521 127.735 308.321 125.815C307.121 128.335 303.761 134.335 298.241 137.455C298.721 138.175 299.201 138.775 299.681 139.495C300.401 140.575 301.121 141.655 301.721 142.735C302.321 143.695 302.921 144.655 303.401 145.615C304.361 147.295 305.201 148.855 305.801 150.415L305.681 151.255C305.441 151.975 305.321 153.055 305.081 154.135Z" fill="url(#paint30_linear)"/>
<path d="M289.962 131.215C289.962 131.215 293.082 134.335 296.682 138.055C297.042 137.935 297.402 137.695 297.762 137.455C297.882 137.335 298.002 137.335 298.242 137.215C303.642 134.095 307.002 128.095 308.322 125.575C308.682 124.855 308.802 124.375 308.802 124.375C308.802 124.375 305.322 118.615 300.522 115.735C299.322 115.015 298.122 114.535 296.802 114.295C288.282 116.575 285.522 121.855 289.962 131.215Z" fill="url(#paint31_linear)"/>
<path d="M294.161 88.4948C293.441 88.7348 292.721 89.3348 292.121 90.0548C291.641 90.6548 291.161 91.2548 290.921 91.9748C289.961 94.0148 290.561 96.2948 292.601 96.0548C292.841 96.0548 293.081 95.9348 293.321 95.9348C294.161 95.6948 295.001 95.2148 295.841 94.4948C295.601 92.4548 295.001 90.5348 294.161 88.4948Z" fill="url(#paint32_linear)"/>
<path d="M324.041 236.215H221.801C213.641 236.215 207.401 229.495 207.881 221.455C208.361 213.295 215.441 206.695 223.601 206.695H325.841C334.001 206.695 340.241 213.415 339.761 221.455C339.281 229.495 332.201 236.215 324.041 236.215Z" fill="url(#paint33_linear)"/>
<path d="M321.761 276.055H219.521C211.361 276.055 205.121 269.335 205.601 261.295C206.081 253.135 213.161 246.535 221.321 246.535H323.561C331.721 246.535 337.961 253.255 337.481 261.295C336.881 269.335 329.921 276.055 321.761 276.055Z" fill="url(#paint34_linear)"/>
<path d="M319.361 315.775H217.121C208.961 315.775 202.721 309.055 203.201 301.015C203.681 292.855 210.761 286.255 218.921 286.255H321.161C329.321 286.255 335.561 292.975 335.081 301.015C334.601 309.175 327.521 315.775 319.361 315.775Z" fill="url(#paint35_linear)"/>
<path d="M232.121 221.335C231.881 225.535 228.281 229.015 224.081 229.015C219.881 229.015 216.641 225.655 216.881 221.335C217.121 217.135 220.721 213.655 224.921 213.655C229.241 213.775 232.361 217.135 232.121 221.335Z" fill="url(#paint36_linear)"/>
<path d="M223.601 253.975L224.561 257.815C224.681 258.295 225.041 258.535 225.521 258.535H229.481C230.561 258.535 230.801 259.855 229.961 260.455L226.601 262.855C226.241 263.095 226.001 263.575 226.121 264.055L227.081 267.895C227.321 268.855 226.121 269.695 225.401 269.095L222.281 266.695C221.921 266.455 221.441 266.455 221.081 266.695L217.721 269.095C216.881 269.695 215.801 268.855 216.161 267.895L217.601 264.055C217.721 263.575 217.601 263.095 217.241 262.855L214.121 260.455C213.281 259.855 213.881 258.535 214.841 258.535H218.801C219.281 258.535 219.641 258.295 219.881 257.815L221.321 253.975C222.041 253.015 223.361 253.015 223.601 253.975Z" fill="url(#paint37_linear)"/>
<path d="M226.482 296.935L225.882 307.615C225.882 308.575 225.042 309.295 224.082 309.295H214.722C213.762 309.295 213.162 308.575 213.162 307.615L213.882 294.295C213.882 293.335 214.722 292.615 215.682 292.615H222.402L226.482 296.935Z" fill="url(#paint38_linear)"/>
<path d="M222.402 292.615L226.482 296.935H223.842C222.882 296.935 222.282 296.215 222.282 295.255L222.402 292.615ZM221.322 289.735L221.202 292.615L221.082 295.255C221.082 296.095 221.322 296.815 221.802 297.295C222.282 297.775 223.002 298.135 223.842 298.135H226.482H229.362L227.442 296.095L223.362 291.775L221.322 289.735Z" fill="white"/>
<path d="M320.562 219.775H244.002C242.682 219.775 241.602 218.695 241.722 217.375C241.842 216.055 242.922 214.975 244.242 214.975H320.802C322.122 214.975 323.202 216.055 323.082 217.375C323.082 218.695 321.882 219.775 320.562 219.775Z" fill="url(#paint39_linear)"/>
<path d="M306.041 227.815H243.521C242.201 227.815 241.121 226.735 241.241 225.415C241.361 224.095 242.441 223.015 243.761 223.015H306.281C307.601 223.015 308.681 224.095 308.561 225.415C308.561 226.735 307.481 227.815 306.041 227.815Z" fill="url(#paint40_linear)"/>
<path d="M318.041 262.735H296.921C295.601 262.735 294.401 263.815 294.401 265.135C294.281 266.455 295.361 267.535 296.681 267.535H317.801C319.121 267.535 320.321 266.455 320.321 265.135C320.441 263.815 319.361 262.735 318.041 262.735Z" fill="url(#paint41_linear)"/>
<path d="M284.681 262.735H241.601C240.281 262.735 239.081 263.815 239.081 265.135C238.961 266.455 240.041 267.535 241.361 267.535H284.441C285.761 267.535 286.961 266.455 286.961 265.135C286.961 263.815 286.001 262.735 284.681 262.735Z" fill="url(#paint42_linear)"/>
<path d="M304.481 254.815H241.961C240.641 254.815 239.441 255.895 239.441 257.215C239.321 258.535 240.401 259.615 241.721 259.615H304.241C305.561 259.615 306.761 258.535 306.761 257.215C306.881 255.895 305.801 254.815 304.481 254.815Z" fill="url(#paint43_linear)"/>
<path d="M315.762 302.575H239.201C237.881 302.575 236.681 303.655 236.681 304.975C236.561 306.295 237.641 307.375 238.961 307.375H315.522C316.842 307.375 318.041 306.295 318.041 304.975C318.161 303.655 317.082 302.575 315.762 302.575Z" fill="url(#paint44_linear)"/>
<path d="M302.201 294.535H239.681C238.361 294.535 237.161 295.615 237.161 296.935C237.041 298.255 238.121 299.335 239.441 299.335H301.961C303.281 299.335 304.481 298.255 304.481 296.935C304.481 295.735 303.522 294.535 302.201 294.535Z" fill="url(#paint45_linear)"/>
<defs>
<linearGradient id="paint0_linear" x1="115.664" y1="42.2769" x2="115.664" y2="106.231" gradientUnits="userSpaceOnUse">
<stop stop-color="#526973"/>
<stop offset="0.9964" stop-color="#3E4950"/>
</linearGradient>
<linearGradient id="paint1_linear" x1="51.0611" y1="105.33" x2="117.276" y2="105.33" gradientUnits="userSpaceOnUse">
<stop stop-color="#E8C2A4"/>
<stop offset="0.9964" stop-color="#FFC3BD"/>
</linearGradient>
<linearGradient id="paint2_linear" x1="132.416" y1="395.831" x2="161.714" y2="395.831" gradientUnits="userSpaceOnUse">
<stop stop-color="#4E8373"/>
<stop offset="1" stop-color="#7BCCB4"/>
</linearGradient>
<linearGradient id="paint3_linear" x1="107.337" y1="270.717" x2="164.219" y2="270.717" gradientUnits="userSpaceOnUse">
<stop stop-color="#526973"/>
<stop offset="1" stop-color="#3E4950"/>
</linearGradient>
<linearGradient id="paint4_linear" x1="88.8082" y1="123.125" x2="107.956" y2="123.125" gradientUnits="userSpaceOnUse">
<stop stop-color="#7BCCB4"/>
<stop offset="1" stop-color="#C6F2E8"/>
</linearGradient>
<linearGradient id="paint5_linear" x1="125.218" y1="260.263" x2="226.907" y2="260.263" gradientUnits="userSpaceOnUse">
<stop stop-color="#526973"/>
<stop offset="1" stop-color="#3E4950"/>
</linearGradient>
<linearGradient id="paint6_linear" x1="225.325" y1="379.518" x2="245.821" y2="379.518" gradientUnits="userSpaceOnUse">
<stop stop-color="#4E8373"/>
<stop offset="1" stop-color="#7BCCB4"/>
</linearGradient>
<linearGradient id="paint7_linear" x1="97.1239" y1="142.084" x2="160.857" y2="142.084" gradientUnits="userSpaceOnUse">
<stop stop-color="#7BCCB4"/>
<stop offset="1" stop-color="#C6F2E8"/>
</linearGradient>
<linearGradient id="paint8_linear" x1="111.856" y1="98.6502" x2="136.933" y2="98.6502" gradientUnits="userSpaceOnUse">
<stop stop-color="#E8C2A4"/>
<stop offset="0.9964" stop-color="#FFC3BD"/>
</linearGradient>
<linearGradient id="paint9_linear" x1="120.846" y1="48.899" x2="120.846" y2="92.7269" gradientUnits="userSpaceOnUse">
<stop stop-color="#E8C2A4"/>
<stop offset="0.9964" stop-color="#FFC3BD"/>
</linearGradient>
<linearGradient id="paint10_linear" x1="122.998" y1="84.1549" x2="122.998" y2="47.0477" gradientUnits="userSpaceOnUse">
<stop stop-color="#526973"/>
<stop offset="0.9964" stop-color="#3E4950"/>
</linearGradient>
<linearGradient id="paint11_linear" x1="135.688" y1="120.578" x2="202.179" y2="120.578" gradientUnits="userSpaceOnUse">
<stop stop-color="#E8C2A4"/>
<stop offset="0.9964" stop-color="#FFC3BD"/>
</linearGradient>
<linearGradient id="paint12_linear" x1="133.409" y1="118.213" x2="160.89" y2="118.213" gradientUnits="userSpaceOnUse">
<stop stop-color="#7BCCB4"/>
<stop offset="1" stop-color="#C6F2E8"/>
</linearGradient>
<linearGradient id="paint13_linear" x1="105.566" y1="180.727" x2="164.536" y2="180.727" gradientUnits="userSpaceOnUse">
<stop stop-color="#526973"/>
<stop offset="1" stop-color="#3E4950"/>
</linearGradient>
<linearGradient id="paint14_linear" x1="279.79" y1="374.22" x2="279.79" y2="0.0546875" gradientUnits="userSpaceOnUse">
<stop stop-color="#4E8373"/>
<stop offset="1" stop-color="#7BCCB4"/>
</linearGradient>
<linearGradient id="paint15_linear" x1="277.017" y1="0.0546875" x2="277.017" y2="374.22" gradientUnits="userSpaceOnUse">
<stop stop-color="#C6F2E8"/>
<stop offset="1" stop-color="#80DCBE"/>
</linearGradient>
<linearGradient id="paint16_linear" x1="276.546" y1="29.8445" x2="276.546" y2="348.878" gradientUnits="userSpaceOnUse">
<stop stop-color="white"/>
<stop offset="1" stop-color="#F6E8F7"/>
</linearGradient>
<linearGradient id="paint17_linear" x1="284.7" y1="19.8341" x2="284.7" y2="14.5496" gradientUnits="userSpaceOnUse">
<stop stop-color="white"/>
<stop offset="1" stop-color="#F6E8F7"/>
</linearGradient>
<linearGradient id="paint18_linear" x1="258.931" y1="371.309" x2="258.931" y2="352.628" gradientUnits="userSpaceOnUse">
<stop stop-color="white"/>
<stop offset="1" stop-color="#F6E8F7"/>
</linearGradient>
<linearGradient id="paint19_linear" x1="271.437" y1="339.216" x2="271.437" y2="183.158" gradientUnits="userSpaceOnUse">
<stop stop-color="white"/>
<stop offset="1" stop-color="white"/>
</linearGradient>
<linearGradient id="paint20_linear" x1="281.159" y1="169.314" x2="281.159" y2="43.2909" gradientUnits="userSpaceOnUse">
<stop stop-color="white"/>
<stop offset="1" stop-color="white"/>
</linearGradient>
<linearGradient id="paint21_linear" x1="281.159" y1="161.207" x2="281.159" y2="51.3975" gradientUnits="userSpaceOnUse">
<stop stop-color="#4E8373"/>
<stop offset="1" stop-color="#7BCCB4"/>
</linearGradient>
<linearGradient id="paint22_linear" x1="254.714" y1="157.891" x2="254.714" y2="132.484" gradientUnits="userSpaceOnUse">
<stop stop-color="#E8C2A4"/>
<stop offset="0.9964" stop-color="#FFC3BD"/>
</linearGradient>
<linearGradient id="paint23_linear" x1="256.353" y1="127.103" x2="261.992" y2="127.103" gradientUnits="userSpaceOnUse">
<stop stop-color="#7BCCB4"/>
<stop offset="1" stop-color="#C6F2E8"/>
</linearGradient>
<linearGradient id="paint24_linear" x1="257.461" y1="137.476" x2="301.637" y2="137.476" gradientUnits="userSpaceOnUse">
<stop stop-color="#7BCCB4"/>
<stop offset="1" stop-color="#C6F2E8"/>
</linearGradient>
<linearGradient id="paint25_linear" x1="272.141" y1="120.803" x2="291.894" y2="120.803" gradientUnits="userSpaceOnUse">
<stop stop-color="white"/>
<stop offset="1" stop-color="#F6E8F7"/>
</linearGradient>
<linearGradient id="paint26_linear" x1="265.348" y1="119.144" x2="275.086" y2="119.144" gradientUnits="userSpaceOnUse">
<stop stop-color="white"/>
<stop offset="1" stop-color="#F6E8F7"/>
</linearGradient>
<linearGradient id="paint27_linear" x1="281.937" y1="97.9726" x2="281.937" y2="122.355" gradientUnits="userSpaceOnUse">
<stop stop-color="#E8C2A4"/>
<stop offset="0.9964" stop-color="#FFC3BD"/>
</linearGradient>
<linearGradient id="paint28_linear" x1="281.884" y1="75.1354" x2="281.884" y2="104.119" gradientUnits="userSpaceOnUse">
<stop stop-color="#E8C2A4"/>
<stop offset="0.9964" stop-color="#FFC3BD"/>
</linearGradient>
<linearGradient id="paint29_linear" x1="282.582" y1="66.0805" x2="282.582" y2="114.574" gradientUnits="userSpaceOnUse">
<stop stop-color="#526973"/>
<stop offset="0.9964" stop-color="#3E4950"/>
</linearGradient>
<linearGradient id="paint30_linear" x1="298.174" y1="139.981" x2="318.162" y2="139.981" gradientUnits="userSpaceOnUse">
<stop stop-color="#E8C2A4"/>
<stop offset="0.9964" stop-color="#FFC3BD"/>
</linearGradient>
<linearGradient id="paint31_linear" x1="287.832" y1="126.257" x2="308.725" y2="126.257" gradientUnits="userSpaceOnUse">
<stop stop-color="#7BCCB4"/>
<stop offset="1" stop-color="#C6F2E8"/>
</linearGradient>
<linearGradient id="paint32_linear" x1="293.144" y1="96.0102" x2="293.144" y2="88.5282" gradientUnits="userSpaceOnUse">
<stop stop-color="#E8C2A4"/>
<stop offset="0.9964" stop-color="#FFC3BD"/>
</linearGradient>
<linearGradient id="paint33_linear" x1="273.771" y1="206.577" x2="273.771" y2="236.203" gradientUnits="userSpaceOnUse">
<stop stop-color="white"/>
<stop offset="1" stop-color="#F6E8F7"/>
</linearGradient>
<linearGradient id="paint34_linear" x1="271.437" y1="246.374" x2="271.437" y2="276" gradientUnits="userSpaceOnUse">
<stop stop-color="white"/>
<stop offset="1" stop-color="#F6E8F7"/>
</linearGradient>
<linearGradient id="paint35_linear" x1="269.103" y1="286.17" x2="269.103" y2="315.797" gradientUnits="userSpaceOnUse">
<stop stop-color="white"/>
<stop offset="1" stop-color="#F6E8F7"/>
</linearGradient>
<linearGradient id="paint36_linear" x1="224.541" y1="229.018" x2="224.541" y2="213.763" gradientUnits="userSpaceOnUse">
<stop stop-color="#4E8373"/>
<stop offset="1" stop-color="#7BCCB4"/>
</linearGradient>
<linearGradient id="paint37_linear" x1="222.302" y1="269.137" x2="222.302" y2="253.237" gradientUnits="userSpaceOnUse">
<stop stop-color="#4E8373"/>
<stop offset="1" stop-color="#7BCCB4"/>
</linearGradient>
<linearGradient id="paint38_linear" x1="219.795" y1="309.294" x2="219.795" y2="292.673" gradientUnits="userSpaceOnUse">
<stop stop-color="#4E8373"/>
<stop offset="1" stop-color="#7BCCB4"/>
</linearGradient>
<linearGradient id="paint39_linear" x1="282.48" y1="219.823" x2="282.48" y2="214.998" gradientUnits="userSpaceOnUse">
<stop stop-color="#7BCCB4"/>
<stop offset="1" stop-color="#C6F2E8"/>
</linearGradient>
<linearGradient id="paint40_linear" x1="274.993" y1="227.782" x2="274.993" y2="222.957" gradientUnits="userSpaceOnUse">
<stop stop-color="#7BCCB4"/>
<stop offset="1" stop-color="#C6F2E8"/>
</linearGradient>
<linearGradient id="paint41_linear" x1="307.389" y1="267.579" x2="307.389" y2="262.754" gradientUnits="userSpaceOnUse">
<stop stop-color="#7BCCB4"/>
<stop offset="1" stop-color="#C6F2E8"/>
</linearGradient>
<linearGradient id="paint42_linear" x1="262.95" y1="267.579" x2="262.95" y2="262.754" gradientUnits="userSpaceOnUse">
<stop stop-color="#7BCCB4"/>
<stop offset="1" stop-color="#C6F2E8"/>
</linearGradient>
<linearGradient id="paint43_linear" x1="273.126" y1="259.62" x2="273.126" y2="254.795" gradientUnits="userSpaceOnUse">
<stop stop-color="#7BCCB4"/>
<stop offset="1" stop-color="#C6F2E8"/>
</linearGradient>
<linearGradient id="paint44_linear" x1="277.345" y1="307.376" x2="277.345" y2="302.551" gradientUnits="userSpaceOnUse">
<stop stop-color="#7BCCB4"/>
<stop offset="1" stop-color="#C6F2E8"/>
</linearGradient>
<linearGradient id="paint45_linear" x1="270.792" y1="299.416" x2="270.792" y2="294.591" gradientUnits="userSpaceOnUse">
<stop stop-color="#7BCCB4"/>
<stop offset="1" stop-color="#C6F2E8"/>
</linearGradient>
</defs>
</svg>
