<svg width="198" height="56" viewBox="0 0 198 56" fill="none" xmlns="http://www.w3.org/2000/svg">
<rect x="0.185303" width="197.656" height="56" rx="8" fill="#FFA140"/>
<g clip-path="url(#clip0)">
<path d="M14.5325 11.3266C14.4105 11.368 14.2917 11.4178 14.1781 11.4781C13.4589 11.8671 12.9304 12.6157 12.9304 13.5625V42.4349C12.9304 43.3817 13.4588 44.1303 14.1781 44.5192C14.2915 44.5794 14.4102 44.6295 14.5321 44.6711L31.2046 27.9987L14.5325 11.3266Z" fill="white"/>
<path d="M12.9304 27.9988V42.435C12.9304 43.3818 13.4588 44.1304 14.1781 44.5193C14.2915 44.5795 14.4102 44.6296 14.5321 44.6712L31.2046 27.9988H12.9304Z" fill="white"/>
<path d="M34.8364 22.9529L30.9517 26.8376L17.1906 13.0765C25.4102 17.6787 31.0535 20.8368 34.8364 22.9529Z" stroke="white" stroke-width="2"/>
<path d="M17.1908 42.9209L30.9518 29.1599L34.841 33.0492C31.0373 35.1715 25.3876 38.3312 17.1908 42.9209Z" stroke="white" stroke-width="2"/>
<path d="M36.3303 32.2162L32.1129 27.9988L36.3258 23.7859C38.2549 24.8649 39.5734 25.6019 40.4268 26.0787L41.443 26.6464L41.6753 26.7761L41.7307 26.8071L41.7442 26.8146L41.7476 26.8165L41.7476 26.8165C41.7478 26.8166 41.7479 26.8167 41.7481 26.8168C42.2071 27.0739 42.4396 27.5318 42.4396 27.9988C42.4396 28.466 42.207 28.9241 41.7476 29.181L41.7445 29.1828L41.7305 29.1906L41.6736 29.2223L41.4365 29.3547C41.2209 29.4751 40.8863 29.6622 40.4099 29.9288C39.5529 30.4086 38.2371 31.1459 36.3303 32.2162Z" stroke="white" stroke-width="2"/>
<path d="M36.3303 32.2162L33.1129 28.9988H42.0021C41.9269 29.0669 41.842 29.1283 41.7476 29.1811L41.7445 29.1828L41.7305 29.1906L41.6736 29.2224L41.4366 29.3547C41.221 29.4751 40.8863 29.6622 40.41 29.9288C39.5529 30.4085 38.2371 31.1458 36.3303 32.2162Z" stroke="white" stroke-width="2"/>
</g>
<path d="M60.0914 12.8496V23.2376H59.1394V21.7816C58.8407 22.2763 58.4441 22.6543 57.9494 22.9156C57.4641 23.1769 56.9134 23.3076 56.2974 23.3076C55.6067 23.3076 54.9814 23.1489 54.4214 22.8316C53.8614 22.5143 53.4227 22.0709 53.1054 21.5016C52.7881 20.9323 52.6294 20.2836 52.6294 19.5556C52.6294 18.8276 52.7881 18.1789 53.1054 17.6096C53.4227 17.0403 53.8614 16.6016 54.4214 16.2936C54.9814 15.9763 55.6067 15.8176 56.2974 15.8176C56.8947 15.8176 57.4314 15.9436 57.9074 16.1956C58.3927 16.4383 58.7894 16.7976 59.0974 17.2736V12.8496H60.0914ZM56.3814 22.4256C56.8947 22.4256 57.3567 22.3089 57.7674 22.0756C58.1874 21.8329 58.5141 21.4923 58.7474 21.0536C58.9901 20.6149 59.1114 20.1156 59.1114 19.5556C59.1114 18.9956 58.9901 18.4963 58.7474 18.0576C58.5141 17.6189 58.1874 17.2829 57.7674 17.0496C57.3567 16.8069 56.8947 16.6856 56.3814 16.6856C55.8587 16.6856 55.3874 16.8069 54.9674 17.0496C54.5567 17.2829 54.2301 17.6189 53.9874 18.0576C53.7541 18.4963 53.6374 18.9956 53.6374 19.5556C53.6374 20.1156 53.7541 20.6149 53.9874 21.0536C54.2301 21.4923 54.5567 21.8329 54.9674 22.0756C55.3874 22.3089 55.8587 22.4256 56.3814 22.4256Z" fill="white"/>
<path d="M62.8597 15.8736H63.8537V23.2376H62.8597V15.8736ZM63.3637 14.2636C63.1583 14.2636 62.9857 14.1936 62.8457 14.0536C62.7057 13.9136 62.6357 13.7456 62.6357 13.5496C62.6357 13.3629 62.7057 13.1996 62.8457 13.0596C62.9857 12.9196 63.1583 12.8496 63.3637 12.8496C63.569 12.8496 63.7417 12.9196 63.8817 13.0596C64.0217 13.1903 64.0917 13.3489 64.0917 13.5356C64.0917 13.7409 64.0217 13.9136 63.8817 14.0536C63.7417 14.1936 63.569 14.2636 63.3637 14.2636Z" fill="white"/>
<path d="M68.5934 23.3076C67.9961 23.3076 67.4221 23.2236 66.8714 23.0556C66.3301 22.8783 65.9054 22.6589 65.5974 22.3976L66.0454 21.6136C66.3534 21.8563 66.7408 22.0569 67.2074 22.2156C67.6741 22.3649 68.1594 22.4396 68.6634 22.4396C69.3354 22.4396 69.8301 22.3369 70.1474 22.1316C70.4741 21.9169 70.6374 21.6183 70.6374 21.2356C70.6374 20.9649 70.5488 20.7549 70.3714 20.6056C70.1941 20.4469 69.9701 20.3303 69.6994 20.2556C69.4288 20.1716 69.0694 20.0923 68.6214 20.0176C68.0241 19.9056 67.5434 19.7936 67.1794 19.6816C66.8154 19.5603 66.5028 19.3596 66.2414 19.0796C65.9894 18.7996 65.8634 18.4123 65.8634 17.9176C65.8634 17.3016 66.1201 16.7976 66.6334 16.4056C67.1468 16.0136 67.8608 15.8176 68.7754 15.8176C69.2514 15.8176 69.7274 15.8829 70.2034 16.0136C70.6794 16.1349 71.0714 16.2983 71.3794 16.5036L70.9454 17.3016C70.3388 16.8816 69.6154 16.6716 68.7754 16.6716C68.1408 16.6716 67.6601 16.7836 67.3334 17.0076C67.0161 17.2316 66.8574 17.5256 66.8574 17.8896C66.8574 18.1696 66.9461 18.3936 67.1234 18.5616C67.3101 18.7296 67.5388 18.8556 67.8094 18.9396C68.0801 19.0143 68.4534 19.0936 68.9294 19.1776C69.5174 19.2896 69.9888 19.4016 70.3434 19.5136C70.6981 19.6256 71.0014 19.8169 71.2534 20.0876C71.5054 20.3583 71.6314 20.7316 71.6314 21.2076C71.6314 21.8516 71.3608 22.3649 70.8194 22.7476C70.2874 23.1209 69.5454 23.3076 68.5934 23.3076Z" fill="white"/>
<path d="M77.2631 15.8176C77.9537 15.8176 78.5791 15.9763 79.1391 16.2936C79.6991 16.6016 80.1377 17.0403 80.4551 17.6096C80.7724 18.1789 80.9311 18.8276 80.9311 19.5556C80.9311 20.2929 80.7724 20.9463 80.4551 21.5156C80.1377 22.0849 79.6991 22.5283 79.1391 22.8456C78.5884 23.1536 77.9631 23.3076 77.2631 23.3076C76.6657 23.3076 76.1244 23.1863 75.6391 22.9436C75.1631 22.6916 74.7711 22.3276 74.4631 21.8516V25.9536H73.4691V15.8736H74.4211V17.3296C74.7197 16.8443 75.1117 16.4709 75.5971 16.2096C76.0917 15.9483 76.6471 15.8176 77.2631 15.8176ZM77.1931 22.4256C77.7064 22.4256 78.1731 22.3089 78.5931 22.0756C79.0131 21.8329 79.3397 21.4923 79.5731 21.0536C79.8157 20.6149 79.9371 20.1156 79.9371 19.5556C79.9371 18.9956 79.8157 18.5009 79.5731 18.0716C79.3397 17.6329 79.0131 17.2923 78.5931 17.0496C78.1731 16.8069 77.7064 16.6856 77.1931 16.6856C76.6704 16.6856 76.1991 16.8069 75.7791 17.0496C75.3684 17.2923 75.0417 17.6329 74.7991 18.0716C74.5657 18.5009 74.4491 18.9956 74.4491 19.5556C74.4491 20.1156 74.5657 20.6149 74.7991 21.0536C75.0417 21.4923 75.3684 21.8329 75.7791 22.0756C76.1991 22.3089 76.6704 22.4256 77.1931 22.4256Z" fill="white"/>
<path d="M85.9673 23.3076C85.258 23.3076 84.6187 23.1489 84.0493 22.8316C83.48 22.5049 83.032 22.0569 82.7053 21.4876C82.3787 20.9183 82.2153 20.2743 82.2153 19.5556C82.2153 18.8369 82.3787 18.1929 82.7053 17.6236C83.032 17.0543 83.48 16.6109 84.0493 16.2936C84.6187 15.9763 85.258 15.8176 85.9673 15.8176C86.6767 15.8176 87.316 15.9763 87.8853 16.2936C88.4547 16.6109 88.898 17.0543 89.2153 17.6236C89.542 18.1929 89.7053 18.8369 89.7053 19.5556C89.7053 20.2743 89.542 20.9183 89.2153 21.4876C88.898 22.0569 88.4547 22.5049 87.8853 22.8316C87.316 23.1489 86.6767 23.3076 85.9673 23.3076ZM85.9673 22.4256C86.49 22.4256 86.9567 22.3089 87.3673 22.0756C87.7873 21.8329 88.114 21.4923 88.3473 21.0536C88.5807 20.6149 88.6973 20.1156 88.6973 19.5556C88.6973 18.9956 88.5807 18.4963 88.3473 18.0576C88.114 17.6189 87.7873 17.2829 87.3673 17.0496C86.9567 16.8069 86.49 16.6856 85.9673 16.6856C85.4447 16.6856 84.9733 16.8069 84.5533 17.0496C84.1427 17.2829 83.816 17.6189 83.5733 18.0576C83.34 18.4963 83.2233 18.9956 83.2233 19.5556C83.2233 20.1156 83.34 20.6149 83.5733 21.0536C83.816 21.4923 84.1427 21.8329 84.5533 22.0756C84.9733 22.3089 85.4447 22.4256 85.9673 22.4256Z" fill="white"/>
<path d="M95.4867 15.8176C96.4107 15.8176 97.1434 16.0883 97.6847 16.6296C98.2354 17.1616 98.5107 17.9409 98.5107 18.9676V23.2376H97.5167V19.0656C97.5167 18.3003 97.3254 17.7169 96.9427 17.3156C96.56 16.9143 96.014 16.7136 95.3047 16.7136C94.5114 16.7136 93.8814 16.9516 93.4147 17.4276C92.9574 17.8943 92.7287 18.5429 92.7287 19.3736V23.2376H91.7347V15.8736H92.6867V17.2316C92.9574 16.7836 93.3307 16.4383 93.8067 16.1956C94.292 15.9436 94.852 15.8176 95.4867 15.8176Z" fill="white"/>
<path d="M101.209 15.8736H102.203V23.2376H101.209V15.8736ZM102.721 12.9896H104.051L101.783 14.7256H100.803L102.721 12.9896Z" fill="white"/>
<path d="M111.157 15.8736L107.881 23.2376H106.859L103.597 15.8736H104.633L107.391 22.1456L110.177 15.8736H111.157Z" fill="white"/>
<path d="M118.764 19.8636H112.604C112.66 20.6289 112.954 21.2496 113.486 21.7256C114.018 22.1923 114.69 22.4256 115.502 22.4256C115.959 22.4256 116.379 22.3463 116.762 22.1876C117.145 22.0196 117.476 21.7769 117.756 21.4596L118.316 22.1036C117.989 22.4956 117.579 22.7943 117.084 22.9996C116.599 23.2049 116.062 23.3076 115.474 23.3076C114.718 23.3076 114.046 23.1489 113.458 22.8316C112.879 22.5049 112.427 22.0569 112.1 21.4876C111.773 20.9183 111.61 20.2743 111.61 19.5556C111.61 18.8369 111.764 18.1929 112.072 17.6236C112.389 17.0543 112.819 16.6109 113.36 16.2936C113.911 15.9763 114.527 15.8176 115.208 15.8176C115.889 15.8176 116.501 15.9763 117.042 16.2936C117.583 16.6109 118.008 17.0543 118.316 17.6236C118.624 18.1836 118.778 18.8276 118.778 19.5556L118.764 19.8636ZM115.208 16.6716C114.499 16.6716 113.901 16.9003 113.416 17.3576C112.94 17.8056 112.669 18.3936 112.604 19.1216H117.826C117.761 18.3936 117.485 17.8056 117 17.3576C116.524 16.9003 115.927 16.6716 115.208 16.6716Z" fill="white"/>
<path d="M120.801 12.8496H121.795V23.2376H120.801V12.8496Z" fill="white"/>
<path d="M131.977 15.8176C132.901 15.8176 133.634 16.0883 134.175 16.6296C134.726 17.1616 135.001 17.9409 135.001 18.9676V23.2376H134.007V19.0656C134.007 18.3003 133.816 17.7169 133.433 17.3156C133.05 16.9143 132.504 16.7136 131.795 16.7136C131.002 16.7136 130.372 16.9516 129.905 17.4276C129.448 17.8943 129.219 18.5429 129.219 19.3736V23.2376H128.225V15.8736H129.177V17.2316C129.448 16.7836 129.821 16.4383 130.297 16.1956C130.782 15.9436 131.342 15.8176 131.977 15.8176Z" fill="white"/>
<path d="M140.737 23.3076C140.028 23.3076 139.388 23.1489 138.819 22.8316C138.25 22.5049 137.802 22.0569 137.475 21.4876C137.148 20.9183 136.985 20.2743 136.985 19.5556C136.985 18.8369 137.148 18.1929 137.475 17.6236C137.802 17.0543 138.25 16.6109 138.819 16.2936C139.388 15.9763 140.028 15.8176 140.737 15.8176C141.446 15.8176 142.086 15.9763 142.655 16.2936C143.224 16.6109 143.668 17.0543 143.985 17.6236C144.312 18.1929 144.475 18.8369 144.475 19.5556C144.475 20.2743 144.312 20.9183 143.985 21.4876C143.668 22.0569 143.224 22.5049 142.655 22.8316C142.086 23.1489 141.446 23.3076 140.737 23.3076ZM140.737 22.4256C141.26 22.4256 141.726 22.3089 142.137 22.0756C142.557 21.8329 142.884 21.4923 143.117 21.0536C143.35 20.6149 143.467 20.1156 143.467 19.5556C143.467 18.9956 143.35 18.4963 143.117 18.0576C142.884 17.6189 142.557 17.2829 142.137 17.0496C141.726 16.8069 141.26 16.6856 140.737 16.6856C140.214 16.6856 139.743 16.8069 139.323 17.0496C138.912 17.2829 138.586 17.6189 138.343 18.0576C138.11 18.4963 137.993 18.9956 137.993 19.5556C137.993 20.1156 138.11 20.6149 138.343 21.0536C138.586 21.4923 138.912 21.8329 139.323 22.0756C139.743 22.3089 140.214 22.4256 140.737 22.4256Z" fill="white"/>
<path d="M62.0388 36.3618H64.7324V41.5306C64.0408 42.0524 63.24 42.4528 62.33 42.7318C61.42 43.0109 60.5039 43.1504 59.5818 43.1504C58.2593 43.1504 57.0702 42.8714 56.0146 42.3132C54.959 41.743 54.1279 40.9604 53.5212 39.9654C52.9267 38.9584 52.6294 37.8239 52.6294 36.562C52.6294 35.3002 52.9267 34.1718 53.5212 33.1768C54.1279 32.1698 54.9651 31.3872 56.0328 30.829C57.1005 30.2588 58.3017 29.9736 59.6364 29.9736C60.7527 29.9736 61.7658 30.1617 62.6758 30.5378C63.5858 30.914 64.3502 31.46 64.969 32.1758L63.0762 33.923C62.1662 32.9645 61.0681 32.4852 59.782 32.4852C58.9691 32.4852 58.2471 32.6551 57.6162 32.9948C56.9853 33.3346 56.4939 33.8138 56.142 34.4326C55.7901 35.0514 55.6142 35.7612 55.6142 36.562C55.6142 37.3507 55.7901 38.0544 56.142 38.6732C56.4939 39.292 56.9792 39.7774 57.598 40.1292C58.2289 40.469 58.9448 40.6388 59.7456 40.6388C60.5949 40.6388 61.3593 40.4568 62.0388 40.0928V36.3618Z" fill="white"/>
<path d="M73.641 43.1504C72.3185 43.1504 71.1233 42.8653 70.0556 42.295C69 41.7248 68.1689 40.9422 67.5622 39.9472C66.9677 38.9402 66.6704 37.8118 66.6704 36.562C66.6704 35.3123 66.9677 34.19 67.5622 33.195C68.1689 32.188 69 31.3993 70.0556 30.829C71.1233 30.2588 72.3185 29.9736 73.641 29.9736C74.9635 29.9736 76.1526 30.2588 77.2082 30.829C78.2638 31.3993 79.0949 32.188 79.7016 33.195C80.3083 34.19 80.6116 35.3123 80.6116 36.562C80.6116 37.8118 80.3083 38.9402 79.7016 39.9472C79.0949 40.9422 78.2638 41.7248 77.2082 42.295C76.1526 42.8653 74.9635 43.1504 73.641 43.1504ZM73.641 40.6388C74.3933 40.6388 75.0728 40.469 75.6794 40.1292C76.2861 39.7774 76.7593 39.292 77.099 38.6732C77.4509 38.0544 77.6268 37.3507 77.6268 36.562C77.6268 35.7734 77.4509 35.0696 77.099 34.4508C76.7593 33.832 76.2861 33.3528 75.6794 33.013C75.0728 32.6612 74.3933 32.4852 73.641 32.4852C72.8887 32.4852 72.2093 32.6612 71.6026 33.013C70.9959 33.3528 70.5167 33.832 70.1648 34.4508C69.8251 35.0696 69.6552 35.7734 69.6552 36.562C69.6552 37.3507 69.8251 38.0544 70.1648 38.6732C70.5167 39.292 70.9959 39.7774 71.6026 40.1292C72.2093 40.469 72.8887 40.6388 73.641 40.6388Z" fill="white"/>
<path d="M88.9973 43.1504C87.6747 43.1504 86.4796 42.8653 85.4119 42.295C84.3563 41.7248 83.5251 40.9422 82.9185 39.9472C82.3239 38.9402 82.0267 37.8118 82.0267 36.562C82.0267 35.3123 82.3239 34.19 82.9185 33.195C83.5251 32.188 84.3563 31.3993 85.4119 30.829C86.4796 30.2588 87.6747 29.9736 88.9973 29.9736C90.3198 29.9736 91.5089 30.2588 92.5645 30.829C93.6201 31.3993 94.4512 32.188 95.0579 33.195C95.6645 34.19 95.9679 35.3123 95.9679 36.562C95.9679 37.8118 95.6645 38.9402 95.0579 39.9472C94.4512 40.9422 93.6201 41.7248 92.5645 42.295C91.5089 42.8653 90.3198 43.1504 88.9973 43.1504ZM88.9973 40.6388C89.7495 40.6388 90.429 40.469 91.0357 40.1292C91.6423 39.7774 92.1155 39.292 92.4553 38.6732C92.8071 38.0544 92.9831 37.3507 92.9831 36.562C92.9831 35.7734 92.8071 35.0696 92.4553 34.4508C92.1155 33.832 91.6423 33.3528 91.0357 33.013C90.429 32.6612 89.7495 32.4852 88.9973 32.4852C88.245 32.4852 87.5655 32.6612 86.9589 33.013C86.3522 33.3528 85.8729 33.832 85.5211 34.4508C85.1813 35.0696 85.0115 35.7734 85.0115 36.562C85.0115 37.3507 85.1813 38.0544 85.5211 38.6732C85.8729 39.292 86.3522 39.7774 86.9589 40.1292C87.5655 40.469 88.245 40.6388 88.9973 40.6388Z" fill="white"/>
<path d="M106.792 36.3618H109.486V41.5306C108.794 42.0524 107.994 42.4528 107.084 42.7318C106.174 43.0109 105.257 43.1504 104.335 43.1504C103.013 43.1504 101.824 42.8714 100.768 42.3132C99.7125 41.743 98.8814 40.9604 98.2747 39.9654C97.6802 38.9584 97.3829 37.8239 97.3829 36.562C97.3829 35.3002 97.6802 34.1718 98.2747 33.1768C98.8814 32.1698 99.7186 31.3872 100.786 30.829C101.854 30.2588 103.055 29.9736 104.39 29.9736C105.506 29.9736 106.519 30.1617 107.429 30.5378C108.339 30.914 109.104 31.46 109.723 32.1758L107.83 33.923C106.92 32.9645 105.822 32.4852 104.536 32.4852C103.723 32.4852 103.001 32.6551 102.37 32.9948C101.739 33.3346 101.247 33.8138 100.896 34.4326C100.544 35.0514 100.368 35.7612 100.368 36.562C100.368 37.3507 100.544 38.0544 100.896 38.6732C101.247 39.292 101.733 39.7774 102.352 40.1292C102.982 40.469 103.698 40.6388 104.499 40.6388C105.348 40.6388 106.113 40.4568 106.792 40.0928V36.3618Z" fill="white"/>
<path d="M112.225 30.192H115.173V40.5296H121.561V42.932H112.225V30.192Z" fill="white"/>
<path d="M133.073 40.566V42.932H123.209V30.192H132.837V32.558H126.139V35.3244H132.054V37.6176H126.139V40.566H133.073Z" fill="white"/>
<path d="M146.088 30.192C147.216 30.192 148.193 30.3801 149.018 30.7562C149.855 31.1324 150.498 31.6662 150.947 32.3578C151.396 33.0494 151.621 33.8684 151.621 34.8148C151.621 35.7491 151.396 36.5681 150.947 37.2718C150.498 37.9634 149.855 38.4973 149.018 38.8734C148.193 39.2374 147.216 39.4194 146.088 39.4194H143.522V42.932H140.573V30.192H146.088ZM145.924 37.017C146.81 37.017 147.483 36.829 147.944 36.4528C148.405 36.0646 148.636 35.5186 148.636 34.8148C148.636 34.099 148.405 33.553 147.944 33.1768C147.483 32.7886 146.81 32.5944 145.924 32.5944H143.522V37.017H145.924Z" fill="white"/>
<path d="M153.726 30.192H156.674V40.5296H163.062V42.932H153.726V30.192Z" fill="white"/>
<path d="M173.207 40.202H167.292L166.163 42.932H163.142L168.82 30.192H171.732L177.429 42.932H174.335L173.207 40.202ZM172.278 37.9634L170.258 33.0858L168.238 37.9634H172.278Z" fill="white"/>
<path d="M184.084 38.4184V42.932H181.135V38.382L176.203 30.192H179.334L182.737 35.8522L186.141 30.192H189.034L184.084 38.4184Z" fill="white"/>
<defs>
<clipPath id="clip0">
<rect width="33.6" height="33.6" fill="white" transform="translate(11.385 11.2)"/>
</clipPath>
</defs>
</svg>
