<svg width="737" height="467" viewBox="0 0 737 467" fill="none" xmlns="http://www.w3.org/2000/svg">
<path opacity="0.25" d="M151.887 40.8711C99.1151 84.4387 169.653 140.422 133.142 164.877C96.5555 189.332 -54.7591 236.963 97.6847 331.472C250.129 425.981 254.344 488.661 363.125 428.765C471.981 368.945 464.152 358.185 553.661 398.592C643.245 439.074 736.82 376.093 704.976 301.374C673.132 226.654 652.881 227.557 689.242 179.851C725.603 132.145 668.766 0.0876169 543.649 102.122C418.532 204.306 340.24 128.081 326.463 89.9316C312.762 51.7818 235.298 -28.0545 151.887 40.8711Z" fill="#20A19E"/>
<path d="M734.712 427.862C727.259 421.316 713.784 420.865 702.717 417.629C696.093 415.673 690.221 412.738 687.059 406.794C681.112 395.657 677.95 377.448 664.475 372.857C650.247 368.042 637.073 379.78 623.07 378.651C602.97 377.071 607.261 356.078 594.313 346.145C582.494 337.116 563.523 339.298 553.962 350.133C547.262 357.658 540.939 381.21 527.915 379.855C521.817 379.178 517.075 370.073 510.977 368.042C496.448 363.301 486.737 375.566 479.811 386.101C474.692 393.851 473.035 397.914 463.475 400.548C445.633 405.439 417.252 398.14 420.866 427.11C421.543 432.377 424.78 436.742 429.297 439.074C449.623 438.547 470.099 437.118 490.275 439.902C531.679 432.904 576.02 440.429 617.499 440.203C655.14 440.052 692.78 439.676 730.421 439.45C733.206 439.45 735.69 437.72 736.669 435.086C737.497 432.603 736.744 429.668 734.712 427.862Z" fill="url(#paint0_linear)"/>
<path d="M481.617 400.322C479.284 398.742 476.649 397.614 474.014 397.237C457.377 394.829 424.479 414.619 410.251 398.291C402.196 389.035 412.133 376.62 409.498 365.483C400.841 328.086 360.114 356.228 338.283 357.808C323.076 358.862 312.16 349.456 301.922 339.373C282.65 320.336 260.819 282.487 228.297 295.279C211.811 301.75 212.639 322.217 205.939 335.686C198.335 350.886 184.559 361.044 167.395 362.549C143.38 364.731 109.278 344.113 87.8984 360.969C79.9186 367.289 67.7231 388.433 70.5838 398.742C58.0119 397.689 41.7512 394.453 32.6422 405.815C29.4804 409.803 24.1355 418.306 29.3298 422.746C35.804 428.239 50.2579 422.746 57.786 422.746C111.01 422.595 164.158 423.649 217.382 424.326C265.938 424.928 314.644 424.552 363.125 427.336C390.829 428.916 418.457 430.872 446.16 431.625C458.732 432.001 483.349 434.484 489.898 420.187C493.135 413.265 488.393 404.837 481.617 400.322Z" fill="url(#paint1_linear)"/>
<path d="M281.219 347.198V447.426C281.219 451.64 285.059 454.801 289.275 454.801H482.897C487.113 454.801 489.973 451.64 489.973 447.426V347.198H281.219Z" fill="url(#paint2_linear)"/>
<path d="M502.32 342.533C502.32 345.092 500.212 347.199 497.652 347.199H274.896C272.336 347.199 270.229 345.092 270.229 342.533V342.383C270.229 339.824 272.336 337.718 274.896 337.718H497.652C500.212 337.718 502.32 339.824 502.32 342.383V342.533Z" fill="url(#paint3_linear)"/>
<path d="M72.3904 379.931V449.759C72.3904 452.694 76.2297 454.801 80.4454 454.801H274.068C278.284 454.801 281.144 452.694 281.144 449.759V379.931H72.3904Z" fill="url(#paint4_linear)"/>
<path d="M292.813 375.943C292.813 378.501 290.705 380.608 288.145 380.608H65.4645C62.905 380.608 60.7971 378.501 60.7971 375.943V375.792C60.7971 373.234 62.905 371.127 65.4645 371.127H288.221C290.78 371.127 292.888 373.234 292.888 375.792V375.943H292.813Z" fill="url(#paint5_linear)"/>
<path d="M489.973 401V451.264C489.973 453.371 493.813 454.801 498.028 454.801H691.651C695.867 454.801 698.727 453.296 698.727 451.264V401H489.973Z" fill="url(#paint6_linear)"/>
<path d="M710.321 397.764C710.321 400.322 708.213 402.429 705.653 402.429H482.972C480.413 402.429 478.305 400.322 478.305 397.764V397.614C478.305 395.055 480.413 392.948 482.972 392.948H705.729C708.288 392.948 710.396 395.055 710.396 397.614V397.764H710.321Z" fill="url(#paint7_linear)"/>
<path d="M349.274 337.642C349.274 337.492 349.274 337.341 349.349 337.266C351.306 329.365 359.512 325.302 359.512 325.302L363.427 325.603C365.685 332.525 367.115 335.987 366.739 337.868C366.739 337.943 366.739 337.943 366.664 338.018C363.427 338.319 356.802 338.545 349.274 337.642Z" fill="url(#paint8_linear)"/>
<path d="M366.663 338.019C366.513 338.621 365.986 339.147 365.384 339.298C360.791 340.276 353.489 339.523 350.403 339.072C349.725 338.997 349.198 338.395 349.198 337.642C356.802 338.545 363.426 338.32 366.663 338.019Z" fill="url(#paint9_linear)"/>
<path d="M356.199 319.207L357.931 327.484C358.081 328.086 358.533 328.537 359.06 328.613C359.738 328.688 360.716 328.688 361.695 328.537C362.598 328.387 363.201 327.484 363.05 326.581L361.846 319.282H356.199V319.207Z" fill="url(#paint10_linear)"/>
<path d="M399.938 337.943C395.722 337.793 393.614 337.341 392.485 336.89C392.485 337.341 392.485 337.717 392.485 338.169C392.485 338.62 392.861 338.997 393.238 338.997L416.198 338.846C416.951 338.846 417.328 338.018 417.026 337.341C414.09 337.567 406.412 338.169 399.938 337.943Z" fill="#7D97F4"/>
<path d="M417.102 337.341C417.102 337.266 417.026 337.191 417.026 337.191C414.994 334.331 409.799 328.688 399.637 326.28L394.743 326.13C394.743 326.13 392.56 329.892 392.485 336.965C393.614 337.417 395.797 337.943 399.938 338.019C406.412 338.169 414.09 337.567 417.102 337.341Z" fill="url(#paint11_linear)"/>
<path d="M393.765 318.68C393.84 319.056 394.517 324.625 394.743 326.732C394.819 327.258 395.195 327.635 395.647 327.71C396.475 327.785 397.83 327.936 399.034 327.635C399.637 327.484 400.164 326.882 400.164 326.205V317.476L393.765 318.68Z" fill="url(#paint12_linear)"/>
<path d="M359.512 210.777C359.512 210.777 351.683 280.455 356.049 323.947C356.049 323.947 361.243 323.947 363.878 323.045C363.878 323.045 372.008 254.947 374.643 235.458C374.719 234.705 375.772 234.705 375.923 235.383C379.16 251.786 391.958 316.122 393.464 322.142C393.464 322.142 397.83 323.872 401.293 322.142C401.293 322.142 394.292 228.987 389.097 212.433L359.512 210.777Z" fill="url(#paint13_linear)"/>
<path d="M366.814 106.034L363.502 128.307C363.502 128.307 372.686 132.521 379.16 128.157L377.805 112.43L366.814 106.034Z" fill="url(#paint14_linear)"/>
<path d="M380.967 91.5119C381.042 91.7376 383.075 102.949 384.279 109.872C384.806 112.731 382.698 115.44 379.762 115.591L377.128 115.741C372.234 116.042 367.868 112.506 367.19 107.69L365.233 95.0485C365.233 95.1237 378.483 86.9219 380.967 91.5119Z" fill="url(#paint15_linear)"/>
<path d="M362.373 95.1237C361.319 93.8445 360.491 91.8128 362.674 89.6307C364.857 87.4486 367.416 87.9753 368.997 88.7277C369.675 89.0287 370.578 88.8782 371.03 88.3515C371.256 88.1258 371.557 87.9 372.084 87.9753C372.987 88.0505 373.815 87.4486 373.966 86.5456C374.116 84.9654 375.02 83.0843 377.805 82.5575C382.924 81.5793 385.484 86.6961 385.409 90.3079C385.333 93.9197 379.687 94.6722 376.525 94.0702C374.192 93.6187 372.159 95.7256 371.256 96.7791C370.955 97.1553 370.804 97.7573 370.955 98.2088L371.783 101.67C371.256 102.724 370.653 103.852 369.901 104.755C369.298 105.432 368.696 105.809 368.019 105.959C367.04 104.153 364.405 103.852 363.125 103.852C362.674 103.852 362.222 103.626 361.921 103.25C361.018 102.197 359.512 99.7889 362.297 97.4563C362.824 96.9296 362.9 95.8761 362.373 95.1237Z" fill="url(#paint16_linear)"/>
<path d="M368.772 109.721C368.772 109.721 368.696 103.401 366.137 102.874C363.577 102.272 360.867 104.153 363.05 107.915C365.685 112.581 368.772 109.721 368.772 109.721Z" fill="url(#paint17_linear)"/>
<path d="M320.817 87.4484C320.817 87.4484 319.989 77.3654 325.033 76.5377C330.077 75.71 331.808 80.7515 332.637 83.3099C333.465 85.8683 325.033 90.9098 323.377 90.9098C321.646 90.8345 320.817 87.4484 320.817 87.4484Z" fill="url(#paint18_linear)"/>
<path d="M343.778 129.812C343.778 129.812 376.902 124.62 403.024 131.543L401.293 158.556C401.293 158.556 394.292 196.029 389.097 212.583C389.097 212.583 369.072 216.044 359.512 210.852C359.512 210.852 351.683 163.823 347.316 156.825C347.316 156.825 342.95 138.541 343.778 129.812Z" fill="url(#paint19_linear)"/>
<path d="M358.684 159.911C358.684 159.911 283.855 139.594 321.043 87.2227L323.528 90.7592C323.528 90.7592 312.311 126.2 349.424 129.586C349.424 129.586 359.06 154.342 358.684 159.911Z" fill="url(#paint20_linear)"/>
<path d="M385.71 162.394C385.71 162.394 460.539 142.077 423.35 89.7058L420.866 93.2424C420.866 93.2424 432.083 128.683 394.969 132.069C394.969 132.069 385.333 156.825 385.71 162.394Z" fill="url(#paint21_linear)"/>
<path d="M423.576 90.0068C423.576 90.0068 424.404 79.9238 419.36 79.0961C414.316 78.2684 412.585 83.3099 411.757 85.8683C410.929 88.4266 419.36 93.4681 421.016 93.4681C422.748 93.3176 423.576 90.0068 423.576 90.0068Z" fill="url(#paint22_linear)"/>
<path d="M323.377 109.496L316.451 107.84L312.988 73.1516L343.853 78.4188L323.377 109.496Z" fill="url(#paint23_linear)"/>
<path d="M308.471 9.11719C307.794 11.8261 295.373 64.9499 320.366 79.8486C345.359 94.7474 368.019 52.6848 374.493 20.4041L308.471 9.11719Z" fill="url(#paint24_linear)"/>
<path d="M339.111 123.792L295.975 113.785L297.179 108.517L340.315 118.6L339.111 123.792Z" fill="url(#paint25_linear)"/>
<path d="M340.315 118.6L297.179 108.517L309.525 105.207L330.83 110.173L340.315 118.6Z" fill="url(#paint26_linear)"/>
<path d="M307.116 0.840057C304.707 0.463826 302.374 1.74301 301.922 3.69941L300.943 7.76271C300.492 9.79436 302.072 11.7508 304.481 12.2022L379.386 25.4456C381.795 25.8971 384.129 24.6179 384.58 22.5862L385.634 17.921C386.086 15.8893 384.505 13.9329 382.096 13.5567L307.116 0.840057Z" fill="url(#paint27_linear)"/>
<path d="M338.509 88.5772C336.777 88.2009 335.573 86.7712 335.723 85.1911C335.874 83.5357 337.53 82.407 339.487 82.7079C339.864 82.7832 365.309 85.9435 370.804 72.9259C371.707 70.7438 372.385 67.7339 370.202 65.928C368.395 64.4231 365.007 63.9716 362.297 64.8746C360.716 65.4013 358.91 66.53 359.06 68.8626C359.136 70.5181 357.63 71.7972 355.673 71.722C353.715 71.6467 352.134 70.2923 352.059 68.6369C351.833 64.3479 354.619 60.8113 359.361 59.2311C364.631 57.4252 371.03 58.4787 374.945 61.7895C377.203 63.6706 380.591 67.9597 377.429 75.3338C374.342 82.6327 366.588 87.2227 354.995 88.6524C346.639 89.7058 339.261 88.7276 338.96 88.6524C338.734 88.5772 338.584 88.5772 338.509 88.5772Z" fill="url(#paint28_linear)"/>
<path d="M312.762 82.5575C314.494 82.9337 316.225 82.1813 316.752 80.7516C317.355 79.2467 316.301 77.4408 314.494 76.8388C314.117 76.6883 289.952 68.336 290.78 54.1897C290.931 51.7818 291.684 48.8472 294.394 48.17C296.652 47.6432 299.889 48.6967 301.922 50.7283C303.051 51.857 304.256 53.6629 303.051 55.7698C302.223 57.1995 303.051 59.0807 304.783 59.8331C306.514 60.6608 308.622 60.1341 309.45 58.6292C311.558 54.8669 310.655 50.5026 307.041 46.966C303.051 43.0532 296.878 41.1721 291.91 42.376C289.049 43.0532 284.156 45.4611 283.704 53.4372C283.252 61.3381 288.146 68.8627 297.932 75.3339C304.933 79.9239 312.01 82.3318 312.311 82.407C312.461 82.4823 312.612 82.4823 312.762 82.5575Z" fill="url(#paint29_linear)"/>
<path d="M314.117 90.4584C314.117 90.4584 320.817 87.5238 319.989 92.4901C319.161 97.4563 320.893 101.068 317.129 101.444C313.214 101.821 312.838 93.9198 314.117 90.4584Z" fill="url(#paint30_linear)"/>
<path d="M362.147 127.931C361.62 126.652 360.566 125.975 359.211 125.749C357.63 125.523 354.844 125.824 354.92 127.931C355.221 134.176 357.253 149.978 368.922 158.029L371.256 155.697C369.675 152.461 368.244 149.075 366.814 145.689C365.61 142.754 364.782 139.745 363.728 136.735C363.201 135.305 362.749 133.8 362.523 132.295C362.373 130.941 362.523 129.511 362.071 128.232C362.222 128.081 362.222 128.006 362.147 127.931Z" fill="url(#paint31_linear)"/>
<path d="M382.322 127.931C382.849 126.652 383.903 125.975 385.258 125.749C386.839 125.523 389.624 125.824 389.549 127.931C389.248 134.176 387.215 149.978 375.547 158.029L373.213 155.697C374.794 152.461 376.224 149.075 377.654 145.689C378.859 142.754 379.687 139.745 380.741 136.735C381.268 135.305 381.72 133.8 381.945 132.295C382.096 130.941 381.945 129.511 382.397 128.232C382.322 128.081 382.322 128.006 382.322 127.931Z" fill="url(#paint32_linear)"/>
<path d="M373.062 170.219C378.758 170.219 383.376 165.604 383.376 159.911C383.376 154.217 378.758 149.602 373.062 149.602C367.367 149.602 362.749 154.217 362.749 159.911C362.749 165.604 367.367 170.219 373.062 170.219Z" fill="url(#paint33_linear)"/>
<path opacity="0.32" d="M373.301 167.744C377.5 167.704 380.872 164.27 380.833 160.073C380.794 155.875 377.358 152.505 373.159 152.544C368.959 152.583 365.587 156.017 365.626 160.215C365.665 164.412 369.101 167.783 373.301 167.744Z" fill="white"/>
<path d="M173.718 359.539C173.718 359.539 172.89 364.355 172.439 369.171C172.288 371.052 173.718 372.632 175.6 372.707C181.999 373.008 195.625 373.46 200.518 373.234C201.271 373.234 201.723 372.481 201.497 371.729C201.271 371.127 200.82 370.676 200.293 370.45L177.784 360.066L173.718 359.539Z" fill="url(#paint34_linear)"/>
<path d="M234.771 213.486C233.567 212.959 234.47 215.367 232.287 216.947C230.104 218.603 224.458 216.421 224.458 216.421C224.458 216.421 227.318 214.916 226.867 213.411C226.415 211.906 224.684 214.314 219.565 214.389C215.876 214.464 215.499 216.12 215.499 217.023C213.467 217.549 208.197 218.603 202.626 218.151C195.475 217.549 195.7 209.648 195.7 209.648C193.291 208.068 181.247 202.425 180.494 205.359C179.741 208.294 177.784 219.355 190.28 228.836C201.648 237.49 214.521 224.321 216.704 221.914C219.038 224.472 229.05 224.923 231.986 223.193C234.847 221.387 235.976 214.013 234.771 213.486Z" fill="url(#paint35_linear)"/>
<path d="M186.064 176.916C187.043 177.518 193.517 179.399 194.872 192.944C196.152 206.488 197.357 210.25 197.357 210.25L183.279 212.658L186.064 176.916Z" fill="url(#paint36_linear)"/>
<path d="M173.041 356.68L173.718 362.474C173.718 362.474 177.633 364.279 180.343 362.248L178.687 355.777L173.041 356.68Z" fill="url(#paint37_linear)"/>
<path d="M173.568 247.949C173.267 249.454 171.987 323.345 179.892 356.454C180.042 356.981 179.741 357.583 179.214 357.733C178.01 358.26 175.601 358.937 172.815 359.012C171.912 359.012 171.159 358.485 170.858 357.658C168.599 349.983 157.759 311.457 156.329 274.736C154.748 233.652 156.329 273.307 156.329 273.307L157.232 247.949H173.568Z" fill="url(#paint38_linear)"/>
<path d="M147.822 362.097C147.822 362.097 146.467 364.505 145.112 371.052C144.886 372.256 145.714 373.309 146.918 373.46C149.026 373.685 152.263 373.911 154.898 373.911C156.103 373.911 157.006 372.858 156.855 371.654C156.554 369.321 155.651 365.408 152.866 362.398L147.822 362.097Z" fill="url(#paint39_linear)"/>
<path d="M146.617 354.648L148.198 363.376C148.198 363.376 149.779 364.58 152.941 363.677L152.188 354.272L146.617 354.648Z" fill="url(#paint40_linear)"/>
<path d="M142.326 250.206C135.852 289.184 143.757 346.521 146.391 357.808C146.542 358.485 147.144 359.012 147.822 359.163C149.026 359.388 150.984 359.539 152.866 358.937C153.543 358.711 153.995 358.184 153.995 357.432C154.371 348.327 153.694 292.645 159.716 270.598C160.017 269.469 160.695 268.491 161.673 267.814L173.342 259.537L174.245 246.143L142.326 250.206Z" fill="url(#paint41_linear)"/>
<path d="M163.857 160.588L157.684 178.421C157.608 178.722 157.684 179.023 157.985 179.174C159.641 180.077 165.739 182.786 173.041 178.196C173.794 177.744 174.321 176.916 174.396 176.013L176.429 160.588H163.857Z" fill="url(#paint42_linear)"/>
<path d="M183.505 176.314C164.158 176.013 142.778 181.431 142.778 181.431C136.981 215.066 141.799 253.968 141.799 253.968C156.78 257.881 173.718 251.561 173.718 251.561C176.203 237.49 187.871 197.91 187.871 197.91C192.162 183.011 189.452 176.465 183.505 176.314Z" fill="url(#paint43_linear)"/>
<path d="M150.155 200.167L142.703 181.431C142.703 181.431 124.635 193.696 121.624 209.272C125.012 209.498 130.808 210.476 136.831 213.561C139.691 207.391 150.155 200.167 150.155 200.167Z" fill="url(#paint44_linear)"/>
<path d="M166.943 155.847C167.244 155.697 167.319 155.321 167.169 155.095C166.642 154.267 165.588 152.612 165.287 151.107C165.287 151.107 164.082 150.354 168.373 149.301C172.664 148.247 179.139 146.667 180.494 142.98C181.849 139.368 178.386 130.414 172.815 137.562C172.589 137.863 172.213 137.863 171.987 137.562C171.083 136.359 168.675 133.951 165.362 135.456C162.276 136.81 161.899 139.143 161.975 140.271C161.975 140.572 161.673 140.873 161.372 140.798C159.791 140.497 156.027 140.271 154.296 144.109C152.866 147.269 153.769 149.075 154.672 149.978C154.973 150.279 154.823 150.731 154.446 150.881C153.392 151.182 152.113 152.085 152.188 154.493C152.339 157.804 156.103 157.503 157.157 157.352C157.307 157.352 157.533 157.352 157.608 157.503C158.512 158.481 162.577 162.77 167.018 163.297C167.395 163.372 167.696 162.996 167.545 162.619L165.663 157.051C165.588 156.826 165.663 156.525 165.964 156.374L166.943 155.847Z" fill="url(#paint45_linear)"/>
<path d="M177.256 144.109L161.448 148.849L163.706 155.02C163.028 155.02 162.577 155.321 162.426 156.148C162.2 157.728 163.555 158.782 165.212 159.233L166.491 162.619C173.794 166.833 182.225 167.134 183.053 162.017C184.032 156.826 177.256 144.109 177.256 144.109Z" fill="url(#paint46_linear)"/>
<path d="M154.371 179.7C153.543 178.497 152.113 177.895 150.381 177.895C148.424 177.895 144.886 178.722 145.338 180.98C146.693 187.526 151.586 203.779 167.47 210.175L170.105 207.241C167.621 204.08 165.287 200.769 163.029 197.459C161.071 194.599 159.566 191.514 157.834 188.58C157.006 187.15 156.178 185.645 155.651 184.065C155.275 182.71 155.199 181.13 154.447 179.851C154.447 179.851 154.447 179.776 154.371 179.7Z" fill="url(#paint47_linear)"/>
<path d="M174.546 176.39C174.772 174.885 175.6 173.831 176.805 173.455C178.16 173.003 180.719 173.003 180.945 175.487C181.623 182.861 182.376 201.672 173.342 212.583L170.858 210.1C171.761 206.037 172.439 201.898 173.191 197.759C173.794 194.223 174.019 190.461 174.471 186.849C174.697 185.043 174.848 183.312 174.772 181.431C174.697 179.851 174.321 178.12 174.546 176.615C174.471 176.615 174.471 176.54 174.546 176.39Z" fill="url(#paint48_linear)"/>
<path d="M169.051 220.409C174.165 220.409 178.311 216.265 178.311 211.153C178.311 206.042 174.165 201.898 169.051 201.898C163.937 201.898 159.792 206.042 159.792 211.153C159.792 216.265 163.937 220.409 169.051 220.409Z" fill="url(#paint49_linear)"/>
<g opacity="0.32">
<path opacity="0.32" d="M169.051 218.678C173.209 218.678 176.579 215.309 176.579 211.153C176.579 206.998 173.209 203.629 169.051 203.629C164.893 203.629 161.523 206.998 161.523 211.153C161.523 215.309 164.893 218.678 169.051 218.678Z" fill="white"/>
</g>
<path d="M163.631 211.53L157.608 220.71C157.608 220.71 150.984 222.666 143.832 222.064C136.68 221.462 136.906 213.561 136.906 213.561C134.497 211.981 122.452 206.338 121.699 209.272C120.946 212.207 118.989 223.268 131.486 232.749C142.929 241.478 155.877 228.084 157.985 225.751C158.06 225.826 158.211 225.902 158.286 225.977C160.62 227.482 165.663 218.528 165.663 218.528L172.514 218.829C172.514 218.829 177.633 214.013 176.278 212.357C174.848 210.627 163.631 211.53 163.631 211.53Z" fill="url(#paint50_linear)"/>
<path d="M208.95 452.242C207.821 451.49 206.616 451.038 205.412 450.812C197.733 449.684 182.526 458.789 175.977 451.264C172.288 446.975 176.805 441.256 175.676 436.139C171.686 418.908 152.941 431.85 142.853 432.603C135.852 433.13 130.808 428.765 126.066 424.1C117.183 415.296 107.095 397.839 92.114 403.784C84.5106 406.793 84.887 416.199 81.8005 422.445C78.3376 429.443 71.9387 434.108 64.0342 434.86C52.9679 435.839 37.2342 426.357 27.3724 434.183C23.6837 437.118 18.0376 446.824 19.3927 451.565C13.596 451.113 6.14321 449.609 1.92748 454.801C-1.00847 458.488 -0.93319 462.25 4.71288 462.4C11.1118 462.551 17.5106 462.4 23.9095 462.476C60.4207 462.927 96.932 463.379 133.443 463.83C153.393 464.056 173.267 466.313 193.216 466.689C198.26 466.765 210.004 467.291 212.714 461.422C214.22 458.187 212.036 454.274 208.95 452.242Z" fill="url(#paint51_linear)"/>
<path d="M729.066 459.391C726.657 456.832 721.763 456.682 717.849 455.553C715.59 454.876 713.633 453.898 712.504 451.866C710.471 448.104 709.417 441.934 704.825 440.353C700.007 438.698 695.49 442.686 690.748 442.31C683.972 441.783 685.403 434.635 680.961 431.249C676.971 428.163 670.497 428.916 667.26 432.603C665.002 435.161 662.818 443.137 658.452 442.686C656.42 442.46 654.763 439.375 652.731 438.698C647.838 437.118 644.525 441.256 642.116 444.868C640.385 447.502 639.858 448.856 636.545 449.759C630.448 451.415 620.887 448.931 622.092 458.789C622.393 461.121 624.425 462.852 626.759 462.777C631.652 462.626 636.621 462.401 641.439 462.702C644.224 462.852 647.085 462.852 649.795 462.551C662.593 461.197 675.993 463.303 688.715 463.228C701.588 463.153 714.461 463.078 727.334 462.927C728.162 462.927 728.99 462.401 729.291 461.648C729.818 460.896 729.668 459.993 729.066 459.391Z" fill="url(#paint52_linear)"/>
<path d="M564.276 194.449C561.791 192.868 564.05 188.203 564.2 178.195C564.351 165.93 561.114 163.598 563.749 158.782C566.986 152.913 575.041 150.43 580.386 150.354C581.59 150.354 581.816 149.677 591.678 152.235C609.444 156.826 613.886 151.935 621.865 156.826C629.544 161.566 626.156 166.833 633.685 172.401C645.805 181.431 658.527 171.649 667.185 179.249C675.39 186.397 675.541 204.682 666.959 214.615C657.172 225.902 639.556 222.515 627.813 220.258C625.328 219.807 612.756 217.173 599.733 207.541C592.506 202.199 587.537 196.556 584.376 192.342C583.623 191.514 582.494 190.536 580.988 190.31C579.181 190.084 577.676 191.213 576.998 191.74C573.159 194.373 566.685 196.029 564.276 194.449Z" fill="url(#paint53_linear)"/>
<path d="M587.688 262.848L569.545 263.073L575.869 257.129C577.45 255.624 579.859 255.398 581.666 256.602C582.72 257.279 583.924 258.258 584.903 259.461C584.903 259.461 596.195 255.323 601.69 246.068C603.422 248.626 605.379 252.087 607.111 256.376C602.293 259.236 595.894 261.493 587.688 262.848Z" fill="url(#paint54_linear)"/>
<path d="M564.125 392.196C568.943 392.647 577.375 393.324 583.924 393.55C587.914 393.701 590.173 393.324 591.528 392.798C591.528 392.948 591.528 393.099 591.528 393.249C591.528 393.926 590.925 394.528 590.248 394.528C577.751 395.206 567.814 394.754 564.276 394.528C563.523 394.453 563.071 393.701 563.448 393.099C563.674 392.798 563.9 392.497 564.125 392.196Z" fill="url(#paint55_linear)"/>
<path d="M583.924 393.55C577.3 393.249 568.943 392.572 564.125 392.196C568.868 386.402 583.924 382.414 583.924 382.414H588.215C591.151 386.628 591.603 390.616 591.528 392.798C590.173 393.325 587.914 393.701 583.924 393.55Z" fill="url(#paint56_linear)"/>
<path d="M588.893 375.491L588.516 383.392C588.441 384.22 587.839 384.972 587.011 385.048C586.183 385.198 585.053 385.198 583.849 384.747C583.096 384.521 582.569 383.844 582.419 383.091L581.063 375.416H588.893V375.491Z" fill="url(#paint57_linear)"/>
<path d="M638.352 398.968C640.46 398.592 641.364 397.388 641.815 396.033C642.116 397.463 641.439 398.968 640.009 399.645C638.277 400.473 636.395 400.623 634.965 400.548C633.384 400.473 631.954 399.721 631.125 398.517C632.631 399.42 634.814 399.495 638.352 398.968Z" fill="url(#paint58_linear)"/>
<path d="M628.415 377.899H631.954C637.299 377.748 640.686 390.917 641.74 395.958C641.364 397.313 640.385 398.592 638.277 398.893C634.814 399.495 632.556 399.344 630.975 398.441C628.114 394.002 626.684 387.531 625.931 383.768C625.254 379.479 628.415 377.899 628.415 377.899Z" fill="url(#paint59_linear)"/>
<path d="M631.502 370.6L633.459 378.35C633.685 379.329 633.233 380.307 632.33 380.758C631.276 381.285 629.695 381.887 628.265 381.737C627.587 381.661 627.06 381.21 626.834 380.533L623.974 372.406L631.502 370.6Z" fill="url(#paint60_linear)"/>
<path d="M562.921 268.491C562.921 268.491 580.311 377.372 580.085 377.974C580.085 377.974 584.903 380.156 590.173 378.275C590.173 378.275 588.592 320.11 584.903 297.762C584.903 297.762 614.639 349.757 624.049 375.717C624.049 375.717 628.942 375.115 633.083 372.481C633.083 372.481 601.088 278.875 592.506 266.384L562.921 268.491Z" fill="url(#paint61_linear)"/>
<path d="M482.972 161.867C482.972 161.867 494.716 164.426 501.868 167.736C503.298 168.414 504.428 169.542 505.03 170.972C507.138 175.637 513.537 187.376 525.958 193.019C524.151 195.427 521.291 200.318 520.011 208.595C512.558 203.027 506.159 193.772 502.997 178.572C502.997 178.572 500.664 179.851 497.728 178.421C496.147 177.669 494.415 176.615 493.06 175.788C491.705 174.96 490.726 173.681 490.35 172.101C489.823 170.069 490.124 168.338 490.124 166.457L484.102 164.576C484.177 164.651 482.37 163.974 482.972 161.867Z" fill="url(#paint62_linear)"/>
<path d="M520.086 208.595C521.366 200.318 524.226 195.352 526.033 193.019C533.712 196.48 543.799 197.609 556.522 193.17C557.726 192.793 558.931 192.492 560.135 192.417C566.911 192.041 589.344 191.288 607.863 197.383C611.778 198.662 614.94 201.522 616.521 205.284C621.565 216.797 629.62 242.983 607.111 256.226C605.379 251.937 603.347 248.475 601.69 245.917C605.304 239.822 606.358 231.47 599.959 220.559C595.292 233.201 593.033 251.711 592.581 259.913C592.431 262.622 592.883 265.331 593.937 267.814L594.087 268.115C594.313 268.641 594.012 269.243 593.41 269.394C580.687 272.253 567.513 271.501 563.598 271.125C562.921 271.049 562.319 270.598 562.168 269.921C555.995 243.961 555.995 226.203 557.501 214.991C551.779 216.345 534.163 219.054 520.086 208.595Z" fill="url(#paint63_linear)"/>
<path d="M588.818 177.368C588.818 177.368 590.097 190.912 591.227 194.976C591.377 195.578 591.151 196.255 590.549 196.556C588.667 197.684 584 199.415 577.751 196.33C576.697 195.803 576.095 194.75 576.17 193.621L576.697 180.528L588.818 177.368Z" fill="url(#paint64_linear)"/>
<path d="M581.365 161.039C578.579 160.362 575.643 161.867 574.665 164.576C573.536 167.661 572.256 171.649 572.105 174.283C571.804 179.249 570.75 182.409 576.472 183.463C582.193 184.441 587.011 181.582 589.646 176.691C589.646 176.691 593.711 169.091 592.807 166.006C592.205 164.125 585.957 162.243 581.365 161.039Z" fill="url(#paint65_linear)"/>
<path d="M587.538 174.132C587.538 174.132 589.119 168.113 591.829 169.768C594.539 171.423 590.399 176.54 588.291 176.766L587.538 174.132Z" fill="url(#paint66_linear)"/>
<path d="M595.291 255.549C595.291 255.549 593.711 252.99 590.172 252.99C586.634 252.99 582.418 259.687 582.418 259.687C582.418 259.687 588.065 262.245 590.172 264.352C592.205 266.309 595.291 259.612 595.291 255.549Z" fill="url(#paint67_linear)"/>
<path d="M592.958 194.524C593.786 193.32 595.216 192.718 596.948 192.718C598.905 192.718 602.443 193.546 601.992 195.803C600.637 202.35 595.743 218.603 579.859 224.999L577.224 222.064C579.708 218.904 582.042 215.593 584.301 212.282C586.258 209.423 587.763 206.338 589.495 203.403C590.323 201.973 591.151 200.468 591.678 198.888C592.054 197.534 592.13 195.954 592.883 194.674C592.883 194.674 592.958 194.599 592.958 194.524Z" fill="url(#paint68_linear)"/>
<path d="M572.858 191.288C572.632 189.784 571.804 188.73 570.6 188.354C569.244 187.902 566.685 187.902 566.459 190.385C565.782 197.76 565.029 216.571 574.062 227.482L576.547 224.999C575.643 220.935 574.966 216.797 574.213 212.658C573.611 209.122 573.385 205.36 572.933 201.748C572.707 199.942 572.557 198.211 572.632 196.33C572.707 194.75 573.084 193.019 572.858 191.514C572.858 191.439 572.858 191.364 572.858 191.288Z" fill="url(#paint69_linear)"/>
<path d="M578.353 235.307C583.467 235.307 587.613 231.164 587.613 226.052C587.613 220.941 583.467 216.797 578.353 216.797C573.239 216.797 569.094 220.941 569.094 226.052C569.094 231.164 573.239 235.307 578.353 235.307Z" fill="url(#paint70_linear)"/>
<path opacity="0.32" d="M584.92 227.267C585.54 223.578 583.052 220.085 579.362 219.465C575.672 218.844 572.177 221.331 571.556 225.02C570.935 228.709 573.424 232.202 577.114 232.822C580.804 233.443 584.299 230.956 584.92 227.267Z" fill="white"/>
<path d="M266.766 49.8252L253.215 49.3738C252.161 49.3738 251.183 49.8253 250.505 50.653L242.45 61.5637C240.869 63.6706 237.557 63.0686 236.804 60.5102L233.04 47.4926C232.739 46.5144 231.986 45.6867 231.007 45.3105L218.134 41.0214C215.65 40.1937 215.123 36.8077 217.381 35.3027L228.598 27.7029C229.502 27.1009 230.029 26.1227 230.029 25.0692L230.179 11.5249C230.179 8.89129 233.266 7.38637 235.374 9.04179L246.064 17.3941C246.892 18.0713 248.021 18.2218 248.999 17.9208L261.948 13.8575C264.507 13.0298 266.841 15.513 265.938 17.9961L261.195 30.788C260.819 31.7662 260.969 32.8948 261.571 33.7226L269.476 44.7838C270.982 46.9659 269.401 49.9005 266.766 49.8252Z" fill="url(#paint71_linear)"/>
<path d="M481.617 111.828L471.68 111.452C470.928 111.452 470.175 111.753 469.723 112.43L463.851 120.406C462.722 121.986 460.238 121.535 459.711 119.654L457.001 110.098C456.775 109.345 456.248 108.743 455.495 108.517L446.085 105.357C444.278 104.755 443.902 102.272 445.483 101.219L453.688 95.6503C454.29 95.1988 454.742 94.5216 454.742 93.7691L454.817 83.8366C454.817 81.8802 457.076 80.8268 458.581 82.0307L466.411 88.1257C467.013 88.5772 467.841 88.7276 468.519 88.5019L478.004 85.4921C479.886 84.8901 481.542 86.696 480.94 88.5019L477.552 97.8324C477.326 98.5849 477.402 99.3374 477.853 100.015L483.575 108.066C484.704 109.721 483.575 111.904 481.617 111.828Z" fill="url(#paint72_linear)"/>
<defs>
<linearGradient id="paint0_linear" x1="420.438" y1="390.483" x2="736.97" y2="390.483" gradientUnits="userSpaceOnUse">
<stop stop-color="#35CEB5"/>
<stop offset="1" stop-color="#B4F3E9"/>
</linearGradient>
<linearGradient id="paint1_linear" x1="259.063" y1="292.7" x2="259.063" y2="432.075" gradientUnits="userSpaceOnUse">
<stop stop-color="#35CEB5"/>
<stop offset="1" stop-color="#B4F3E9"/>
</linearGradient>
<linearGradient id="paint2_linear" x1="409.072" y1="357.703" x2="326.476" y2="500.83" gradientUnits="userSpaceOnUse">
<stop stop-color="#37474F"/>
<stop offset="0.9964" stop-color="#455A64"/>
</linearGradient>
<linearGradient id="paint3_linear" x1="386.291" y1="728.482" x2="386.291" y2="534.382" gradientUnits="userSpaceOnUse">
<stop stop-color="#37474F"/>
<stop offset="0.9964" stop-color="#455A64"/>
</linearGradient>
<linearGradient id="paint4_linear" x1="176.803" y1="391.802" x2="176.803" y2="492.896" gradientUnits="userSpaceOnUse">
<stop stop-color="#37474F"/>
<stop offset="0.9964" stop-color="#455A64"/>
</linearGradient>
<linearGradient id="paint5_linear" x1="176.803" y1="-43.5764" x2="176.803" y2="150.524" gradientUnits="userSpaceOnUse">
<stop stop-color="#37474F"/>
<stop offset="0.9964" stop-color="#455A64"/>
</linearGradient>
<linearGradient id="paint6_linear" x1="594.324" y1="421.525" x2="594.324" y2="486.948" gradientUnits="userSpaceOnUse">
<stop stop-color="#37474F"/>
<stop offset="0.9964" stop-color="#455A64"/>
</linearGradient>
<linearGradient id="paint7_linear" x1="594.324" y1="-43.5753" x2="594.324" y2="150.525" gradientUnits="userSpaceOnUse">
<stop stop-color="#37474F"/>
<stop offset="0.9964" stop-color="#455A64"/>
</linearGradient>
<linearGradient id="paint8_linear" x1="366.749" y1="331.794" x2="349.25" y2="331.794" gradientUnits="userSpaceOnUse">
<stop stop-color="#FF9085"/>
<stop offset="1" stop-color="#FFA140"/>
</linearGradient>
<linearGradient id="paint9_linear" x1="349.251" y1="338.704" x2="366.654" y2="338.704" gradientUnits="userSpaceOnUse">
<stop stop-color="#FF9085"/>
<stop offset="1" stop-color="#FFA140"/>
</linearGradient>
<linearGradient id="paint10_linear" x1="361.007" y1="311.27" x2="357.517" y2="341.745" gradientUnits="userSpaceOnUse">
<stop stop-color="#F7C4A5"/>
<stop offset="0.9964" stop-color="#E58C7E"/>
</linearGradient>
<linearGradient id="paint11_linear" x1="392.483" y1="332.043" x2="417.11" y2="332.043" gradientUnits="userSpaceOnUse">
<stop stop-color="#FF9085"/>
<stop offset="1" stop-color="#FFA140"/>
</linearGradient>
<linearGradient id="paint12_linear" x1="397.809" y1="315.169" x2="394.544" y2="343.676" gradientUnits="userSpaceOnUse">
<stop stop-color="#F7C4A5"/>
<stop offset="0.9964" stop-color="#E58C7E"/>
</linearGradient>
<linearGradient id="paint13_linear" x1="377.635" y1="314.257" x2="381.552" y2="191.478" gradientUnits="userSpaceOnUse">
<stop stop-color="#178573"/>
<stop offset="1" stop-color="#35CEB5"/>
</linearGradient>
<linearGradient id="paint14_linear" x1="373.919" y1="112.569" x2="369.035" y2="135.99" gradientUnits="userSpaceOnUse">
<stop stop-color="#F7C4A5"/>
<stop offset="0.9964" stop-color="#E58C7E"/>
</linearGradient>
<linearGradient id="paint15_linear" x1="374.802" y1="86.7379" x2="374.802" y2="113.616" gradientUnits="userSpaceOnUse">
<stop stop-color="#F7C4A5"/>
<stop offset="0.2431" stop-color="#F5BDA0"/>
<stop offset="0.5891" stop-color="#EFAB93"/>
<stop offset="0.9951" stop-color="#E58C7E"/>
<stop offset="0.9964" stop-color="#E58C7E"/>
</linearGradient>
<linearGradient id="paint16_linear" x1="360.074" y1="100.601" x2="384.823" y2="86.9505" gradientUnits="userSpaceOnUse">
<stop stop-color="#37474F"/>
<stop offset="0.9964" stop-color="#455A64"/>
</linearGradient>
<linearGradient id="paint17_linear" x1="359.797" y1="93.2385" x2="370.24" y2="117.673" gradientUnits="userSpaceOnUse">
<stop stop-color="#F7C4A5"/>
<stop offset="0.2431" stop-color="#F5BDA0"/>
<stop offset="0.5891" stop-color="#EFAB93"/>
<stop offset="0.9951" stop-color="#E58C7E"/>
<stop offset="0.9964" stop-color="#E58C7E"/>
</linearGradient>
<linearGradient id="paint18_linear" x1="330.247" y1="71.564" x2="321.408" y2="100.621" gradientUnits="userSpaceOnUse">
<stop stop-color="#F9B776"/>
<stop offset="1" stop-color="#F47960"/>
</linearGradient>
<linearGradient id="paint19_linear" x1="373.643" y1="120.803" x2="369.855" y2="267.759" gradientUnits="userSpaceOnUse">
<stop stop-color="#35CEB5"/>
<stop offset="1" stop-color="#B4F3E9"/>
</linearGradient>
<linearGradient id="paint20_linear" x1="335.141" y1="119.811" x2="331.353" y2="266.767" gradientUnits="userSpaceOnUse">
<stop stop-color="#35CEB5"/>
<stop offset="1" stop-color="#B4F3E9"/>
</linearGradient>
<linearGradient id="paint21_linear" x1="409.242" y1="122.337" x2="413.03" y2="269.294" gradientUnits="userSpaceOnUse">
<stop stop-color="#35CEB5"/>
<stop offset="1" stop-color="#B4F3E9"/>
</linearGradient>
<linearGradient id="paint22_linear" x1="414.136" y1="74.0904" x2="422.975" y2="103.147" gradientUnits="userSpaceOnUse">
<stop stop-color="#F7C4A5"/>
<stop offset="0.2431" stop-color="#F5BDA0"/>
<stop offset="0.5891" stop-color="#EFAB93"/>
<stop offset="0.9951" stop-color="#E58C7E"/>
<stop offset="0.9964" stop-color="#E58C7E"/>
</linearGradient>
<linearGradient id="paint23_linear" x1="313.012" y1="91.3171" x2="343.838" y2="91.3171" gradientUnits="userSpaceOnUse">
<stop stop-color="#FD8C0C"/>
<stop offset="1" stop-color="#FDEAB2"/>
</linearGradient>
<linearGradient id="paint24_linear" x1="341.865" y1="11.0464" x2="330.918" y2="82.1507" gradientUnits="userSpaceOnUse">
<stop stop-color="#FD8C0C"/>
<stop offset="1" stop-color="#FDEAB2"/>
</linearGradient>
<linearGradient id="paint25_linear" x1="323.936" y1="102.191" x2="317.198" y2="118.537" gradientUnits="userSpaceOnUse">
<stop stop-color="#FD8C0C"/>
<stop offset="1" stop-color="#FDEAB2"/>
</linearGradient>
<linearGradient id="paint26_linear" x1="342.815" y1="97.1032" x2="276.693" y2="142.383" gradientUnits="userSpaceOnUse">
<stop stop-color="#FD8C0C"/>
<stop offset="1" stop-color="#FDEAB2"/>
</linearGradient>
<linearGradient id="paint27_linear" x1="300.832" y1="13.1683" x2="385.692" y2="13.1683" gradientUnits="userSpaceOnUse">
<stop stop-color="#FD8C0C"/>
<stop offset="1" stop-color="#FDEAB2"/>
</linearGradient>
<linearGradient id="paint28_linear" x1="381.68" y1="57.6121" x2="291.184" y2="128.953" gradientUnits="userSpaceOnUse">
<stop stop-color="#FD8C0C"/>
<stop offset="1" stop-color="#FDEAB2"/>
</linearGradient>
<linearGradient id="paint29_linear" x1="287.687" y1="35.6951" x2="337.268" y2="139.692" gradientUnits="userSpaceOnUse">
<stop stop-color="#FD8C0C"/>
<stop offset="1" stop-color="#FDEAB2"/>
</linearGradient>
<linearGradient id="paint30_linear" x1="320.716" y1="94.7999" x2="313.429" y2="96.2869" gradientUnits="userSpaceOnUse">
<stop stop-color="#F7C4A5"/>
<stop offset="0.2431" stop-color="#F5BDA0"/>
<stop offset="0.5891" stop-color="#EFAB93"/>
<stop offset="0.9951" stop-color="#E58C7E"/>
<stop offset="0.9964" stop-color="#E58C7E"/>
</linearGradient>
<linearGradient id="paint31_linear" x1="355.002" y1="141.839" x2="371.33" y2="141.839" gradientUnits="userSpaceOnUse">
<stop stop-color="#37474F"/>
<stop offset="0.9964" stop-color="#455A64"/>
</linearGradient>
<linearGradient id="paint32_linear" x1="389.515" y1="141.839" x2="373.187" y2="141.839" gradientUnits="userSpaceOnUse">
<stop stop-color="#37474F"/>
<stop offset="0.9964" stop-color="#455A64"/>
</linearGradient>
<linearGradient id="paint33_linear" x1="362.768" y1="159.934" x2="383.363" y2="159.934" gradientUnits="userSpaceOnUse">
<stop stop-color="#FD8C0C"/>
<stop offset="1" stop-color="#FDEAB2"/>
</linearGradient>
<linearGradient id="paint34_linear" x1="199.841" y1="352.86" x2="117.345" y2="442.634" gradientUnits="userSpaceOnUse">
<stop stop-color="#FF9085"/>
<stop offset="1" stop-color="#FFA140"/>
</linearGradient>
<linearGradient id="paint35_linear" x1="258.681" y1="196.909" x2="188.835" y2="219.77" gradientUnits="userSpaceOnUse">
<stop stop-color="#77533D"/>
<stop offset="1" stop-color="#9E6E51"/>
</linearGradient>
<linearGradient id="paint36_linear" x1="183.238" y1="194.766" x2="197.333" y2="194.766" gradientUnits="userSpaceOnUse">
<stop stop-color="#35CEB5"/>
<stop offset="1" stop-color="#B4F3E9"/>
</linearGradient>
<linearGradient id="paint37_linear" x1="173.051" y1="359.525" x2="180.382" y2="359.525" gradientUnits="userSpaceOnUse">
<stop stop-color="#77533D"/>
<stop offset="1" stop-color="#9E6E51"/>
</linearGradient>
<linearGradient id="paint38_linear" x1="167.787" y1="251.771" x2="167.787" y2="348.479" gradientUnits="userSpaceOnUse">
<stop stop-color="#178573"/>
<stop offset="1" stop-color="#35CEB5"/>
</linearGradient>
<linearGradient id="paint39_linear" x1="181.325" y1="335.846" x2="98.8301" y2="425.619" gradientUnits="userSpaceOnUse">
<stop stop-color="#FF9085"/>
<stop offset="1" stop-color="#FFA140"/>
</linearGradient>
<linearGradient id="paint40_linear" x1="146.629" y1="359.149" x2="152.959" y2="359.149" gradientUnits="userSpaceOnUse">
<stop stop-color="#77533D"/>
<stop offset="1" stop-color="#9E6E51"/>
</linearGradient>
<linearGradient id="paint41_linear" x1="157.013" y1="253.971" x2="157.013" y2="347.227" gradientUnits="userSpaceOnUse">
<stop stop-color="#178573"/>
<stop offset="1" stop-color="#35CEB5"/>
</linearGradient>
<linearGradient id="paint42_linear" x1="170.247" y1="163.485" x2="161.04" y2="193.815" gradientUnits="userSpaceOnUse">
<stop stop-color="#77533D"/>
<stop offset="1" stop-color="#9E6E51"/>
</linearGradient>
<linearGradient id="paint43_linear" x1="129.95" y1="236.781" x2="227" y2="166.905" gradientUnits="userSpaceOnUse">
<stop stop-color="#35CEB5"/>
<stop offset="1" stop-color="#B4F3E9"/>
</linearGradient>
<linearGradient id="paint44_linear" x1="114.749" y1="215.52" x2="230.072" y2="132.488" gradientUnits="userSpaceOnUse">
<stop stop-color="#35CEB5"/>
<stop offset="1" stop-color="#B4F3E9"/>
</linearGradient>
<linearGradient id="paint45_linear" x1="149.343" y1="133.007" x2="175.952" y2="154.034" gradientUnits="userSpaceOnUse">
<stop stop-color="#37474F"/>
<stop offset="0.9964" stop-color="#455A64"/>
</linearGradient>
<linearGradient id="paint46_linear" x1="-21.9087" y1="3012.17" x2="-16.9587" y2="2939.3" gradientUnits="userSpaceOnUse">
<stop stop-color="#77533D"/>
<stop offset="1" stop-color="#9E6E51"/>
</linearGradient>
<linearGradient id="paint47_linear" x1="147.476" y1="195.643" x2="168.019" y2="192.699" gradientUnits="userSpaceOnUse">
<stop stop-color="#37474F"/>
<stop offset="0.9964" stop-color="#455A64"/>
</linearGradient>
<linearGradient id="paint48_linear" x1="183.101" y1="191.921" x2="168.575" y2="193.89" gradientUnits="userSpaceOnUse">
<stop stop-color="#37474F"/>
<stop offset="0.9964" stop-color="#455A64"/>
</linearGradient>
<linearGradient id="paint49_linear" x1="168.371" y1="205.66" x2="172.413" y2="239.583" gradientUnits="userSpaceOnUse">
<stop stop-color="#81909E"/>
<stop offset="1" stop-color="#CFD8E1"/>
</linearGradient>
<linearGradient id="paint50_linear" x1="202.1" y1="199.3" x2="130.023" y2="222.89" gradientUnits="userSpaceOnUse">
<stop stop-color="#77533D"/>
<stop offset="1" stop-color="#9E6E51"/>
</linearGradient>
<linearGradient id="paint51_linear" x1="106.588" y1="466.753" x2="106.588" y2="402.584" gradientUnits="userSpaceOnUse">
<stop stop-color="#178573"/>
<stop offset="1" stop-color="#35CEB5"/>
</linearGradient>
<linearGradient id="paint52_linear" x1="675.828" y1="463.295" x2="675.828" y2="429.407" gradientUnits="userSpaceOnUse">
<stop stop-color="#178573"/>
<stop offset="1" stop-color="#35CEB5"/>
</linearGradient>
<linearGradient id="paint53_linear" x1="557.059" y1="146.973" x2="688.552" y2="236.33" gradientUnits="userSpaceOnUse">
<stop stop-color="#456974"/>
<stop offset="1" stop-color="#37474F"/>
</linearGradient>
<linearGradient id="paint54_linear" x1="564.776" y1="223.231" x2="581.192" y2="247.865" gradientUnits="userSpaceOnUse">
<stop stop-color="#FF928E"/>
<stop offset="1" stop-color="#FEB3B1"/>
</linearGradient>
<linearGradient id="paint55_linear" x1="591.513" y1="393.539" x2="563.314" y2="393.539" gradientUnits="userSpaceOnUse">
<stop stop-color="#FF9085"/>
<stop offset="1" stop-color="#FFA140"/>
</linearGradient>
<linearGradient id="paint56_linear" x1="563.408" y1="346.384" x2="569.822" y2="366.313" gradientUnits="userSpaceOnUse">
<stop stop-color="#FF9085"/>
<stop offset="1" stop-color="#FFA140"/>
</linearGradient>
<linearGradient id="paint57_linear" x1="588.909" y1="380.303" x2="580.966" y2="380.303" gradientUnits="userSpaceOnUse">
<stop stop-color="#FF928E"/>
<stop offset="1" stop-color="#FEB3B1"/>
</linearGradient>
<linearGradient id="paint58_linear" x1="641.844" y1="398.285" x2="631.038" y2="398.285" gradientUnits="userSpaceOnUse">
<stop stop-color="#FF9085"/>
<stop offset="1" stop-color="#FFA140"/>
</linearGradient>
<linearGradient id="paint59_linear" x1="614.475" y1="329.946" x2="620.89" y2="349.874" gradientUnits="userSpaceOnUse">
<stop stop-color="#FF9085"/>
<stop offset="1" stop-color="#FFA140"/>
</linearGradient>
<linearGradient id="paint60_linear" x1="633.521" y1="376.162" x2="624.028" y2="376.162" gradientUnits="userSpaceOnUse">
<stop stop-color="#FF928E"/>
<stop offset="1" stop-color="#FEB3B1"/>
</linearGradient>
<linearGradient id="paint61_linear" x1="556.738" y1="273.771" x2="637.73" y2="406.505" gradientUnits="userSpaceOnUse">
<stop stop-color="#178573"/>
<stop offset="1" stop-color="#35CEB5"/>
</linearGradient>
<linearGradient id="paint62_linear" x1="502.952" y1="176.3" x2="540.527" y2="225.206" gradientUnits="userSpaceOnUse">
<stop stop-color="#FF928E"/>
<stop offset="1" stop-color="#FEB3B1"/>
</linearGradient>
<linearGradient id="paint63_linear" x1="547.553" y1="187.752" x2="673.006" y2="336.506" gradientUnits="userSpaceOnUse">
<stop stop-color="#35CEB5"/>
<stop offset="1" stop-color="#B4F3E9"/>
</linearGradient>
<linearGradient id="paint64_linear" x1="584.005" y1="180.154" x2="583.332" y2="218.57" gradientUnits="userSpaceOnUse">
<stop stop-color="#FF928E"/>
<stop offset="1" stop-color="#FEB3B1"/>
</linearGradient>
<linearGradient id="paint65_linear" x1="889.519" y1="417.575" x2="863.094" y2="396.553" gradientUnits="userSpaceOnUse">
<stop stop-color="#FF928E"/>
<stop offset="1" stop-color="#FEB3B1"/>
</linearGradient>
<linearGradient id="paint66_linear" x1="910.191" y1="427.75" x2="882.218" y2="405.496" gradientUnits="userSpaceOnUse">
<stop stop-color="#FF928E"/>
<stop offset="1" stop-color="#FEB3B1"/>
</linearGradient>
<linearGradient id="paint67_linear" x1="584.351" y1="250.802" x2="595.171" y2="267.04" gradientUnits="userSpaceOnUse">
<stop stop-color="#FF928E"/>
<stop offset="1" stop-color="#FEB3B1"/>
</linearGradient>
<linearGradient id="paint68_linear" x1="599.894" y1="210.485" x2="579.351" y2="207.541" gradientUnits="userSpaceOnUse">
<stop stop-color="#37474F"/>
<stop offset="0.9964" stop-color="#455A64"/>
</linearGradient>
<linearGradient id="paint69_linear" x1="564.268" y1="206.762" x2="578.795" y2="208.731" gradientUnits="userSpaceOnUse">
<stop stop-color="#37474F"/>
<stop offset="0.9964" stop-color="#455A64"/>
</linearGradient>
<linearGradient id="paint70_linear" x1="578.063" y1="215.244" x2="578.88" y2="246.938" gradientUnits="userSpaceOnUse">
<stop stop-color="#C97424"/>
<stop offset="1" stop-color="#EDC9A9"/>
</linearGradient>
<linearGradient id="paint71_linear" x1="247.696" y1="4.60924" x2="233.517" y2="118.774" gradientUnits="userSpaceOnUse">
<stop stop-color="#FD8C0C"/>
<stop offset="1" stop-color="#FDEAB2"/>
</linearGradient>
<linearGradient id="paint72_linear" x1="467.694" y1="78.7906" x2="457.332" y2="162.224" gradientUnits="userSpaceOnUse">
<stop stop-color="#FD8C0C"/>
<stop offset="1" stop-color="#FDEAB2"/>
</linearGradient>
</defs>
</svg>
