<svg width="217" height="424" viewBox="0 0 217 424" fill="none" xmlns="http://www.w3.org/2000/svg">
<path d="M10.625 323.161V416.54C10.625 420.466 14.202 423.41 18.1296 423.41H198.521C202.448 423.41 205.114 420.466 205.114 416.54V323.161H10.625Z" fill="url(#paint0_linear)"/>
<path d="M216.616 318.815C216.616 321.199 214.652 323.162 212.267 323.162H4.73324C2.3486 323.162 0.384766 321.199 0.384766 318.815V318.675C0.384766 316.291 2.3486 314.328 4.73324 314.328H212.267C214.652 314.328 216.616 316.291 216.616 318.675V318.815Z" fill="url(#paint1_linear)"/>
<path d="M74.0273 314.258C74.0273 314.118 74.0273 313.978 74.0975 313.908C75.921 306.547 83.5659 302.761 83.5659 302.761L87.213 303.042C89.3171 309.491 90.6497 312.716 90.2991 314.469C90.2991 314.539 90.2991 314.539 90.2289 314.609C87.213 314.889 81.041 315.1 74.0273 314.258Z" fill="url(#paint2_linear)"/>
<path d="M90.2287 314.609C90.0884 315.17 89.5975 315.661 89.0364 315.801C84.758 316.712 77.9548 316.011 75.0792 315.59C74.448 315.52 73.957 314.96 73.957 314.258C81.0408 315.1 87.2128 314.889 90.2287 314.609Z" fill="url(#paint3_linear)"/>
<path d="M80.4795 297.083L82.0926 304.794C82.2329 305.355 82.6537 305.776 83.1447 305.846C83.7759 305.916 84.6877 305.916 85.5995 305.776C86.4411 305.635 87.0022 304.794 86.862 303.953L85.7398 297.153H80.4795V297.083Z" fill="url(#paint4_linear)"/>
<path d="M121.23 314.539C117.302 314.399 115.338 313.978 114.286 313.557C114.286 313.978 114.286 314.329 114.286 314.749C114.286 315.17 114.637 315.52 114.987 315.52L136.379 315.38C137.081 315.38 137.431 314.609 137.151 313.978C134.415 314.188 127.261 314.749 121.23 314.539Z" fill="#7D97F4"/>
<path d="M137.221 313.978C137.221 313.908 137.151 313.838 137.151 313.838C135.257 311.174 130.418 305.916 120.949 303.673L116.39 303.532C116.39 303.532 114.356 307.038 114.286 313.627C115.338 314.048 117.372 314.539 121.23 314.609C127.261 314.749 134.415 314.188 137.221 313.978Z" fill="url(#paint5_linear)"/>
<path d="M115.479 296.592C115.549 296.943 116.18 302.13 116.39 304.093C116.46 304.584 116.811 304.934 117.232 305.005C118.003 305.075 119.266 305.215 120.388 304.934C120.949 304.794 121.44 304.233 121.44 303.603V295.47L115.479 296.592Z" fill="url(#paint6_linear)"/>
<path d="M83.5655 196.063C83.5655 196.063 76.2713 260.979 80.3393 301.499C80.3393 301.499 85.1787 301.499 87.6335 300.658C87.6335 300.658 95.2082 237.214 97.663 219.057C97.7331 218.356 98.715 218.356 98.8553 218.987C101.871 234.269 113.794 294.209 115.197 299.817C115.197 299.817 119.265 301.429 122.491 299.817C122.491 299.817 115.969 213.028 111.129 197.605L83.5655 196.063Z" fill="url(#paint7_linear)"/>
<path d="M90.3692 98.4774L87.2832 119.228C87.2832 119.228 95.8399 123.154 101.872 119.088L100.609 104.436L90.3692 98.4774Z" fill="url(#paint8_linear)"/>
<path d="M103.554 84.9475C103.624 85.1578 105.518 95.6033 106.64 102.053C107.131 104.717 105.167 107.241 102.432 107.381L99.9771 107.521C95.4182 107.801 91.3503 104.507 90.719 100.02L88.8955 88.2424C88.8955 88.3125 101.24 80.6711 103.554 84.9475Z" fill="url(#paint9_linear)"/>
<path d="M86.2306 88.3124C85.2487 87.1206 84.4772 85.2278 86.5112 83.1948C88.5451 81.1618 90.9298 81.6525 92.4026 82.3535C93.0339 82.634 93.8755 82.4938 94.2963 82.003C94.5067 81.7927 94.7873 81.5824 95.2782 81.6525C96.1199 81.7226 96.8914 81.1618 97.0316 80.3205C97.1719 78.8483 98.0136 77.0957 100.609 76.605C105.378 75.6936 107.763 80.4607 107.692 83.8257C107.622 87.1907 102.362 87.8918 99.4163 87.3309C97.2421 86.9103 95.3484 88.8732 94.5067 89.8547C94.2262 90.2052 94.0859 90.7661 94.2262 91.1867L94.9977 94.4115C94.5067 95.3929 93.9456 96.4445 93.2443 97.2857C92.6832 97.9167 92.1221 98.2672 91.4909 98.4074C90.5791 96.7249 88.1243 96.4445 86.932 96.4445C86.5112 96.4445 86.0903 96.2342 85.8098 95.8837C84.9682 94.9022 83.5654 92.6589 86.1605 90.4856C86.6514 89.9949 86.7216 89.0134 86.2306 88.3124Z" fill="url(#paint10_linear)"/>
<path d="M92.1922 101.913C92.1922 101.913 92.1221 96.0238 89.7374 95.5331C87.3528 94.9723 84.8278 96.7249 86.8618 100.23C89.3166 104.577 92.1922 101.913 92.1922 101.913Z" fill="url(#paint11_linear)"/>
<path d="M47.5159 81.1616C47.5159 81.1616 46.7444 71.7677 51.4435 70.9965C56.1427 70.2254 57.7558 74.9223 58.5273 77.3059C59.2989 79.6894 51.4435 84.3864 49.9005 84.3864C48.2874 84.3163 47.5159 81.1616 47.5159 81.1616Z" fill="url(#paint12_linear)"/>
<path d="M68.9069 120.63C68.9069 120.63 99.767 115.793 124.104 122.243L122.491 147.41C122.491 147.41 115.969 182.322 111.129 197.745C111.129 197.745 92.4728 200.97 83.5654 196.132C83.5654 196.132 76.2712 152.317 72.2033 145.798C72.2033 145.798 68.1354 128.762 68.9069 120.63Z" fill="url(#paint13_linear)"/>
<path d="M82.7943 148.672C82.7943 148.672 13.0786 129.744 47.7261 80.9513L50.0406 84.2462C50.0406 84.2462 39.5902 117.265 74.1676 120.42C74.1676 120.42 83.145 143.484 82.7943 148.672Z" fill="url(#paint14_linear)"/>
<path d="M107.973 150.985C107.973 150.985 177.689 132.057 143.041 83.2648L140.727 86.5597C140.727 86.5597 151.177 119.579 116.6 122.733C116.6 122.733 107.622 145.798 107.973 150.985Z" fill="url(#paint15_linear)"/>
<path d="M143.252 83.5453C143.252 83.5453 144.024 74.1513 139.324 73.3802C134.625 72.609 133.012 77.306 132.241 79.6896C131.469 82.0731 139.324 86.7701 140.867 86.7701C142.481 86.6299 143.252 83.5453 143.252 83.5453Z" fill="url(#paint16_linear)"/>
<path d="M49.9005 101.702L43.448 100.16L40.2217 67.8418L68.9777 72.7491L49.9005 101.702Z" fill="url(#paint17_linear)"/>
<path d="M36.0138 8.18323C35.3826 10.707 23.8101 60.2006 47.0954 74.0812C70.3807 87.9619 91.4918 48.7736 97.5236 18.6989L36.0138 8.18323Z" fill="url(#paint18_linear)"/>
<path d="M64.5593 115.022L24.3711 105.698L25.4933 100.791L65.6815 110.185L64.5593 115.022Z" fill="url(#paint19_linear)"/>
<path d="M65.6814 110.185L25.4932 100.791L36.9956 97.7062L56.8442 102.333L65.6814 110.185Z" fill="url(#paint20_linear)"/>
<path d="M34.7517 0.47168C32.5073 0.121159 30.3331 1.31293 29.9123 3.13564L29.0005 6.92127C28.5796 8.81409 30.0525 10.6368 32.2969 11.0574L102.083 23.3958C104.327 23.8164 106.501 22.6246 106.922 20.7318L107.904 16.3853C108.325 14.4925 106.852 12.6698 104.608 12.3193L34.7517 0.47168Z" fill="url(#paint21_linear)"/>
<path d="M63.9985 82.2131C62.3853 81.8626 61.2632 80.5306 61.4034 79.0584C61.5437 77.5161 63.0867 76.4646 64.9103 76.745C65.2609 76.8151 88.9671 79.7595 94.0871 67.6314C94.9287 65.5984 95.5599 62.7942 93.526 61.1117C91.8427 59.7097 88.6866 59.289 86.1616 60.1303C84.6888 60.621 83.0055 61.6726 83.1458 63.8458C83.2159 65.3881 81.8132 66.5799 79.9896 66.5098C78.1661 66.4397 76.6932 65.1778 76.6231 63.6355C76.4127 59.6396 79.0077 56.3447 83.4263 54.8725C88.3359 53.19 94.2975 54.1714 97.9446 57.256C100.049 59.0086 103.205 63.0046 100.259 69.8748C97.3835 76.6749 90.1594 80.9513 79.3584 82.2832C71.5732 83.2647 64.6998 82.3533 64.4193 82.2832C64.2089 82.2131 64.0686 82.2131 63.9985 82.2131Z" fill="url(#paint22_linear)"/>
<path d="M40.0115 76.6049C41.6247 76.9554 43.2378 76.2543 43.7288 74.9224C44.2898 73.5203 43.3079 71.8378 41.6247 71.2769C41.274 71.1367 18.7601 63.3551 19.5316 50.1755C19.6719 47.9322 20.3733 45.1981 22.8982 44.5672C25.0023 44.0765 28.0182 45.0579 29.9119 46.9507C30.9639 48.0023 32.0861 49.6848 30.9639 51.6477C30.1924 52.9797 30.9639 54.7323 32.577 55.4334C34.1902 56.2045 36.154 55.7138 36.9255 54.3117C38.8893 50.8065 38.0477 46.7404 34.6811 43.4455C30.9639 39.8001 25.2127 38.0475 20.5837 39.1692C17.9185 39.8001 13.3596 42.0434 12.9388 49.4745C12.518 56.8354 17.0769 63.8459 26.1946 69.8748C32.7173 74.1512 39.3102 76.3945 39.5907 76.4646C39.731 76.5347 39.8713 76.5347 40.0115 76.6049Z" fill="url(#paint23_linear)"/>
<path d="M41.2735 83.966C41.2735 83.966 47.5157 81.2319 46.7442 85.8588C45.9727 90.4857 47.5858 93.8507 44.079 94.2012C40.4319 94.5517 40.0812 87.1908 41.2735 83.966Z" fill="url(#paint24_linear)"/>
<path d="M86.0206 118.878C85.5297 117.686 84.5478 117.055 83.2853 116.845C81.8125 116.635 79.2174 116.915 79.2875 118.878C79.5681 124.697 81.4618 139.419 92.3329 146.92L94.5072 144.747C93.0343 141.732 91.7017 138.577 90.3691 135.423C89.2469 132.689 88.4754 129.884 87.4935 127.08C87.0026 125.748 86.5817 124.346 86.3713 122.944C86.231 121.682 86.3713 120.35 85.9505 119.159C86.0908 119.018 86.0908 118.948 86.0206 118.878Z" fill="url(#paint25_linear)"/>
<path d="M104.818 118.878C105.309 117.686 106.29 117.055 107.553 116.845C109.026 116.635 111.621 116.915 111.551 118.878C111.27 124.697 109.376 139.418 98.5053 146.92L96.3311 144.746C97.8039 141.732 99.1365 138.577 100.469 135.423C101.591 132.688 102.363 129.884 103.345 127.08C103.836 125.748 104.256 124.346 104.467 122.944C104.607 121.682 104.467 120.35 104.888 119.158C104.818 119.018 104.818 118.948 104.818 118.878Z" fill="url(#paint26_linear)"/>
<path d="M96.1907 158.276C101.497 158.276 105.799 153.977 105.799 148.672C105.799 143.368 101.497 139.068 96.1907 139.068C90.884 139.068 86.582 143.368 86.582 148.672C86.582 153.977 90.884 158.276 96.1907 158.276Z" fill="url(#paint27_linear)"/>
<path opacity="0.32" d="M96.4123 155.97C100.325 155.933 103.467 152.734 103.43 148.823C103.393 144.913 100.192 141.772 96.2801 141.809C92.3678 141.845 89.2259 145.045 89.2624 148.956C89.299 152.866 92.5001 156.007 96.4123 155.97Z" fill="white"/>
<defs>
<linearGradient id="paint0_linear" x1="129.741" y1="332.948" x2="52.7886" y2="466.295" gradientUnits="userSpaceOnUse">
<stop stop-color="#37474F"/>
<stop offset="0.9964" stop-color="#455A64"/>
</linearGradient>
<linearGradient id="paint1_linear" x1="108.516" y1="678.39" x2="108.516" y2="497.554" gradientUnits="userSpaceOnUse">
<stop stop-color="#37474F"/>
<stop offset="0.9964" stop-color="#455A64"/>
</linearGradient>
<linearGradient id="paint2_linear" x1="90.3089" y1="308.81" x2="74.0057" y2="308.81" gradientUnits="userSpaceOnUse">
<stop stop-color="#FF9085"/>
<stop offset="1" stop-color="#FFA140"/>
</linearGradient>
<linearGradient id="paint3_linear" x1="74.0058" y1="315.248" x2="90.2196" y2="315.248" gradientUnits="userSpaceOnUse">
<stop stop-color="#FF9085"/>
<stop offset="1" stop-color="#FFA140"/>
</linearGradient>
<linearGradient id="paint4_linear" x1="84.9587" y1="289.688" x2="81.7069" y2="318.081" gradientUnits="userSpaceOnUse">
<stop stop-color="#F7C4A5"/>
<stop offset="0.9964" stop-color="#E58C7E"/>
</linearGradient>
<linearGradient id="paint5_linear" x1="114.284" y1="309.041" x2="137.228" y2="309.041" gradientUnits="userSpaceOnUse">
<stop stop-color="#FF9085"/>
<stop offset="1" stop-color="#FFA140"/>
</linearGradient>
<linearGradient id="paint6_linear" x1="119.247" y1="293.32" x2="116.205" y2="319.88" gradientUnits="userSpaceOnUse">
<stop stop-color="#F7C4A5"/>
<stop offset="0.9964" stop-color="#E58C7E"/>
</linearGradient>
<linearGradient id="paint7_linear" x1="100.45" y1="292.471" x2="104.099" y2="178.082" gradientUnits="userSpaceOnUse">
<stop stop-color="#178573"/>
<stop offset="1" stop-color="#35CEB5"/>
</linearGradient>
<linearGradient id="paint8_linear" x1="96.9891" y1="104.566" x2="92.4386" y2="126.386" gradientUnits="userSpaceOnUse">
<stop stop-color="#F7C4A5"/>
<stop offset="0.9964" stop-color="#E58C7E"/>
</linearGradient>
<linearGradient id="paint9_linear" x1="97.81" y1="80.4997" x2="97.81" y2="105.541" gradientUnits="userSpaceOnUse">
<stop stop-color="#F7C4A5"/>
<stop offset="0.2431" stop-color="#F5BDA0"/>
<stop offset="0.5891" stop-color="#EFAB93"/>
<stop offset="0.9951" stop-color="#E58C7E"/>
<stop offset="0.9964" stop-color="#E58C7E"/>
</linearGradient>
<linearGradient id="paint10_linear" x1="84.0893" y1="93.4158" x2="107.147" y2="80.6977" gradientUnits="userSpaceOnUse">
<stop stop-color="#37474F"/>
<stop offset="0.9964" stop-color="#455A64"/>
</linearGradient>
<linearGradient id="paint11_linear" x1="83.8306" y1="86.5561" x2="93.56" y2="109.321" gradientUnits="userSpaceOnUse">
<stop stop-color="#F7C4A5"/>
<stop offset="0.2431" stop-color="#F5BDA0"/>
<stop offset="0.5891" stop-color="#EFAB93"/>
<stop offset="0.9951" stop-color="#E58C7E"/>
<stop offset="0.9964" stop-color="#E58C7E"/>
</linearGradient>
<linearGradient id="paint12_linear" x1="56.3011" y1="66.3626" x2="48.0659" y2="93.4337" gradientUnits="userSpaceOnUse">
<stop stop-color="#F9B776"/>
<stop offset="1" stop-color="#F47960"/>
</linearGradient>
<linearGradient id="paint13_linear" x1="96.7311" y1="112.237" x2="93.202" y2="249.151" gradientUnits="userSpaceOnUse">
<stop stop-color="#35CEB5"/>
<stop offset="1" stop-color="#B4F3E9"/>
</linearGradient>
<linearGradient id="paint14_linear" x1="60.8605" y1="111.312" x2="57.3314" y2="248.227" gradientUnits="userSpaceOnUse">
<stop stop-color="#35CEB5"/>
<stop offset="1" stop-color="#B4F3E9"/>
</linearGradient>
<linearGradient id="paint15_linear" x1="129.897" y1="113.666" x2="133.426" y2="250.58" gradientUnits="userSpaceOnUse">
<stop stop-color="#35CEB5"/>
<stop offset="1" stop-color="#B4F3E9"/>
</linearGradient>
<linearGradient id="paint16_linear" x1="134.457" y1="68.7166" x2="142.693" y2="95.7876" gradientUnits="userSpaceOnUse">
<stop stop-color="#F7C4A5"/>
<stop offset="0.2431" stop-color="#F5BDA0"/>
<stop offset="0.5891" stop-color="#EFAB93"/>
<stop offset="0.9951" stop-color="#E58C7E"/>
<stop offset="0.9964" stop-color="#E58C7E"/>
</linearGradient>
<linearGradient id="paint17_linear" x1="40.2436" y1="84.7659" x2="68.9635" y2="84.7659" gradientUnits="userSpaceOnUse">
<stop stop-color="#FD8C0C"/>
<stop offset="1" stop-color="#FDEAB2"/>
</linearGradient>
<linearGradient id="paint18_linear" x1="67.1255" y1="9.98056" x2="56.9265" y2="76.226" gradientUnits="userSpaceOnUse">
<stop stop-color="#FD8C0C"/>
<stop offset="1" stop-color="#FDEAB2"/>
</linearGradient>
<linearGradient id="paint19_linear" x1="50.4213" y1="94.8968" x2="44.1444" y2="110.126" gradientUnits="userSpaceOnUse">
<stop stop-color="#FD8C0C"/>
<stop offset="1" stop-color="#FDEAB2"/>
</linearGradient>
<linearGradient id="paint20_linear" x1="68.0104" y1="90.1566" x2="6.40668" y2="132.342" gradientUnits="userSpaceOnUse">
<stop stop-color="#FD8C0C"/>
<stop offset="1" stop-color="#FDEAB2"/>
</linearGradient>
<linearGradient id="paint21_linear" x1="28.8972" y1="11.9574" x2="107.958" y2="11.9574" gradientUnits="userSpaceOnUse">
<stop stop-color="#FD8C0C"/>
<stop offset="1" stop-color="#FDEAB2"/>
</linearGradient>
<linearGradient id="paint22_linear" x1="104.22" y1="53.3641" x2="19.9083" y2="119.83" gradientUnits="userSpaceOnUse">
<stop stop-color="#FD8C0C"/>
<stop offset="1" stop-color="#FDEAB2"/>
</linearGradient>
<linearGradient id="paint23_linear" x1="16.6498" y1="32.9448" x2="62.8421" y2="129.835" gradientUnits="userSpaceOnUse">
<stop stop-color="#FD8C0C"/>
<stop offset="1" stop-color="#FDEAB2"/>
</linearGradient>
<linearGradient id="paint24_linear" x1="47.421" y1="88.0108" x2="40.6325" y2="89.3962" gradientUnits="userSpaceOnUse">
<stop stop-color="#F7C4A5"/>
<stop offset="0.2431" stop-color="#F5BDA0"/>
<stop offset="0.5891" stop-color="#EFAB93"/>
<stop offset="0.9951" stop-color="#E58C7E"/>
<stop offset="0.9964" stop-color="#E58C7E"/>
</linearGradient>
<linearGradient id="paint25_linear" x1="79.3643" y1="131.835" x2="94.5765" y2="131.835" gradientUnits="userSpaceOnUse">
<stop stop-color="#37474F"/>
<stop offset="0.9964" stop-color="#455A64"/>
</linearGradient>
<linearGradient id="paint26_linear" x1="111.519" y1="131.835" x2="96.3067" y2="131.835" gradientUnits="userSpaceOnUse">
<stop stop-color="#37474F"/>
<stop offset="0.9964" stop-color="#455A64"/>
</linearGradient>
<linearGradient id="paint27_linear" x1="86.5997" y1="148.694" x2="105.787" y2="148.694" gradientUnits="userSpaceOnUse">
<stop stop-color="#FD8C0C"/>
<stop offset="1" stop-color="#FDEAB2"/>
</linearGradient>
</defs>
</svg>
