<svg width="669" height="912" viewBox="0 0 669 912" fill="none" xmlns="http://www.w3.org/2000/svg">
<path d="M130.547 323.943L406.894 390.135L448.917 213.926L172.57 147.734L130.547 323.943Z" fill="url(#paint0_linear)"/>
<path d="M292.929 255.924L406.894 390.135L130.547 323.943L292.929 255.924Z" fill="url(#paint1_linear)"/>
<path d="M286.535 281.945L172.57 147.734L448.917 213.926L286.535 281.945Z" fill="url(#paint2_linear)"/>
<path d="M425.075 609.063L123.149 650.376L96.6562 457.962L398.582 416.42L425.075 609.063Z" fill="url(#paint3_linear)"/>
<path d="M258.81 519.361L123.148 650.376L425.075 609.063L258.81 519.361Z" fill="url(#paint4_linear)"/>
<path d="M232.317 326.718L96.6562 457.962L97.7982 457.733L249.903 454.538L398.582 416.42L232.317 326.718Z" fill="url(#paint5_linear)"/>
<path d="M305.754 59.6141C305.069 52.3101 303.014 45.4626 299.36 39.0716C295.934 32.6806 291.138 26.7461 285.428 21.9529C279.718 16.9314 273.095 12.8229 265.787 9.17093C258.478 5.74719 250.257 3.23644 241.35 1.86694C232.442 0.497442 223.307 0.0409394 214.172 0.953938C204.808 1.86694 196.129 3.69295 187.679 6.88844C179.229 9.85568 171.692 13.9642 165.069 18.5292C158.445 23.3224 152.736 28.5721 148.168 34.7349C143.372 40.6694 139.946 47.2886 137.662 54.3643C135.378 61.4401 134.693 68.5158 135.378 75.8198C136.292 84.9498 139.261 93.1667 144.514 101.155C149.767 108.916 156.39 115.535 164.612 120.557C172.834 125.806 182.198 129.687 193.16 132.197C204.123 134.708 215.314 135.393 226.733 134.252C238.152 133.11 248.658 130.371 258.935 126.035L279.718 137.904C287.483 141.784 292.736 142.697 295.477 140.414C298.218 138.132 298.446 132.654 295.934 123.98L289.996 104.123C295.705 97.7318 300.045 90.656 302.785 82.8955C305.298 75.3633 306.439 67.6028 305.754 59.6141Z" fill="url(#paint6_linear)"/>
<path d="M240.89 71.2548C241.347 66.4616 245.686 62.8096 250.482 63.2661C255.278 63.7226 258.933 68.0593 258.476 72.8525C258.019 77.6458 253.68 81.2978 248.884 80.8413C244.088 80.3848 240.433 76.2763 240.89 71.2548Z" fill="white"/>
<path d="M208.917 68.2875C209.374 63.4943 213.714 59.8423 218.51 60.2988C223.306 60.7553 226.96 65.092 226.503 69.8853C226.047 74.6785 221.707 78.3305 216.911 77.874C212.115 77.4175 208.461 73.309 208.917 68.2875Z" fill="white"/>
<path d="M177.172 65.3203C177.628 60.5271 181.968 56.8751 186.764 57.3316C191.56 57.7881 195.214 62.1248 194.757 66.918C194.301 71.7113 189.961 75.3633 185.165 74.9068C180.141 74.4503 176.715 70.1135 177.172 65.3203Z" fill="white"/>
<path d="M507.712 209.66C511.138 204.638 515.249 200.302 520.502 197.106C525.526 193.682 531.236 191.4 537.402 190.03C543.569 188.661 549.963 188.205 556.815 188.433C563.667 188.889 570.518 190.259 577.598 192.541C584.678 195.052 591.53 198.247 597.925 202.584C604.319 206.921 610.029 211.714 615.053 217.42C620.078 222.898 623.96 228.833 626.93 234.996C629.899 241.158 631.954 247.321 633.096 253.484C634.238 259.647 634.238 265.809 633.096 271.972C631.954 278.135 629.67 283.613 626.473 288.634C622.362 295.025 616.652 299.819 609.801 303.471C602.949 307.123 595.412 309.177 587.419 309.862C579.425 310.546 570.975 309.633 561.839 307.123C552.932 304.612 544.482 300.732 536.26 295.482C528.495 290.232 521.644 284.069 515.934 276.994L496.064 277.678C488.984 277.45 484.645 276.081 483.503 273.342C482.361 270.603 484.417 266.494 489.67 261.244L501.774 249.147C500.175 242.071 499.719 235.224 500.632 228.605C501.774 221.529 504.058 215.366 507.712 209.66Z" fill="url(#paint7_linear)"/>
<path d="M550.648 243.897C552.247 240.245 550.42 235.909 546.766 234.311C543.112 232.713 538.772 234.539 537.174 238.191C535.575 241.843 537.402 246.18 541.056 247.778C544.71 249.376 549.05 247.549 550.648 243.897Z" fill="white"/>
<path d="M575.084 254.169C576.683 250.517 574.855 246.18 571.201 244.582C567.547 242.984 563.208 244.81 561.609 248.462C560.01 252.114 561.837 256.451 565.492 258.049C569.146 259.647 573.485 257.821 575.084 254.169Z" fill="white"/>
<path d="M599.752 264.44C601.35 260.788 599.523 256.451 595.869 254.853C592.215 253.256 587.876 255.082 586.277 258.734C584.678 262.386 586.505 266.722 590.16 268.32C593.814 269.918 598.153 268.32 599.752 264.44Z" fill="white"/>
<path d="M544.745 448.021L378.48 522.431L379.622 522.659L518.709 569.678L666.247 583.83L544.745 448.021Z" fill="url(#paint8_linear)"/>
<path d="M668.762 360.602L462.301 316.55L403.834 589.536L610.523 633.588L668.762 360.602Z" fill="url(#paint9_linear)"/>
<path d="M518.711 569.678L379.623 522.659L378.482 522.431L339.199 705.943L626.965 767.342L666.248 583.83L518.711 569.678Z" fill="url(#paint10_linear)"/>
<path d="M505.693 631.534L339.199 705.943L626.965 767.342L505.693 631.534Z" fill="url(#paint11_linear)"/>
<path d="M644.222 375.523L479.381 340.385L478.095 346.412L642.935 381.551L644.222 375.523Z" fill="#24B3AF"/>
<path d="M632.21 392.214L475.41 358.79L474.124 364.817L630.924 398.241L632.21 392.214Z" fill="#24B3AF"/>
<path d="M636.245 412.242L471.404 377.103L470.118 383.13L634.959 418.269L636.245 412.242Z" fill="#24B3AF"/>
<path d="M624.229 428.934L467.43 395.51L466.143 401.537L622.943 434.962L624.229 428.934Z" fill="#24B3AF"/>
<path d="M628.489 449.01L463.648 413.872L462.362 419.899L627.203 455.037L628.489 449.01Z" fill="#24B3AF"/>
<path d="M584.393 458.891L459.758 432.323L458.471 438.35L583.107 464.918L584.393 458.891Z" fill="#24B3AF"/>
<path d="M620.509 485.731L455.668 450.593L454.382 456.62L619.222 491.758L620.509 485.731Z" fill="#24B3AF"/>
<path d="M605.53 501.912L451.857 469.155L450.571 475.182L604.244 507.94L605.53 501.912Z" fill="#24B3AF"/>
<path d="M612.706 522.721L447.865 487.583L446.579 493.61L611.42 528.748L612.706 522.721Z" fill="#24B3AF"/>
<path d="M597.554 538.633L443.881 505.875L442.595 511.902L596.267 544.66L597.554 538.633Z" fill="#24B3AF"/>
<path d="M604.95 559.49L440.109 524.352L438.823 530.379L603.664 565.517L604.95 559.49Z" fill="#24B3AF"/>
<path d="M156.95 562.26L0.277344 704.003L187.782 911.026L344.455 769.283L156.95 562.26Z" fill="url(#paint12_linear)"/>
<path d="M154.458 590.927L29.5293 704.006L33.6688 708.574L158.597 595.495L154.458 590.927Z" fill="#24B3AF"/>
<path d="M161.026 610.384L42.1914 717.947L46.3309 722.515L165.165 614.951L161.026 610.384Z" fill="#24B3AF"/>
<path d="M179.743 619.058L54.8145 732.137L58.9539 736.705L183.882 623.625L179.743 619.058Z" fill="#24B3AF"/>
<path d="M186.311 638.514L67.4766 746.078L71.6161 750.645L190.45 643.082L186.311 638.514Z" fill="#24B3AF"/>
<path d="M205.044 646.868L80.1152 759.947L84.2548 764.515L209.183 651.436L205.044 646.868Z" fill="#24B3AF"/>
<path d="M187.185 688.246L92.7266 773.745L96.8661 778.313L191.324 692.814L187.185 688.246Z" fill="#24B3AF"/>
<path d="M230.344 674.677L105.416 787.756L109.556 792.324L234.484 679.245L230.344 674.677Z" fill="#24B3AF"/>
<path d="M234.41 696.431L117.945 801.849L122.085 806.417L238.549 700.998L234.41 696.431Z" fill="#24B3AF"/>
<path d="M255.475 702.64L130.547 815.72L134.686 820.287L259.615 707.208L255.475 702.64Z" fill="#24B3AF"/>
<path d="M259.71 724.24L143.246 829.658L147.386 834.226L263.85 728.808L259.71 724.24Z" fill="#24B3AF"/>
<path d="M280.932 730.617L156.004 843.696L160.143 848.264L285.072 735.185L280.932 730.617Z" fill="#24B3AF"/>
<defs>
<linearGradient id="paint0_linear" x1="359.386" y1="177.164" x2="223.868" y2="355.94" gradientUnits="userSpaceOnUse">
<stop offset="0.00254422" stop-color="#35CEB5"/>
<stop offset="0.9791" stop-color="#B4F3E9"/>
</linearGradient>
<linearGradient id="paint1_linear" x1="238.127" y1="195.355" x2="270.35" y2="366.354" gradientUnits="userSpaceOnUse">
<stop offset="0.00254422" stop-color="#B4F3E9"/>
<stop offset="0.9987" stop-color="#24B3AF"/>
</linearGradient>
<linearGradient id="paint2_linear" x1="436.919" y1="264.41" x2="160.587" y2="198.193" gradientUnits="userSpaceOnUse">
<stop offset="0.00254422" stop-color="#24B3AF"/>
<stop offset="1" stop-color="#35CEB5"/>
</linearGradient>
<linearGradient id="paint3_linear" x1="382.761" y1="386.633" x2="192.791" y2="615.597" gradientUnits="userSpaceOnUse">
<stop offset="0.00254422" stop-color="#35CEB5"/>
<stop offset="1" stop-color="#24B3AF"/>
</linearGradient>
<linearGradient id="paint4_linear" x1="216.397" y1="476.645" x2="276.822" y2="637.298" gradientUnits="userSpaceOnUse">
<stop offset="0.00254422" stop-color="#35CEB5"/>
<stop offset="1" stop-color="#B4F3E9"/>
</linearGradient>
<linearGradient id="paint5_linear" x1="233.764" y1="343.942" x2="249.192" y2="448.224" gradientUnits="userSpaceOnUse">
<stop stop-color="#B4F3E9"/>
<stop offset="1" stop-color="#35CEB5"/>
</linearGradient>
<linearGradient id="paint6_linear" x1="251.754" y1="196.121" x2="209.448" y2="22.4683" gradientUnits="userSpaceOnUse">
<stop offset="0.00254422" stop-color="#35CEB5"/>
<stop offset="1" stop-color="#B4F3E9"/>
</linearGradient>
<linearGradient id="paint7_linear" x1="493.524" y1="330.905" x2="592.803" y2="220.358" gradientUnits="userSpaceOnUse">
<stop offset="0.00254422" stop-color="#35CEB5"/>
<stop offset="0.9987" stop-color="#24B3AF"/>
</linearGradient>
<linearGradient id="paint8_linear" x1="548.567" y1="465.478" x2="523.987" y2="547.598" gradientUnits="userSpaceOnUse">
<stop offset="0.00254422" stop-color="#B4F3E9"/>
<stop offset="1" stop-color="#35CEB5"/>
</linearGradient>
<linearGradient id="paint9_linear" x1="687.024" y1="383.079" x2="461.882" y2="520.748" gradientUnits="userSpaceOnUse">
<stop offset="0.00254422" stop-color="#B2EBE2"/>
<stop offset="0.357" stop-color="#CBFCF4"/>
<stop offset="0.9987" stop-color="#D3FFF8"/>
</linearGradient>
<linearGradient id="paint10_linear" x1="420.942" y1="528.4" x2="610.971" y2="799.438" gradientUnits="userSpaceOnUse">
<stop offset="0.2886" stop-color="#25A691"/>
<stop offset="0.9987" stop-color="#35CFB5"/>
</linearGradient>
<linearGradient id="paint11_linear" x1="521.48" y1="604.801" x2="479.819" y2="748.199" gradientUnits="userSpaceOnUse">
<stop offset="0.00254422" stop-color="#B4F3E9"/>
<stop offset="1" stop-color="#35CEB5"/>
</linearGradient>
<linearGradient id="paint12_linear" x1="185.763" y1="560.813" x2="165.692" y2="823.829" gradientUnits="userSpaceOnUse">
<stop offset="0.00254422" stop-color="#AEE0D8"/>
<stop offset="0.357" stop-color="#B4F3E9"/>
<stop offset="0.9987" stop-color="#D2FFF8"/>
</linearGradient>
</defs>
</svg>
