<svg width="452" height="428" viewBox="0 0 452 428" fill="none" xmlns="http://www.w3.org/2000/svg">
<path d="M119.06 43.563L118.403 44.1292L118.871 44.86L139.733 77.4387C143.533 84.0251 149.292 87.3555 156.886 87.3555C160.368 87.3555 163.983 86.1263 167.715 83.7696C171.306 81.5013 175.665 79.0371 180.795 76.3771L180.808 76.3705L180.82 76.3635C185.898 73.5426 191.935 70.9933 198.941 68.721C206.057 66.4742 214.812 65.3373 225.229 65.3373C239.35 65.3373 250.535 69.0055 258.888 76.2451L258.896 76.2521C267.418 83.4774 271.697 93.1948 271.697 105.514C271.697 115.656 269.444 124.432 264.976 131.879L264.972 131.886C260.641 139.231 255.176 145.922 248.574 151.958C242.127 157.836 235.108 163.433 227.516 168.747C220.048 173.917 213.245 179.378 207.108 185.131C200.931 190.73 195.999 197.014 192.321 203.981C188.579 210.877 187.424 219.009 188.779 228.317C188.78 228.322 188.781 228.327 188.781 228.331L194.211 274.628L194.314 275.511H195.204H249.249H250.089L250.234 274.683L257.379 233.81C257.38 233.807 257.38 233.804 257.381 233.801C258.484 228.114 261.329 222.954 265.969 218.314C270.885 213.398 276.661 208.473 283.301 203.54C289.978 198.58 297.036 193.239 304.475 187.517C311.978 181.745 318.803 174.919 324.951 167.043C331.312 159.139 336.506 149.898 340.542 139.332C344.79 128.514 346.9 115.805 346.9 101.225C346.9 86.0425 344.113 72.2707 338.521 59.9266C333.125 47.5963 325.413 37.088 315.39 28.4126C305.367 19.5472 293.333 12.8132 279.306 8.20074C265.271 3.39511 249.624 1 232.377 1C219.927 1 208.231 2.149 197.292 4.45149C186.561 6.55985 176.492 9.53194 167.089 13.37L167.082 13.3728C157.88 17.2072 149.248 21.7142 141.19 26.8944L141.19 26.8943L141.181 26.9004C133.331 32.0703 125.957 37.6244 119.06 43.563ZM175.7 361.9L175.696 361.908L175.693 361.916C173.353 367.571 172.186 373.612 172.186 380.027C172.186 386.629 173.351 392.765 175.693 398.424L175.699 398.438L175.705 398.451C178.231 404.088 181.636 409.051 185.918 413.332L185.926 413.341L185.935 413.349C190.221 417.44 195.188 420.652 200.826 422.986L200.837 422.99C206.684 425.329 213.007 426.493 219.796 426.493C226.398 426.493 232.625 425.327 238.468 422.99C244.298 420.658 249.365 417.445 253.656 413.349L253.665 413.341L253.673 413.332C257.957 409.048 261.27 404.081 263.607 398.438C266.143 392.775 267.406 386.634 267.406 380.027C267.406 373.608 266.142 367.564 263.609 361.908C261.274 356.076 257.96 351.101 253.664 346.999C249.376 342.713 244.311 339.403 238.481 337.069C232.635 334.538 226.403 333.275 219.796 333.275C213 333.275 206.67 334.537 200.819 337.071C195.177 339.407 190.211 342.717 185.927 346.999C181.633 351.1 178.225 356.072 175.7 361.9Z" fill="url(#paint0_linear)" stroke="white" stroke-width="2"/>
<path d="M2.24591 241.435L1.58834 242.001L2.0563 242.732L11.5418 257.545C13.3681 260.703 16.1659 262.319 19.8125 262.319C21.5279 262.319 23.2729 261.713 25.0304 260.603L24.4964 259.757L25.0304 260.603C26.6479 259.581 28.6168 258.468 30.9417 257.262L30.9545 257.256L30.9671 257.249C33.2394 255.986 35.9517 254.84 39.113 253.814C42.2819 252.814 46.2059 252.3 50.9084 252.3C57.2377 252.3 62.1885 253.942 65.8665 257.13L65.8665 257.13L65.8748 257.137C69.6178 260.311 71.5064 264.574 71.5064 270.036C71.5064 274.568 70.501 278.461 68.5263 281.752L68.5225 281.758C66.5803 285.051 64.1289 288.054 61.1628 290.766C58.248 293.423 55.0735 295.955 51.638 298.36C48.2214 300.725 45.1062 303.225 42.2941 305.861C39.4418 308.447 37.1588 311.354 35.4546 314.582C33.6869 317.841 33.1556 321.661 33.7834 325.983L36.2539 347.046L36.3575 347.93H37.2471H61.8376H62.6779L62.8226 347.102L66.0737 328.506C66.553 326.039 67.7882 323.788 69.8307 321.745C72.0458 319.53 74.6529 317.307 77.6566 315.075C80.6974 312.817 83.9113 310.384 87.298 307.779C90.7494 305.124 93.8863 301.987 96.7097 298.37C99.6419 294.726 102.031 290.472 103.884 285.619C105.848 280.62 106.814 274.768 106.814 268.084C106.814 261.11 105.534 254.767 102.955 249.072C100.468 243.391 96.9122 238.545 92.2908 234.544C87.6704 230.458 82.13 227.36 75.6872 225.241C69.2367 223.033 62.0576 221.937 54.1612 221.937C48.4643 221.937 43.1058 222.462 38.0886 223.518C33.1752 224.483 28.5612 225.845 24.2486 227.605L24.2486 227.605L24.2419 227.608C20.0263 229.365 16.0706 231.43 12.376 233.805L12.376 233.805L12.3668 233.811C8.77589 236.176 5.40206 238.717 2.24591 241.435ZM27.8725 386.476L27.8692 386.483L27.866 386.491C26.7724 389.134 26.2287 391.953 26.2287 394.94C26.2287 398.009 26.7709 400.873 27.866 403.519L27.8716 403.533L27.8775 403.546C29.0538 406.17 30.6406 408.483 32.6367 410.479L32.6449 410.488L32.6533 410.496C34.6539 412.405 36.971 413.903 39.597 414.99L39.608 414.994C42.3377 416.086 45.284 416.627 48.4364 416.627C51.506 416.627 54.4083 416.085 57.1347 414.994C59.8479 413.909 62.2132 412.411 64.2194 410.496L64.2279 410.488L64.2361 410.479C66.2348 408.481 67.7808 406.163 68.8712 403.532C70.0564 400.883 70.6441 398.015 70.6441 394.94C70.6441 391.949 70.0555 389.126 68.8735 386.483C67.7847 383.768 66.2373 381.443 64.2278 379.522C62.2251 377.522 59.8616 375.978 57.1479 374.891C54.419 373.71 51.5118 373.123 48.4364 373.123C45.2763 373.123 42.3232 373.71 39.5889 374.893C36.9601 375.982 34.6431 377.526 32.645 379.522C30.6369 381.441 29.0476 383.764 27.8725 386.476Z" fill="url(#paint1_linear)" stroke="white" stroke-width="2"/>
<path d="M345.248 241.608L344.59 242.174L345.058 242.905L354.629 257.851C356.47 261.035 359.29 262.664 362.966 262.664C364.695 262.664 366.454 262.053 368.226 260.934L367.692 260.088L368.226 260.934C369.859 259.903 371.846 258.779 374.192 257.563L374.204 257.556L374.217 257.549C376.51 256.275 379.248 255.118 382.438 254.083C385.636 253.073 389.596 252.555 394.342 252.555C400.73 252.555 405.727 254.213 409.44 257.431L409.44 257.431L409.448 257.438C413.227 260.642 415.134 264.945 415.134 270.459C415.134 275.033 414.119 278.963 412.126 282.285L412.122 282.291C410.162 285.615 407.688 288.645 404.694 291.382C401.753 294.064 398.55 296.618 395.083 299.045C391.636 301.431 388.493 303.954 385.656 306.613C382.779 309.222 380.476 312.154 378.757 315.409C376.975 318.696 376.439 322.549 377.072 326.908L379.565 348.161L379.668 349.044H380.558H405.369H406.21L406.354 348.216L409.635 329.453C410.119 326.962 411.366 324.689 413.428 322.627C415.663 320.392 418.294 318.148 421.325 315.896C424.393 313.617 427.636 311.163 431.053 308.535C434.535 305.856 437.699 302.691 440.548 299.042C443.506 295.366 445.916 291.075 447.786 286.179C449.766 281.137 450.741 275.233 450.741 268.49C450.741 261.454 449.449 255.055 446.848 249.311C444.339 243.579 440.752 238.691 436.09 234.655C431.429 230.533 425.84 227.408 419.34 225.271C412.833 223.043 405.59 221.937 397.624 221.937C391.876 221.937 386.47 222.467 381.409 223.532C376.452 224.506 371.797 225.88 367.446 227.656L367.446 227.656L367.439 227.658C363.186 229.431 359.195 231.514 355.468 233.91L355.468 233.91L355.459 233.916C351.836 236.302 348.432 238.866 345.248 241.608ZM371.107 387.949L371.104 387.956L371.101 387.964C369.998 390.63 369.449 393.473 369.449 396.486C369.449 399.581 369.996 402.469 371.101 405.139L371.106 405.152L371.112 405.165C372.299 407.812 373.899 410.145 375.912 412.158L375.92 412.167L375.929 412.175C377.947 414.101 380.284 415.612 382.932 416.708L382.943 416.712C385.696 417.813 388.668 418.359 391.848 418.359C394.944 418.359 397.871 417.812 400.621 416.712C403.357 415.617 405.743 414.106 407.766 412.175L407.775 412.167L407.783 412.158C409.799 410.143 411.358 407.805 412.458 405.152C413.653 402.48 414.246 399.587 414.246 396.486C414.246 393.469 413.652 390.622 412.46 387.956C411.362 385.218 409.801 382.873 407.775 380.936C405.755 378.918 403.371 377.361 400.634 376.265C397.882 375.074 394.949 374.481 391.848 374.481C388.66 374.481 385.682 375.073 382.924 376.267C380.273 377.366 377.936 378.923 375.921 380.936C373.895 382.871 372.292 385.214 371.107 387.949Z" fill="url(#paint2_linear)" stroke="white" stroke-width="2"/>
<defs>
<linearGradient id="paint0_linear" x1="232.806" y1="2" x2="232.806" y2="425.493" gradientUnits="userSpaceOnUse">
<stop stop-color="white" stop-opacity="0.64"/>
<stop offset="1" stop-color="white" stop-opacity="0"/>
</linearGradient>
<linearGradient id="paint1_linear" x1="54.3563" y1="222.937" x2="54.3563" y2="415.627" gradientUnits="userSpaceOnUse">
<stop stop-color="white" stop-opacity="0.64"/>
<stop offset="1" stop-color="white" stop-opacity="0"/>
</linearGradient>
<linearGradient id="paint2_linear" x1="397.821" y1="222.937" x2="397.821" y2="417.359" gradientUnits="userSpaceOnUse">
<stop stop-color="white" stop-opacity="0.64"/>
<stop offset="1" stop-color="white" stop-opacity="0"/>
</linearGradient>
</defs>
</svg>
