<svg width="318" height="513" viewBox="0 0 318 513" fill="none" xmlns="http://www.w3.org/2000/svg">
<mask id="mask0" mask-type="alpha" maskUnits="userSpaceOnUse" x="0" y="0" width="48" height="47">
<path d="M24.1606 46.678C37.0165 46.678 47.4383 36.2877 47.4383 23.471C47.4383 10.6542 37.0165 0.264267 24.1606 0.264267C11.3047 0.264267 0.882935 10.6542 0.882935 23.471C0.882935 36.2877 11.3047 46.678 24.1606 46.678Z" fill="url(#paint0_linear)"/>
</mask>
<g mask="url(#mask0)">
<path d="M24.1606 46.678C37.0165 46.678 47.4383 36.2877 47.4383 23.471C47.4383 10.6542 37.0165 0.264267 24.1606 0.264267C11.3047 0.264267 0.882935 10.6542 0.882935 23.471C0.882935 36.2877 11.3047 46.678 24.1606 46.678Z" fill="#24B3AF"/>
</g>
<mask id="mask1" mask-type="alpha" maskUnits="userSpaceOnUse" x="135" y="0" width="48" height="47">
<path d="M158.977 46.678C171.833 46.678 182.255 36.2877 182.255 23.471C182.255 10.6542 171.833 0.264267 158.977 0.264267C146.122 0.264267 135.7 10.6542 135.7 23.471C135.7 36.2877 146.122 46.678 158.977 46.678Z" fill="url(#paint1_linear)"/>
</mask>
<g mask="url(#mask1)">
<path d="M158.977 46.678C171.833 46.678 182.255 36.2877 182.255 23.471C182.255 10.6542 171.833 0.264267 158.977 0.264267C146.122 0.264267 135.7 10.6542 135.7 23.471C135.7 36.2877 146.122 46.678 158.977 46.678Z" fill="#24B3AF"/>
</g>
<mask id="mask2" mask-type="alpha" maskUnits="userSpaceOnUse" x="270" y="0" width="48" height="47">
<path d="M293.795 46.678C306.651 46.678 317.072 36.2877 317.072 23.471C317.072 10.6542 306.651 0.264267 293.795 0.264267C280.939 0.264267 270.517 10.6542 270.517 23.471C270.517 36.2877 280.939 46.678 293.795 46.678Z" fill="url(#paint2_linear)"/>
</mask>
<g mask="url(#mask2)">
<path d="M293.795 46.678C306.651 46.678 317.072 36.2877 317.072 23.471C317.072 10.6542 306.651 0.264267 293.795 0.264267C280.939 0.264267 270.517 10.6542 270.517 23.471C270.517 36.2877 280.939 46.678 293.795 46.678Z" fill="#24B3AF"/>
</g>
<mask id="mask3" mask-type="alpha" maskUnits="userSpaceOnUse" x="0" y="116" width="48" height="48">
<path d="M24.1606 163.195C37.0165 163.195 47.4383 152.805 47.4383 139.989C47.4383 127.172 37.0165 116.782 24.1606 116.782C11.3047 116.782 0.882935 127.172 0.882935 139.989C0.882935 152.805 11.3047 163.195 24.1606 163.195Z" fill="url(#paint3_linear)"/>
</mask>
<g mask="url(#mask3)">
<path d="M24.1606 163.195C37.0165 163.195 47.4383 152.805 47.4383 139.989C47.4383 127.172 37.0165 116.782 24.1606 116.782C11.3047 116.782 0.882935 127.172 0.882935 139.989C0.882935 152.805 11.3047 163.195 24.1606 163.195Z" fill="#24B3AF"/>
</g>
<mask id="mask4" mask-type="alpha" maskUnits="userSpaceOnUse" x="135" y="116" width="48" height="48">
<path d="M158.977 163.195C171.833 163.195 182.255 152.805 182.255 139.989C182.255 127.172 171.833 116.782 158.977 116.782C146.122 116.782 135.7 127.172 135.7 139.989C135.7 152.805 146.122 163.195 158.977 163.195Z" fill="url(#paint4_linear)"/>
</mask>
<g mask="url(#mask4)">
<path d="M158.977 163.195C171.833 163.195 182.255 152.805 182.255 139.989C182.255 127.172 171.833 116.782 158.977 116.782C146.122 116.782 135.7 127.172 135.7 139.989C135.7 152.805 146.122 163.195 158.977 163.195Z" fill="#24B3AF"/>
</g>
<mask id="mask5" mask-type="alpha" maskUnits="userSpaceOnUse" x="270" y="116" width="48" height="48">
<path d="M293.795 163.195C306.651 163.195 317.072 152.805 317.072 139.989C317.072 127.172 306.651 116.782 293.795 116.782C280.939 116.782 270.517 127.172 270.517 139.989C270.517 152.805 280.939 163.195 293.795 163.195Z" fill="url(#paint5_linear)"/>
</mask>
<g mask="url(#mask5)">
<path d="M293.795 163.195C306.651 163.195 317.072 152.805 317.072 139.989C317.072 127.172 306.651 116.782 293.795 116.782C280.939 116.782 270.517 127.172 270.517 139.989C270.517 152.805 280.939 163.195 293.795 163.195Z" fill="#24B3AF"/>
</g>
<mask id="mask6" mask-type="alpha" maskUnits="userSpaceOnUse" x="0" y="233" width="48" height="47">
<path d="M24.1606 279.471C37.0165 279.471 47.4383 269.081 47.4383 256.264C47.4383 243.447 37.0165 233.057 24.1606 233.057C11.3047 233.057 0.882935 243.447 0.882935 256.264C0.882935 269.081 11.3047 279.471 24.1606 279.471Z" fill="url(#paint6_linear)"/>
</mask>
<g mask="url(#mask6)">
<path d="M24.1606 279.471C37.0165 279.471 47.4383 269.081 47.4383 256.264C47.4383 243.447 37.0165 233.057 24.1606 233.057C11.3047 233.057 0.882935 243.447 0.882935 256.264C0.882935 269.081 11.3047 279.471 24.1606 279.471Z" fill="#24B3AF"/>
</g>
<mask id="mask7" mask-type="alpha" maskUnits="userSpaceOnUse" x="135" y="233" width="48" height="47">
<path d="M158.977 279.471C171.833 279.471 182.255 269.081 182.255 256.264C182.255 243.447 171.833 233.057 158.977 233.057C146.122 233.057 135.7 243.447 135.7 256.264C135.7 269.081 146.122 279.471 158.977 279.471Z" fill="url(#paint7_linear)"/>
</mask>
<g mask="url(#mask7)">
<path d="M158.977 279.471C171.833 279.471 182.255 269.081 182.255 256.264C182.255 243.447 171.833 233.057 158.977 233.057C146.122 233.057 135.7 243.447 135.7 256.264C135.7 269.081 146.122 279.471 158.977 279.471Z" fill="#24B3AF"/>
</g>
<mask id="mask8" mask-type="alpha" maskUnits="userSpaceOnUse" x="270" y="233" width="48" height="47">
<path d="M293.795 279.471C306.651 279.471 317.072 269.081 317.072 256.264C317.072 243.447 306.651 233.057 293.795 233.057C280.939 233.057 270.517 243.447 270.517 256.264C270.517 269.081 280.939 279.471 293.795 279.471Z" fill="url(#paint8_linear)"/>
</mask>
<g mask="url(#mask8)">
<path d="M293.795 279.471C306.651 279.471 317.072 269.081 317.072 256.264C317.072 243.447 306.651 233.057 293.795 233.057C280.939 233.057 270.517 243.447 270.517 256.264C270.517 269.081 280.939 279.471 293.795 279.471Z" fill="#24B3AF"/>
</g>
<mask id="mask9" mask-type="alpha" maskUnits="userSpaceOnUse" x="0" y="349" width="48" height="47">
<path d="M24.1606 395.989C37.0165 395.989 47.4383 385.598 47.4383 372.782C47.4383 359.965 37.0165 349.575 24.1606 349.575C11.3047 349.575 0.882935 359.965 0.882935 372.782C0.882935 385.598 11.3047 395.989 24.1606 395.989Z" fill="url(#paint9_linear)"/>
</mask>
<g mask="url(#mask9)">
<path d="M24.1606 395.989C37.0165 395.989 47.4383 385.598 47.4383 372.782C47.4383 359.965 37.0165 349.575 24.1606 349.575C11.3047 349.575 0.882935 359.965 0.882935 372.782C0.882935 385.598 11.3047 395.989 24.1606 395.989Z" fill="#24B3AF"/>
</g>
<mask id="mask10" mask-type="alpha" maskUnits="userSpaceOnUse" x="135" y="349" width="48" height="47">
<path d="M158.977 395.989C171.833 395.989 182.255 385.598 182.255 372.782C182.255 359.965 171.833 349.575 158.977 349.575C146.122 349.575 135.7 359.965 135.7 372.782C135.7 385.598 146.122 395.989 158.977 395.989Z" fill="url(#paint10_linear)"/>
</mask>
<g mask="url(#mask10)">
<path d="M158.977 395.989C171.833 395.989 182.255 385.598 182.255 372.782C182.255 359.965 171.833 349.575 158.977 349.575C146.122 349.575 135.7 359.965 135.7 372.782C135.7 385.598 146.122 395.989 158.977 395.989Z" fill="#24B3AF"/>
</g>
<mask id="mask11" mask-type="alpha" maskUnits="userSpaceOnUse" x="270" y="349" width="48" height="47">
<path d="M293.795 395.989C306.651 395.989 317.072 385.598 317.072 372.782C317.072 359.965 306.651 349.575 293.795 349.575C280.939 349.575 270.517 359.965 270.517 372.782C270.517 385.598 280.939 395.989 293.795 395.989Z" fill="url(#paint11_linear)"/>
</mask>
<g mask="url(#mask11)">
<path d="M293.795 395.989C306.651 395.989 317.072 385.598 317.072 372.782C317.072 359.965 306.651 349.575 293.795 349.575C280.939 349.575 270.517 359.965 270.517 372.782C270.517 385.598 280.939 395.989 293.795 395.989Z" fill="#24B3AF"/>
</g>
<mask id="mask12" mask-type="alpha" maskUnits="userSpaceOnUse" x="0" y="465" width="48" height="48">
<path d="M24.1606 512.264C37.0165 512.264 47.4383 501.874 47.4383 489.058C47.4383 476.241 37.0165 465.851 24.1606 465.851C11.3047 465.851 0.882935 476.241 0.882935 489.058C0.882935 501.874 11.3047 512.264 24.1606 512.264Z" fill="url(#paint12_linear)"/>
</mask>
<g mask="url(#mask12)">
<path d="M24.1606 512.264C37.0165 512.264 47.4383 501.874 47.4383 489.058C47.4383 476.241 37.0165 465.851 24.1606 465.851C11.3047 465.851 0.882935 476.241 0.882935 489.058C0.882935 501.874 11.3047 512.264 24.1606 512.264Z" fill="#24B3AF"/>
</g>
<mask id="mask13" mask-type="alpha" maskUnits="userSpaceOnUse" x="135" y="465" width="48" height="48">
<path d="M158.977 512.264C171.833 512.264 182.255 501.874 182.255 489.058C182.255 476.241 171.833 465.851 158.977 465.851C146.122 465.851 135.7 476.241 135.7 489.058C135.7 501.874 146.122 512.264 158.977 512.264Z" fill="url(#paint13_linear)"/>
</mask>
<g mask="url(#mask13)">
<path d="M158.977 512.264C171.833 512.264 182.255 501.874 182.255 489.058C182.255 476.241 171.833 465.851 158.977 465.851C146.122 465.851 135.7 476.241 135.7 489.058C135.7 501.874 146.122 512.264 158.977 512.264Z" fill="#24B3AF"/>
</g>
<mask id="mask14" mask-type="alpha" maskUnits="userSpaceOnUse" x="270" y="465" width="48" height="48">
<path d="M293.795 512.264C306.651 512.264 317.072 501.874 317.072 489.058C317.072 476.241 306.651 465.851 293.795 465.851C280.939 465.851 270.517 476.241 270.517 489.058C270.517 501.874 280.939 512.264 293.795 512.264Z" fill="url(#paint14_linear)"/>
</mask>
<g mask="url(#mask14)">
<path d="M293.795 512.264C306.651 512.264 317.072 501.874 317.072 489.058C317.072 476.241 306.651 465.851 293.795 465.851C280.939 465.851 270.517 476.241 270.517 489.058C270.517 501.874 280.939 512.264 293.795 512.264Z" fill="#24B3AF"/>
</g>
<defs>
<linearGradient id="paint0_linear" x1="209.435" y1="492.457" x2="-108.457" y2="-316.964" gradientUnits="userSpaceOnUse">
<stop/>
<stop offset="1" stop-color="white"/>
</linearGradient>
<linearGradient id="paint1_linear" x1="326.101" y1="446.637" x2="8.20867" y2="-362.786" gradientUnits="userSpaceOnUse">
<stop/>
<stop offset="1" stop-color="white"/>
</linearGradient>
<linearGradient id="paint2_linear" x1="442.768" y1="400.817" x2="124.876" y2="-408.605" gradientUnits="userSpaceOnUse">
<stop/>
<stop offset="1" stop-color="white"/>
</linearGradient>
<linearGradient id="paint3_linear" x1="169.622" y1="508.088" x2="-148.265" y2="-301.327" gradientUnits="userSpaceOnUse">
<stop/>
<stop offset="1" stop-color="white"/>
</linearGradient>
<linearGradient id="paint4_linear" x1="286.288" y1="462.27" x2="-31.599" y2="-347.147" gradientUnits="userSpaceOnUse">
<stop/>
<stop offset="1" stop-color="white"/>
</linearGradient>
<linearGradient id="paint5_linear" x1="402.955" y1="416.451" x2="85.0683" y2="-392.966" gradientUnits="userSpaceOnUse">
<stop/>
<stop offset="1" stop-color="white"/>
</linearGradient>
<linearGradient id="paint6_linear" x1="129.809" y1="523.728" x2="-188.084" y2="-285.694" gradientUnits="userSpaceOnUse">
<stop/>
<stop offset="1" stop-color="white"/>
</linearGradient>
<linearGradient id="paint7_linear" x1="246.475" y1="477.908" x2="-71.4175" y2="-331.514" gradientUnits="userSpaceOnUse">
<stop/>
<stop offset="1" stop-color="white"/>
</linearGradient>
<linearGradient id="paint8_linear" x1="363.142" y1="432.089" x2="45.2495" y2="-377.333" gradientUnits="userSpaceOnUse">
<stop/>
<stop offset="1" stop-color="white"/>
</linearGradient>
<linearGradient id="paint9_linear" x1="89.9955" y1="539.364" x2="-227.897" y2="-270.057" gradientUnits="userSpaceOnUse">
<stop/>
<stop offset="1" stop-color="white"/>
</linearGradient>
<linearGradient id="paint10_linear" x1="206.662" y1="493.545" x2="-111.23" y2="-315.877" gradientUnits="userSpaceOnUse">
<stop/>
<stop offset="1" stop-color="white"/>
</linearGradient>
<linearGradient id="paint11_linear" x1="323.329" y1="447.725" x2="5.43664" y2="-361.697" gradientUnits="userSpaceOnUse">
<stop/>
<stop offset="1" stop-color="white"/>
</linearGradient>
<linearGradient id="paint12_linear" x1="50.1827" y1="555" x2="-267.71" y2="-254.421" gradientUnits="userSpaceOnUse">
<stop/>
<stop offset="1" stop-color="white"/>
</linearGradient>
<linearGradient id="paint13_linear" x1="166.849" y1="509.181" x2="-151.043" y2="-300.241" gradientUnits="userSpaceOnUse">
<stop/>
<stop offset="1" stop-color="white"/>
</linearGradient>
<linearGradient id="paint14_linear" x1="283.516" y1="463.361" x2="-34.3762" y2="-346.061" gradientUnits="userSpaceOnUse">
<stop/>
<stop offset="1" stop-color="white"/>
</linearGradient>
</defs>
</svg>
