<svg width="33" height="33" viewBox="0 0 33 33" fill="none" xmlns="http://www.w3.org/2000/svg">
<rect x="0.78125" y="1.43604" width="31" height="31" rx="15.5" stroke="white"/>
<g clip-path="url(#clip0)">
<path d="M19.6335 8.93604H12.929C10.3662 8.93604 8.28125 11.021 8.28125 13.5838V20.2883C8.28125 22.8511 10.3662 24.936 12.929 24.936H19.6335C22.1963 24.936 24.2812 22.8511 24.2812 20.2883V13.5838C24.2812 11.021 22.1963 8.93604 19.6335 8.93604ZM23.0312 20.2883C23.0312 22.1618 21.507 23.686 19.6335 23.686H12.929C11.0555 23.686 9.53125 22.1618 9.53125 20.2883V13.5838C9.53125 11.7103 11.0555 10.186 12.929 10.186H19.6335C21.507 10.186 23.0312 11.7103 23.0312 13.5838V20.2883Z" fill="white"/>
<path d="M16.2812 12.6235C13.9033 12.6235 11.9688 14.5581 11.9688 16.936C11.9688 19.314 13.9033 21.2485 16.2812 21.2485C18.6592 21.2485 20.5938 19.314 20.5938 16.936C20.5938 14.5581 18.6592 12.6235 16.2812 12.6235ZM16.2812 19.9985C14.5926 19.9985 13.2188 18.6247 13.2188 16.936C13.2188 15.2474 14.5926 13.8735 16.2812 13.8735C17.9699 13.8735 19.3438 15.2474 19.3438 16.936C19.3438 18.6247 17.9699 19.9985 16.2812 19.9985Z" fill="white"/>
<path d="M20.6562 13.186C21.0014 13.186 21.2812 12.9062 21.2812 12.561C21.2812 12.2159 21.0014 11.936 20.6562 11.936C20.3111 11.936 20.0312 12.2159 20.0312 12.561C20.0312 12.9062 20.3111 13.186 20.6562 13.186Z" fill="white"/>
</g>
<defs>
<clipPath id="clip0">
<rect width="16" height="16" fill="white" transform="translate(8.28125 8.93604)"/>
</clipPath>
</defs>
</svg>
