<svg width="27" height="43" viewBox="0 0 27 43" fill="none" xmlns="http://www.w3.org/2000/svg">
<path fill-rule="evenodd" clip-rule="evenodd" d="M8.72697 0.958496C8.78617 1.72438 9.13643 2.20367 8.91444 2.92014C8.64804 3.77497 8.05111 4.21473 8.05111 4.21473C8.05111 4.21473 7.91791 4.1505 7.59232 3.53285C7.43939 3.24626 7.31112 2.53473 7.50352 2.04061C7.71565 1.50697 8.32738 1.07214 8.72697 0.958496ZM13.0781 1.59097C13.0781 1.59097 13.2409 1.67003 13.9266 1.79355C14.2473 1.84791 14.8146 2.06532 15.1254 2.4952C15.4856 2.99426 15.4264 3.63167 15.2734 4.02203C14.6321 3.59708 14.119 3.74038 13.5221 3.21661C12.8561 2.62367 13.0781 1.59097 13.0781 1.59097ZM17.8585 1.77873C17.8585 1.77873 18.2186 2.67803 17.671 3.37967C17.1826 4.0072 16.8225 4.10108 16.2749 4.43708C16.048 4.08626 15.826 3.5872 16.0184 3.05356C16.196 2.5545 16.7633 2.25308 17.0642 2.13944C17.7154 1.88744 17.8585 1.77873 17.8585 1.77873ZM5.57954 2.93991C5.80154 2.94485 6.02847 2.97944 6.2258 3.06344C6.71419 3.27097 6.98552 3.84908 7.08419 4.15544C7.29632 4.81755 7.39992 4.97073 7.39992 4.97073C7.39992 4.97073 6.54153 5.35614 5.8114 4.84226C5.27368 4.46179 4.92341 3.68108 4.61262 3.15238C4.83955 3.02391 5.20954 2.93497 5.57954 2.93991ZM10.5375 3.33026C10.8335 3.33026 11.0456 3.39944 11.0456 3.39944C11.0456 3.39944 10.942 3.54767 10.7101 4.20485C10.6016 4.5112 10.3155 5.07944 9.82216 5.27214C9.2943 5.47967 8.7911 5.2672 8.43591 5.04979C8.95884 4.4865 8.89964 4.18508 9.51136 3.68108C9.85669 3.40438 10.2415 3.33026 10.5375 3.33026ZM21.5831 3.47356C21.5831 3.47356 22.0764 4.45191 21.7262 5.27708C21.4154 6.00838 20.8776 6.3345 20.5767 6.78414C20.2708 6.5025 20.0488 6.07261 20.0291 5.49944C20.0143 5.04979 20.2659 4.52108 20.705 4.14556C21.2328 3.69097 21.5831 3.47356 21.5831 3.47356ZM19.0573 3.51308C19.1017 3.51308 19.1411 3.51308 19.1855 3.51308C19.6098 3.52297 19.9403 3.63167 19.9403 3.63167C19.9403 3.63167 19.7973 4.04179 19.5605 4.46179C19.1806 5.13873 18.8106 5.4105 18.1101 5.43026C17.5427 5.44508 17.1727 5.26226 16.857 4.99544C17.2911 4.54579 17.4589 4.15544 18.1397 3.75026C18.4258 3.57732 18.7613 3.51803 19.0573 3.51308ZM13.532 4.19003C13.5863 4.19003 13.6405 4.19003 13.6948 4.19497C14.4841 4.27403 14.637 4.60014 15.382 4.77803C15.2044 5.15356 14.9084 5.61308 14.3509 5.73661C13.8329 5.85026 13.0683 5.71191 12.7032 5.44508C12.3085 5.16344 12.0027 4.85214 12.0027 4.85214C12.0027 4.85214 12.7131 4.19991 13.532 4.19003ZM15.6336 4.32344C15.7125 4.32838 15.9542 4.47167 16.2749 4.87191C16.6005 5.27708 17.0099 6.08744 17.1431 6.64579C17.1826 6.80391 17.2122 6.96697 17.2418 7.12508C16.9014 7.23379 16.5758 7.35238 16.2897 7.48085C16.2601 7.49567 16.2354 7.50556 16.2058 7.52038C16.2305 7.32273 16.2453 7.13497 16.2552 6.9472C16.2798 6.45803 16.2009 5.54885 15.8654 4.88673C15.6582 4.47661 15.5398 4.33332 15.6188 4.3185C15.6237 4.32344 15.6286 4.32344 15.6336 4.32344ZM24.1879 4.61003C24.1879 4.61003 24.2421 5.70203 23.5219 6.23073C22.8806 6.70014 22.5796 6.66061 21.9284 6.93238C21.81 6.53214 21.7755 6.09238 22.0666 5.6032C22.333 5.1585 22.7227 4.89661 23.2456 4.79779C23.9461 4.66438 24.1879 4.61003 24.1879 4.61003ZM8.02645 4.68414C8.11524 4.69403 8.04125 4.96579 7.99191 5.59332C7.90805 6.67544 8.31258 7.9552 8.61351 8.59756C8.8503 9.10156 9.12657 9.62532 9.52123 10.1392C8.9687 10.2627 8.42604 10.4505 7.90311 10.7124C7.86365 10.7321 7.82911 10.7519 7.79458 10.7667C7.55285 10.1293 7.35059 9.41285 7.23712 8.68156C7.10886 7.8465 7.21245 6.52226 7.42459 5.79097C7.65152 5.02014 7.91791 4.69897 8.00671 4.6792C8.01658 4.68414 8.02151 4.6792 8.02645 4.68414ZM5.41674 5.37591C5.54007 5.37591 5.67821 5.38579 5.82127 5.4105C6.70433 5.53403 7.06939 6.34932 7.06939 6.34932C7.06939 6.34932 6.89179 6.36908 6.25047 6.64579C5.95447 6.77426 5.33781 6.95214 4.86421 6.71497C4.35115 6.46297 3.94662 5.90461 3.86276 5.49944C4.48928 5.50438 4.87408 5.37097 5.41674 5.37591ZM10.3352 5.57355C11.1739 5.56367 12.0076 5.99356 12.0076 5.99356C12.0076 5.99356 11.4452 6.40861 11.1147 6.66061C10.6559 7.01638 10.1182 7.13497 9.5903 7.06085C9.0279 6.98673 8.63817 6.64085 8.43097 6.28014C9.1907 5.92438 9.32883 5.65261 10.1675 5.57355C10.2218 5.5785 10.281 5.5785 10.3352 5.57355ZM15.7618 6.09238C15.8013 6.50744 15.599 7.21403 15.1846 7.60438C14.7998 7.96508 14.1585 7.97991 13.8378 7.94532C13.1472 7.8712 12.9647 7.90085 12.9647 7.90085C12.9647 7.90085 13.0535 7.08556 13.7293 6.5025C14.4249 5.90461 15.16 6.16156 15.7618 6.09238ZM2.27918 6.19614C2.55544 6.19614 2.8613 6.24555 3.12277 6.38885C3.66049 6.69026 3.88249 7.28814 3.90222 7.70814C3.1425 7.5945 2.74784 7.77238 1.98811 7.55003C1.12972 7.29803 0.883057 6.4432 0.883057 6.4432C0.883057 6.4432 1.06559 6.44814 1.73651 6.26532C1.87465 6.22579 2.06704 6.19614 2.27918 6.19614ZM24.8983 6.6705C25.6087 6.66556 26.1118 6.99661 26.4917 7.08556C26.3486 7.47591 25.8011 7.9552 25.2584 8.1232C24.7503 8.28132 24.1977 8.19732 23.7587 7.99967C23.1223 7.70814 22.9447 7.46603 22.9447 7.46603C22.9447 7.46603 23.5071 6.93238 24.3753 6.72979C24.5579 6.69026 24.7355 6.67544 24.8983 6.6705ZM20.7 7.05097C21.8939 7.06579 22.4563 7.31779 22.5204 7.43638C22.6043 7.59944 22.1998 7.58461 21.2131 7.77732C19.6295 8.08861 17.967 9.18061 17.1629 9.87238C16.6942 10.2776 16.2256 10.7124 15.7816 11.2263C15.0958 10.7717 14.3213 10.411 13.4876 10.2084C13.3347 10.1688 13.1817 10.1392 13.0288 10.1096C13.9858 9.32885 15.1846 8.52344 16.492 7.9305C17.6315 7.42156 19.5703 7.03614 20.7 7.05097ZM10.5326 7.42156C11.0851 7.41167 11.4304 7.59944 11.7313 7.81685C12.2987 8.22697 12.5108 8.44932 12.5108 8.44932C12.5108 8.44932 11.756 8.89897 10.8729 8.99285C10.128 9.07191 9.73336 8.63214 8.98844 8.42461C9.18083 8.05403 9.71856 7.50556 10.2859 7.43638C10.3698 7.4265 10.4536 7.42156 10.5326 7.42156ZM6.1962 7.56485C6.36393 7.56485 6.52673 7.57473 6.68953 7.58461C6.67966 7.97003 6.69939 8.34556 6.74379 8.68156C6.45273 8.56791 6.1666 8.49379 5.89034 8.42955C5.45621 8.33567 4.62248 8.2665 3.97622 8.46908C3.57663 8.59756 3.42863 8.68155 3.4237 8.6025C3.4237 8.54814 3.58156 8.34061 4.01569 8.09355C4.43009 7.86132 5.21941 7.61426 5.74727 7.57473C5.9002 7.56485 6.0482 7.55991 6.1962 7.56485ZM22.0222 7.92556C22.0222 7.92556 22.1702 8.02932 22.8312 8.25167C23.1371 8.35544 23.6748 8.73591 23.8721 9.22508C24.0843 9.75379 24.0152 10.3813 23.8031 10.7371C23.2851 10.4208 22.5352 10.4307 22.0419 9.53144C21.6127 8.75073 22.0222 7.92556 22.0222 7.92556ZM1.51452 8.22697C1.83518 8.22697 2.14104 8.30108 2.32851 8.38014C2.97477 8.64697 3.15237 8.66673 3.15237 8.66673C3.15237 8.66673 2.8021 9.48697 1.91905 9.62532C1.13465 9.74885 0.769592 9.52155 0 9.54132C0.0739992 9.1312 0.365063 8.56297 0.942256 8.33073C1.11985 8.25661 1.31719 8.22697 1.51452 8.22697ZM5.7078 8.67661C5.7078 8.67661 6.30966 9.05709 6.33926 9.83285C6.36393 10.5048 5.87554 10.9891 5.78674 11.4288C5.45127 11.2707 5.04181 11.0088 4.93328 10.5098C4.82968 10.0503 5.11088 9.5512 5.28354 9.32391C5.64861 8.82979 5.7078 8.67661 5.7078 8.67661ZM19.7923 8.79026C20.1031 9.03238 20.4139 9.30414 20.6951 9.60061C21.1638 10.0898 21.7064 11.0138 21.8988 11.5919C22.106 12.2046 22.0764 12.5357 22.0271 12.59C21.958 12.6592 21.8939 12.4517 21.6176 11.9823C21.1786 11.2312 20.3251 10.574 19.8269 10.2874C19.3829 10.0305 18.8994 9.78838 18.3074 9.63026C18.7415 9.33873 19.2546 9.04226 19.7923 8.79026ZM4.12916 8.79026C4.37089 9.12132 4.61755 9.59567 4.45968 10.1293C4.31169 10.6284 3.96636 10.91 3.56676 11.0978C3.13757 11.3004 2.69357 11.5672 2.69357 11.5672C2.69357 11.5672 2.33837 10.6778 2.8317 9.96132C3.27076 9.32391 3.62596 9.34861 4.12916 8.79026ZM18.8155 10.5197C19.3335 10.5147 19.7282 10.7964 19.7282 10.7964C19.7282 10.7964 19.6197 10.91 19.3434 11.4437C19.2151 11.6907 18.8205 12.1009 18.3715 12.2046C17.893 12.3183 17.3701 12.17 17.0889 11.9427C17.4293 11.5376 17.523 10.9001 18.3518 10.5987C18.5146 10.5444 18.6675 10.5197 18.8155 10.5197ZM11.2183 10.6877C11.9237 10.6827 12.6292 10.7717 13.31 10.9347C14.6716 11.2658 16.043 12.0761 16.9508 12.9853C18.6675 14.7048 19.4421 17.1557 18.9487 20.7034C18.7317 22.2649 18.1693 23.4952 17.6907 24.4241C17.7105 24.4143 17.7302 24.4093 17.7499 24.4044C17.7598 24.3994 17.7697 24.3994 17.7746 24.3945C17.7894 24.3896 17.7993 24.3846 17.8141 24.3846C17.8239 24.3846 17.8289 24.3797 17.8387 24.3797C17.8535 24.3747 17.8683 24.3747 17.8831 24.3698C17.8881 24.3698 17.893 24.3698 17.8979 24.3649H17.9029C17.9177 24.3599 17.9374 24.3599 17.9522 24.3599C17.9571 24.3599 17.967 24.3599 17.9719 24.3599C17.9867 24.3599 17.9966 24.3599 18.0114 24.3599C18.0163 24.3599 18.0213 24.3599 18.0311 24.3599C18.0509 24.3599 18.0657 24.3599 18.0854 24.3599C18.1101 24.3599 18.1347 24.3648 18.1594 24.3698C18.1841 24.3747 18.2087 24.3846 18.2285 24.3896C18.411 24.4587 18.5146 24.6168 18.559 24.7503C18.6281 24.9578 18.5787 25.1752 18.4653 25.3778C18.3962 25.5013 18.3025 25.6199 18.189 25.7336C18.1446 25.778 18.0953 25.8225 18.041 25.867C18.0163 25.8867 17.9867 25.9114 17.9621 25.9312C17.9275 25.9559 17.893 25.9806 17.8634 26.0053C17.8437 26.0201 17.8239 26.03 17.8091 26.0449C17.7943 26.0547 17.7795 26.0646 17.7647 26.0745C17.7549 26.0794 17.745 26.0844 17.7351 26.0943C17.7154 26.1091 17.6907 26.1239 17.671 26.1338C17.6562 26.1437 17.6463 26.1486 17.6315 26.1536C17.6118 26.1634 17.5921 26.1733 17.5773 26.1832C17.5625 26.1881 17.5477 26.198 17.5378 26.203C17.523 26.2128 17.5033 26.2178 17.4885 26.2277C17.4737 26.2376 17.4589 26.2425 17.4391 26.2474C17.4243 26.2524 17.4095 26.2623 17.3997 26.2672C17.3799 26.2771 17.3651 26.282 17.3454 26.287C17.3355 26.2919 17.3257 26.2969 17.3109 26.3018C17.2911 26.3067 17.2763 26.3166 17.2566 26.3216C17.2467 26.3265 17.2369 26.3265 17.227 26.3314C17.2023 26.3413 17.1727 26.3463 17.1481 26.3512C17.1234 26.3561 17.0938 26.366 17.0691 26.371C17.0445 26.3759 17.0149 26.3808 16.9902 26.3858C16.8619 26.4056 16.7386 26.4154 16.6252 26.4154C16.2404 27.0973 15.8506 27.7693 15.4954 28.4265C14.119 30.9663 13.8576 33.1354 14.0648 37.0143C13.0535 36.6437 11.9879 36.4559 10.9124 36.451C9.83696 36.4559 8.77137 36.6437 7.76005 37.0093C7.80938 35.359 8.19911 32.6364 9.16603 30.6451C9.95536 29.0194 10.8976 27.5667 11.7807 26.3611C11.5883 26.3364 11.3959 26.287 11.2084 26.2227C10.7052 26.4698 10.1724 26.3957 9.68403 26.2227C9.18083 26.4698 8.64804 26.3957 8.15964 26.2227C7.76498 26.4154 7.35059 26.4105 6.95592 26.3166V37.5726L6.86219 37.622C6.33926 37.9037 5.841 38.2347 5.38714 38.6201L5.10594 38.8573V26.2277C4.56822 26.4945 4.13409 26.2623 4.03049 25.9559C3.95156 25.7187 3.95649 25.279 4.35609 24.8837C4.51888 24.7256 4.74088 24.5427 5.10594 24.4192V22.9863C5.10594 22.6206 5.40687 22.3192 5.77194 22.3192H6.29486C6.65993 22.3192 6.96086 22.6206 6.96086 22.9863V24.4538C7.18285 24.35 7.42459 24.2808 7.68605 24.2759C8.09058 24.271 8.34711 24.3698 8.49017 24.4538C8.71217 24.35 8.9539 24.2808 9.21043 24.2759C9.61496 24.271 9.87149 24.3698 10.0146 24.4538C10.2366 24.35 10.4783 24.2808 10.7348 24.2759C11.1393 24.271 11.3959 24.3698 11.5389 24.4538C11.7609 24.35 12.0027 24.2808 12.2592 24.2759C12.6637 24.271 12.9203 24.3698 13.0633 24.4538C13.162 24.4044 13.2705 24.3649 13.3791 24.3352C13.4037 24.3056 13.4284 24.2759 13.4481 24.2512C14.4002 23.1098 15.3376 21.746 15.7816 20.1303C16.0578 19.1272 16.1664 17.4521 15.6385 16.034C15.1205 14.6406 14.0894 13.766 12.8117 13.1978C11.6623 12.6888 10.1922 12.6493 8.9983 12.9557C8.02151 13.2077 7.08912 13.6721 6.4626 14.2404C6.00873 14.6505 5.7078 15.031 5.41181 15.4065C5.14048 15.7524 4.98755 16.1328 4.86915 16.0983C4.66195 16.0439 4.93821 14.7839 5.50554 13.9241C6.04327 13.1138 6.75859 12.1157 8.24351 11.3794C9.17097 10.91 10.1922 10.6976 11.2183 10.6877ZM23.6403 11.3152C23.6945 11.3152 23.7488 11.3152 23.8031 11.3201C24.8243 11.4041 25.1203 12.091 25.6235 12.4368C25.3817 12.7778 24.8391 13.099 24.2717 13.1187C23.7439 13.1385 23.1765 12.8025 22.9595 12.5653C22.4859 12.0514 22.333 11.9576 22.333 11.9576C22.333 11.9576 22.8411 11.335 23.6403 11.3152ZM20.3744 11.6611C20.5866 11.6611 20.779 11.7056 20.9516 11.7797C20.6951 12.1898 20.626 12.7481 20.1376 13.2719C19.595 13.8599 18.6133 13.8154 18.6133 13.8154C18.6133 13.8154 18.6626 13.4498 18.8402 12.8519C18.9882 12.3528 19.3286 11.9576 19.7035 11.8044C19.9354 11.7056 20.1623 11.6611 20.3744 11.6611ZM2.57024 12.0514C2.57024 12.0514 2.73797 12.0959 3.39903 12.0811C3.70489 12.0761 4.22289 12.2145 4.55835 12.59C4.91848 12.9952 4.98755 13.4399 4.91355 13.8303C4.31169 13.7314 3.87262 13.8896 3.31516 13.519C2.60971 13.0496 2.57024 12.0514 2.57024 12.0514ZM21.6226 12.9112C21.6374 13.6128 21.8002 13.8797 21.6324 14.6554C21.445 15.53 20.4287 15.9253 20.4287 15.9253C20.4287 15.9253 20.3794 15.6832 20.2166 14.9914C20.0932 14.4726 20.1722 14.0081 20.4682 13.5832C20.7888 13.1138 21.2082 12.9656 21.6226 12.9112ZM22.2639 12.931C22.2639 12.931 22.5599 12.9853 23.1025 13.43C23.4725 13.7364 23.7883 14.2008 23.8721 14.7246C23.9609 15.2879 23.7685 15.9896 23.4824 16.291C23.1765 15.9154 22.4711 15.535 22.2343 14.5368C22.032 13.6721 22.2639 12.931 22.2639 12.931ZM3.0685 13.9143C3.39903 13.9093 3.70983 14.0032 4.00582 14.2107C4.43009 14.5072 4.46462 14.8333 4.54355 15.1841C3.96636 15.2583 3.71969 15.5152 2.90077 15.4213C1.99305 15.3176 1.47998 14.4528 1.47998 14.4528C1.47998 14.4528 1.82531 14.2552 2.24464 14.0921C2.54064 13.9785 2.81197 13.9192 3.0685 13.9143ZM7.56765 14.5517C7.67618 14.5517 7.78965 14.5616 7.89325 14.5813C8.41124 14.69 8.7911 15.2088 8.94404 15.4905C9.2795 16.1032 9.40776 16.2317 9.40776 16.2317C9.40776 16.2317 8.60857 16.6121 7.82418 16.4046C6.94112 16.1773 6.72899 15.4312 6.3294 14.9766C6.58099 14.7592 7.08912 14.5566 7.56765 14.5517ZM3.4977 15.8364C3.77889 15.8364 4.02556 15.8907 4.40049 15.8957C4.40542 16.3107 4.25249 16.7604 3.78876 17.1112C3.35956 17.4373 2.77744 17.4917 2.44691 17.4274C1.73651 17.294 1.54905 17.3138 1.54905 17.3138C1.54905 17.3138 1.83025 16.3008 2.6985 15.9896C3.0389 15.866 3.28063 15.8364 3.4977 15.8364ZM5.77194 15.9451C6.06793 15.9401 6.3886 16.0143 6.76353 16.2663C7.21245 16.5677 7.42459 17.0519 7.40979 17.6992C7.39992 18.1538 7.51832 18.643 7.51832 18.643C7.51832 18.643 6.47246 18.6084 5.91994 17.5905C5.56474 16.9383 5.65354 16.4096 5.47594 15.9747C5.57461 15.955 5.67327 15.9451 5.77194 15.9451ZM4.83955 16.6023C4.83955 16.6023 5.63874 17.3434 5.49074 18.2279C5.36248 19.0136 4.96781 19.3644 4.71128 19.987C4.34622 19.7844 3.86769 19.2211 3.82822 18.6034C3.79369 18.0747 3.99102 17.6943 4.31169 17.299C4.74582 16.7505 4.83955 16.6023 4.83955 16.6023ZM5.767 22.6601C5.58941 22.6601 5.44634 22.7985 5.44634 22.9813V24.3253C5.63874 24.2907 5.8558 24.266 6.11233 24.266C6.3146 24.266 6.4774 24.2907 6.60566 24.3204V22.9764C6.60566 22.7985 6.46753 22.6552 6.285 22.6552H5.767V22.6601ZM6.11233 24.6119C5.16021 24.6119 4.84941 24.8787 4.59782 25.1307C4.28209 25.4371 4.31662 25.7286 4.35609 25.8423C4.38569 25.9263 4.54848 26.1338 4.97768 25.9016C5.20461 25.7533 5.70287 25.3976 6.04327 25.0863C6.12713 25.0072 6.23073 24.9281 6.33433 24.8491C6.40833 24.7898 6.48233 24.7305 6.5662 24.6761C6.4626 24.6416 6.32446 24.6119 6.11233 24.6119ZM7.68112 24.6168C7.16806 24.6267 6.65993 25.0121 6.30473 25.3284C6.03833 25.5656 5.7374 25.7928 5.48087 25.9757C5.84594 26.0696 6.19127 26.0696 6.52673 25.8917C6.75366 25.7434 7.25685 25.3827 7.60218 25.0714C7.74032 24.943 7.91298 24.7997 8.10538 24.6663C7.99685 24.6366 7.86365 24.6168 7.68112 24.6168ZM9.2055 24.6168C8.75657 24.6218 8.31258 24.9183 7.97218 25.2049C7.92285 25.2493 7.87351 25.2938 7.82418 25.3333C7.81925 25.3383 7.80938 25.3432 7.80445 25.3481C7.77485 25.3778 7.74032 25.4025 7.71072 25.4321C7.68112 25.4569 7.65152 25.4816 7.62685 25.5063C7.41965 25.6792 7.20259 25.8423 7.01019 25.9757C7.37032 26.0646 7.71565 26.0696 8.04618 25.8917C8.27311 25.7434 8.7763 25.3827 9.12163 25.0714C9.25977 24.943 9.43243 24.7997 9.62483 24.6663C9.52123 24.6366 9.39296 24.6168 9.2055 24.6168ZM10.7299 24.6168C10.281 24.6218 9.83696 24.9183 9.49656 25.2049C9.44723 25.2493 9.3979 25.2938 9.34857 25.3333C9.34363 25.3383 9.33377 25.3432 9.32883 25.3481C9.29923 25.3778 9.2647 25.4025 9.2351 25.4321C9.2055 25.4569 9.1759 25.4816 9.15123 25.5063C8.94404 25.6792 8.72697 25.8423 8.53457 25.9757C8.8947 26.0646 9.24003 26.0696 9.57056 25.8917C9.79749 25.7434 10.3007 25.3827 10.646 25.0714C10.7841 24.943 10.9568 24.7997 11.1492 24.6663C11.0456 24.6366 10.9173 24.6168 10.7299 24.6168ZM12.2543 24.6168C11.8053 24.6218 11.3613 24.9183 11.0209 25.2049C10.9716 25.2493 10.9223 25.2888 10.8729 25.3333C10.868 25.3333 10.868 25.3383 10.8631 25.3383C10.8285 25.3679 10.7891 25.4025 10.7545 25.4321C10.7299 25.4569 10.7003 25.4766 10.6707 25.5013C10.4635 25.6743 10.2464 25.8373 10.059 25.9707C10.4191 26.0597 10.7644 26.0646 11.0949 25.8867C11.3219 25.7385 11.8251 25.3778 12.1704 25.0665C12.2099 25.0319 12.2493 24.9924 12.2937 24.9578C12.4072 24.859 12.5305 24.7601 12.6736 24.6613C12.5749 24.6366 12.4417 24.6168 12.2543 24.6168ZM13.7786 24.6168C13.7491 24.6168 13.7195 24.6218 13.6849 24.6218C13.6751 24.6218 13.6652 24.6218 13.6603 24.6267C13.6405 24.6317 13.6159 24.6317 13.5961 24.6366C13.5863 24.6366 13.5715 24.6416 13.5616 24.6416C13.5419 24.6465 13.5221 24.6514 13.5073 24.6564C13.4975 24.6613 13.4827 24.6613 13.4728 24.6663C13.4531 24.6712 13.4383 24.6761 13.4185 24.6811C13.4087 24.686 13.3939 24.691 13.384 24.691C13.3643 24.6959 13.3495 24.7058 13.3297 24.7107C13.3199 24.7157 13.31 24.7206 13.2952 24.7256C13.2755 24.7354 13.2557 24.7404 13.2409 24.7503C13.2311 24.7552 13.2212 24.7601 13.2064 24.7651C13.1817 24.775 13.162 24.7848 13.1423 24.7997C13.1373 24.8046 13.1324 24.8046 13.1275 24.8096C13.1176 24.8145 13.1127 24.8194 13.1028 24.8244C13.0831 24.8343 13.0633 24.8441 13.0436 24.859C13.0337 24.8639 13.0239 24.8738 13.014 24.8787C12.9992 24.8886 12.9795 24.8985 12.9647 24.9084C12.9499 24.9183 12.94 24.9232 12.9252 24.9331C12.9104 24.943 12.9005 24.9479 12.8857 24.9578C12.8709 24.9677 12.8561 24.9776 12.8413 24.9874C12.8364 24.9924 12.8265 24.9973 12.8216 25.0023C12.7772 25.0319 12.7377 25.0665 12.6933 25.0961C12.6489 25.1307 12.6045 25.1653 12.5601 25.2049L12.5552 25.2098C12.5059 25.2543 12.4565 25.2938 12.4072 25.3383C12.4023 25.3383 12.4023 25.3432 12.3973 25.3432C12.3628 25.3729 12.3283 25.4074 12.2937 25.4371C12.274 25.4519 12.2543 25.4717 12.2345 25.4865C12.2247 25.4914 12.2197 25.5013 12.2099 25.5063C12.0027 25.6743 11.7856 25.8423 11.5981 25.9757C11.7807 26.0201 11.9583 26.0448 12.1309 26.035C12.1507 26.035 12.1753 26.03 12.1951 26.03C12.2148 26.03 12.2395 26.0251 12.2592 26.0201C12.2641 26.0201 12.274 26.0152 12.2789 26.0152C12.2937 26.0103 12.3085 26.0103 12.3233 26.0053C12.3431 26.0004 12.3677 25.9954 12.3875 25.9905C12.4072 25.9856 12.4269 25.9806 12.4516 25.9707C12.4713 25.9658 12.4911 25.9559 12.5157 25.946C12.5355 25.9361 12.5552 25.9263 12.5799 25.9164C12.5996 25.9065 12.6193 25.8966 12.6391 25.8867C12.866 25.7385 13.3692 25.3778 13.7145 25.0665C13.754 25.0319 13.7984 24.9924 13.8428 24.9529C13.9118 24.8936 13.9908 24.8293 14.0697 24.7651C14.0746 24.7601 14.0746 24.7601 14.0796 24.7552C14.124 24.7206 14.1684 24.691 14.2128 24.6564C14.0993 24.6366 13.9661 24.6168 13.7786 24.6168ZM15.303 24.6168C15.2734 24.6168 15.2438 24.6218 15.2142 24.6218C15.2044 24.6218 15.1945 24.6267 15.1846 24.6267C15.1649 24.6317 15.1452 24.6317 15.1205 24.6366C15.1106 24.6366 15.0958 24.6416 15.086 24.6416C15.0662 24.6465 15.0465 24.6514 15.0317 24.6564C15.0218 24.6613 15.007 24.6613 14.9972 24.6663C14.9774 24.6712 14.9626 24.6761 14.9429 24.6811C14.9281 24.686 14.9182 24.691 14.9034 24.691C14.8837 24.6959 14.8689 24.7058 14.8492 24.7107C14.8393 24.7157 14.8245 24.7206 14.8146 24.7256C14.7949 24.7354 14.7752 24.7404 14.7554 24.7503C14.7456 24.7552 14.7357 24.7601 14.7258 24.7651C14.6962 24.7799 14.6716 24.7898 14.642 24.8046C14.637 24.8096 14.6321 24.8096 14.6222 24.8145C14.5976 24.8244 14.5778 24.8392 14.5532 24.854C14.5433 24.859 14.5334 24.8689 14.5236 24.8738C14.5088 24.8837 14.489 24.8936 14.4742 24.9034C14.4594 24.9133 14.4496 24.9183 14.4348 24.9281C14.42 24.938 14.4101 24.943 14.3953 24.9529C14.3805 24.9627 14.3657 24.9726 14.3509 24.9825C14.341 24.9874 14.3361 24.9924 14.3262 24.9973C14.2818 25.027 14.2374 25.0616 14.198 25.0912C14.1536 25.1258 14.1042 25.1653 14.0598 25.1999C14.0105 25.2444 13.9612 25.2839 13.9118 25.3284C13.9069 25.3333 13.897 25.3383 13.8921 25.3481C13.8625 25.3729 13.8329 25.4025 13.8033 25.4272C13.7984 25.4321 13.7885 25.4371 13.7836 25.442C13.7639 25.4569 13.7441 25.4766 13.7244 25.4914C13.7194 25.4914 13.7195 25.4964 13.7145 25.4964C13.6899 25.5161 13.6652 25.5408 13.6356 25.5606C13.6159 25.5754 13.5961 25.5903 13.5764 25.6051C13.5468 25.6298 13.5172 25.6545 13.4876 25.6743C13.4679 25.6891 13.4481 25.7039 13.4284 25.7187C13.4087 25.7336 13.3889 25.7484 13.3692 25.7632C13.2903 25.8225 13.2113 25.8818 13.1423 25.9312C13.1373 25.9361 13.1324 25.9411 13.1275 25.9411C13.1176 25.946 13.1077 25.9559 13.0979 25.9608C13.1028 25.9608 13.1077 25.9608 13.1127 25.9658C13.1965 25.9856 13.2853 26.0053 13.3692 26.0103C13.5912 26.035 13.8033 26.0152 14.0154 25.9312C14.0352 25.9213 14.0549 25.9164 14.0697 25.9065C14.0697 25.9065 14.0746 25.9065 14.0746 25.9016C14.0944 25.8917 14.1141 25.8818 14.1388 25.8719C14.3657 25.7237 14.8689 25.363 15.2142 25.0517C15.2537 25.0171 15.2981 24.9776 15.3425 24.938C15.4116 24.8787 15.4905 24.8145 15.5694 24.7552C15.5744 24.7503 15.5744 24.7503 15.5793 24.7453C15.6237 24.7107 15.6681 24.6811 15.7125 24.6465C15.6878 24.6416 15.6632 24.6317 15.6336 24.6267C15.6286 24.6267 15.6188 24.6218 15.6089 24.6218C15.5842 24.6168 15.5645 24.6119 15.5398 24.6119C15.5201 24.607 15.4954 24.607 15.4708 24.607C15.456 24.607 15.4412 24.602 15.4264 24.602C15.4214 24.602 15.4214 24.602 15.4165 24.602C15.3918 24.6168 15.3474 24.6168 15.303 24.6168ZM16.8274 24.6168C16.7978 24.6168 16.7682 24.6218 16.7386 24.6218C16.7288 24.6218 16.7189 24.6267 16.709 24.6267C16.6893 24.6317 16.6696 24.6317 16.6498 24.6366C16.64 24.6366 16.6252 24.6416 16.6153 24.6416C16.5956 24.6465 16.5808 24.6514 16.561 24.6564C16.5462 24.6613 16.5364 24.6613 16.5216 24.6663C16.5068 24.6712 16.487 24.6761 16.4722 24.6811C16.4624 24.686 16.4476 24.691 16.4377 24.691C16.418 24.6959 16.4032 24.7058 16.3834 24.7107C16.3736 24.7157 16.3588 24.7206 16.3489 24.7256C16.3292 24.7354 16.3144 24.7404 16.2946 24.7503C16.2848 24.7552 16.27 24.7601 16.2601 24.7651C16.2305 24.7799 16.2058 24.7898 16.1762 24.8046C16.1664 24.8096 16.1565 24.8145 16.1466 24.8194C16.1269 24.8293 16.1072 24.8392 16.0924 24.8491C16.0825 24.854 16.0677 24.8639 16.0578 24.8688C16.043 24.8787 16.0282 24.8886 16.0134 24.8985C15.9986 24.9084 15.9838 24.9183 15.969 24.9281C15.9592 24.9331 15.9493 24.943 15.9345 24.9479C15.9197 24.9578 15.9049 24.9677 15.8901 24.9776C15.8802 24.9825 15.8753 24.9874 15.8654 24.9924C15.821 25.022 15.7816 25.0566 15.7372 25.0863C15.6878 25.1208 15.6434 25.1604 15.599 25.195C15.5497 25.2394 15.5004 25.279 15.451 25.3234C15.4461 25.3284 15.4362 25.3333 15.4313 25.3383C15.4264 25.3432 15.4264 25.3432 15.4214 25.3481C15.3918 25.3729 15.3672 25.3976 15.3376 25.4223C15.308 25.447 15.2784 25.4717 15.2537 25.4964C15.1501 25.5804 15.0465 25.6644 14.9429 25.7434C14.8886 25.783 14.8393 25.8225 14.79 25.8571C14.7406 25.8966 14.6913 25.9312 14.642 25.9658C14.8245 26.0103 15.0021 26.035 15.1748 26.0251C15.1945 26.0251 15.2192 26.0201 15.2389 26.0201C15.2586 26.0201 15.2833 26.0152 15.303 26.0103C15.308 26.0103 15.3178 26.0053 15.3228 26.0053C15.3376 26.0004 15.3524 26.0004 15.3672 25.9954C15.3869 25.9905 15.4116 25.9856 15.4313 25.9806C15.451 25.9757 15.4708 25.9707 15.4954 25.9608C15.5152 25.9559 15.5349 25.946 15.5596 25.9361C15.5793 25.9263 15.599 25.9164 15.6237 25.9065C15.6434 25.8966 15.6632 25.8867 15.6878 25.8769C15.7372 25.8472 15.8013 25.7978 15.8704 25.7533C15.9148 25.7237 15.9592 25.694 16.0036 25.6594C16.1318 25.5656 16.2749 25.4618 16.413 25.3531C16.4673 25.3037 16.5216 25.2592 16.5808 25.2098C16.5906 25.1999 16.6054 25.19 16.6153 25.1801C16.6646 25.1406 16.714 25.0961 16.7682 25.0566C16.7732 25.0566 16.7732 25.0517 16.7781 25.0517L16.783 25.0467C16.8176 25.0171 16.8521 24.9874 16.8866 24.9578C16.8916 24.9529 16.8965 24.9529 16.8965 24.9479C16.931 24.9183 16.9705 24.8886 17.005 24.859C17.0099 24.854 17.0149 24.854 17.0149 24.8491C17.0543 24.8194 17.0938 24.7898 17.1333 24.7601C17.1777 24.7256 17.2221 24.6959 17.2714 24.6663C17.1629 24.6416 17.0247 24.6168 16.8274 24.6168ZM18.0065 24.7008C17.9917 24.7008 17.9769 24.7008 17.9621 24.7058C17.8979 24.7157 17.8141 24.7453 17.7055 24.7997C17.6562 24.8293 17.5921 24.8738 17.523 24.9232C17.3651 25.0319 17.1727 25.1752 16.9803 25.3284C16.9803 25.3284 16.9754 25.3284 16.9754 25.3333C16.9212 25.3827 16.8619 25.4321 16.8028 25.4816C16.7978 25.4865 16.7929 25.4865 16.788 25.4914C16.7288 25.5408 16.6696 25.5853 16.6104 25.6347C16.5758 25.6644 16.5413 25.694 16.5018 25.7237C16.5018 25.7237 16.4969 25.7286 16.492 25.7286C16.4574 25.7583 16.418 25.7879 16.3834 25.8176C16.3736 25.8225 16.3686 25.8274 16.3588 25.8373C16.3242 25.862 16.2897 25.8867 16.2552 25.9114C16.2108 25.9411 16.1664 25.9757 16.122 26.0053C16.2354 26.035 16.3834 26.0646 16.6005 26.0646C16.931 26.0646 17.2517 26.03 17.7499 25.6496C17.9423 25.5063 18.0854 25.3432 18.1643 25.2049C18.2433 25.0665 18.2581 24.943 18.2285 24.854C18.2087 24.7898 18.1693 24.7354 18.1002 24.7058C18.0903 24.7008 18.0755 24.7008 18.0607 24.6959C18.0558 24.6959 18.0509 24.6959 18.041 24.691C18.0361 24.691 18.0361 24.691 18.0311 24.691C18.0311 24.7008 18.0213 24.7008 18.0065 24.7008ZM6.60566 26.2376C6.22087 26.4154 5.8262 26.4105 5.44634 26.3265V38.1409C5.8114 37.8592 6.1962 37.5973 6.60566 37.375V26.2376ZM10.9075 37.6467C14.2818 37.6517 17.2961 39.7665 18.4455 42.9486C16.3538 41.1352 13.6751 40.1321 10.9075 40.1321C8.13498 40.1371 5.46114 41.1401 3.36943 42.9585C4.51395 39.7714 7.52818 37.6517 10.9075 37.6467Z" fill="white"/>
</svg>
