<svg width="27" height="42" viewBox="0 0 27 42" fill="none" xmlns="http://www.w3.org/2000/svg">
<path fill-rule="evenodd" clip-rule="evenodd" d="M8.98112 0C9.04032 0.765882 9.39058 1.24518 9.16859 1.96165C8.90219 2.81647 8.30526 3.25624 8.30526 3.25624C8.30526 3.25624 8.17206 3.192 7.84647 2.57435C7.69354 2.28776 7.56527 1.57624 7.75767 1.08212C7.9698 0.548471 8.58153 0.113647 8.98112 0ZM13.3323 0.632471C13.3323 0.632471 13.4951 0.711529 14.1808 0.835059C14.5015 0.889412 15.0688 1.10682 15.3796 1.53671C15.7397 2.03576 15.6805 2.67318 15.5276 3.06353C14.8863 2.63859 14.3732 2.78188 13.7763 2.25812C13.1103 1.66518 13.3323 0.632471 13.3323 0.632471ZM18.1126 0.820235C18.1126 0.820235 18.4728 1.71953 17.9252 2.42118C17.4368 3.04871 17.0766 3.14259 16.529 3.47859C16.3021 3.12776 16.0801 2.62871 16.2725 2.09506C16.4501 1.596 17.0174 1.29459 17.3184 1.18094C17.9696 0.928941 18.1126 0.820235 18.1126 0.820235ZM5.83369 1.98141C6.05569 1.98635 6.28262 2.02094 6.47995 2.10494C6.96834 2.31247 7.23967 2.89059 7.33834 3.19694C7.55047 3.85906 7.65407 4.01224 7.65407 4.01224C7.65407 4.01224 6.79568 4.39765 6.06555 3.88376C5.52783 3.50329 5.17756 2.72259 4.86677 2.19388C5.0937 2.06541 5.46369 1.97647 5.83369 1.98141ZM10.7916 2.37176C11.0876 2.37176 11.2998 2.44094 11.2998 2.44094C11.2998 2.44094 11.1962 2.58918 10.9643 3.24635C10.8558 3.55271 10.5696 4.12094 10.0763 4.31365C9.54845 4.52118 9.04525 4.30871 8.69006 4.09129C9.21299 3.528 9.15379 3.22659 9.76551 2.72259C10.1108 2.44588 10.4956 2.37176 10.7916 2.37176ZM21.8372 2.51506C21.8372 2.51506 22.3306 3.49341 21.9803 4.31859C21.6695 5.04988 21.1318 5.376 20.8309 5.82565C20.525 5.544 20.303 5.11412 20.2833 4.54094C20.2685 4.09129 20.5201 3.56259 20.9591 3.18706C21.487 2.73247 21.8372 2.51506 21.8372 2.51506ZM19.3114 2.55459C19.3558 2.55459 19.3953 2.55459 19.4397 2.55459C19.8639 2.56447 20.1945 2.67318 20.1945 2.67318C20.1945 2.67318 20.0514 3.08329 19.8146 3.50329C19.4347 4.18024 19.0647 4.452 18.3642 4.47177C17.7969 4.48659 17.4269 4.30376 17.1112 4.03694C17.5453 3.58729 17.713 3.19694 18.3938 2.79176C18.6799 2.61882 19.0154 2.55953 19.3114 2.55459ZM13.7861 3.23153C13.8404 3.23153 13.8947 3.23153 13.9489 3.23647C14.7383 3.31553 14.8912 3.64165 15.6361 3.81953C15.4585 4.19506 15.1625 4.65459 14.6051 4.77812C14.0871 4.89176 13.3224 4.75341 12.9573 4.48659C12.5627 4.20494 12.2568 3.89365 12.2568 3.89365C12.2568 3.89365 12.9672 3.24141 13.7861 3.23153ZM15.8877 3.36494C15.9666 3.36988 16.2084 3.51318 16.529 3.91341C16.8546 4.31859 17.2641 5.12894 17.3973 5.68729C17.4368 5.84541 17.4664 6.00847 17.496 6.16659C17.1556 6.27529 16.83 6.39388 16.5438 6.52235C16.5142 6.53718 16.4896 6.54706 16.46 6.56188C16.4846 6.36424 16.4994 6.17647 16.5093 5.98871C16.534 5.49953 16.455 4.59035 16.1196 3.92824C15.9124 3.51812 15.794 3.37482 15.8729 3.36C15.8778 3.36494 15.8828 3.36494 15.8877 3.36494ZM24.442 3.65153C24.442 3.65153 24.4963 4.74353 23.776 5.27224C23.1347 5.74165 22.8338 5.70212 22.1826 5.97388C22.0642 5.57365 22.0296 5.13388 22.3207 4.64471C22.5871 4.2 22.9768 3.93812 23.4998 3.83929C24.2003 3.70588 24.442 3.65153 24.442 3.65153ZM8.2806 3.72565C8.3694 3.73553 8.2954 4.00729 8.24606 4.63482C8.1622 5.71694 8.56673 6.99671 8.86766 7.63906C9.10445 8.14306 9.38072 8.66682 9.77538 9.18071C9.22285 9.30424 8.68019 9.492 8.15726 9.75388C8.1178 9.77365 8.08327 9.79341 8.04873 9.80824C7.807 9.17082 7.60474 8.45435 7.49127 7.72306C7.36301 6.888 7.46661 5.56377 7.67874 4.83247C7.90567 4.06165 8.17206 3.74047 8.26086 3.72071C8.27073 3.72565 8.27566 3.72071 8.2806 3.72565ZM5.67089 4.41741C5.79422 4.41741 5.93236 4.42729 6.07542 4.452C6.95848 4.57553 7.32354 5.39082 7.32354 5.39082C7.32354 5.39082 7.14594 5.41059 6.50462 5.68729C6.20862 5.81576 5.59196 5.99365 5.11836 5.75647C4.6053 5.50447 4.20077 4.94612 4.11691 4.54094C4.74343 4.54588 5.12823 4.41247 5.67089 4.41741ZM10.5894 4.61506C11.428 4.60518 12.2618 5.03506 12.2618 5.03506C12.2618 5.03506 11.6994 5.45012 11.3688 5.70212C10.91 6.05788 10.3723 6.17647 9.84445 6.10235C9.28205 6.02824 8.89232 5.68235 8.68513 5.32165C9.44485 4.96588 9.58298 4.69412 10.4216 4.61506C10.4759 4.62 10.5351 4.62 10.5894 4.61506ZM16.016 5.13388C16.0554 5.54894 15.8532 6.25553 15.4388 6.64588C15.054 7.00659 14.4127 7.02141 14.092 6.98682C13.4013 6.91271 13.2188 6.94235 13.2188 6.94235C13.2188 6.94235 13.3076 6.12706 13.9835 5.544C14.6791 4.94612 15.4141 5.20306 16.016 5.13388ZM2.53333 5.23765C2.80959 5.23765 3.11545 5.28706 3.37692 5.43035C3.91464 5.73176 4.13664 6.32965 4.15637 6.74965C3.39665 6.636 3.00199 6.81388 2.24226 6.59153C1.38387 6.33953 1.13721 5.48471 1.13721 5.48471C1.13721 5.48471 1.31974 5.48965 1.99066 5.30682C2.1288 5.26729 2.32119 5.23765 2.53333 5.23765ZM25.1524 5.712C25.8628 5.70706 26.366 6.03812 26.7459 6.12706C26.6028 6.51741 26.0552 6.99671 25.5125 7.16471C25.0044 7.32282 24.4519 7.23882 24.0128 7.04118C23.3764 6.74965 23.1988 6.50753 23.1988 6.50753C23.1988 6.50753 23.7612 5.97388 24.6295 5.77129C24.812 5.73177 24.9896 5.71694 25.1524 5.712ZM20.9542 6.09247C22.148 6.10729 22.7104 6.35929 22.7746 6.47788C22.8584 6.64094 22.4539 6.62612 21.4673 6.81882C19.8837 7.13012 18.2212 8.22212 17.417 8.91388C16.9484 9.31906 16.4797 9.75388 16.0357 10.2678C15.35 9.81318 14.5755 9.45247 13.7417 9.24988C13.5888 9.21035 13.4359 9.18071 13.2829 9.15106C14.24 8.37035 15.4388 7.56494 16.7461 6.972C17.8857 6.46306 19.8245 6.07765 20.9542 6.09247ZM10.7867 6.46306C11.3392 6.45318 11.6846 6.64094 11.9855 6.85835C12.5528 7.26847 12.7649 7.49082 12.7649 7.49082C12.7649 7.49082 12.0102 7.94047 11.1271 8.03435C10.3822 8.11341 9.98751 7.67365 9.24259 7.46612C9.43498 7.09553 9.97271 6.54706 10.54 6.47788C10.6239 6.468 10.7078 6.46306 10.7867 6.46306ZM6.45035 6.60635C6.61808 6.60635 6.78088 6.61624 6.94368 6.62612C6.93381 7.01153 6.95354 7.38706 6.99794 7.72306C6.70688 7.60941 6.42075 7.53529 6.14449 7.47106C5.71036 7.37718 4.87663 7.308 4.23037 7.51059C3.83078 7.63906 3.68278 7.72306 3.67785 7.644C3.67785 7.58965 3.83571 7.38212 4.26984 7.13506C4.68424 6.90282 5.47356 6.65576 6.00142 6.61624C6.15435 6.60635 6.30235 6.60141 6.45035 6.60635ZM22.2763 6.96706C22.2763 6.96706 22.4243 7.07082 23.0854 7.29318C23.3912 7.39694 23.929 7.77741 24.1263 8.26659C24.3384 8.79529 24.2694 9.42282 24.0572 9.77859C23.5392 9.46235 22.7894 9.47224 22.296 8.57294C21.8668 7.79224 22.2763 6.96706 22.2763 6.96706ZM1.76867 7.26847C2.08933 7.26847 2.39519 7.34259 2.58266 7.42165C3.22892 7.68847 3.40652 7.70824 3.40652 7.70824C3.40652 7.70824 3.05625 8.52847 2.1732 8.66682C1.3888 8.79035 1.02374 8.56306 0.25415 8.58282C0.32815 8.17271 0.619213 7.60447 1.19641 7.37224C1.374 7.29812 1.57134 7.26847 1.76867 7.26847ZM5.96196 7.71812C5.96196 7.71812 6.56382 8.09859 6.59341 8.87435C6.61808 9.54635 6.12969 10.0306 6.04089 10.4704C5.70542 10.3122 5.29596 10.0504 5.18743 9.55129C5.08383 9.09177 5.36503 8.59271 5.53769 8.36541C5.90276 7.87129 5.96196 7.71812 5.96196 7.71812ZM20.0465 7.83177C20.3573 8.07388 20.6681 8.34565 20.9493 8.64212C21.4179 9.13129 21.9606 10.0553 22.153 10.6334C22.3602 11.2461 22.3306 11.5772 22.2812 11.6315C22.2122 11.7007 22.148 11.4932 21.8718 11.0238C21.4327 10.2727 20.5793 9.61553 20.081 9.32894C19.637 9.072 19.1535 8.82988 18.5616 8.67177C18.9957 8.38024 19.5087 8.08377 20.0465 7.83177ZM4.38331 7.83177C4.62504 8.16282 4.8717 8.63718 4.71384 9.17082C4.56584 9.66988 4.22051 9.95153 3.82091 10.1393C3.39172 10.3419 2.94772 10.6087 2.94772 10.6087C2.94772 10.6087 2.59253 9.71929 3.08585 9.00282C3.52491 8.36541 3.88011 8.39012 4.38331 7.83177ZM19.0697 9.56118C19.5877 9.55624 19.9823 9.83788 19.9823 9.83788C19.9823 9.83788 19.8738 9.95153 19.5975 10.4852C19.4693 10.7322 19.0746 11.1424 18.6257 11.2461C18.1472 11.3598 17.6242 11.2115 17.343 10.9842C17.6834 10.5791 17.7772 9.94165 18.606 9.64024C18.7687 9.58588 18.9217 9.56118 19.0697 9.56118ZM11.4724 9.72918C12.1779 9.72424 12.8833 9.81318 13.5641 9.97624C14.9257 10.3073 16.2972 11.1176 17.2049 12.0268C18.9217 13.7464 19.6962 16.1972 19.2029 19.7449C18.9858 21.3064 18.4234 22.5367 17.9449 23.4656C17.9646 23.4558 17.9844 23.4508 18.0041 23.4459C18.014 23.4409 18.0238 23.4409 18.0288 23.436C18.0436 23.4311 18.0534 23.4261 18.0682 23.4261C18.0781 23.4261 18.083 23.4212 18.0929 23.4212C18.1077 23.4162 18.1225 23.4162 18.1373 23.4113C18.1422 23.4113 18.1472 23.4113 18.1521 23.4064H18.157C18.1718 23.4014 18.1916 23.4014 18.2064 23.4014C18.2113 23.4014 18.2212 23.4014 18.2261 23.4014C18.2409 23.4014 18.2508 23.4014 18.2656 23.4014C18.2705 23.4014 18.2754 23.4014 18.2853 23.4014C18.305 23.4014 18.3198 23.4014 18.3396 23.4014C18.3642 23.4014 18.3889 23.4064 18.4136 23.4113C18.4382 23.4162 18.4629 23.4261 18.4826 23.4311C18.6651 23.5002 18.7687 23.6584 18.8131 23.7918C18.8822 23.9993 18.8329 24.2167 18.7194 24.4193C18.6504 24.5428 18.5566 24.6614 18.4432 24.7751C18.3988 24.8195 18.3494 24.864 18.2952 24.9085C18.2705 24.9282 18.2409 24.9529 18.2162 24.9727C18.1817 24.9974 18.1472 25.0221 18.1176 25.0468C18.0978 25.0616 18.0781 25.0715 18.0633 25.0864C18.0485 25.0962 18.0337 25.1061 18.0189 25.116C18.009 25.1209 17.9992 25.1259 17.9893 25.1358C17.9696 25.1506 17.9449 25.1654 17.9252 25.1753C17.9104 25.1852 17.9005 25.1901 17.8857 25.1951C17.866 25.2049 17.8462 25.2148 17.8314 25.2247C17.8166 25.2296 17.8018 25.2395 17.792 25.2445C17.7772 25.2544 17.7574 25.2593 17.7426 25.2692C17.7278 25.2791 17.713 25.284 17.6933 25.2889C17.6785 25.2939 17.6637 25.3038 17.6538 25.3087C17.6341 25.3186 17.6193 25.3235 17.5996 25.3285C17.5897 25.3334 17.5798 25.3384 17.565 25.3433C17.5453 25.3482 17.5305 25.3581 17.5108 25.3631C17.5009 25.368 17.491 25.368 17.4812 25.3729C17.4565 25.3828 17.4269 25.3878 17.4022 25.3927C17.3776 25.3976 17.348 25.4075 17.3233 25.4125C17.2986 25.4174 17.269 25.4224 17.2444 25.4273C17.1161 25.4471 16.9928 25.4569 16.8793 25.4569C16.4945 26.1388 16.1048 26.8108 15.7496 27.468C14.3732 30.0078 14.1117 32.1769 14.3189 36.0558C13.3076 35.6852 12.242 35.4974 11.1666 35.4925C10.0911 35.4974 9.02552 35.6852 8.0142 36.0508C8.06353 34.4005 8.45326 31.6779 9.42018 29.6866C10.2095 28.0609 11.1518 26.6082 12.0348 25.4026C11.8424 25.3779 11.65 25.3285 11.4626 25.2642C10.9594 25.5113 10.4266 25.4372 9.93818 25.2642C9.43498 25.5113 8.90219 25.4372 8.41379 25.2642C8.01913 25.4569 7.60474 25.452 7.21007 25.3581V36.6141L7.11634 36.6635C6.59341 36.9452 6.09515 37.2762 5.64129 37.6616L5.3601 37.8988V25.2692C4.82237 25.536 4.38824 25.3038 4.28464 24.9974C4.20571 24.7602 4.21064 24.3205 4.61024 23.9252C4.77303 23.7671 4.99503 23.5842 5.3601 23.4607V22.0278C5.3601 21.6621 5.66103 21.3607 6.02609 21.3607H6.54902C6.91408 21.3607 7.21501 21.6621 7.21501 22.0278V23.4953C7.43701 23.3915 7.67874 23.3224 7.9402 23.3174C8.34473 23.3125 8.60126 23.4113 8.74432 23.4953C8.96632 23.3915 9.20805 23.3224 9.46458 23.3174C9.86911 23.3125 10.1256 23.4113 10.2687 23.4953C10.4907 23.3915 10.7324 23.3224 10.989 23.3174C11.3935 23.3125 11.65 23.4113 11.7931 23.4953C12.0151 23.3915 12.2568 23.3224 12.5134 23.3174C12.9179 23.3125 13.1744 23.4113 13.3175 23.4953C13.4161 23.4459 13.5247 23.4064 13.6332 23.3767C13.6579 23.3471 13.6825 23.3174 13.7023 23.2927C14.6544 22.1513 15.5917 20.7875 16.0357 19.1718C16.312 18.1687 16.4205 16.4936 15.8926 15.0755C15.3747 13.6821 14.3436 12.8075 13.0659 12.2393C11.9164 11.7304 10.4463 11.6908 9.25245 11.9972C8.27566 12.2492 7.34327 12.7136 6.71675 13.2819C6.26289 13.692 5.96196 14.0725 5.66596 14.448C5.39463 14.7939 5.2417 15.1744 5.1233 15.1398C4.9161 15.0854 5.19236 13.8254 5.75969 12.9656C6.29742 12.1553 7.01274 11.1572 8.49766 10.4209C9.42512 9.95153 10.4463 9.73906 11.4724 9.72918ZM23.8944 10.3567C23.9487 10.3567 24.003 10.3567 24.0572 10.3616C25.0784 10.4456 25.3744 11.1325 25.8776 11.4784C25.6359 11.8193 25.0932 12.1405 24.5259 12.1602C23.998 12.18 23.4307 11.844 23.2136 11.6068C22.74 11.0929 22.5871 10.9991 22.5871 10.9991C22.5871 10.9991 23.0952 10.3765 23.8944 10.3567ZM20.6286 10.7026C20.8407 10.7026 21.0331 10.7471 21.2058 10.8212C20.9493 11.2313 20.8802 11.7896 20.3918 12.3134C19.8491 12.9014 18.8674 12.8569 18.8674 12.8569C18.8674 12.8569 18.9167 12.4913 19.0943 11.8934C19.2423 11.3944 19.5827 10.9991 19.9577 10.8459C20.1895 10.7471 20.4165 10.7026 20.6286 10.7026ZM2.82439 11.0929C2.82439 11.0929 2.99212 11.1374 3.65318 11.1226C3.95904 11.1176 4.47704 11.256 4.8125 11.6315C5.17263 12.0367 5.2417 12.4814 5.1677 12.8718C4.56584 12.7729 4.12678 12.9311 3.56931 12.5605C2.86386 12.0911 2.82439 11.0929 2.82439 11.0929ZM21.8767 11.9527C21.8915 12.6544 22.0543 12.9212 21.8866 13.6969C21.6991 14.5715 20.6829 14.9668 20.6829 14.9668C20.6829 14.9668 20.6335 14.7247 20.4707 14.0329C20.3474 13.5141 20.4263 13.0496 20.7223 12.6247C21.043 12.1553 21.4623 12.0071 21.8767 11.9527ZM22.518 11.9725C22.518 11.9725 22.814 12.0268 23.3567 12.4715C23.7267 12.7779 24.0424 13.2424 24.1263 13.7661C24.2151 14.3294 24.0227 15.0311 23.7366 15.3325C23.4307 14.9569 22.7252 14.5765 22.4884 13.5784C22.2862 12.7136 22.518 11.9725 22.518 11.9725ZM3.32265 12.9558C3.65318 12.9508 3.96398 13.0447 4.25997 13.2522C4.68424 13.5487 4.71877 13.8748 4.7977 14.2256C4.22051 14.2998 3.97384 14.5567 3.15492 14.4628C2.2472 14.3591 1.73413 13.4944 1.73413 13.4944C1.73413 13.4944 2.07946 13.2967 2.49879 13.1336C2.79479 13.02 3.06612 12.9607 3.32265 12.9558ZM7.8218 13.5932C7.93033 13.5932 8.0438 13.6031 8.1474 13.6228C8.66539 13.7315 9.04525 14.2504 9.19819 14.532C9.53365 15.1447 9.66191 15.2732 9.66191 15.2732C9.66191 15.2732 8.86272 15.6536 8.07833 15.4461C7.19527 15.2188 6.98314 14.4727 6.58355 14.0181C6.83514 13.8007 7.34327 13.5981 7.8218 13.5932ZM3.75185 14.8779C4.03304 14.8779 4.27971 14.9322 4.65464 14.9372C4.65957 15.3522 4.50664 15.8019 4.04291 16.1527C3.61371 16.4788 3.03159 16.5332 2.70106 16.4689C1.99066 16.3355 1.8032 16.3553 1.8032 16.3553C1.8032 16.3553 2.0844 15.3424 2.95265 15.0311C3.29305 14.9075 3.53478 14.8779 3.75185 14.8779ZM6.02609 14.9866C6.32208 14.9816 6.64275 15.0558 7.01768 15.3078C7.46661 15.6092 7.67874 16.0934 7.66394 16.7407C7.65407 17.1953 7.77247 17.6845 7.77247 17.6845C7.77247 17.6845 6.72661 17.6499 6.17409 16.632C5.81889 15.9798 5.90769 15.4511 5.73009 15.0162C5.82876 14.9965 5.92742 14.9866 6.02609 14.9866ZM5.0937 15.6438C5.0937 15.6438 5.89289 16.3849 5.74489 17.2694C5.61663 18.0551 5.22196 18.4059 4.96543 19.0285C4.60037 18.8259 4.12184 18.2626 4.08238 17.6449C4.04784 17.1162 4.24517 16.7358 4.56584 16.3405C4.99997 15.792 5.0937 15.6438 5.0937 15.6438ZM6.02115 21.7016C5.84356 21.7016 5.70049 21.84 5.70049 22.0228V23.3668C5.89289 23.3322 6.10995 23.3075 6.36648 23.3075C6.56875 23.3075 6.73155 23.3322 6.85981 23.3619V22.0179C6.85981 21.84 6.72168 21.6967 6.53915 21.6967H6.02115V21.7016ZM6.36648 23.6534C5.41436 23.6534 5.10356 23.9202 4.85197 24.1722C4.53624 24.4786 4.57077 24.7701 4.61024 24.8838C4.63984 24.9678 4.80263 25.1753 5.23183 24.9431C5.45876 24.7948 5.95702 24.4391 6.29742 24.1278C6.38128 24.0487 6.48488 23.9696 6.58848 23.8906C6.66248 23.8313 6.73648 23.772 6.82035 23.7176C6.71675 23.6831 6.57862 23.6534 6.36648 23.6534ZM7.93527 23.6584C7.42221 23.6682 6.91408 24.0536 6.55888 24.3699C6.29248 24.6071 5.99155 24.8344 5.73502 25.0172C6.10009 25.1111 6.44542 25.1111 6.78088 24.9332C7.00781 24.7849 7.511 24.4242 7.85633 24.1129C7.99447 23.9845 8.16713 23.8412 8.35953 23.7078C8.251 23.6781 8.1178 23.6584 7.93527 23.6584ZM9.45965 23.6584C9.01072 23.6633 8.56673 23.9598 8.22633 24.2464C8.177 24.2908 8.12766 24.3353 8.07833 24.3748C8.0734 24.3798 8.06353 24.3847 8.0586 24.3896C8.029 24.4193 7.99447 24.444 7.96487 24.4736C7.93527 24.4984 7.90567 24.5231 7.881 24.5478C7.6738 24.7207 7.45674 24.8838 7.26434 25.0172C7.62447 25.1061 7.9698 25.1111 8.30033 24.9332C8.52726 24.7849 9.03045 24.4242 9.37578 24.1129C9.51392 23.9845 9.68658 23.8412 9.87898 23.7078C9.77538 23.6781 9.64711 23.6584 9.45965 23.6584ZM10.984 23.6584C10.5351 23.6633 10.0911 23.9598 9.75071 24.2464C9.70138 24.2908 9.65205 24.3353 9.60272 24.3748C9.59778 24.3798 9.58792 24.3847 9.58298 24.3896C9.55338 24.4193 9.51885 24.444 9.48925 24.4736C9.45965 24.4984 9.43005 24.5231 9.40538 24.5478C9.19819 24.7207 8.98112 24.8838 8.78872 25.0172C9.14885 25.1061 9.49418 25.1111 9.82471 24.9332C10.0516 24.7849 10.5548 24.4242 10.9002 24.1129C11.0383 23.9845 11.211 23.8412 11.4034 23.7078C11.2998 23.6781 11.1715 23.6584 10.984 23.6584ZM12.5084 23.6584C12.0595 23.6633 11.6155 23.9598 11.2751 24.2464C11.2258 24.2908 11.1764 24.3304 11.1271 24.3748C11.1222 24.3748 11.1222 24.3798 11.1172 24.3798C11.0827 24.4094 11.0432 24.444 11.0087 24.4736C10.984 24.4984 10.9544 24.5181 10.9248 24.5428C10.7176 24.7158 10.5006 24.8788 10.3131 25.0122C10.6732 25.1012 11.0186 25.1061 11.3491 24.9282C11.576 24.78 12.0792 24.4193 12.4246 24.108C12.464 24.0734 12.5035 24.0339 12.5479 23.9993C12.6613 23.9005 12.7847 23.8016 12.9277 23.7028C12.8291 23.6781 12.6959 23.6584 12.5084 23.6584ZM14.0328 23.6584C14.0032 23.6584 13.9736 23.6633 13.9391 23.6633C13.9292 23.6633 13.9193 23.6633 13.9144 23.6682C13.8947 23.6732 13.87 23.6732 13.8503 23.6781C13.8404 23.6781 13.8256 23.6831 13.8157 23.6831C13.796 23.688 13.7763 23.6929 13.7615 23.6979C13.7516 23.7028 13.7368 23.7028 13.7269 23.7078C13.7072 23.7127 13.6924 23.7176 13.6727 23.7226C13.6628 23.7275 13.648 23.7325 13.6381 23.7325C13.6184 23.7374 13.6036 23.7473 13.5839 23.7522C13.574 23.7572 13.5641 23.7621 13.5493 23.7671C13.5296 23.7769 13.5099 23.7819 13.4951 23.7918C13.4852 23.7967 13.4753 23.8016 13.4605 23.8066C13.4359 23.8165 13.4161 23.8264 13.3964 23.8412C13.3915 23.8461 13.3865 23.8461 13.3816 23.8511C13.3717 23.856 13.3668 23.8609 13.3569 23.8659C13.3372 23.8758 13.3175 23.8856 13.2977 23.9005C13.2879 23.9054 13.278 23.9153 13.2681 23.9202C13.2533 23.9301 13.2336 23.94 13.2188 23.9499C13.204 23.9598 13.1941 23.9647 13.1793 23.9746C13.1645 23.9845 13.1547 23.9894 13.1399 23.9993C13.1251 24.0092 13.1103 24.0191 13.0955 24.0289C13.0905 24.0339 13.0807 24.0388 13.0757 24.0438C13.0313 24.0734 12.9919 24.108 12.9475 24.1376C12.9031 24.1722 12.8587 24.2068 12.8143 24.2464L12.8093 24.2513C12.76 24.2958 12.7107 24.3353 12.6613 24.3798C12.6564 24.3798 12.6564 24.3847 12.6515 24.3847C12.6169 24.4144 12.5824 24.4489 12.5479 24.4786C12.5282 24.4934 12.5084 24.5132 12.4887 24.528C12.4788 24.5329 12.4739 24.5428 12.464 24.5478C12.2568 24.7158 12.0398 24.8838 11.8523 25.0172C12.0348 25.0616 12.2124 25.0864 12.3851 25.0765C12.4048 25.0765 12.4295 25.0715 12.4492 25.0715C12.469 25.0715 12.4936 25.0666 12.5134 25.0616C12.5183 25.0616 12.5282 25.0567 12.5331 25.0567C12.5479 25.0518 12.5627 25.0518 12.5775 25.0468C12.5972 25.0419 12.6219 25.0369 12.6416 25.032C12.6613 25.0271 12.6811 25.0221 12.7057 25.0122C12.7255 25.0073 12.7452 24.9974 12.7699 24.9875C12.7896 24.9776 12.8093 24.9678 12.834 24.9579C12.8537 24.948 12.8735 24.9381 12.8932 24.9282C13.1201 24.78 13.6233 24.4193 13.9687 24.108C14.0081 24.0734 14.0525 24.0339 14.0969 23.9944C14.166 23.9351 14.2449 23.8708 14.3239 23.8066C14.3288 23.8016 14.3288 23.8016 14.3337 23.7967C14.3781 23.7621 14.4225 23.7325 14.4669 23.6979C14.3535 23.6781 14.2203 23.6584 14.0328 23.6584ZM15.5572 23.6584C15.5276 23.6584 15.498 23.6633 15.4684 23.6633C15.4585 23.6633 15.4487 23.6682 15.4388 23.6682C15.4191 23.6732 15.3993 23.6732 15.3747 23.6781C15.3648 23.6781 15.35 23.6831 15.3401 23.6831C15.3204 23.688 15.3007 23.6929 15.2859 23.6979C15.276 23.7028 15.2612 23.7028 15.2513 23.7078C15.2316 23.7127 15.2168 23.7176 15.1971 23.7226C15.1823 23.7275 15.1724 23.7325 15.1576 23.7325C15.1379 23.7374 15.1231 23.7473 15.1033 23.7522C15.0935 23.7572 15.0787 23.7621 15.0688 23.7671C15.0491 23.7769 15.0293 23.7819 15.0096 23.7918C14.9997 23.7967 14.9899 23.8016 14.98 23.8066C14.9504 23.8214 14.9257 23.8313 14.8961 23.8461C14.8912 23.8511 14.8863 23.8511 14.8764 23.856C14.8517 23.8659 14.832 23.8807 14.8073 23.8955C14.7975 23.9005 14.7876 23.9104 14.7777 23.9153C14.7629 23.9252 14.7432 23.9351 14.7284 23.9449C14.7136 23.9548 14.7037 23.9598 14.6889 23.9696C14.6741 23.9795 14.6643 23.9845 14.6495 23.9944C14.6347 24.0042 14.6199 24.0141 14.6051 24.024C14.5952 24.0289 14.5903 24.0339 14.5804 24.0388C14.536 24.0685 14.4916 24.1031 14.4521 24.1327C14.4077 24.1673 14.3584 24.2068 14.314 24.2414C14.2647 24.2859 14.2153 24.3254 14.166 24.3699C14.1611 24.3748 14.1512 24.3798 14.1463 24.3896C14.1167 24.4144 14.0871 24.444 14.0575 24.4687C14.0525 24.4736 14.0427 24.4786 14.0377 24.4835C14.018 24.4984 13.9983 24.5181 13.9785 24.5329C13.9736 24.5329 13.9736 24.5379 13.9687 24.5379C13.944 24.5576 13.9193 24.5824 13.8897 24.6021C13.87 24.6169 13.8503 24.6318 13.8305 24.6466C13.8009 24.6713 13.7713 24.696 13.7417 24.7158C13.722 24.7306 13.7023 24.7454 13.6825 24.7602C13.6628 24.7751 13.6431 24.7899 13.6233 24.8047C13.5444 24.864 13.4655 24.9233 13.3964 24.9727C13.3915 24.9776 13.3865 24.9826 13.3816 24.9826C13.3717 24.9875 13.3619 24.9974 13.352 25.0024C13.3569 25.0024 13.3619 25.0024 13.3668 25.0073C13.4507 25.0271 13.5395 25.0468 13.6233 25.0518C13.8453 25.0765 14.0575 25.0567 14.2696 24.9727C14.2893 24.9628 14.3091 24.9579 14.3239 24.948C14.3239 24.948 14.3288 24.948 14.3288 24.9431C14.3485 24.9332 14.3683 24.9233 14.3929 24.9134C14.6199 24.7652 15.1231 24.4045 15.4684 24.0932C15.5079 24.0586 15.5523 24.0191 15.5967 23.9795C15.6657 23.9202 15.7446 23.856 15.8236 23.7967C15.8285 23.7918 15.8285 23.7918 15.8334 23.7868C15.8778 23.7522 15.9222 23.7226 15.9666 23.688C15.942 23.6831 15.9173 23.6732 15.8877 23.6682C15.8828 23.6682 15.8729 23.6633 15.863 23.6633C15.8384 23.6584 15.8186 23.6534 15.794 23.6534C15.7742 23.6485 15.7496 23.6485 15.7249 23.6485C15.7101 23.6485 15.6953 23.6435 15.6805 23.6435C15.6756 23.6435 15.6756 23.6435 15.6706 23.6435C15.646 23.6584 15.6016 23.6584 15.5572 23.6584ZM17.0816 23.6584C17.052 23.6584 17.0224 23.6633 16.9928 23.6633C16.9829 23.6633 16.973 23.6682 16.9632 23.6682C16.9434 23.6732 16.9237 23.6732 16.904 23.6781C16.8941 23.6781 16.8793 23.6831 16.8694 23.6831C16.8497 23.688 16.8349 23.6929 16.8152 23.6979C16.8004 23.7028 16.7905 23.7028 16.7757 23.7078C16.7609 23.7127 16.7412 23.7176 16.7264 23.7226C16.7165 23.7275 16.7017 23.7325 16.6918 23.7325C16.6721 23.7374 16.6573 23.7473 16.6376 23.7522C16.6277 23.7572 16.6129 23.7621 16.603 23.7671C16.5833 23.7769 16.5685 23.7819 16.5488 23.7918C16.5389 23.7967 16.5241 23.8016 16.5142 23.8066C16.4846 23.8214 16.46 23.8313 16.4304 23.8461C16.4205 23.8511 16.4106 23.856 16.4008 23.8609C16.381 23.8708 16.3613 23.8807 16.3465 23.8906C16.3366 23.8955 16.3218 23.9054 16.312 23.9104C16.2972 23.9202 16.2824 23.9301 16.2676 23.94C16.2528 23.9499 16.238 23.9598 16.2232 23.9696C16.2133 23.9746 16.2034 23.9845 16.1886 23.9894C16.1738 23.9993 16.159 24.0092 16.1442 24.0191C16.1344 24.024 16.1294 24.0289 16.1196 24.0339C16.0752 24.0635 16.0357 24.0981 15.9913 24.1278C15.942 24.1624 15.8976 24.2019 15.8532 24.2365C15.8038 24.2809 15.7545 24.3205 15.7052 24.3649C15.7002 24.3699 15.6904 24.3748 15.6854 24.3798C15.6805 24.3847 15.6805 24.3847 15.6756 24.3896C15.646 24.4144 15.6213 24.4391 15.5917 24.4638C15.5621 24.4885 15.5325 24.5132 15.5079 24.5379C15.4043 24.6219 15.3007 24.7059 15.1971 24.7849C15.1428 24.8245 15.0935 24.864 15.0441 24.8986C14.9948 24.9381 14.9455 24.9727 14.8961 25.0073C15.0787 25.0518 15.2563 25.0765 15.4289 25.0666C15.4487 25.0666 15.4733 25.0616 15.4931 25.0616C15.5128 25.0616 15.5374 25.0567 15.5572 25.0518C15.5621 25.0518 15.572 25.0468 15.5769 25.0468C15.5917 25.0419 15.6065 25.0419 15.6213 25.0369C15.6411 25.032 15.6657 25.0271 15.6854 25.0221C15.7052 25.0172 15.7249 25.0122 15.7496 25.0024C15.7693 24.9974 15.789 24.9875 15.8137 24.9776C15.8334 24.9678 15.8532 24.9579 15.8778 24.948C15.8976 24.9381 15.9173 24.9282 15.942 24.9184C15.9913 24.8887 16.0554 24.8393 16.1245 24.7948C16.1689 24.7652 16.2133 24.7355 16.2577 24.7009C16.386 24.6071 16.529 24.5033 16.6672 24.3946C16.7214 24.3452 16.7757 24.3007 16.8349 24.2513C16.8448 24.2414 16.8596 24.2315 16.8694 24.2216C16.9188 24.1821 16.9681 24.1376 17.0224 24.0981C17.0273 24.0981 17.0273 24.0932 17.0322 24.0932L17.0372 24.0882C17.0717 24.0586 17.1062 24.0289 17.1408 23.9993C17.1457 23.9944 17.1506 23.9944 17.1506 23.9894C17.1852 23.9598 17.2246 23.9301 17.2592 23.9005C17.2641 23.8955 17.269 23.8955 17.269 23.8906C17.3085 23.8609 17.348 23.8313 17.3874 23.8016C17.4318 23.7671 17.4762 23.7374 17.5256 23.7078C17.417 23.6831 17.2789 23.6584 17.0816 23.6584ZM18.2606 23.7424C18.2458 23.7424 18.231 23.7424 18.2162 23.7473C18.1521 23.7572 18.0682 23.7868 17.9597 23.8412C17.9104 23.8708 17.8462 23.9153 17.7772 23.9647C17.6193 24.0734 17.4269 24.2167 17.2345 24.3699C17.2345 24.3699 17.2296 24.3699 17.2296 24.3748C17.1753 24.4242 17.1161 24.4736 17.0569 24.5231C17.052 24.528 17.047 24.528 17.0421 24.5329C16.9829 24.5824 16.9237 24.6268 16.8645 24.6762C16.83 24.7059 16.7954 24.7355 16.756 24.7652C16.756 24.7652 16.751 24.7701 16.7461 24.7701C16.7116 24.7998 16.6721 24.8294 16.6376 24.8591C16.6277 24.864 16.6228 24.8689 16.6129 24.8788C16.5784 24.9035 16.5438 24.9282 16.5093 24.9529C16.4649 24.9826 16.4205 25.0172 16.3761 25.0468C16.4896 25.0765 16.6376 25.1061 16.8546 25.1061C17.1852 25.1061 17.5058 25.0715 18.0041 24.6911C18.1965 24.5478 18.3396 24.3847 18.4185 24.2464C18.4974 24.108 18.5122 23.9845 18.4826 23.8955C18.4629 23.8313 18.4234 23.7769 18.3544 23.7473C18.3445 23.7424 18.3297 23.7424 18.3149 23.7374C18.31 23.7374 18.305 23.7374 18.2952 23.7325C18.2902 23.7325 18.2902 23.7325 18.2853 23.7325C18.2853 23.7424 18.2754 23.7424 18.2606 23.7424ZM6.85981 25.2791C6.47502 25.4569 6.08035 25.452 5.70049 25.368V37.1824C6.06555 36.9007 6.45035 36.6388 6.85981 36.4165V25.2791ZM11.1616 36.6882C14.536 36.6932 17.5502 38.808 18.6997 41.9901C16.608 40.1767 13.9292 39.1736 11.1616 39.1736C8.38913 39.1786 5.71529 40.1816 3.62358 42C4.7681 38.8129 7.78233 36.6932 11.1616 36.6882Z" fill="#24B3AE"/>
</svg>
